<?xml version="1.0" encoding="utf-8"?>
<!-- Generator: Adobe Illustrator 21.1.0, SVG Export Plug-In . SVG Version: 6.00 Build 0)  -->
<svg version="1.1" id="Calque_1" xmlns="http://www.w3.org/2000/svg" xmlns:xlink="http://www.w3.org/1999/xlink" x="0px" y="0px"
	 viewBox="0 0 841.9 595.3" style="enable-background:new 0 0 841.9 595.3;" xml:space="preserve">
<style type="text/css">
	.st0{fill:#FFFFFF;}
</style>
<g>
	<path class="st0" d="M422.2,5.3C260,5.3,127.8,137,127.8,299.1c0,162.1,131.7,293.9,294.4,293.9C584.3,593,716,461.3,716,299.1
		C716,137,584.3,5.3,422.2,5.3L422.2,5.3z M422.2,551.9c-139.3,0-252.8-113.5-252.8-252.8c0-139.3,113.5-252.8,252.8-252.8
		S675,159.8,675,299.1C675,438.4,561.5,551.9,422.2,551.9L422.2,551.9z M422.2,551.9"/>
	<path class="st0" d="M557.4,275.8H442.9v-115c0-11.7-9.1-20.8-20.8-20.8c-11.6,0-20.8,9.1-20.8,20.8v114.5H286.9
		c-11.7,0-20.8,9.1-20.8,20.8c0,11.7,9.1,20.8,20.8,20.8h114.5v114.5c0,11.7,9.1,20.8,20.8,20.8c11.7,0,20.8-9.1,20.8-20.8V316.9
		h114.5c11.7,0,20.8-9.1,20.8-20.8C578.2,284.4,569.1,275.8,557.4,275.8L557.4,275.8z M557.4,275.8"/>
</g>
</svg>
