<?xml version="1.0" encoding="utf-8"?>
<!-- Generator: Adobe Illustrator 21.1.0, SVG Export Plug-In . SVG Version: 6.00 Build 0)  -->
<svg version="1.1" id="Calque_1" xmlns="http://www.w3.org/2000/svg" xmlns:xlink="http://www.w3.org/1999/xlink" x="0px" y="0px"
	 viewBox="0 0 283.5 283.5" style="enable-background:new 0 0 283.5 283.5;" xml:space="preserve">
<g>
	<path d="M256.3,167.7c-1.9-20.3-12.6-43-17.8-53.1c-2.5-6.9-5.3-7.9-5.9-8.1c0.5,0.2,2,1.4,2.7,10.1c0.8,11.3-6,12.2-6,12.2
		s-5.4,1.9-7.2-8.3c-1.8-10.1,8.7-15.1,8.7-15.1c-1.7-1.1-4.6,0-4.6,0s-10.8,3.7-12.7,13.5c-1.1,6.2,0,11,3.5,14
		c-1.1,1.2-3,2.3-5,0.4c-3.3-3.1,0-23.8,0-23.8s1-4.4-0.8-4.6c0,0-0.4-0.1-0.8-0.1c0,0-0.8,0.1-1.3,0.3c-4.1,1.6-8.4,6-8.4,6
		s0,0,0.1,0c-0.1,0.1-0.2,0.2-0.3,0.3c-0.1,0.1-0.2,0.2-0.3,0.2c-1.6-4.6-4.1-7-5.9-6.7l0,0c-1.3,0.3-2.5,1.1-3.5,2.1
		c-1,1-1.8,2.1-2.6,3.3c-1.4,2.3-2.2,5-3,7.5c-0.8,2.6-1.5,5.1-2.2,7.7c-0.4,1.3-0.7,2.5-1.2,3.8c0,0,0,0,0,0c-0.7,1.3-1.7,2.5-3,3
		c-3.8,1.5-10.2-10,5.6-24.6c0,0,0-0.1,0-0.1c-0.4,0.4-0.9,0.8-1.5,1.1c-0.8,0.4-1.7,0.5-2.6,0.5c-0.9-0.1-1.7-0.4-2.4-0.8
		c-0.7-0.4-1.3-1-1.9-1.5c-0.8-0.9-1.5-2-1.8-3.3c-0.9,0.6-2,2-2.9,5.1c0,0-6,14.4-0.2,22.8c-6,1.9-11.8-4.6-12.9-11.9
		c-0.3-2.1-0.2-4.6,0.1-7.2c5-1.6,9.7-3.8,11.5-6.8c0.4-3.2-2.8-4.1-2.8-4.1s-3.1,2.2-7.7,5c1.2-5.3,2.7-9.8,2.7-9.8s0.1-1,1.1-4.7
		s-2.6-5.5-6.8-5.1c-3.6,0.3-11.2,10.5-9.2,26.5c-1.7,0.8-3.4,1.7-5.1,2.4c0,0,2.2-0.3,5.3-0.8c0.4,2.2,0.9,4.5,1.7,6.9
		c1.2,3.7,2.7,6.5,4.3,8.6c-1.7,1.6-4.9,2.7-10.9-0.3c-5-3-6.4-9.7-6.4-16.1c1-1.5,1.9-3,2.8-4.5c1.4-2.4,2.8-4.9,4-7.4
		c1.2-2.5,2.4-5.1,3.5-7.7c1-2.6,2-5.2,2.7-8c0.8-2.7,1.3-5.5,1.6-8.3c0-0.4,0.1-0.8,0.1-1.2c0,0,0,0,0,0c0,0,0-0.1,0-0.1
		c0.1-2,0-4.1-0.5-6.1c-1.8-7.6-7.6-7.7-7.6-7.7s-12.3-2.3-13.2,17.4c-0.4,7-1.5,13.4-0.9,24.2c0.9,5.6,1.2,10.5,2.1,14.8
		c-0.7,1-1.4,2-2.2,3c-0.8,1.1-1.7,2.2-2.6,3.2c-0.5,0.5-0.9,1-1.5,1.5c0,0-0.1,0.1-0.1,0.1c-6.7,3-12.1,1.9-12.1,1.9
		s-2.5-0.9-4.1-4c0.7-0.1,1.5-0.3,2.3-0.4c3.3-1.2,7.2-3,12.3-8.7c0,0,0,0,0,0c1.5-1.6,2.7-3.8,3.2-6.8c1.8-10.9-7.5-14-15.6-7.9
		c-5.5,4.1-8.2,8.9-7.6,18.9c-0.4-0.2-0.6-0.4-0.9-0.7c-0.7-0.7-1.3-1.7-1.5-2.1c-2.8-5.9-3.6-10.1-4.1-13.6c0,0-1.1-6.4-0.4-16.3
		c0,0,0,0,0-0.1c0-0.4,0.5-4.2-0.7-6.8c0,0,0,0,0,0c0,0-0.1-0.1-0.1-0.1c-0.3-0.5-0.6-1-1.1-1.3c0,0,0,0,0,0c-7-7.8-13,2.8-13,2.8
		s-9.6,18.4-5.9,40.3c0.8,4.7,1.2,6.2,1.4,6.6c-1.9-1.1-5.9-4.5-11.3-13.9c1.1-10.1,0.4-21.5-3.4-32.8c-1.2-3.9-2.9-5.3-4-5.9
		c0.1,0,0.1,0,0.2,0c0,0-0.1,0-0.2,0c-0.7-0.3-1.2-0.3-1.2-0.3s-1.2,0-2,0.4c0,0-0.1,0-0.1,0c-8,3.3-8,15.4-1,30.9
		c0.4,0.9,0.8,1.7,1.2,2.5c-0.4,1.8-0.8,3.6-1.3,5.3c-2.1,8-5.2,29.7-9.9,32.6c-0.1,0.1-0.2,0.1-0.3,0.1c-4.5-5.5-8.2-11.2-9.1-12
		c-1.7-1.4-2.3-0.6-2.6-0.5c0,0,0,0,0,0c-5.3,3.2-1.9,11-1.9,11s2.6,4.9,10.6,4.7c0.8,1.6,1.8,3.4,2.8,5.3c0.9,1.7,2,3.1,3.4,4.4
		c-1.3,3.7-2,6.8-2.2,8.4c-0.7,4.3-3.6,37.3,21.3,46c0,0,24.6,7.1,33.4-19.2c0.1-0.4,0.1-0.9,0.2-1.3c0.8,1.4,1.8,2.7,2.9,3.9
		c0.6,0.7,1.3,1.3,2.1,1.9c0.7,0.6,1.6,1.1,2.4,1.6c0.9,0.4,1.8,0.8,2.8,1.1c1,0.3,2,0.4,3,0.5c2,0.1,4.1-0.3,5.8-1.1
		c0.9-0.4,1.7-0.9,2.4-1.5c0.7-0.6,1.3-1.2,1.9-1.8c0.5-0.7,1-1.3,1.4-2.1c0.4-0.7,0.7-1.4,1-2.2c0.2-0.6,0.4-1.1,0.5-1.7
		c0.1-0.2,0.1-0.4,0.2-0.6c0,0,0,0,0,0c2,0.6,4,0.9,6,1.2c0.3,1.2,0.8,2.4,1.4,3.5c1.1,2.1,2.9,3.8,4.9,5c0.6,0.4,1.3,0.6,1.9,0.9
		c2.6,1,5.9,1.4,10.3,0.7c7-1.1,15.4-5.9,20.2-9c0.1,2.1,0.2,3,0.2,3s-0.2,2.6,6.7,6.4c7,3.8,12,8.7,12,8.7s-7.7-11.8-9.3-26
		c0.4-0.4,0.7-0.9,1-1.3c0.1-0.2,0.2-0.3,0.3-0.5c0.2-0.2,0.4-0.4,0.6-0.6c1.3-1.3,2.5-2.7,3.6-4.1c1.1-1.5,2.1-3,3.4-4.3
		c1.2-1.3,2.7-2.5,4.1-3.7c1.4-1.2,2.7-2.4,4.1-3.6c0.3-0.2,0.5-0.5,0.8-0.7c0,0,0,0,0,0c1.1-1,1.2-0.3,1.1,0.4
		c-0.1,0.3-0.1,0.6-0.2,0.9l0,0c-0.5,1.7-1.5,4.1-3.7,7.2c-2.2,3.1-8.4,10.9-8.4,10.9s1.5-0.3,3.6,1.1s3.1,6.2,3.1,6.2
		s1.9,11,8.5,15c6.5,4,12.3,2.9,12.3,2.9C237.5,213.2,258.8,194.9,256.3,167.7z M137.7,99.7c0,0,3.9-20.1,10.1-22.7
		c0.1,0,0.2-0.1,0.3-0.1c0,0,0,0,0,0c0.9-0.3,1.8-0.1,1.5,2c-0.1,0.4-0.2,0.8-0.3,1.3c-0.1,0.5-0.2,0.8-0.3,1.1
		c-0.4,1.7-0.9,3.3-1.4,4.9c-0.9,2.6-1.9,5.2-3,7.7c-1.1,2.5-2.3,5-3.5,7.5c-1.2,2.5-2.5,4.9-3.9,7.3c-0.4,0.7-0.8,1.5-1.2,2.2
		C136.4,104.7,137.7,99.7,137.7,99.7z M112.5,105.5c0.9-0.2,2-0.1,2.7,0.7c1.1,1.2,1.6,7,0.2,9.4c-1.5,2.7-4.5,4.1-6.1,4.7
		c-1.2,0.4-1.8,0.6-2.5,0.8c0-0.5-0.1-1-0.1-1.5C106.8,112.4,108.7,106.4,112.5,105.5z M55.6,77.7c1.1,0.8,2.4,2.9,2.3,8.3
		c0,1.8-0.4,6.4-1.2,12.2C51.5,84.7,53.5,79.6,55.6,77.7z M30.9,144.9c-1.2-1.9-1.7-4.9-0.5-7.4c2.2-0.5,4.4,3.3,8.7,11.6
		C35.5,148.9,32,146.6,30.9,144.9z M125.7,188.1c-0.1,0.7-0.2,1.5-0.3,2.2c-1.9-1.2-3.7-2.9-4.8-5.4c-2.5-5.3-2.3-12.4,1.4-14.7
		c0,0,0,0,0,0c1.2-0.6,3.2,5.9,3.4,6.4c0.1,0.7,0.3,1.4,0.4,2.1C126.1,181.8,126,185,125.7,188.1z M143,201c-4.7-0.8-7-4-8.1-6.6
		c4.7-0.2,12-3.4,14-4.3C148.8,191.4,147.7,198.6,143,201z M149.2,175.6c-1.1,6.5-4.5,13.1-10.7,16.1c-1.4,0.5-2.9,0.9-4.1,1.1
		c-0.3-1.1-0.4-1.9-0.4-2c-0.1-2,0.2-4.1,0.6-6.2c0.6-2.9,1.7-5.7,3.2-8.3c0.6-0.9,5.3-8.1,9.5-7.2c2,0.2,2.2,2.6,2.2,4.1
		C149.4,173.9,149.3,174.7,149.2,175.6z M182,178.9c-0.8,1.7-1.5,3.5-2.4,5.2c-0.2-4.6,0.3-9.4,2-14.1c4-11.3,6.8-16.8,8.7-19.6
		c0-0.1,0.7-1,1.3-1.7c0.2-0.3,0.4-0.5,0.6-0.6c0.1-0.1,0.2,0.3,0.2,0.8c-0.1,0.9-0.2,1.8-0.3,2.7c0,0,0,0,0,0c-0.2,1-0.4,2-0.6,3.1
		c-0.5,2.1-1.1,4.2-1.7,6.3c-0.7,2.1-1.4,4.1-2.2,6.2c-0.8,2-1.8,4-2.7,6C183.8,175,182.8,176.9,182,178.9z M238.5,189.1
		c-1.2,2.9-14.3,21.5-21.6,19.9c-7.3-1.6-13-20.8-15.7-24.4c-1.3-1.7-2.8-2.2-4-2.3c5.5-5.5,8.2-13.3,9-16c0.1-0.3,0.2-0.6,0.3-1
		c0.1-0.5,0.1-1.1-0.2-1.7c-0.2-0.3-0.5-0.6-0.9-0.7c-0.3-0.1-0.6-0.1-0.9-0.1c-0.6,0-1.1,0.1-1.5,0.3c-1,0.3-1.8,0.7-2.7,1.2
		c-1.7,1-3.1,2.1-4.5,3.4c-1.3,1.3-2.6,2.6-3.8,4c-1.2,1.4-2.3,2.9-3.5,4.2c-1.1,1.2-2.3,2.3-3.5,3.3c1.9-3.7,3.2-7.6,4.6-11.5
		c1.4-4.2,2.6-8.6,3.3-13c0.3-2.2,0.5-4.4,0.5-6.7c0-1.6,0.1-2.4,0.2-3.1c0.1-2.5-0.6-6.2-3.6-7.3c-4.6-1.7-7.2,0-7.2,0
		s-6.2,3.8-10.3,31.2c-1.7,11.7-2.1,19.3-2.2,23.8c-3,1.6-7.8,4.1-14,6.1l0.4-0.4c0,0,5.7-9.2,5.1-17.9c-0.5-6.8-2.5-15.7-11.9-15.7
		c-1.5,0.2-2.5,0.4-3.2,0.6l0,0c0,0-0.1,0-0.1,0c-0.3,0.1-0.6,0.2-0.8,0.3c-1.2,0.5-3.4,1.8-6.2,4.5c-0.6,0.5-1.2,1.1-1.7,1.7
		c-1.2,1.3-2.3,2.8-3.3,4.3c0,0,0,0,0,0c0,0,0,0,0,0c-1.4,2.4-2.4,5-3,7.7c-0.1,0.6-0.2,1.1-0.3,1.7c-0.1,0.6-0.2,1.1-0.2,1.7
		c-0.1,1.1-0.1,2.3,0,3.5c0,0.6,0.1,1.1,0.2,1.7c-1.6-0.3-3.4-0.9-5.1-1.8c0.2-0.8,0.4-1.6,0.5-2.5c0.5-3.2,0.8-6.4,0.6-9.7
		c-0.1-1.6-0.3-3.3-0.7-4.9c-0.4-1.6-1-3.2-1.8-4.6c-0.8-1.5-1.9-2.8-3-3.9c-1.2-1.2-2.6-2.1-4-2.8c0,0-6.1,4.5-6.3,10.9
		s1.7,10.3,6.2,15c2,2.1,4.4,3.5,6.9,4.4c-0.9,1.3-2.4,3-4.2,4.2c-1,0.8-2.2,1.4-3.4,1.8c-1.2,0.4-2.5,0.4-3.7,0.3
		c-0.6-0.1-1.2-0.3-1.8-0.5c-0.6-0.2-1.2-0.5-1.7-0.8c-1.1-0.7-2.1-1.5-2.9-2.5c-1.7-2-2.9-4.3-3.7-6.8c-0.8-2.5-1.2-5.1-1.2-7.7
		c0-2.6,0.5-5.2,1.6-7.6c1.1-2.4,2.6-4.5,4.6-6.2c2.6-2.8,7-3.7,7-3.7c-0.7-0.3-1.5-0.4-2.2-0.5c-0.8,0-1.6,0-2.3,0.1
		c-1.6,0.2-3.1,0.7-4.5,1.5c-2.9,1.5-5.3,3.9-7.1,6.7c-0.2,0.4-0.4,0.7-0.6,1.1c-0.2,0.4-0.4,0.8-0.6,1.1c-0.3,0.8-0.7,1.6-0.9,2.4
		c-0.3,0.8-0.5,1.7-0.6,2.5c-0.1,0.4-0.1,0.9-0.2,1.3c0,0.4-0.1,0.9-0.1,1.3c0,0.8-0.1,1.6-0.1,2.4c0,0.1,0,0.2,0,0.3
		c-3.7-1.7-9,0.8-9,0.8s7-2.1,9.1,1.2c0,0,0,0.1,0,0.1c0.1,1,0.3,2.1,0.5,3.1c-0.1,0.6-0.2,1.3-0.5,2.1c-3.7,9.5-9.8,17.6-18.6,20.4
		c-1.8,0.5-3.8,0.8-5.9,1c-8.6,0.2-12.5-7-13.9-10.3c-5.1-13.8-3.8-27.3-3.8-27.3s0.3-3.6,1.2-8.5c10.4,3.4,23.8,2.3,29.2,1.4
		c8.1-1.3,25.9-13.5,24.3-27c-4.2-15.4-26.6-9.9-27.5-9.6c-6.8,1.7-14.5,4.1-21,9.5c-4.9,4.1-8.4,9.5-10.9,14.6
		c-1.3-1.2-2.6-2.5-3.8-3.9c0.3-0.1,0.6-0.1,0.9-0.2c7.3-2,14.8-13.6,17.8-29.1c5,4.3,10,6.8,12.3,7.9c0.1,0.2,0.1,0.2,0.1,0.2
		s0-0.1,0-0.1c0.3-1.9,4-26.3,9.1-30.4c-0.6,2.6,6.1,20.8,10.2,24c0,0,2.3,2.6,8.2,2.7c2.6,6,7.4,7.2,7.4,7.2s9.1,1.8,14.8-6.4
		c1-0.9,2-2.2,3-3.3c0.6-0.7,1.2-1.4,1.8-2.1c1,3.9,2.6,7.5,5.9,10.9c6.5,6.7,14.4,3.7,17.5-0.4c7.2,7.6,16.4,2.5,16.4,2.5
		s0.7-0.5,1.5-1.2c1.2,1.3,2.8,2.4,4.8,3.2c3.8,0,5.4-4.7,6-8.2c0.3-0.7,0.5-1.3,0.8-2c0.9-2.5,1.7-5,2.7-7.5c0.5-1.2,1-2.4,1.6-3.6
		c0.6-1.2,1.1-2.4,1.7-3.6c0,0,0,0,0,0c0.3-0.4,1-1.2,1.9-1.9c0.7,1.9,1.9,5.4,2.1,9.3c-2,2.5-3.8,5.1-5.4,7.9
		c-0.7,1.4-1.4,2.9-1.7,4.5c-0.1,0.5-0.2,0.9-0.2,1.4l0,0l0,0c0,0.3,0,0.7,0.1,1c0,0,0,0,0,0.1c0.3,3.7,7.2,2.3,7.2,2.3
		s8-2.7,7.8-14c0-3.1-0.4-5.8-1-8.1l0.9-0.9c1.3-1.2,2.5-2.4,3.8-3.6c0.3,1.1-0.2,4.3-1.4,8.4c-1.5,5-1.4,13.3,0.7,16
		c2.1,2.7,7.9,2.9,10.3,1.9c1.2-0.5,1.9-1.4,2.3-2.2c2,1.5,4.7,2.5,8.1,2.8c7.3,0.6,13.3-3,14.6-9.6c4.7,8.4,4.6,12.3,5.8,26.7
		C247.2,167,241.4,182.4,238.5,189.1z M56.6,159.1c1.8-6.2,4.7-12.9,9.2-16.6c15-11.8,26.5-9.8,27.2-9.4c6.3,3-4.4,16.4-6.4,17.9
		C81.1,157.1,65.5,161.3,56.6,159.1z M193.9,120.6c-0.1,3.8-1.4,7.8-4.8,10.7c-1.2,0.1-0.8-1.2-0.3-2c0,0,0,0,0,0l3-5.4l0,0
		C192.4,122.7,193.8,120.7,193.9,120.6z"/>
	<path d="M232.5,106.5c-0.1,0-0.1,0-0.1,0S232.5,106.5,232.5,106.5z"/>
	<path d="M177,104.9c0.5,0.5,1,1,1.6,1.3c0.6,0.4,1.3,0.6,2.1,0.7c0.7,0.1,1.5-0.1,2.2-0.4c0.7-0.3,1.3-0.8,1.7-1.4
		c0.4-0.6,0.7-1.3,0.9-1.9c0.2-0.7,0.2-1.3,0.3-2c0-0.7-0.1-1.3-0.2-2c-0.2-0.7-0.4-1.3-0.9-1.9c-0.4-0.6-1-1.1-1.7-1.5
		c-0.7-0.3-1.5-0.5-2.2-0.5c-1.6,0-3.1,0.7-4.1,1.8c-0.5,0.6-0.9,1.2-1.1,1.9c-0.2,0.7-0.3,1.5-0.2,2.2
		C175.4,102.6,176.1,103.9,177,104.9z"/>
</g>
</svg>
