<?xml version="1.0" encoding="utf-8"?>
<!-- Generator: Adobe Illustrator 21.1.0, SVG Export Plug-In . SVG Version: 6.00 Build 0)  -->
<svg version="1.1" id="Calque_2" xmlns="http://www.w3.org/2000/svg" xmlns:xlink="http://www.w3.org/1999/xlink" x="0px" y="0px"
	 viewBox="0 0 100 100" style="enable-background:new 0 0 100 100;" xml:space="preserve">
<style type="text/css">
	.st0{fill:#FFFFFF;}
</style>
<path class="st0" d="M95.7,38.6c-0.1-0.5-0.3-1.1-0.4-1.6c0,0.1,0.1,0.2,0.1,0.3c-0.3-0.9-0.5-1.9-0.8-2.8c-0.1-0.5-0.3-0.9-0.5-1.4
	l-0.3-0.6c-0.2-0.6-0.5-1.2-0.8-1.9c-0.1-0.1-0.1-0.2-0.2-0.4c-0.4-0.8-0.8-1.6-1.3-2.4c-0.3-0.5-0.6-1-0.8-1.5c0,0,0,0,0,0L90.5,26
	c-0.3-0.4-0.6-0.8-0.9-1.3c-0.6-0.8-1.2-1.7-1.9-2.5c-0.2-0.2-0.4-0.4-0.6-0.6c-0.8-0.9-1.6-1.8-2.5-2.6c-0.1-0.1-0.2-0.2-0.4-0.4
	c-0.4-0.3-0.7-0.7-1.1-1c-0.4-0.4-0.8-0.7-1.2-1.1l-0.4-0.3L81,15.7c-0.9-0.7-1.8-1.3-2.7-2c-0.1-0.1-0.2-0.1-0.3-0.2
	c0,0-0.1-0.1-0.1-0.1c-0.1-0.1-0.2-0.1-0.4-0.2c-0.6-0.4-1.3-0.7-1.9-1.1l-1.4-0.8l-1.4-0.7C69,8.9,64.9,7.8,60.9,7
	c-1.2-0.2-2.3-0.3-3.5-0.5C50.3,5.8,43,7,36.4,9.6c-0.1,0-0.1,0-0.2,0.1c0,0,0,0,0,0c-0.4,0.2-0.9,0.3-1.3,0.5l-0.6,0.3
	c-1,0.4-1.9,0.9-2.8,1.4L31.2,12c-0.2,0.1-0.4,0.2-0.6,0.3c-0.8,0.5-1.6,1-2.4,1.5c-0.3,0.2-0.6,0.4-1,0.6c-0.9,0.6-1.7,1.2-2.5,1.9
	l-0.3,0.2c-0.6,0.4-1,0.9-1.5,1.3c-0.1,0.1-0.2,0.2-0.3,0.3c-0.1,0.1-0.1,0.1-0.2,0.2c-0.7,0.6-1.4,1.2-2,1.9l-1.2,1.4
	c0,0-0.1,0.1-0.1,0.1c-1.2,1.3-2.2,2.8-3.3,4.2c-0.6,0.7-1,1.5-1.4,2.2c-0.5,0.8-0.9,1.5-1.4,2.3l-1.2,2.4L11.2,34l-0.5,1.2
	l-0.9,2.5c-0.3,0.8-0.5,1.7-0.7,2.6c-0.2,0.9-0.5,1.7-0.7,2.6L8,45.5l-0.2,1.3c-0.1,0.4-0.1,0.8-0.1,1.3c-0.1,0.9-0.2,1.9-0.2,2.8
	c0,0.5,0,1,0,1.6c0,1.1,0,2.3,0.1,3.4l0,0.2l0.1,0.5c0.1,1.1,0.2,2.1,0.4,3.2c0.1,0.4,0.1,0.9,0.2,1.3c0,0,0,0,0,0
	c1.1,5.3,3.2,10.2,6.2,14.5c0.1,0.2,0.3,0.4,0.4,0.6c0.2,0.3,0.4,0.6,0.7,0.9c0,0,0,0,0,0c0.7,0.9,1.4,1.8,2.1,2.6
	c2.6,2.9,5.6,5.4,8.9,7.5c0.2,0.2,0.5,0.3,0.7,0.5c0.6,0.4,1.2,0.7,1.9,1.1c0.3,0.2,0.7,0.4,1,0.5c0.6,0.3,1.1,0.6,1.7,0.9
	c0.3,0.1,0.7,0.3,1,0.4c0.5,0.2,1.1,0.5,1.6,0.7c0.4,0.2,0.8,0.3,1.1,0.5c0.5,0.2,1.1,0.4,1.6,0.6c0.1,0,0.2,0.1,0.3,0.1
	c0.9,0.3,1.8,0.6,2.6,0.9c0,0,0,0,0,0c2.7,0.9,5.3,1.5,8,2c0.2,0,0.4,0.1,0.6,0.1c1,0.1,2,0.3,3.1,0.4c0.1,0,0.3,0,0.4,0
	c1.6,0.1,3.3,0.1,5,0.1c5.2-0.2,10.2-1.7,14.7-3.9c4.4-2.3,8.4-5.3,11.6-8.9c0.5-0.5,0.9-1.1,1.4-1.7c0.3-0.3,0.5-0.7,0.8-1
	c0.1-0.1,0.1-0.2,0.2-0.3c1.8-2.4,3.3-5,4.5-7.7c0.5-1,0.9-2,1.2-3c0.1-0.2,0.1-0.3,0.2-0.5c0.1-0.2,0.2-0.5,0.3-0.7
	c1.3-3.8,2.2-7.7,2.4-11.8c0.1-3.3-0.8-4.8-1.5-5.2c0.2-0.5,0.3-0.9,0.5-1.4l0-0.2c0.2-0.4,0.3-0.8,0.5-1.2c0,0.1,0,0.2,0,0.2
	l0.1-0.2c0.2-0.5,0.4-0.9,0.5-1.3c0-0.1,0-0.2,0-0.2c0.2-0.5,0.3-1,0.5-1.5c0.1-0.3,0.1-0.5,0.2-0.8c0,0.1,0,0.1,0,0.2
	c0.2-0.6,0.3-1.1,0.4-1.7c0-0.1,0-0.2,0-0.3c0-0.1,0-0.3,0.1-0.4C95.9,41.1,95.9,39.9,95.7,38.6z M92.2,51.8c0,0.2,0,0.4,0,0.6
	c0,2.7-0.3,5.3-0.8,7.9c0,0.2-0.1,0.3-0.1,0.5c-0.1,0.5-0.2,0.9-0.3,1.4c-0.3,1-0.6,1.9-0.9,2.9c-0.1,0.3-0.2,0.6-0.3,0.9
	c0,0.1-0.1,0.2-0.1,0.3c-0.3,0.8-0.6,1.6-1,2.3c-0.1,0.1-0.1,0.3-0.2,0.4c-0.3,0.6-0.6,1.3-0.9,1.9c-1.1,2.1-2.4,4.1-3.9,5.9
	c-0.4,0.5-0.9,1.1-1.3,1.6c-0.2,0.2-0.4,0.4-0.6,0.7c-0.4,0.4-0.7,0.8-1.1,1.1c-0.3,0.3-0.7,0.7-1,1c0,0-0.1,0-0.1,0.1
	c-1.4,1.3-3,2.5-4.6,3.6c-0.4,0.2-0.7,0.5-1.1,0.7c-0.3,0.2-0.5,0.3-0.8,0.5c-0.7,0.4-1.4,0.8-2.1,1.1c-0.4,0.2-0.7,0.4-1.1,0.5
	c-0.2,0.1-0.4,0.2-0.6,0.3c-1.2,0.5-2.3,1-3.5,1.4c-0.4,0.1-0.8,0.3-1.2,0.4c-0.6,0.2-1.2,0.3-1.8,0.5c-0.2,0-0.3,0.1-0.5,0.1
	c-0.9,0.2-1.7,0.4-2.6,0.5c-3.3,0.6-6.7,0.7-10,0.5l0,0c-0.6,0-1.2,0-1.7-0.1L45,90.8c-3.8-0.8-7.6-2-11.1-3.8c-1.7-0.9-3.4-1.9-5-3
	c-0.1-0.1-0.2-0.2-0.3-0.3c-0.6-0.4-1.2-0.9-1.8-1.4c-0.9-0.7-1.7-1.5-2.6-2.3c-0.1-0.1-0.2-0.2-0.3-0.3c-1.9-1.9-3.6-4-5.1-6.2
	c-0.1-0.1-0.2-0.3-0.3-0.4c-0.1-0.2-0.2-0.4-0.4-0.6c-1.1-1.8-2-3.6-2.9-5.5c-0.1-0.2-0.1-0.4-0.2-0.5c-0.2-0.5-0.4-1-0.6-1.5
	c-0.1-0.1-0.1-0.3-0.2-0.4c-0.6-1.6-1-3.3-1.4-5c-0.6-3.5-1-7.1-0.7-10.7l0.1-1c0-0.3,0.1-0.6,0.1-0.9c0,0,0-0.1,0-0.2c0,0,0,0,0,0
	c0-0.2,0.1-0.5,0.1-0.7l0.3-1.9c0.1-0.5,0.2-1.1,0.3-1.6c0-0.2,0.1-0.3,0.1-0.5c0.1-0.5,0.3-1,0.4-1.4l0.1-0.3
	c1.1-3.5,2.7-6.8,4.7-9.8c0.8-1.1,1.6-2.2,2.4-3.3c0.2-0.2,0.3-0.4,0.5-0.6c0.2-0.3,0.5-0.6,0.7-0.8c0.2-0.3,0.5-0.5,0.7-0.8
	c0.1-0.1,0.3-0.3,0.4-0.4c1.5-1.5,3.1-2.8,4.7-4.1c0.1-0.1,0.2-0.1,0.3-0.2c0.4-0.3,0.7-0.5,1.1-0.8c0.5-0.3,1-0.6,1.5-0.9l1.9-1
	l0.3-0.2c0.6-0.3,1.2-0.6,1.9-0.9l0.5-0.2l1.4-0.6c0.5-0.2,1-0.4,1.5-0.5c0.8-0.3,1.6-0.5,2.4-0.8c0.3-0.1,0.7-0.2,1-0.3
	c0.8-0.2,1.6-0.3,2.4-0.5c4-0.7,8.1-0.9,12.1-0.5c4,0.5,8,1.5,11.7,3.1c3.7,1.6,7.1,3.8,10.1,6.4c3.8,3.1,7.2,6.9,9.8,11.4
	c0.3,0.5,0.5,0.9,0.7,1.4c0.1,0.3,0.3,0.6,0.4,0.9c0.1,0.3,0.3,0.6,0.4,0.8c0.1,0.3,0.3,0.6,0.4,0.9c0.1,0.3,0.2,0.6,0.3,0.9
	c0.1,0.3,0.2,0.6,0.3,0.9c0.1,0.3,0.2,0.6,0.3,0.9c0.1,0.3,0.2,0.6,0.3,0.9c0.1,0.3,0.2,0.7,0.3,1c0.1,0.3,0.1,0.6,0.2,0.9
	c0.1,0.4,0.1,0.7,0.2,1.1c0.1,0.3,0.1,0.6,0.2,0.9c0.1,0.4,0.1,0.8,0.2,1.2c0,0.3,0.1,0.5,0.1,0.8c0,0.5,0.1,1,0.1,1.5
	c0,0.2,0,0.4,0,0.7c0,0.6,0.2,0.9,0.4,1.2c-0.1,0.1-0.2,0.2-0.2,0.5C92.2,51.7,92.2,51.7,92.2,51.8C92.2,51.8,92.2,51.8,92.2,51.8z"
	/>
<g>
	<path class="st0" d="M80.5,49H57.1V25.5c0-2.4-1.9-4.2-4.2-4.2c-2.4,0-4.2,1.9-4.2,4.2v23.4H25.2c-2.4,0-4.2,1.9-4.2,4.2
		c0,2.4,1.9,4.2,4.2,4.2h23.4v23.4c0,2.4,1.9,4.2,4.2,4.2c2.4,0,4.2-1.9,4.2-4.2V57.4h23.4c2.4,0,4.2-1.9,4.2-4.2
		C84.8,50.7,82.9,49,80.5,49L80.5,49z M80.5,49"/>
	<g>
		<path class="st0" d="M80.5,49c-1.9,0-3.9,0-5.8,0.1c-1.9,0-3.9,0.1-5.8,0.2l-11.7,0.5l-0.7,0l0-0.8c-0.1-2.5-0.2-5-0.3-7.5l0-7.5
			v-7.5l0-0.9c0-0.2,0-0.5-0.1-0.7c-0.1-0.5-0.3-0.9-0.6-1.3c-0.6-0.8-1.5-1.2-2.5-1.2c-1,0-1.9,0.4-2.5,1.1
			c-0.3,0.4-0.5,0.8-0.6,1.3c-0.1,0.2-0.1,0.5-0.1,0.7c0,0.3,0,0.6,0,0.9v7.5v15.1v1h-1h-15h-7.5l-0.9,0c-0.2,0-0.5,0-0.7,0.1
			c-0.5,0.1-0.9,0.3-1.3,0.6c-0.7,0.6-1.2,1.5-1.2,2.5c0,1,0.4,1.9,1.2,2.5c0.4,0.3,0.8,0.5,1.3,0.6c0.2,0.1,0.5,0.1,0.7,0.1l0.9,0
			h7.5h15h1v1v15v7.5l0,0.9c0,0.2,0,0.5,0.1,0.7c0.1,0.5,0.3,0.9,0.6,1.3c0.6,0.7,1.5,1.2,2.5,1.2c1,0,1.9-0.4,2.5-1.2
			c0.3-0.4,0.5-0.8,0.6-1.3c0.1-0.2,0.1-0.5,0.1-0.7l0-0.9v-7.5v-15v-1l1,0c3.1,0,6.1-0.1,9.2,0.1c3.1,0.1,6.1,0.2,9.2,0.4l4.6,0.2
			c0.8,0,1.5,0,2.1-0.3c0.7-0.3,1.3-0.7,1.7-1.3c0.9-1.2,1-2.9,0.3-4.3C83.6,49.8,82.1,49,80.5,49z M80.5,49c1.5,0,3.1,0.8,3.8,2.2
			c0.8,1.4,0.7,3.1-0.2,4.5c-0.8,1.4-2.5,2.1-4.1,2.1l-4.6,0.2c-3.1,0.2-6.1,0.3-9.2,0.4c-3.1,0.2-6.1,0.1-9.2,0.1l1-1v15v7.5l0,1
			c0,0.4-0.1,0.8-0.1,1.1c-0.2,0.8-0.5,1.5-1,2.1c-1,1.2-2.5,1.9-4.1,1.9c-1.5,0-3.1-0.7-4.1-1.9c-0.5-0.6-0.8-1.3-1-2.1
			c-0.1-0.4-0.1-0.8-0.1-1.1l0-1v-7.5v-15l1,1h-15h-7.5l-1,0c-0.4,0-0.8-0.1-1.1-0.1c-0.8-0.2-1.5-0.5-2.1-1c-1.2-1-1.9-2.5-1.9-4.1
			c0-1.5,0.7-3.1,1.9-4.1c0.6-0.5,1.3-0.8,2.1-1c0.4-0.1,0.8-0.1,1.1-0.1l1,0h7.5h15l-1,1V33.8v-7.5c0-0.3,0-0.6,0-1
			c0-0.4,0.1-0.8,0.2-1.1c0.2-0.8,0.5-1.5,1-2.1c1-1.2,2.6-1.9,4.1-1.9c1.5,0,3.1,0.7,4.1,2c0.5,0.6,0.8,1.3,1,2.1
			c0.1,0.4,0.1,0.8,0.1,1.1l0,1v7.5l0,7.5c0,2.5-0.2,5-0.3,7.5l-0.8-0.8l11.7,0.5c1.9,0.1,3.9,0.1,5.8,0.2
			C76.6,49,78.6,48.9,80.5,49z"/>
	</g>
</g>
</svg>
