<?xml version="1.0" encoding="iso-8859-1"?>
<!-- Generator: Adobe Illustrator 21.1.0, SVG Export Plug-In . SVG Version: 6.00 Build 0)  -->
<svg version="1.1" id="Layer_1" xmlns="http://www.w3.org/2000/svg" xmlns:xlink="http://www.w3.org/1999/xlink" x="0px" y="0px"
	 viewBox="-49 141 512 512" style="enable-background:new -49 141 512 512;" xml:space="preserve">
<g>
	<path style="fill:#DED479;" d="M100.333,386.333c0-5.896-4.771-10.667-10.667-10.667S79,380.438,79,386.333
		c0,28.01,30.896,66.469,34.417,70.771c2.115,2.563,5.177,3.896,8.26,3.896c2.375,0,4.771-0.792,6.76-2.417
		c4.552-3.74,5.208-10.458,1.479-15.021C118.479,429.625,100.333,401.771,100.333,386.333z"/>
	<path style="fill:#DED479;" d="M324.333,375.667c-5.896,0-10.667,4.771-10.667,10.667c0,15.385-18.146,43.271-29.583,57.24
		c-3.729,4.552-3.063,11.271,1.49,15.01c1.979,1.625,4.375,2.417,6.76,2.417c3.083,0,6.135-1.333,8.25-3.896
		c3.521-4.302,34.417-42.76,34.417-70.771C335,380.438,330.229,375.667,324.333,375.667z"/>
	<path style="fill:#DED479;" d="M324.333,205c-6.464,0-13.219,0.855-20.234,2.158c-23.492-27.385-58.27-44.824-97.099-44.824
		s-73.607,17.439-97.099,44.824C102.885,205.855,96.13,205,89.667,205c-64.698,0-117.333,52.635-117.333,117.333
		c0,44.333,25,84.635,64.25,104.563l-0.208,161.198c-0.01,11.635,4.51,22.573,12.729,30.802c8.229,8.24,19.156,12.771,30.792,12.771
		h254.25c24,0,43.521-19.521,43.521-43.521V426.74c39.104-19.979,64-60.219,64-104.406C441.667,257.635,389.031,205,324.333,205z
		 M334.146,610.333H79.896c-5.927,0-11.5-2.313-15.698-6.51c-4.188-4.198-6.5-9.771-6.49-15.708l0.055-41.781h298.57v41.813
		C356.333,600.375,346.375,610.333,334.146,610.333z M362.938,410.135c-0.563,0.229-1.094,0.5-1.594,0.823
		c-1.344,0.833-2.448,1.938-3.271,3.208c-0.833,1.26-1.396,2.719-1.625,4.281c-0.094,0.594-0.125,1.188-0.115,1.792V525H57.79
		l0.137-104.615c0.01-0.583-0.021-1.177-0.104-1.75c-0.229-1.615-0.823-3.115-1.688-4.417c-0.813-1.219-1.875-2.281-3.167-3.094
		c-0.531-0.333-1.094-0.625-1.677-0.865c-35.01-15.313-57.625-49.792-57.625-87.927c0-52.938,43.063-96,96-96
		c2.069,0,4.253,0.25,6.396,0.419C85.271,245.509,79,267.182,79,290.333C79,296.229,83.771,301,89.667,301
		s10.667-4.771,10.667-10.667c0-58.813,47.854-106.667,106.667-106.667s106.667,47.854,106.667,106.667
		c0,5.896,4.771,10.667,10.667,10.667S335,296.229,335,290.333c0-23.151-6.271-44.824-17.063-63.581
		c2.143-0.169,4.327-0.419,6.396-0.419c52.938,0,96,43.063,96,96C420.333,360.333,397.813,394.771,362.938,410.135z"/>
</g>
</svg>
