<?xml version="1.0" encoding="iso-8859-1"?>
<!-- Generator: Adobe Illustrator 21.1.0, SVG Export Plug-In . SVG Version: 6.00 Build 0)  -->
<svg version="1.1" id="Calque_2" xmlns="http://www.w3.org/2000/svg" xmlns:xlink="http://www.w3.org/1999/xlink" x="0px" y="0px"
	 viewBox="-49 141 512 512" style="enable-background:new -49 141 512 512;" xml:space="preserve">
<g>
	<path style="fill:#DED479;" d="M448.994,332.453c-0.014-1.986-0.01-3.97-0.064-5.953l-0.392-5.945
		c-0.707-7.916-1.958-15.775-4.036-23.302l-0.74-2.834c-0.267-0.937-0.579-1.858-0.869-2.785c-0.596-1.849-1.178-3.7-1.805-5.529
		c-1.402-3.597-2.695-7.228-4.35-10.672c-5.214-10.659-11.831-20.515-19.459-29.45c-7.618-8.952-16.307-16.947-25.758-23.992
		c-1.326-0.968-2.643-1.945-3.98-2.897c-0.204-0.193-0.411-0.385-0.614-0.578c-2.307-1.514-4.58-3.066-6.908-4.544
		c-2.393-1.411-4.702-2.861-7.158-4.246c-4.942-2.764-10.117-5.3-15.629-7.489c-5.503-2.189-11.379-4.012-17.704-5.142
		c-5.833-1.025-12.082-1.5-18.539-0.842c-0.164,0.015-0.326,0.022-0.49,0.038c-0.086,0.011-0.159,0.029-0.243,0.041
		c-0.285,0.033-0.568,0.054-0.854,0.091c-1.668,0.256-2.94,0.67-3.869,1.259c-0.929,0.609-1.529,1.302-1.907,2.002
		c-0.252,0.468-0.402,0.938-0.495,1.395c-1.726-2.186-3.469-4.343-5.172-6.484c-1.15-1.347-2.275-2.693-3.367-4.044
		c-0.891-1.018-1.857-1.987-2.826-2.952l-2.886-2.894c-1.975-1.885-4.025-3.7-6.049-5.522l-6.438-5.192l-6.702-4.731
		c-5.863-3.874-11.963-7.249-18.229-10.174c-0.223-0.104-0.449-0.203-0.673-0.307c-0.97-0.447-1.942-0.888-2.919-1.313
		c-0.464-0.202-0.931-0.394-1.397-0.592c-0.741-0.313-1.481-0.628-2.226-0.929c-0.661-0.268-1.325-0.523-1.989-0.781
		c-0.433-0.168-0.864-0.346-1.299-0.51c-0.12-0.045-0.241-0.086-0.361-0.131c-0.194-0.073-0.386-0.152-0.58-0.224
		c-0.019-0.002-0.038-0.005-0.057-0.007c-9.671-3.576-19.638-6.186-29.822-7.852c-0.135-0.022-0.272-0.04-0.407-0.061
		c0.013,0.001,0.026,0.001,0.039,0.001c-0.878-0.141-1.76-0.266-2.641-0.394c-0.341-0.049-0.68-0.105-1.021-0.152
		c-9.128-1.263-18.426-1.776-27.88-1.466c-0.067,0.005-0.133,0.015-0.2,0.02c-0.054,0.002-0.107,0.002-0.16,0.004
		c-0.848,0.068-1.69,0.163-2.529,0.269c-0.187,0.022-0.377,0.034-0.564,0.057c-0.572,0.073-1.144,0.137-1.711,0.234l-1.27,0.27
		c-2.286,0.442-4.532,1.029-6.734,1.732c-0.108,0.032-0.219,0.059-0.326,0.092c-0.074,0.027-0.146,0.057-0.22,0.084
		c-5.941,1.958-11.539,4.803-16.616,8.24c-4.371,3.001-8.477,6.312-12.241,9.987c-3.785,3.64-7.335,7.484-10.684,11.515
		c-1.452,1.365-2.918,2.594-4.398,3.747c-0.216,0.163-0.428,0.332-0.647,0.49c-1.772,1.364-3.606,2.585-5.45,3.785
		c-1.824,1.219-3.747,2.336-5.617,3.548c-0.955,0.597-1.912,1.196-2.875,1.798c-0.949,0.632-1.903,1.268-2.867,1.911
		c-0.038,0.055-0.075,0.111-0.113,0.167c-2.133,1.456-4.267,3.017-6.369,4.791c-0.346,0.276-0.667,0.571-1.002,0.855
		c-3.856-1.055-7.679-1.719-11.396-2.075c-4.493-0.419-8.831-0.39-13.024-0.109c-7.938,0.531-15.31,2.053-22.43,4.004l-0.257,0.065
		l-0.18,0.054c-0.269,0.074-0.54,0.145-0.808,0.22c-7.019,2.011-13.846,4.607-20.373,7.794c-0.093,0.046-0.187,0.091-0.28,0.137
		c-1.682,0.827-3.342,1.694-4.981,2.601c-0.139,0.073-0.277,0.148-0.417,0.22c-0.093,0.056-0.188,0.111-0.282,0.166
		c-5.256,2.957-10.279,6.328-14.998,10.135c0.03-0.004,0.06-0.008,0.091-0.013c-1.738,1.412-3.445,2.865-5.099,4.382l-3.042,2.898
		l-2.88,3.071c-0.972,1.013-1.868,2.099-2.76,3.189c-0.881,1.098-1.813,2.153-2.631,3.306c-1.091,1.441-2.115,2.935-3.109,4.451
		c-0.027,0-0.053,0-0.08,0c-1.045,1.67-2.11,3.324-3.083,5.036c-0.928,1.743-1.879,3.471-2.721,5.253
		c-2.386,4.965-4.489,9.941-6.375,14.926c-0.477,1.243-0.881,2.51-1.332,3.755c-0.448,1.246-0.892,2.489-1.266,3.752
		c-0.401,1.253-0.8,2.504-1.2,3.753c-0.357,1.26-0.714,2.518-1.07,3.773l-0.543,1.88l-0.471,1.894
		c-0.321,1.261-0.642,2.52-0.962,3.777c-0.524,2.537-1.19,5.049-1.628,7.596c-0.103,0.492-0.189,0.987-0.286,1.48
		c-0.082,0.424-0.168,0.848-0.248,1.272c-0.006,0.033-0.011,0.065-0.017,0.098c-0.301,1.625-0.583,3.254-0.836,4.888
		c-1.048,6.509-1.79,13.082-2.208,19.756c-0.245,4.19-0.408,8.424-0.397,12.704c0,4.286,0.078,8.585,0.464,13.124
		c0.094,1.13,0.222,2.262,0.349,3.41c0.389,3.259,1.014,6.62,2.007,10.042c0.962,3.402,2.352,6.947,3.982,10.255
		c3.253,6.613,7.285,12.219,11.164,16.977c0.968,1.184,1.941,2.335,2.889,3.423l1.417,1.61l1.469,1.611
		c0.98,1.068,1.977,2.126,3.028,3.184c1.041,1.055,2.072,2.096,3.183,3.132c4.354,4.129,9.121,8.08,14.392,11.593
		c6.972,3.788,15.108,6.503,23.595,8.582c0.576,0.148,1.165,0.28,1.749,0.418c0.092,0.063,0.187,0.121,0.278,0.185
		c6.599,1.522,13.405,2.605,20.507,3.553c0.983,0.139,1.978,0.266,2.979,0.389c0.544,0.069,1.084,0.14,1.632,0.208
		c2.131,0.262,2.501-3.502,2.668-5.38c-0.874-1.324-1.605-2.713-2.243-4.119c-0.108-0.021-0.216-0.042-0.324-0.063
		c-0.497-1.108-0.927-2.23-1.306-3.355c0.095,0.016,0.189,0.043,0.285,0.055c-0.06-0.183-0.118-0.359-0.176-0.536
		c-0.426-1.255-0.795-2.604-1.102-3.885l-0.241-0.057c-0.548-2.332-0.951-4.599-1.293-6.729c0.068-0.002,0.137-0.001,0.206-0.004
		c-0.229-1.421-0.455-2.82-0.685-4.241c-0.075-0.071-0.15-0.135-0.225-0.203c-0.052-0.314-0.103-0.636-0.155-0.939
		c-0.192-1.083-0.395-2.073-0.633-2.942c-0.238-0.912-0.511-1.73-0.846-2.397c-0.277-0.374-0.555-0.736-0.835-1.09
		c0.038,0.009,0.076,0.022,0.114,0.031c-1.804-2.318-3.7-4.212-5.826-5.995c-0.159-0.139-0.315-0.278-0.478-0.416
		c-2.612-2.207-5.605-4.211-8.883-6.394c-3.272-2.194-6.811-4.476-10.371-6.982c-3.56-2.51-7.133-5.272-10.485-8.287
		c-0.96-0.869-1.876-1.731-2.721-2.586c-2.871-2.461-5.425-4.793-7.574-7.079c-1.075-1.142-2.049-2.271-2.917-3.393
		c-0.862-1.11-1.634-2.246-2.381-3.513c-1.483-2.515-2.76-5.397-3.815-8.542c-0.528-1.572-1.002-3.209-1.424-4.9
		c-0.362-1.657-0.745-3.312-1.047-4.984c-0.011-0.06-0.023-0.121-0.033-0.181c-1.588-9.247-1.391-18.879,0.673-27.956
		c0.039-0.169,0.071-0.34,0.111-0.509c0.015-0.064,0.033-0.127,0.049-0.19c0.975-4.038,2.324-7.96,4.026-11.681
		c0.008-0.02,0.014-0.041,0.022-0.061c0.022-0.048,0.041-0.097,0.064-0.145c2.393-6.291,3.489-12.609,4.801-19.416
		c0.35-1.715,0.7-3.433,1.052-5.158c0.44-1.701,0.818-3.487,1.31-5.257c1.013-3.52,2.196-7.17,3.873-10.698
		c0.809-1.231,1.744-2.286,2.754-3.226c0.152-0.135,0.302-0.274,0.454-0.407c0.582-0.498,1.183-0.959,1.794-1.401
		c0.113-0.078,0.225-0.158,0.339-0.234c0.62-0.405,1.267-0.771,1.914-1.124c0.717-0.386,1.443-0.747,2.176-1.091
		c0.744-0.33,1.524-0.61,2.291-0.895c0.77-0.271,1.541-0.544,2.318-0.818c0.781-0.257,1.596-0.466,2.391-0.702
		c0.031-0.033,0.063-0.064,0.094-0.097c0.753-0.22,1.506-0.439,2.276-0.664c1.03-0.279,2.078-0.54,3.106-0.851
		c5.298-1.282,9.593-3.216,13.684-5.659c4.097-2.392,7.966-5.314,12.168-8.353c4.224-3.041,8.654-6.096,13.659-8.457
		c4.412-2.074,9.342-3.568,14.539-3.602c-0.508,0.94-0.995,1.889-1.443,2.852c-3.1,6.653-4.817,13.792-5.626,21
		c-0.811,7.217-0.722,14.505-0.266,21.708c0.457,7.214,1.275,14.341,1.947,21.5c0.154,1.931,1.293,3.501,2.847,4.693
		c1.553,1.194,3.534,2.017,5.491,2.536c3.931,1.093,7.739,0.979,7.835,0.1c-0.006-0.052-0.008-0.103-0.014-0.155
		c0.026-0.039,0.047-0.078,0.053-0.12c-0.788-7.306-0.574-14.728,0.595-21.972c1.18-7.243,3.182-14.335,5.916-21.097
		c1.652-4.059,3.54-8.009,5.633-11.834c0.111-0.201,0.218-0.405,0.33-0.606c0.318-0.574,0.645-1.143,0.972-1.711
		c0.254-0.44,0.512-0.878,0.772-1.314c0.301-0.506,0.6-1.014,0.908-1.515c0.476-0.776,0.962-1.545,1.456-2.309
		c3.907-5.975,8.285-11.597,13.06-16.833c1.439-1.571,2.905-3.116,4.412-4.617c4.818-4.786,9.959-9.234,15.45-13.341
		c0.015,0.007,0.03,0.013,0.046,0.019l2.176-1.614l2.231-1.542c1.469-1.075,3.025-2,4.544-3.032
		c8.682-5.402,18.384-8.757,28.282-10.032c2.438-0.313,4.886-0.5,7.33-0.567c0.065-0.002,0.131-0.004,0.196-0.006
		c1.178-0.029,2.354-0.03,3.529-0.003c0.044,0.001,0.088,0,0.132,0.002c1.175,0.029,2.348,0.089,3.517,0.175
		c0.396,0.03,0.79,0.075,1.185,0.111c0.627,0.056,1.253,0.116,1.876,0.188c1.679,0.242,3.353,0.437,5.007,0.753
		c0.289,0.054,0.574,0.119,0.862,0.176c1.646,0.374,3.279,0.757,4.9,1.152c0.206,0.057,0.415,0.102,0.621,0.16
		c1.804,0.579,3.591,1.168,5.358,1.767c1.81,0.648,3.558,1.484,5.305,2.23c6.921,3.235,13.196,7.52,18.471,12.574l1.925,1.914
		l0.948,0.948c0.348,0.37,0.687,0.742,1.03,1.114l0.637,0.722c0.6,0.671,1.207,1.319,1.812,1.969c0.609,0.686,1.206,1.376,1.8,2.067
		c0.45,0.547,0.897,1.094,1.356,1.622c0.194,0.234,0.394,0.458,0.593,0.686c0.534,0.644,1.065,1.288,1.587,1.936
		c0.058,0.079,0.126,0.149,0.182,0.23c3.047,3.781,5.967,7.869,8.817,11.943c2.812,4.14,5.498,8.434,8.198,12.793
		c2.673,4.388,5.255,8.938,7.91,13.495c3.919,5.366,8.447,10.964,12.37,17.277c0.284,0.457,0.555,0.926,0.831,1.391
		c0.008,0.062,0.02,0.125,0.028,0.187c3.553,5.968,6.438,12.572,7.545,19.913c0.269,1.741,4.011,1.172,5.883,0.888
		c1.054-1.089,2.189-2.129,3.353-3.145c-0.011-0.111-0.028-0.221-0.039-0.331c0.915-0.804,1.855-1.587,2.804-2.356
		c0.014,0.106,0.028,0.21,0.043,0.316c0.156-0.124,0.304-0.241,0.454-0.361c1.096-0.877,2.184-1.748,3.223-2.579
		c-0.017-0.1-0.036-0.201-0.053-0.301c1.927-1.521,3.804-3.012,5.52-4.512c0.038,0.089,0.074,0.178,0.113,0.267
		c1.203-1.054,2.329-2.107,3.326-3.182c0.017-0.151,0.025-0.3,0.039-0.45c0.237-0.258,0.484-0.514,0.706-0.774
		c1.584-1.885,2.759-3.857,3.293-5.962c0.083-0.75,0.144-1.501,0.189-2.253c0.028,0.082,0.057,0.164,0.086,0.247
		c0.281-5.07-0.285-10.154-1.489-15.184c-0.018-0.075-0.038-0.15-0.056-0.225c-0.134-0.551-0.273-1.102-0.422-1.652
		c-0.115-0.428-0.239-0.855-0.363-1.282c-0.056-0.192-0.11-0.384-0.168-0.576c-1.334-4.449-3.138-8.841-5.284-13.128
		c-0.651-1.372-1.427-2.722-2.176-4.068c-0.769-1.343-1.502-2.687-2.333-4.005c-1.682-2.631-3.311-5.249-5.169-7.776
		c-1.272-1.842-2.614-3.636-3.975-5.413c0.737,0.148,1.45,0.31,2.139,0.487c1.375,0.427,2.657,0.891,3.861,1.378
		c0.337-0.031,0.673-0.051,1.01-0.075c1.894,0.865,3.582,1.88,5.093,2.979c-0.303-0.004-0.605-0.011-0.908-0.014
		c0.248,0.168,0.474,0.342,0.705,0.51c0.414,0.305,0.828,0.609,1.239,0.912c0.394,0.333,0.785,0.665,1.174,0.994
		c0.76,0.671,1.476,1.294,2.137,1.985c0.249,0.031,0.497,0.073,0.745,0.108c2.382,2.494,4.297,5.094,6.047,7.668
		c-0.213-0.038-0.425-0.083-0.638-0.118c0.625,0.86,1.224,1.763,1.818,2.642c0.58,0.848,1.168,1.708,1.771,2.59
		c0.253,0.135,0.503,0.284,0.755,0.424c0.288,0.42,0.578,0.838,0.873,1.25c2.063,2.943,4.287,5.809,7.135,8.624
		c1.117,0.955,2.228,1.926,3.334,2.912l-0.457-0.271c0.515,0.469,1.028,0.893,1.549,1.386l1.569,1.47
		c1.036,0.991,2.135,1.885,3.142,2.913c1.016,1.015,2.04,2.014,3.073,3c1.036,0.982,1.985,2.078,2.995,3.091l1.505,1.535
		l1.441,1.609c0.952,1.081,1.952,2.111,2.894,3.202c0.921,1.112,1.852,2.214,2.795,3.306c0.483,0.536,0.934,1.1,1.37,1.679
		l1.341,1.706l1.196,1.492c0.361,0.472,0.712,0.953,1.068,1.43c0.126,0.175,0.25,0.352,0.379,0.525
		c0.515,0.721,1.047,1.431,1.575,2.144c0.611,0.854,1.221,1.71,1.814,2.577c0.101,0.149,0.201,0.297,0.302,0.446
		c1.506,2.217,2.952,4.478,4.336,6.777c0.187,0.309,0.371,0.62,0.557,0.93c2.208,3.732,4.253,7.567,6.093,11.508
		c0.651,1.351,1.268,2.716,1.854,4.094c0.003,0.006,0.006,0.013,0.008,0.019c1.76,4.142,3.238,8.393,4.504,12.694
		c0.911,2.862,1.494,5.782,2.185,8.693l0.751,4.393l0.194,1.1l0.12,1.112l0.248,2.225c1.329,11.875,0.332,24.158-2.815,35.599
		c-0.109,0.414-0.206,0.832-0.325,1.242l-0.398,1.215l-0.794,2.425c-0.483,1.633-1.147,3.185-1.775,4.745
		c-3.023,8.106-7.077,15.825-12.1,22.795c-1.336,1.669-2.584,3.427-3.969,5.057l-2.121,2.405l-1.057,1.21
		c-0.336,0.368-0.641,0.691-0.944,0.995c-0.611,0.633-1.17,1.144-1.683,1.601c-0.254,0.222-0.494,0.426-0.708,0.592
		c-0.115,0.1-0.213,0.17-0.307,0.238c-0.024,0.019,0.001-0.009-0.056,0.066c-0.034,0.013-0.07,0.023-0.098,0.047l-0.046,0.028
		c-0.017,0.007,0.011,0.078,0.014,0.114l0.22,1.062l0.22,1.061c0.006,0.069,0.065,0.22,0.026,0.222l-0.075,0.068l-0.149,0.136
		c-3.203,2.939-6.234,5.597-8.536,7.362c-0.445,0.334-0.91,0.692-1.286,0.943l-0.587,0.404l-0.514,0.319l-0.257,0.159
		c-0.1,0.096-0.227,0.273-0.339,0.406l-0.693,0.86l-1.383,1.719l-5.48,6.866c0.292,4.153,0.626,8.296,0.854,12.435l0.487,7.902
		c0.239,4.585,0.457,9.172,0.634,13.759c0.291,9.176,0.475,18.356,0.379,27.531c-0.077,9.899-0.374,19.793-0.898,29.667
		c-5.863-1.556-11.731-2.732-17.601-3.769c-6.395-1.121-12.793-2.01-19.192-2.752c-6.399-0.737-12.801-1.337-19.202-1.758
		c-6.402-0.462-12.804-0.756-19.205-0.859c-12.803-0.236-25.598,0.682-38.386,1.599c-6.394,0.452-12.789,0.868-19.176,1.657
		c-3.194,0.378-6.386,0.855-9.577,1.35c-3.192,0.468-6.381,1.016-9.571,1.529c-6.38,0.997-12.757,1.975-19.143,2.461
		c-6.386,0.501-12.775,0.765-19.175,0.551c-6.4-0.199-12.813-0.936-19.234-1.848c-6.412-0.861-12.854-1.917-19.404-2.227
		c-6.545-0.392-13.176-0.039-19.806,0.977c-3.309,0.5-6.641,1.117-9.916,1.898c-1.631,0.389-3.229,0.824-4.8,1.251
		c-1.575,0.414-3.126,0.875-4.646,1.34l-8.963,2.73c-2.938,0.904-5.836,1.743-8.742,2.438c-2.906,0.708-5.839,1.319-8.834,1.646
		c-0.958,0.111-1.927,0.185-2.902,0.243c-4.145-26.992-8.706-54.436-11.655-83.694c-2.028-20.106-17.211-22.295-17.173-17.338
		c0.013,0.152,0.024,0.304,0.036,0.456c-0.02,0.121-0.035,0.244-0.034,0.375c3.596,43.763,5.57,86.686,6.973,129.343
		c0.321,10.665,0.641,21.313,0.962,31.952c0.192,6.82,0.384,13.638,0.576,20.454l0.484,11.748l0.123,2.941
		c0.02,0.046-0.034,0.157,0.047,0.149l0.181,0.033l0.362,0.065l0.724,0.131l1.448,0.262l5.795,1.047
		c3.867,0.702,7.734,1.32,11.611,1.986c1.945,0.326,3.884,0.601,5.878,0.873l5.093,0.675l8.19,0.906
		c2.728,0.241,5.461,0.526,8.188,0.726c1.316,0.103,2.63,0.181,3.945,0.271l0.485,0.036c0.102,0.007,0.204,0.012,0.307,0.019
		c9.332,0.628,18.649,0.973,27.936,1.096c-0.034-0.008-0.068-0.016-0.102-0.023c6.2,0.081,12.388,0.076,18.564,0.006
		c15.505-0.2,30.875-0.736,46.332-1.313c4.969-0.191,9.95-0.4,14.937-0.619c0.027,0.013,0.053,0.025,0.08,0.038
		c10.784-0.469,21.594-1.004,32.448-1.63c30.337-1.629,60.133-2.735,89.531-3.319c7.362-0.146,14.647-0.259,22.003-0.341
		c5.087-0.067,10.165-0.134,15.236-0.201c2.551-0.035,5.1-0.07,7.647-0.105l3.839-0.049c0.065-0.018,0.194,0.037,0.207-0.042
		l0.043-0.231l0.086-0.463l0.172-0.926l0.345-1.853c0.931-4.974,1.86-9.941,2.788-14.901c0.108-0.602,0.216-1.202,0.324-1.804
		c0.006-0.031,0.011-0.062,0.017-0.093c0.679-3.778,1.357-7.554,2.035-11.324c0.619-3.604,1.236-7.204,1.853-10.799
		c0.012-0.077,0.025-0.154,0.037-0.231c0.062-0.36,0.124-0.721,0.186-1.081c0.463-2.881,0.926-5.759,1.389-8.634
		c0.035-0.223,0.068-0.446,0.103-0.668c0.01-0.061,0.02-0.121,0.029-0.182c-0.001,0.004-0.002,0.009-0.003,0.013
		c1.751-11.232,3.414-22.453,4.816-33.687c0.386-2.876,0.751-5.753,1.076-8.633c0.343-2.88,0.685-5.758,1.027-8.634
		c0.604-5.76,1.285-11.517,1.811-17.282c1.165-11.526,2.097-23.066,2.901-34.626c0.189-2.882,0.377-5.761,0.565-8.631
		c0.227-4.498,0.478-9.032,0.632-13.617c0.031-1.146,0.062-2.296,0.093-3.449l0.044-1.733c0.003-0.056,0.002-0.182,0.007-0.18
		l0.013-0.038l0.027-0.076l0.054-0.148c0.137-0.357,0.274-0.716,0.413-1.078c0.122-0.285,0.243-0.535,0.361-0.755l0.089-0.159
		l0.044-0.075l0.022-0.037l0.076,0.019c0.206,0.06,0.405,0.098,0.593,0.124c0.292,0.04,0.556,0.047,0.789,0.04l0.33-0.018
		l0.15-0.013c0.254-0.141,0.588-0.359,0.877-0.537l0.843-0.56c2.244-1.503,4.191-3.035,5.955-4.543c0.878-0.753,1.71-1.5,2.509-2.24
		l2.116-2.068c5.762-5.438,10.801-11.594,15.43-18.037l3.341-4.93c1.058-1.676,2.044-3.396,3.06-5.103
		c0.499-0.858,1.016-1.709,1.495-2.578l1.363-2.643c0.887-1.773,1.845-3.521,2.654-5.331c3.346-7.203,5.994-14.705,8.142-22.348
		c1.97-7.686,3.447-15.506,4.169-23.414c0.217-1.972,0.263-3.961,0.389-5.941l0.151-2.972
		C449.015,334.44,448.99,333.445,448.994,332.453z M62.009,534.349c3.348,1.162,6.839,1.727,10.306,2.089
		c1.746,0.192,3.457,0.222,5.191,0.296c1.704,0.005,3.423-0.015,5.102-0.084c3.367-0.159,6.681-0.439,9.878-0.816
		c3.21-0.318,6.339-0.801,9.365-1.113c3.015-0.351,6.008-0.67,9.044-0.94c6.061-0.532,12.193-1.04,18.416-2.013
		c6.22-0.887,12.558-2.228,18.925-3.406c6.358-1.232,12.724-2.268,19.104-2.75c3.189-0.251,6.382-0.392,9.577-0.402
		c1.597-0.024,3.195-0.028,4.793,0.009c1.598,0.008,3.196,0.071,4.795,0.138c6.395,0.24,12.797,0.972,19.198,1.758
		c3.201,0.401,6.401,0.838,9.6,1.212c3.199,0.397,6.398,0.774,9.595,1.054c6.394,0.618,12.781,0.842,19.169,1.153
		c12.775,0.601,25.545,1.289,38.307,0.872c6.381-0.194,12.761-0.559,19.142-1.075c6.381-0.483,12.763-1.111,19.146-1.878
		c6.383-0.759,12.768-1.666,19.156-2.77c5.814-1.031,11.631-2.158,17.452-3.667c-0.431,7.475-0.99,14.939-1.704,22.384
		c-0.892,9.107-1.902,18.197-3.199,27.24l-0.969,6.78l-1.077,6.76c-0.094,0.589-0.19,1.178-0.285,1.766
		c-0.146,0.905-0.297,1.809-0.452,2.712c-0.129,0.754-0.255,1.509-0.395,2.262l-0.005,0.027l-0.284,1.576l-0.011,0.044l-0.066,0.253
		l-0.256,0.961c-0.013,0.048-0.027,0.091-0.04,0.138c-0.173,0.63-0.359,1.234-0.536,1.802c-0.094,0.283-0.176,0.571-0.278,0.826
		c-0.237-0.006-0.476-0.021-0.716-0.04l-0.373-0.039c-0.702-0.079-1.37-0.163-1.998-0.253l-0.912-0.14l-0.218-0.036l-1.129-0.016
		l-2.268-0.034c-6.049-0.112-12.095-0.225-18.14-0.337c-0.111,0-0.221,0.002-0.332,0.002c-0.161-0.003-0.323-0.006-0.485-0.01
		c-49.597-0.152-95.402,7.291-145.868,12.823c-5.506,0.328-10.806,0.468-15.971,0.458c-16.691-0.084-31.976-1.758-47.922-3.988
		c-0.134,0.004-0.266,0.004-0.4,0.008c-5.887-0.829-11.847-1.758-17.999-2.743c-4.344-0.746-8.65-1.486-12.924-2.219
		c-2.117-0.361-4.225-0.721-6.327-1.08l-0.74-0.135l-0.165-0.059l-0.322-0.111l-0.719-0.214c-0.951-0.277-1.844-0.487-2.795-0.66
		c-0.055-0.014-0.13-0.011-0.168-0.04l-0.009-0.178l-0.022-0.353l-0.062-0.698c-0.049-0.464-0.113-0.926-0.193-1.401
		s-0.174-0.962-0.283-1.473c-0.172-2.048-0.343-4.092-0.515-6.133c-0.376-4.316-0.802-8.618-1.269-12.911
		c-0.934-8.586-2.033-17.136-3.232-25.694c-0.742-5.295-1.524-10.595-2.326-15.907C61.275,534.07,61.637,534.222,62.009,534.349z"/>
	<path style="fill:#DED479;" d="M77.27,369.112c0.176,2.889,0.35,5.751,0.524,8.606c0.335,5.6,0.796,11.093,2.153,16.377
		c0.011-0.011,0.021-0.021,0.032-0.032c0.196,0.754,0.396,1.507,0.632,2.248c0.786,2.45,1.814,4.805,3.134,7.004
		c-0.013,0.009-0.026,0.018-0.039,0.027c0.697,1.151,1.457,2.272,2.327,3.326c3.418,4.438,5.97,8.833,7.615,13.586
		c0.038,0.11,0.076,0.219,0.112,0.33c0.211,0.628,0.401,1.264,0.58,1.906c0.049,0.176,0.103,0.35,0.149,0.527
		c0.173,0.657,0.325,1.325,0.465,1.998c0.851,4.148,1.058,8.577,0.557,13.363l-0.114,1.174c-0.472,4.504,0.071,8.878,1.744,12.951
		c1.663,4.06,4.476,7.82,8.305,10.736c2.965,1.343,6.637,1.964,10.082,2.712c0.24,0.053,0.474,0.109,0.71,0.163
		c0.014,0.034,0.032,0.065,0.045,0.1c3.21,0.719,5.991,1.658,8.118,3.832c0.508,0.53,2.762-2.498,3.884-4.016
		c0.487-1.218,1.052-2.464,1.656-3.711c-0.021-0.033-0.046-0.061-0.067-0.093c0.477-0.98,0.982-1.962,1.506-2.94l0.06,0.08
		l0.251-0.465c0.596-1.109,1.204-2.206,1.82-3.276c-0.018-0.022-0.034-0.047-0.052-0.069c1.123-1.942,2.263-3.82,3.334-5.563
		c0.027,0.002,0.052,0.008,0.08,0.009c0.737-1.204,1.442-2.355,2.107-3.44c0.009-0.057,0.011-0.104,0.019-0.159
		c0.156-0.255,0.317-0.518,0.464-0.762c1.055-1.747,1.888-3.182,2.331-4.211c0.089-0.292,0.167-0.57,0.238-0.839
		c0.012,0.005,0.023,0.013,0.035,0.018c0.601-2.262,0.547-3.706,0.021-4.762c-0.349-0.738-0.924-1.291-1.675-1.796
		c-1.912-1.273-4.909-2.212-6.88-4.073c-0.283-0.257-0.545-0.556-0.778-0.855c-3.924-3.057-7.582-7.15-10.511-11.804
		c-1.683-2.679-3.03-5.482-3.92-8.406c-0.066-0.219-0.144-0.435-0.205-0.656c-0.004-0.013-0.006-0.027-0.01-0.041
		c-0.505-1.837-0.824-3.722-0.918-5.653c-0.002-0.011-0.007-0.02-0.009-0.03c-0.001-0.018-0.004-0.035-0.005-0.053
		c-0.052-0.231-0.13-0.444-0.209-0.658c0,0,0-0.001,0-0.001c-0.755-2.039-2.714-3.323-5.199-4.466
		c-2.739-1.255-6.113-2.366-9.014-3.975c-0.479-0.567-0.643-1.21-0.596-1.897c0.148-1.574,1.422-3.373,2.689-5.073
		c-0.011-0.011-0.019-0.024-0.03-0.035c0.515-0.693,1.032-1.38,1.477-2.046c3.003-3.883,0.619-5.808-3.215-8.55
		c-1.912-1.347-4.154-2.858-6.144-4.631c-2.022-1.771-3.717-3.798-4.648-5.961c-0.469-1.132-4.371-2.626-8.163-3.848
		c-3.799-1.162-7.519-1.979-7.645-1.694c0.003,0.024,0.005,0.047,0.007,0.071c-0.027,0.011-0.049,0.023-0.056,0.04
		C76.791,363.086,77.072,366.154,77.27,369.112z"/>
	<path style="fill:#DED479;" d="M273.403,439.15c-0.017-0.006-0.032-0.009-0.048-0.016c-0.17,1.939-0.898,3.403-1.963,3.089
		c-0.227-0.075,0.454,3.644,0.784,5.504c0.399,1.209,0.836,2.481,1.305,3.771c0.03,0.007,0.058,0.008,0.088,0.015
		c0.374,1.013,0.77,2.042,1.181,3.073c-0.032-0.003-0.064-0.002-0.096-0.005l0.194,0.492c0.469,1.174,0.958,2.318,1.457,3.455
		c0.034-0.002,0.069-0.007,0.103-0.009c0.915,2.06,1.88,4.056,2.876,5.874c-0.031,0.027-0.062,0.051-0.093,0.078
		c0.696,1.275,1.395,2.453,2.109,3.508c0.076,0.031,0.15,0.054,0.225,0.081c0.171,0.249,0.342,0.509,0.513,0.742
		c1.258,1.707,2.521,2.991,3.733,3.646c0.406,0.134,0.808,0.246,1.209,0.342c-0.034,0.02-0.065,0.039-0.098,0.059
		c2.969,0.705,5.742,0.393,8.105-0.497c0.054-0.02,0.101-0.049,0.155-0.07c0.52-0.199,1.019-0.429,1.501-0.68
		c0.025-0.013,0.05-0.025,0.074-0.038c1.486-0.784,2.795-1.79,3.929-2.907c3.43-3.39,5.28-7.6,7.45-10.639
		c0.318-0.443,0.65-0.866,1.001-1.263c1.8-2.865,3.412-5.791,5.173-8.535c0.405-0.694,0.818-1.378,1.237-2.056
		c0.025-0.04,0.049-0.079,0.074-0.119c1.265-2.041,2.579-4.017,3.88-5.992c2.652-3.896,5.513-7.595,8.783-11.178
		c0.057-0.061,0.11-0.123,0.167-0.184c1.123-1.166,2.197-2.37,3.416-3.52c0.009-0.011,0.016-0.024,0.025-0.035
		c0.016-0.016,0.031-0.032,0.047-0.047c0.113-0.143,0.201-0.297,0.303-0.444c0.087-0.126,0.181-0.249,0.259-0.379
		c0.252-0.407,0.479-0.824,0.661-1.261c0.284-0.748,0.463-1.541,0.57-2.358c0.2-1.641,0.127-3.375-0.203-5.181
		c-0.344-1.813-0.867-3.666-1.426-5.504c-0.538-1.832-1.253-3.703-1.777-5.498c0.02-0.713,0.224-1.334,0.55-1.901
		c0.034-0.058,0.076-0.114,0.113-0.171c0.057-0.091,0.116-0.182,0.18-0.27c1.142-1.552,3.223-2.716,5.356-4.086l-0.005-0.069
		c0.85-0.555,1.691-1.135,2.43-1.796c2.38-1.818,3.358-3.995,3.227-6.314c-0.045-1.156-0.324-2.34-0.774-3.53
		c-0.456-1.191-1.151-2.402-1.91-3.596c-0.769-1.196-1.64-2.381-2.547-3.549c-0.945-1.173-1.943-2.329-2.898-3.464
		c-0.966-1.135-1.866-2.247-2.724-3.348c-0.875-1.102-1.649-2.187-2.253-3.268c-1.297-2.361-16.411-2.665-16.539-2.157
		c0.007,0.014,0.013,0.029,0.02,0.043c-0.024,0.012-0.044,0.024-0.048,0.037c0.507,1.06,0.918,2.133,1.247,3.21
		c0.161,0.538,0.316,1.078,0.427,1.618c0.095,0.539,0.172,1.078,0.232,1.617c0.119,1.078,0.181,2.154,0.179,3.225
		c-0.053,1.066-0.156,2.127-0.29,3.181l-0.218,1.528c-0.006,0.032-0.012,0.065-0.018,0.097l-0.338,1.509l-0.674,2.742
		c-0.091,0.326-0.183,0.651-0.277,0.975l-0.737,2.42c-0.293,1.018-0.584,2.036-0.918,3.045c0.008-0.001,0.017-0.003,0.025-0.005
		c-0.736,2.502-1.389,5.051-1.777,7.757c-0.01-0.002-0.019-0.003-0.029-0.004c-0.145,1.097-0.312,2.197-0.355,3.362
		c-0.4,4.736-2.157,8.984-5.038,12.383c-0.135,0.155-0.266,0.312-0.408,0.462c-0.108,0.12-0.216,0.241-0.327,0.359
		c-0.342,0.367-0.702,0.721-1.075,1.064c-0.121,0.111-0.246,0.219-0.369,0.328c-0.358,0.315-0.724,0.624-1.107,0.917
		c-0.034,0.026-0.066,0.054-0.099,0.079c-2.951,2.228-6.614,3.8-10.767,4.591l-1.042,0.184c-0.996,0.158-1.94,0.346-2.833,0.566
		c-0.895,0.219-1.794,0.418-2.613,0.68c-0.826,0.255-1.602,0.545-2.329,0.872c-0.733,0.321-1.463,0.629-2.12,1.004
		c-0.663,0.369-1.279,0.777-1.849,1.228c-0.568,0.43-1.087,0.861-1.541,1.309c-0.911,0.893-1.585,1.83-2.052,2.848
		c-0.136,1.836,0.227,4.385,0.071,6.527C273.436,438.858,273.418,439.002,273.403,439.15z"/>
</g>
</svg>
