<?xml version="1.0" encoding="iso-8859-1"?>
<!-- Generator: Adobe Illustrator 21.1.0, SVG Export Plug-In . SVG Version: 6.00 Build 0)  -->
<svg version="1.1" id="Calque_2" xmlns="http://www.w3.org/2000/svg" xmlns:xlink="http://www.w3.org/1999/xlink" x="0px" y="0px"
	 viewBox="0 0 283.46 283.46" style="enable-background:new 0 0 283.46 283.46;" xml:space="preserve">
<path style="fill:#FFFFFF;" d="M183.843,140.627c-0.035-0.108-0.061-0.221-0.095-0.33c-0.006-0.034-0.004-0.066-0.012-0.1
	c-1.74-5.612-1.262-12.314-1.072-19.391c0.035-1.782,0.063-3.587-0.005-5.439c-0.078-1.889-0.235-3.825-0.573-5.71
	c-0.462-2.641-1.173-5.268-2.242-7.811c-0.022-0.053-0.044-0.107-0.066-0.16c-0.268-0.628-0.556-1.252-0.871-1.869
	c-0.003-0.005-0.005-0.01-0.008-0.014c-0.205-0.4-0.416-0.798-0.643-1.191c-0.111-0.188-0.232-0.372-0.347-0.558
	c-0.048-0.079-0.097-0.157-0.147-0.236c-0.918-1.459-1.966-2.873-3.266-4.129c-0.552-0.536-1.151-1.032-1.77-1.507
	c-0.076-0.059-0.153-0.117-0.23-0.175c-0.26-0.194-0.522-0.383-0.792-0.564c-0.067-0.045-0.136-0.086-0.203-0.129
	c-0.738-0.482-1.503-0.93-2.308-1.309c-1.014-0.4-2.026-0.82-3.077-1.075c-0.252-0.06-0.504-0.103-0.756-0.155
	c-0.036-0.007-0.073-0.018-0.109-0.025c-0.034-0.007-0.067-0.011-0.101-0.018c-0.338-0.067-0.673-0.126-1.009-0.176
	c-0.007-0.001-0.014-0.002-0.021-0.003c-0.371-0.055-0.742-0.113-1.107-0.144c-2.036-0.191-3.965-0.111-5.769,0.026l-5.116,0.467
	c-0.382,0.03-0.745,0.055-1.1,0.075c-0.106,0.006-0.207,0.007-0.311,0.012c-0.295,0.013-0.588,0.025-0.873,0.025
	c-0.238,0.004-0.472-0.006-0.706-0.012c-0.169-0.005-0.339-0.007-0.507-0.016c-0.239-0.013-0.476-0.031-0.713-0.051
	c-0.252-0.022-0.5-0.05-0.747-0.082c-2.187-0.279-4.082-1.009-5.244-2.083c-0.188-0.177-0.358-0.363-0.513-0.558
	c-0.026-0.034-0.06-0.065-0.085-0.099c-0.046-0.06-0.08-0.128-0.123-0.19c-0.124-0.182-0.237-0.371-0.336-0.571
	c-0.053-0.109-0.103-0.221-0.149-0.336c-0.072-0.178-0.131-0.366-0.186-0.558c-0.047-0.167-0.092-0.337-0.126-0.516
	c-0.047-0.246-0.084-0.502-0.107-0.772c-0.013-0.155-0.016-0.316-0.019-0.477c-0.005-0.232,0-0.467,0.013-0.706
	c0.009-0.154,0.013-0.306,0.029-0.464c0.034-0.342,0.086-0.689,0.154-1.041c0.038-0.199,0.09-0.4,0.138-0.6
	c0.049-0.203,0.101-0.406,0.159-0.61c0.057-0.201,0.116-0.402,0.184-0.605c0.079-0.236,0.169-0.471,0.26-0.707
	c0.146-0.377,0.304-0.759,0.479-1.146c0.056-0.125,0.111-0.25,0.169-0.376c0.786-1.683,1.794-3.466,2.803-5.395
	c0.411-0.794,0.821-1.621,1.208-2.487c0.115-0.25,0.212-0.512,0.316-0.771c0.027-0.065,0.053-0.128,0.079-0.193
	c0.224-0.574,0.439-1.154,0.662-1.727c0.164-0.523,0.32-1.05,0.469-1.578c0.049-0.175,0.112-0.349,0.157-0.524
	c0.035-0.134,0.058-0.269,0.092-0.404c0.262-1.023,0.481-2.055,0.616-3.098c0.017-0.112,0.028-0.224,0.044-0.337
	c0.018-0.134,0.036-0.267,0.053-0.401c0.463-3.55,0.311-7.132-0.285-10.608c-0.411-2.403-1.08-4.749-1.952-7.018
	c-0.063-0.166-0.131-0.33-0.197-0.495c-0.144-0.362-0.293-0.721-0.448-1.079c-0.063-0.146-0.118-0.295-0.183-0.441
	c-0.036-0.08-0.077-0.157-0.113-0.236c-0.216-0.476-0.438-0.949-0.67-1.418c-0.019-0.037-0.041-0.071-0.06-0.107
	c-0.374-0.731-0.776-1.445-1.197-2.148c-0.122-0.205-0.251-0.405-0.377-0.607c-0.33-0.53-0.672-1.051-1.026-1.563
	c-0.149-0.215-0.295-0.432-0.447-0.644c-0.45-0.624-0.911-1.237-1.394-1.834c-0.245-0.303-0.502-0.593-0.754-0.888
	c-0.247-0.288-0.492-0.577-0.746-0.858c-0.158-0.176-0.305-0.363-0.466-0.536c-0.174-0.186-0.362-0.357-0.539-0.54
	c-0.228-0.236-0.462-0.465-0.694-0.695c-0.408-0.402-0.819-0.799-1.24-1.184c-0.423-0.386-0.849-0.768-1.285-1.138
	c-0.295-0.25-0.595-0.491-0.896-0.733c-0.345-0.279-0.694-0.553-1.047-0.821c-0.29-0.22-0.578-0.442-0.872-0.655
	c-0.581-0.422-1.17-0.834-1.768-1.229c-0.231-0.153-0.467-0.296-0.7-0.445c-0.478-0.305-0.96-0.603-1.448-0.891
	c-0.271-0.16-0.543-0.316-0.817-0.471c-0.489-0.276-0.983-0.543-1.48-0.803c-0.228-0.119-0.453-0.243-0.682-0.359
	c-0.611-0.307-1.227-0.604-1.848-0.886c-0.058-0.026-0.118-0.05-0.176-0.076c-0.324-0.146-0.652-0.283-0.979-0.423
	c-0.403-0.172-0.808-0.339-1.215-0.502c-0.215-0.086-0.427-0.183-0.643-0.266c0.033,0.017,0.065,0.036,0.098,0.052
	c-3.917-1.515-8.008-2.598-12.237-3.141c-5.267-0.67-10.744-0.472-16.08,0.962c-2.661,0.723-5.279,1.771-7.721,3.196
	c-2.435,1.434-4.684,3.247-6.598,5.304c-2.48,2.661-4.384,5.675-5.891,8.81c-0.013,0.016-0.025,0.03-0.038,0.045
	c-0.168,0.348-0.309,0.701-0.467,1.051c-0.106,0.236-0.214,0.472-0.315,0.709c-0.232,0.538-0.454,1.077-0.665,1.62
	c-0.003,0.009-0.006,0.017-0.01,0.026c-0.894,2.308-1.623,4.647-2.228,6.989c-0.455,1.756-0.824,3.502-1.168,5.268
	c-0.341,1.792-0.603,3.608-0.789,5.445c-0.446,4.833-0.389,9.882,1.212,14.866c0.8,2.464,2.079,4.927,3.826,6.956l0.649,0.703
	c0.201,0.211,0.481,0.534,0.57,0.586c0.261,0.216,0.515,0.442,0.784,0.651c0.549,0.403,1.142,0.759,1.644,1.23
	c0.073,0.068,0.141,0.143,0.209,0.217c0.042,0.046,0.084,0.093,0.123,0.142c0.119,0.146,0.22,0.303,0.308,0.468
	c0.038,0.071,0.076,0.141,0.108,0.215c0.047,0.114,0.089,0.231,0.117,0.353c0.026,0.112,0.042,0.225,0.053,0.339
	c0.015,0.147,0.018,0.294,0.008,0.442c-0.004,0.064-0.014,0.126-0.023,0.19c-0.03,0.219-0.081,0.434-0.157,0.639
	c-0.005,0.015-0.011,0.029-0.017,0.044c-0.094,0.251-0.216,0.489-0.362,0.712c-0.004,0.007-0.008,0.014-0.013,0.021
	c-0.455,0.69-1.132,1.232-1.901,1.54c-1.025,0.438-2.15,0.565-3.258,0.634c-1.609,0.073-3.216,0.146-4.821,0.219
	c-3.596,0.15-7.183,0.299-10.759,0.448c-1.42,0.058-2.837,0.116-4.253,0.174l-0.579,0.023l-0.052,0.003
	c-0.18,0.007-0.361,0.015-0.541,0.022c-0.735,0.033-1.485,0.125-2.226,0.275c-0.114,0.023-0.228,0.044-0.342,0.07
	c-0.151,0.035-0.3,0.076-0.45,0.117c-0.124,0.034-0.248,0.068-0.371,0.106c-0.173,0.054-0.344,0.114-0.514,0.177
	c-0.081,0.03-0.161,0.06-0.241,0.092c-0.203,0.081-0.402,0.168-0.599,0.262c-0.035,0.017-0.07,0.035-0.105,0.052
	c-0.223,0.11-0.44,0.229-0.652,0.358c-0.003,0.002-0.006,0.004-0.009,0.006c-0.439,0.269-0.859,0.57-1.238,0.928
	c-0.018,0.016-0.033,0.035-0.051,0.051c0,0-0.001,0.001-0.001,0.001c-0.004,0.004-0.007,0.008-0.011,0.011
	c-0.596,0.541-1.101,1.178-1.529,1.867c-0.002,0.003-0.004,0.005-0.005,0.008c-0.124,0.2-0.239,0.404-0.35,0.613
	c-0.028,0.051-0.056,0.102-0.083,0.154c-0.097,0.189-0.188,0.381-0.275,0.575c-0.031,0.068-0.06,0.136-0.09,0.205
	c-0.085,0.199-0.165,0.398-0.239,0.6c-0.018,0.05-0.036,0.101-0.054,0.151c-0.254,0.713-0.454,1.436-0.592,2.139
	c-0.034,0.167-0.053,0.329-0.083,0.494c-0.035,0.195-0.068,0.388-0.097,0.579c-0.043,0.284-0.084,0.564-0.118,0.843
	c-0.021,0.176-0.039,0.349-0.056,0.522c-0.117,1.159-0.175,2.271-0.239,3.288c-0.217,3.54-0.434,7.071-0.65,10.595
	c-0.017,0.282-0.034,0.561-0.052,0.844c-0.227,3.654-0.455,7.318-0.68,10.956c-1.541,24.978-2.959,49.685-2.838,74.48
	c-0.015,1.818,0.01,3.635,0.054,5.448c0.079,8.576,0.558,17.334,1.351,26.179c0.086,0.966,0.176,1.933,0.271,2.901
	c0.08,0.819,0.144,1.634,0.229,2.454c0.314,2.664,0.541,5.347,0.945,8.019c0.387,2.675,0.775,5.357,1.164,8.043
	c0.478,2.676,0.957,5.358,1.437,8.042c0.259,1.377,0.443,2.578,0.831,4.218c0.393,1.613,0.927,3.567,2.148,5.727
	c1.276,2.265,3.216,4.252,5.481,5.599c2.228,1.314,4.427,1.952,6.35,2.295c1.946,0.351,3.684,0.437,5.265,0.458
	c0.798,0.013,1.546,0,2.26-0.012l2.002-0.04c5.337-0.13,10.668-0.259,15.981-0.388c10.625-0.298,21.175-0.674,31.552-1.126
	c12.849-0.802,25.796-1.92,39.089-2.885c0.963-0.066,1.941-0.133,2.907-0.199c0.115,0.001,0.234-0.002,0.349-0.001
	c3.109-0.206,6.236-0.414,9.385-0.623c1.534-0.106,3.376-0.146,5.551-0.602c1.081-0.232,2.249-0.586,3.403-1.144
	c1.166-0.563,2.229-1.3,3.166-2.132c0.172-0.156,0.313-0.33,0.475-0.492c0.138-0.138,0.274-0.277,0.405-0.419
	c0.283-0.307,0.549-0.621,0.799-0.944c0.133-0.171,0.265-0.343,0.389-0.518c0.216-0.304,0.417-0.612,0.607-0.925
	c0.101-0.167,0.206-0.333,0.299-0.502c0.01-0.018,0.016-0.036,0.026-0.054c0.358-0.646,0.684-1.301,0.947-1.965
	c0.818-2.092,1.224-4.251,1.274-6.451c0.013-1.188-0.078-2.329-0.233-3.433c-0.012-0.088-0.029-0.174-0.042-0.262
	c-0.067-0.441-0.141-0.877-0.229-1.305c-0.021-0.102-0.045-0.203-0.067-0.304c-0.093-0.428-0.192-0.85-0.301-1.265
	c-0.016-0.061-0.033-0.121-0.05-0.182c-0.125-0.463-0.258-0.919-0.399-1.367c-0.002-0.007-0.004-0.014-0.006-0.02
	c-0.153-0.484-0.312-0.96-0.478-1.427c0,0,0,0,0,0c-0.139-0.39-0.279-0.774-0.423-1.153c-0.029-0.077-0.057-0.158-0.086-0.235
	c-0.011-0.029-0.023-0.052-0.034-0.08c-0.057-0.149-0.114-0.302-0.171-0.449c-1.284-3.144-2.615-2.921-3.275-2.885
	c0.227,1.529,0.386,2.979,0.461,4.375c0.069,0.183,0.136,0.37,0.204,0.555c0.05,1.117,0.033,2.182-0.051,3.197
	c-0.052-0.183-0.089-0.37-0.145-0.552c-0.013,0.162-0.024,0.314-0.036,0.469c-0.089,1.133-0.253,2.232-0.503,3.216
	c0.025,0.164,0.035,0.327,0.056,0.491c-0.336,1.191-0.779,2.271-1.334,3.172c-0.276,0.453-0.577,0.879-0.895,1.277
	c0.022-0.129,0.054-0.255,0.07-0.385c-0.635,0.858-1.343,1.59-2.083,2.139c-0.081,0.121-0.166,0.233-0.251,0.344
	c-0.179,0.114-0.359,0.218-0.539,0.308c-0.648,0.325-1.262,0.454-1.75,0.443c-0.46-0.036-0.94-0.095-1.939-0.146
	c-0.695-0.009-1.714-0.057-2.832-0.11c0.139-0.005,0.278-0.009,0.418-0.015c-7.477-0.337-15.15-0.445-22.933-0.41
	c-0.255,0.001-0.507-0.002-0.762-0.001c-0.213,0.001-0.428,0.005-0.64,0.007c-1.408,0.01-2.819,0.025-4.233,0.044
	c-1.15,0.014-2.3,0.03-3.454,0.05c-0.618,0.011-1.237,0.024-1.856,0.037c-5.782,0.115-11.603,0.29-17.446,0.512
	c-9.29,0.353-18.623,0.808-27.887,1.258c-4.632,0.221-9.247,0.441-13.829,0.66c-2.292,0.101-4.575,0.202-6.849,0.303
	c-1.099,0.043-2.196,0.086-3.29,0.128c-0.992,0.025-1.895,0.014-2.674-0.05c-0.907-0.066-1.603-0.231-2.05-0.386
	c-0.458-0.179-0.499-0.245-0.675-0.389c-0.132-0.038-0.638-0.88-1.028-2.509c-0.208-0.781-0.419-1.811-0.623-2.75l-0.618-2.867
	c-0.402-1.914-0.844-3.819-1.213-5.741l-1.051-5.779c-0.755-3.843-1.237-7.74-1.849-11.611c-0.543-3.884-0.987-7.786-1.447-11.685
	c-1.639-15.626-2.335-31.376-2.409-47.136c-0.085-15.762,0.519-31.542,1.359-47.305c0.141-2.648,0.303-5.297,0.461-7.945
	c0.083-1.384,0.157-2.768,0.243-4.151c0.005-0.087,0.011-0.173,0.017-0.26c0.236-3.766,0.482-7.532,0.735-11.297
	c0.066-1.009,0.121-1.825,0.215-2.571c0.046-0.365,0.1-0.703,0.159-1.018c0.001-0.007,0.003-0.016,0.004-0.023l0.097-0.437
	l0.027-0.1l0.009-0.025l0.02-0.06c0.059-0.166,0.142-0.322,0.247-0.458c0.01-0.013,0.018-0.027,0.028-0.04
	c0.032-0.039,0.071-0.071,0.107-0.105c0.033-0.031,0.065-0.065,0.101-0.091c0.04-0.029,0.085-0.051,0.129-0.074
	c0.034-0.018,0.066-0.039,0.102-0.054c0.066-0.026,0.135-0.042,0.203-0.055c0.018-0.003,0.035-0.009,0.052-0.012
	c0.084-0.012,0.168-0.018,0.25-0.019c0,0,0.001,0,0.001,0c-0.104,0.015,0.996-0.026,1.956-0.04l5.781-0.114
	c0.064-0.002,0.127-0.004,0.192-0.007l0.329-0.006c2.519-0.088,5.023-0.175,7.515-0.262c1.246-0.055,2.488-0.109,3.728-0.163
	c0.383-0.022,1.841-0.075,2.917-0.158c1.138-0.089,2.261-0.229,3.335-0.455c0.355-0.072,0.692-0.166,1.034-0.256
	c0.056-0.015,0.115-0.027,0.171-0.042c0.491-0.134,0.966-0.287,1.428-0.458c0.026-0.01,0.054-0.018,0.081-0.028
	c3.034-1.137,5.443-3.051,6.997-5.636c0.987-1.638,1.62-3.51,1.714-5.426c0.102-1.925-0.346-3.772-1.184-5.301
	c-0.896-1.649-2.255-3.197-4.249-4.654l-1.445-1.085l-0.36-0.27c-0.102-0.078-0.287-0.21-0.295-0.228l-0.264-0.249l-0.53-0.499
	c-0.195-0.169-0.26-0.319-0.402-0.476c-1.009-1.219-1.814-2.844-2.348-4.772c-1.07-3.881-1.032-8.678-0.396-13.445
	c0.7-4.888,1.724-9.839,3.541-14.288c1.809-4.457,4.461-8.494,8.327-11.266c0.421-0.293,0.852-0.566,1.291-0.822
	c0.013-0.007,0.026-0.015,0.039-0.023c0.421-0.244,0.85-0.47,1.284-0.682c0.024-0.012,0.048-0.025,0.072-0.037
	c0.442-0.214,0.892-0.41,1.346-0.592c0.048-0.019,0.097-0.037,0.146-0.056c0.43-0.169,0.864-0.327,1.303-0.469
	c0.021-0.007,0.043-0.014,0.064-0.021c0.934-0.301,1.884-0.542,2.841-0.732c0.01-0.002,0.02-0.005,0.03-0.006
	c0.705-0.142,1.415-0.245,2.125-0.33c0.132-0.016,0.263-0.032,0.394-0.046c0.716-0.075,1.433-0.127,2.15-0.149
	c0.027-0.001,0.053,0,0.08-0.001c1.548-0.042,3.095,0.031,4.621,0.2c2.164,0.231,4.284,0.671,6.36,1.271
	c0.321,0.093,0.641,0.191,0.96,0.291c0.56,0.177,1.119,0.356,1.672,0.557c0.047,0.017,0.094,0.036,0.141,0.053
	c2.892,1.043,5.669,2.388,8.298,4.014c0.019,0.009,0.037,0.02,0.056,0.029c3.011,1.872,5.822,4.106,8.315,6.743
	c1.729,1.859,3.218,3.862,4.446,5.934c1.215,2.054,2.188,4.236,2.904,6.473c1.427,4.472,1.849,9.174,1.061,13.5
	c-0.203,1.079-0.454,2.142-0.797,3.168c-0.326,1.02-0.733,2.035-1.271,3.167c-1.043,2.254-2.491,4.821-3.639,7.964
	c-1.157,3.238-1.871,6.905-1.101,10.942c0.395,1.995,1.243,4.083,2.583,5.8c1.308,1.726,3.023,3.081,4.765,3.956
	c7.061,3.416,13.775,1.607,18.766,0.926c2.58-0.373,4.94-0.532,7.058-0.081c2.128,0.422,4.092,1.577,5.805,3.232
	c1.692,1.686,3.048,3.9,4.085,6.316c1.022,2.431,1.698,5.087,2.084,7.813c0.706,5.486,0.258,11.411,0.423,17.43
	c0.096,3.258,0.716,5.811,1.556,7.607c0.393,0.906,0.896,1.613,1.33,2.175c0.479,0.55,0.931,0.947,1.345,1.219
	C183.159,142.836,184.234,142.054,183.843,140.627z"/>
<path style="fill:#FFFFFF;" d="M108.039,34.715c-0.827-1.282-1.992-2.263-3.488-2.682c-0.467-0.131-0.925-0.24-1.402-0.324
	c0,0.003,0,0.005,0,0.008c-0.491-0.116-0.997-0.198-1.534-0.214c-1.388-0.043-3.135,0.66-4.08,1.69
	c-0.301,0.389-0.602,0.779-0.902,1.168c-0.422,0.662-0.65,1.378-0.685,2.145c-0.165,1.23-0.008,2.605,0.685,3.679
	c0.301,0.389,0.602,0.779,0.902,1.168c0.646,0.642,1.402,1.096,2.255,1.383c0.534,0.38,1.12,0.674,1.697,0.806
	c1.252,0.285,2.457,0.219,3.645-0.282c1.076-0.454,2.116-1.229,2.677-2.291c0.011-0.021,0.02-0.043,0.031-0.064
	c0.369-0.532,0.654-1.111,0.787-1.693C108.968,37.718,108.894,36.041,108.039,34.715z"/>
<path style="fill:#FFFFFF;" d="M266.11,251.121c-0.12-0.253-0.258-0.487-0.387-0.731c-0.031-0.077-0.057-0.162-0.089-0.239
	c-0.34-0.604-0.705-1.174-1.08-1.731c-0.064-0.095-0.128-0.188-0.193-0.281c-0.254-0.367-0.513-0.726-0.78-1.076
	c-0.02-0.026-0.04-0.053-0.06-0.079c-1.548-2.023-3.276-3.806-4.973-5.615c-0.033-0.035-0.066-0.071-0.099-0.106
	c-0.001-0.001-0.002-0.002-0.003-0.003c-0.033-0.035-0.066-0.07-0.098-0.105c-0.301-0.316-0.581-0.392-0.819-0.368
	c0.052-0.139,0.033-0.278-0.075-0.391c-0.027-0.024-0.052-0.049-0.079-0.073c-0.009-0.011-0.012-0.023-0.022-0.034
	c-1.428-1.29-2.83-2.595-4.21-3.912c-0.027-0.026-0.055-0.053-0.082-0.079c-4.088-3.905-7.98-7.918-11.778-11.982
	c-0.121-0.13-0.243-0.259-0.364-0.389c-2.514-2.695-4.989-5.413-7.454-8.143c-1.445-1.602-2.889-3.203-4.336-4.807l-0.197-0.218
	c0.022-0.109,0.059-0.213,0.077-0.323c0.391-2.555-0.223-5.076-1.691-7.371c-0.324-0.581-0.631-1.166-0.967-1.738
	c-0.175-0.29-0.346-0.528-0.525-0.79l-0.362-0.516c-0.467-0.693-0.987-1.322-1.49-1.97c-2.044-2.554-4.297-4.768-6.593-6.802
	c-2.842-2.524-5.779-4.775-8.65-7.04c-0.175-0.138-0.348-0.277-0.523-0.415c-0.258-0.204-0.515-0.409-0.772-0.615
	c-0.488-0.391-0.974-0.784-1.456-1.18c-0.066-0.054-0.133-0.108-0.199-0.163c-0.423-0.348-0.841-0.701-1.259-1.055
	c-0.148-0.126-0.296-0.252-0.443-0.378c-6.052-5.274-11.202-11.408-16.31-17.669c-2.269-2.781-4.542-5.596-6.896-8.399
	c-2.953-3.522-6.064-7.046-9.555-10.509c-5.957-5.939-11.255-10.986-16.699-15.796c-5.449-4.802-11-9.441-17.649-14.353
	c-1.289-0.901-2.263-1.555-3.173-2.103c-0.966-0.655-1.947-1.283-2.938-1.794c-1.532-0.81-3.068-1.325-4.319-1.397
	c-0.394,0.005-0.508,0.053-0.425,0.16c-0.586-0.031-1.129,0.006-1.581,0.135c-0.114,0.031-0.245,0.066-0.359,0.104
	c-0.104,0.037-0.173,0.076-0.21,0.116c-0.005,0.005,0.001,0.011-0.002,0.016c-0.673,0.265-0.476,0.636,0.229,1.007
	c-0.144,0.082-0.292,0.158-0.422,0.26c-0.406,0.316-0.742,0.723-0.97,1.195c-0.133,0.291-0.227,0.606-0.262,0.943
	c-1.57,2.968-2.528,6.332-3.109,9.633c-0.606,3.452-0.852,6.84-1.138,9.922c-0.742,8.773-1.52,16.046,1.042,26.581
	c1.638,6.507,4.387,12.928,7.906,18.965c3.501,6.057,7.686,11.788,12.187,17.178c5.644,6.902,11.089,13.173,16.639,19.33
	c5.56,6.143,11.257,12.129,17.513,18.225c1.87,1.781,3.575,3.449,5.192,5.056c2.432,2.392,4.753,4.674,7.058,6.94l0.987,0.967
	l0.495,0.485l0.248,0.243c0.042,0.022,0.081,0.122,0.125,0.08l0.131-0.106l2.103-1.706c1.418-1.16,2.846-2.328,4.297-3.515
	c1.08-0.894,2.176-1.802,3.302-2.733c0.875-0.747,1.773-1.513,2.7-2.305c1.251-1.047,2.134-1.843,2.816-2.484
	c0.602,0.821,1.205,1.643,1.804,2.461c1.68,2.286,3.358,4.553,5.06,6.792c0.154,0.205,0.31,0.413,0.463,0.618
	c0.411,0.536,0.827,1.068,1.242,1.601c0.129,0.166,0.257,0.332,0.386,0.498c0.695,0.887,1.395,1.768,2.105,2.642
	c0.072,0.089,0.142,0.18,0.215,0.269c-0.006-0.009-0.012-0.018-0.018-0.028c1.842,2.257,3.748,4.461,5.749,6.588
	c0,0,0,0.001,0.001,0.001c0.004,0.004,0.008,0.008,0.011,0.012c0.237,0.252,0.478,0.502,0.718,0.752
	c0.549,0.578,1.108,1.148,1.677,1.71c0.076,0.075,0.153,0.15,0.23,0.225c0.555,0.543,1.118,1.079,1.691,1.607
	c0.255,0.237,0.511,0.475,0.77,0.709c0.329,0.296,0.665,0.587,0.999,0.878c0.352,0.309,0.696,0.624,1.055,0.928l1.224,0.996
	c1.139,0.97,2.431,1.784,3.68,2.682c0.663,0.398,1.329,0.797,1.996,1.197l1.011,0.596l1.057,0.528l2.14,1.043l1.312,0.517
	c0.011,0.005,0.022,0.01,0.033,0.014c0.002,0,0.004,0.001,0.005,0.001l0.883,0.348c1.477,0.61,3.066,1.07,4.697,1.45
	c3.261,0.731,6.888,0.979,10.506,0.117c3.686-0.871,7.055-2.961,9.392-6.036c1.389-1.932,2.325-4.395,2.419-6.846
	C267.705,255.5,267.073,253.113,266.11,251.121z M124.16,112.316c0.009-0.005,0.018-0.011,0.027-0.016
	c-0.011,0.013-0.024,0.026-0.035,0.039C124.154,112.331,124.157,112.323,124.16,112.316z M198.019,226.454
	c-2.524,2.154-5.06,4.318-7.613,6.497l-1.695,1.509l-0.433,0.38c-0.144,0.085-0.294,0.385-0.429,0.143l-0.833-0.764l-1.77-1.656
	l-3.007-2.876c-3.987-3.849-7.88-7.76-11.618-11.761c-7.478-7.993-14.326-16.38-20.016-25.148c-1.245-2.069-1.634-3.899-3.005-6.45
	c-0.917-1.642-1.858-3.265-2.861-4.719c-3.563-5.055-6.85-9.87-9.814-14.883c-2.966-5.008-5.664-10.197-7.894-15.966
	c-0.533-1.43-1.099-2.828-1.59-4.277c-0.439-1.459-0.908-2.949-1.065-4.572c0.022-1.013,0.209-1.644,0.06-3.009
	c-0.66-4.964-1.14-10.104-1.059-14.884c0.056-4.622,0.705-8.818,1.688-12.318c0.215-0.173,0.42-0.365,0.623-0.572
	c0.159,0.129,0.317,0.259,0.477,0.391c0.84,0.564,1.754,1.342,2.725,2.247c0.975,0.895,2.042,1.989,3.075,2.952
	c2.116,1.937,4.145,3.985,6.325,6.058c14.02,13.302,25.954,28.243,39.456,43.266c7.275,8.06,14.729,15.768,22.915,22.532
	c4.046,3.361,8.063,6.526,11.525,10.03c1.729,1.749,3.313,3.578,4.665,5.519c0.354,0.477,0.658,0.978,0.969,1.475
	c0.23,0.35,0.368,0.638,0.547,0.962c0.332,0.615,0.686,1.297,0.54,2.013c-0.234,0.919-1.121,1.414-1.778,1.986l-3.716,3.057
	c-2.555,2.117-5.117,4.24-7.688,6.371C203.169,222.133,200.6,224.288,198.019,226.454z M260.436,256.863
	c-0.012,0.098-0.022,0.196-0.037,0.293c-0.043,0.287-0.101,0.57-0.182,0.847c-0.016,0.057-0.033,0.114-0.051,0.171
	c-0.095,0.294-0.215,0.583-0.357,0.87c-0.035,0.069-0.07,0.138-0.108,0.207c-0.131,0.243-0.285,0.485-0.452,0.726
	c-0.084,0.122-0.175,0.242-0.269,0.362c-0.187,0.234-0.386,0.464-0.604,0.685c-0.078,0.08-0.16,0.158-0.243,0.235
	c-0.232,0.22-0.478,0.432-0.737,0.633c-0.122,0.094-0.248,0.183-0.375,0.272c-0.221,0.156-0.45,0.304-0.685,0.443
	c-0.17,0.1-0.345,0.193-0.521,0.284c-0.278,0.142-0.559,0.278-0.849,0.391c-1.785,0.705-3.925,0.964-6.068,0.786
	c-0.622-0.049-1.247-0.128-1.868-0.241c-0.974-0.148-1.956-0.357-2.94-0.615c-0.983-0.277-1.964-0.616-2.95-0.919
	c-0.977-0.335-1.922-0.766-2.888-1.144c-0.952-0.413-1.869-0.913-2.808-1.365c-3.688-1.96-7.125-4.467-10.297-7.308
	c-3.76-3.373-7.141-7.182-10.288-11.216c-0.188-0.242-0.382-0.478-0.569-0.721c-0.448-0.583-0.885-1.175-1.323-1.767
	c-0.578-0.779-1.148-1.565-1.712-2.358c-0.247-0.346-0.497-0.689-0.742-1.038c-0.607-0.867-1.206-1.741-1.8-2.62
	c-0.006-0.009-0.012-0.017-0.018-0.026c-0.021-0.031-0.043-0.061-0.063-0.092c-0.268-0.377-0.535-0.752-0.801-1.126
	c-0.057-0.085-0.118-0.166-0.184-0.248c-0.05-0.078-0.173-0.172-0.181-0.243l0.119-0.201l0.063-0.116l0.034-0.063l0.017-0.033
	l0.11-0.132l1.031-1.229c0.108-0.133,0.217-0.266,0.325-0.399c2.301-0.957,5.744-3.08,8.812-5.588
	c0.14-0.125,0.273-0.245,0.412-0.369c0.088-0.07,0.178-0.138,0.265-0.209c1.497-1.34,2.972-2.66,4.431-3.966l1.795-1.579
	c0.655-0.573,1.257-1.177,1.789-1.809c6.949,8.904,15.191,14.995,23.802,22.366c0.312,0.365,0.626,0.726,0.94,1.086
	c1.251,1.414,2.517,2.785,3.802,4.138c0.852,0.898,1.72,1.785,2.598,2.667c0.025,0.262,0.05,0.534,0.076,0.791
	c-0.033-0.033-0.064-0.068-0.098-0.101c0.047,0.402,0.093,0.8,0.156,1.197l0.108,0.172c0.015,0.089,0.023,0.179,0.04,0.268
	c0.123,0.687,0.323,1.372,0.605,2.084c0.12,0.242,0.22,0.479,0.331,0.719c-0.01-0.015-0.019-0.031-0.03-0.046
	c0.214,0.461,0.412,0.919,0.589,1.369c0.004,0.01,0.008,0.02,0.011,0.03c0.148,0.377,0.272,0.745,0.387,1.111
	c0.057,0.186,0.107,0.368,0.155,0.551c0.063,0.233,0.12,0.463,0.165,0.689c0.038,0.188,0.062,0.369,0.089,0.552
	c0.042,0.305,0.084,0.611,0.086,0.9C260.492,256.211,260.47,256.539,260.436,256.863z"/>
</svg>
