<?xml version="1.0" encoding="iso-8859-1"?>
<!-- Generator: Adobe Illustrator 21.1.0, SVG Export Plug-In . SVG Version: 6.00 Build 0)  -->
<svg version="1.1" id="Calque_1" xmlns="http://www.w3.org/2000/svg" xmlns:xlink="http://www.w3.org/1999/xlink" x="0px" y="0px"
	 viewBox="0 0 283.46 283.46" style="enable-background:new 0 0 283.46 283.46;" xml:space="preserve">
<g>
	<path style="fill:#FFFFFF;" d="M110.326,11.57c1.625,0.252,3.267,0.421,4.871,0.768c13.485,2.916,23.505,10.607,29.775,22.754
		c7.126,13.806,5.995,27.517-2.044,40.661c-1.905,3.114-0.198,6.261,2.174,6.826c0.519,0.124,1.071,0.15,1.608,0.151
		c5.758,0.01,11.517,0.005,17.275,0.007c9.433,0.003,17.519,6.425,19.599,15.632c0.311,1.376,0.489,2.814,0.493,4.224
		c0.038,12.296,0.031,24.591,0.016,36.887c-0.004,3.421-2.707,5.732-6.019,5.219c-2.438-0.378-4.166-2.485-4.167-5.111
		c-0.004-12.126,0.003-24.253-0.004-36.379c-0.003-5.037-3.069-8.968-7.826-10.016c-0.752-0.166-1.543-0.216-2.317-0.218
		c-5.724-0.018-11.449,0.012-17.173-0.016c-5.724-0.028-10.185-2.447-12.943-7.476c-2.79-5.089-2.48-10.223,0.651-15.11
		c7.817-12.201,6.431-27.532-3.518-38.111c-5.224-5.555-11.511-9.198-19.152-10.151c-8.689-1.083-16.565,1.108-23.363,6.606
		c-8.416,6.806-12.34,15.76-11.82,26.566c0.267,5.551,2.087,10.643,5.108,15.324c4.897,7.588,1.875,17.6-6.354,21.172
		c-1.887,0.819-3.871,1.188-5.928,1.187c-5.724-0.003-11.449-0.003-17.173-0.001c-6.08,0.002-10.262,4.197-10.262,10.288
		c0,50.741,0,101.482,0,152.222c0,5.935,4.224,10.171,10.171,10.172c37.226,0.004,74.451,0.003,111.677,0.001
		c5.917,0,10.188-4.25,10.221-10.16c0.011-1.998-0.003-3.997,0.003-5.995c0.009-2.782,1.991-4.965,4.691-5.178
		c2.622-0.207,5.23,1.64,5.38,4.315c0.233,4.175,0.541,8.403-0.607,12.523c-2.438,8.754-10.158,14.704-19.303,14.711
		c-37.463,0.031-74.926,0.038-112.389-0.002c-11.303-0.012-20.038-8.899-20.038-20.183c0-50.91,0-101.82,0-152.731
		c0-11.367,8.851-20.21,20.227-20.211c5.691,0,11.381-0.027,17.072,0.015c1.863,0.014,3.316-0.603,4.23-2.248
		c0.903-1.626,0.583-3.134-0.396-4.668C57.02,51.142,70.714,18.524,99.377,12.471c1.683-0.355,3.415-0.475,5.123-0.714
		c0.252-0.035,0.497-0.123,0.745-0.187C106.939,11.57,108.633,11.57,110.326,11.57z"/>
	<path style="fill:#FFFFFF;" d="M269.46,255.25c-0.357,1.678-0.567,3.403-1.093,5.025c-4.822,14.878-23.57,19.349-34.655,8.282
		c-11.05-11.033-22.086-22.08-33.124-33.126c-0.286-0.286-0.523-0.62-0.837-0.997c-2.128,2.129-4.131,4.134-6.136,6.138
		c-2.539,2.538-5.475,2.537-8.018-0.007c-12.024-12.023-24.103-23.992-36.057-36.084c-15.389-15.567-25.339-34.111-29.845-55.536
		c-2.933-13.943-3.047-27.946-0.611-41.98c0.379-2.181,1.408-3.821,3.563-4.515c2.188-0.704,4.017,0.003,5.617,1.604
		c44.949,44.964,89.908,89.919,134.862,134.878c3.576,3.576,5.665,7.872,6.158,12.924c0.018,0.186,0.115,0.365,0.175,0.548
		C269.46,253.353,269.46,254.301,269.46,255.25z M214.406,205.042c-28.771-28.771-57.609-57.609-86.503-86.503
		c-0.088,1.429-0.217,2.899-0.263,4.372c-0.256,8.255,0.424,16.429,2.177,24.506c4.131,19.032,12.961,35.567,26.601,49.455
		c10.7,10.895,21.578,21.617,32.378,32.415c0.258,0.258,0.531,0.502,0.702,0.664C197.872,221.576,206.196,213.253,214.406,205.042z
		 M207.03,227.345c0.07,0.086,0.147,0.199,0.241,0.293c11.298,11.301,22.577,22.62,33.911,33.884
		c2.597,2.581,5.858,3.499,9.443,2.753c4.074-0.848,6.851-3.333,8.059-7.322c1.219-4.026,0.288-7.661-2.684-10.645
		c-11.133-11.178-22.302-22.321-33.459-33.475c-0.183-0.183-0.39-0.341-0.535-0.467C217.002,217.37,212.053,222.32,207.03,227.345z"
		/>
	<path style="fill:#FFFFFF;" d="M107.998,43.104c-2.909,0.01-5.202-2.154-5.224-4.931c-0.022-2.919,2.228-5.244,5.059-5.227
		c2.829,0.017,5.121,2.292,5.125,5.083C112.962,40.861,110.778,43.095,107.998,43.104z"/>
</g>
</svg>
