<?xml version="1.0" encoding="iso-8859-1"?>
<!-- Generator: Adobe Illustrator 21.1.0, SVG Export Plug-In . SVG Version: 6.00 Build 0)  -->
<svg version="1.1" xmlns="http://www.w3.org/2000/svg" xmlns:xlink="http://www.w3.org/1999/xlink" x="0px" y="0px"
	 viewBox="0 0 283.46 283.46" style="enable-background:new 0 0 283.46 283.46;" xml:space="preserve">
<g id="Calque_1" style="display:none;">
	<g style="display:inline;">
		<path d="M35.04,205.94c0.223-0.54,0.423-1.091,0.673-1.617c1.153-2.42,3.039-3.847,5.722-4.179
			c0.278-0.034,0.555-0.071,0.831-0.116c0.075-0.012,0.145-0.057,0.325-0.131c1.106-22.327,8.763-42.189,23.378-59.195
			c14.586-16.972,33.004-27.583,54.903-32.118c-1.196-11.305,8.28-20.592,18.887-20.45c10.6,0.142,19.518,9.364,18.452,20.443
			c21.884,4.549,40.308,15.141,54.899,32.114c14.6,16.983,22.251,36.803,23.404,59.371c1.272,0,2.53-0.017,3.787,0.003
			c3.651,0.06,6.4,2.132,7.22,5.503c0.505,2.078,0.206,4.067-1.043,5.834c-2.908,4.112-5.756,8.27-8.793,12.285
			c-5.004,6.616-11.783,10.015-20.04,10.024c-50.833,0.056-101.666,0.06-152.499-0.004c-8.546-0.011-15.42-3.668-20.463-10.617
			c-2.653-3.655-5.291-7.322-7.859-11.037c-0.734-1.061-1.197-2.31-1.784-3.472C35.04,207.7,35.04,206.82,35.04,205.94z
			 M229.134,199.984c-2.55-31.898-16.862-56.621-44.243-73.2c-29.247-17.709-66.763-16.599-95.077,2.749
			c-24.691,16.873-37.624,40.603-39.828,70.45C109.8,199.984,169.325,199.984,229.134,199.984z M42.903,207.665
			c2.954,4.112,5.76,8.047,8.606,11.954c0.513,0.704,1.149,1.333,1.792,1.927c3.588,3.314,7.876,4.689,12.716,4.685
			c27.596-0.021,55.192-0.01,82.789-0.01c22.677,0,45.354-0.011,68.031,0.007c6.163,0.005,11.223-2.236,14.924-7.222
			c2.573-3.466,5.033-7.014,7.539-10.529c0.168-0.236,0.293-0.503,0.469-0.811C174.13,207.665,108.631,207.665,42.903,207.665z
			 M128.385,107.287c3.832-0.16,7.494-0.435,11.156-0.432c3.69,0.003,7.379,0.282,11.178,0.444c0.005-4.223-1.647-7.569-5.17-9.808
			c-3.833-2.436-7.873-2.501-11.767-0.151C130.115,99.552,128.386,102.938,128.385,107.287z"/>
		<path d="M61.211,188.077c0.453-1.915,0.966-4.544,1.7-7.11c5.309-18.56,15.458-33.801,31.175-45.184
			c1.519-1.1,3.113-2.102,4.716-3.077c2.045-1.244,4.292-0.718,5.41,1.191c1.095,1.87,0.476,4.003-1.517,5.249
			c-18.414,11.514-29.236,28.243-33.825,49.252c-0.094,0.429-0.151,0.866-0.25,1.294c-0.437,1.902-2.231,3.202-4.07,2.958
			C62.504,192.378,61.173,190.847,61.211,188.077z"/>
		<path d="M136.336,121.707c1.078,0,2.157-0.029,3.234,0.006c2.163,0.071,3.7,1.638,3.708,3.739
			c0.009,2.116-1.481,3.761-3.651,3.785c-5.567,0.062-11.068,0.625-16.514,1.801c-2.239,0.484-4.164-0.753-4.585-2.774
			c-0.46-2.207,0.773-4.195,3.106-4.585c4.873-0.815,9.771-1.483,14.658-2.212C136.307,121.547,136.322,121.627,136.336,121.707z"/>
		<circle cx="157.418" cy="125.554" r="3.416"/>
	</g>
</g>
<g id="Calque_2">
	<g>
		<path style="fill:#FFFFFF;" d="M167.858,94.695c-2.786-1.102-5.38-1.799-8.236-2.498c-1.151-0.243-2.297-0.485-3.439-0.727
			c-1.131-0.231-2.288-0.495-3.589-0.703c-1.277-0.204-2.728-0.331-4.149-0.212c-1.399,0.109-2.675,0.391-3.857,0.689
			c-4.569,1.208-9.027,2.496-13.643,3.813c-8.111,2.355-15.907,4.619-23.593,7.196c-7.616,2.596-15.466,5.251-22.643,10.178
			c-4.535,3.197-8.505,6.952-12.338,10.623c-3.809,3.696-7.606,7.188-11.492,10.64c-0.93,0.759-1.888,1.042-3.038,1.969
			c-0.709,0.638-1.424,1.278-1.973,1.997c-3.847,5.029-6.597,10.02-9.353,15.829c-0.683,1.437-1.124,2.93-2.028,4.368
			c-0.346,0.408-0.684,0.591-1.038,1.232c-1.218,2.358-2.157,5.114-2.574,7.834c-0.428,2.717-0.302,5.38,0.281,7.433
			c0.011-0.043,0.027-0.08,0.038-0.122c0.009,0.033,0.012,0.068,0.021,0.1c0.068-0.266,0.156-0.502,0.246-0.729
			c0.008,0.052,0.028,0.105,0.038,0.158c0.064,0.561,0.167,1.137,0.363,1.755c0.22-0.769,0.502-1.322,0.585-2.01
			c0.394-3.47,1.27-7.02,2.869-9.499c2.383-3.49,5.026-5.497,8.045-9.073c3.811-4.386,7.21-9.655,10.969-14.86
			c2.416-3.277,4.999-6.138,7.667-8.938c2.678-2.805,5.374-5.528,8.278-8.239c3.421-3.254,6.173-4.869,9.822-7.198
			c2.913-1.648,2.06-1.871,4.388-1.999c1.178,0.035,3.096-0.371,4.871-1.077c0.099-0.047,0.197-0.09,0.296-0.136
			c0.025-0.01,0.05-0.016,0.074-0.026c3.26-1.514,6.452-2.952,9.689-4.334c2.365-1.003,4.776-1.96,7.336-2.839
			c0.821-0.279,1.653-0.551,2.51-0.812c5.7-1.664,11.483-2.328,17.218-3.834c1.887-0.493,3.781-1.083,5.69-1.845
			c1.836-0.706,3.621-1.457,5.024-1.976c1.453-0.53,2.591-0.815,4.187-0.813c1.542-0.006,3.319,0.176,5.08,0.297
			c1.779,0.151,3.615,0.307,5.568,0.473c0.76,0.066,1.327,0.083,1.847,0.073c1.426,0.082,2.864,0.08,4.026-0.019
			c0.22-0.019,0.278-0.067,0.238-0.133c0.35-0.013,0.693-0.031,1.008-0.058c0.208-0.018,0.308-0.062,0.339-0.122
			C170.286,96.236,168.883,95.192,167.858,94.695z"/>
		<path style="fill:#FFFFFF;" d="M189.656,97.788c-1.717-0.182-3.553,0.596-4.621,1.941c-1.086,1.34-1.523,3.06-1.398,4.621
			c0.115,1.574,0.887,3.048,2.022,3.997c1.147,0.945,2.639,1.364,3.997,1.208c1.379-0.15,2.538-1.052,3.123-2.081
			c0.6-1.037,0.868-2.053,0.995-3.123c0.094-1.052,0.181-2.318-0.371-3.747C192.886,99.188,191.397,97.916,189.656,97.788z"/>
		<path style="fill:#FFFFFF;" d="M279.5,192.358c-1.16-0.25-2.32-0.47-3.48-0.708c0.406-1.104,0.762-2.425,0.915-3.563
			c0.806-8.112-0.124-15.5-2.001-23.183c-3.336-12.231-8.822-23.3-15.378-33.312c-6.585-10.026-14.257-19.049-22.458-27.754
			c-7.248-7.623-14.59-14.958-22.698-21.419c-8.086-6.491-17.056-11.762-26.467-15.713c-7.292-3.021-14.894-5.247-22.666-6.655
			c1.729-2.856,2.125-6.662,1.27-10.147c-0.941-3.972-3.385-7.626-6.621-10.211c-3.213-2.596-7.081-4.066-10.951-4.544
			c-3.887-0.457-7.746-0.184-11.475,0.617c-3.721,0.811-7.234,2.289-10.355,4.331c-3.092,2.083-5.796,4.731-7.797,7.862
			c-2.002,3.182-3.006,6.533-4.068,9.651c-0.555,1.649-1.144,3.386-1.536,5.173c-8.317,2.193-16.447,4.992-24.334,8.277
			c-6.096,2.54-12.053,5.365-17.862,8.425c-5.788,3.071-11.507,6.279-17.099,10.17c-2.621,1.71-5.034,2.39-8.174,4.883
			c-1.966,1.689-3.849,3.476-5.298,5.411c-5.093,6.769-8.604,13.57-11.828,20.176c-1.572,3.316-3.144,6.632-4.739,9.996
			c-1.587,3.44-3.19,7.019-4.668,10.856c-1.463,3.799-2.382,7.713-3.932,11.836c-0.628,1.206-1.293,1.855-1.829,3.668
			c-1.841,6.612-2.443,13.835-2.218,20.447c0.175,4.694,0.739,9.086,1.543,12.961c-1.93,0.367-3.861,0.727-5.791,1.126l-0.007,1.358
			l0.28,0.004c1.259,3.247,2.863,6.228,4.596,9.109c1.873,3.072,3.913,6.014,6.104,8.84c2.19,2.827,4.524,5.542,7.026,8.126
			c2.52,2.571,5.169,5.043,8.245,7.184c-1.298-3.516-3.024-6.701-4.879-9.787c-1.872-3.072-3.913-6.014-6.098-8.844
			c-2.184-2.831-4.518-5.546-7.02-8.131c-2.256-2.304-4.636-4.513-7.319-6.487l5.445,0.08c0.166,0.663,0.339,1.307,0.518,1.93
			c0.019-0.099,0.043-0.184,0.063-0.28c0.02,0.073,0.034,0.15,0.055,0.222c0.125-0.64,0.27-1.217,0.412-1.778
			c0.215,1.448,0.533,2.949,1.006,4.564c0.334-1.729,0.818-3.061,0.927-4.614l24.636,0.362l33.999,0.287l67.998,0.562l68,0.108
			l34,0.048l28.685-0.137c0.21,0.238,0.449,0.214,0.702-0.003l2.986-0.014c-2.01,1.754-3.788,3.66-5.47,5.628
			c-2.107,2.499-4.035,5.114-5.811,7.829c-1.777,2.714-3.394,5.532-4.834,8.466c-1.422,2.946-2.705,5.982-3.532,9.317
			c2.72-2.098,4.983-4.495,7.107-6.983c2.106-2.499,4.035-5.114,5.805-7.833c1.771-2.718,3.388-5.536,4.828-8.47
			c1.224-2.539,2.329-5.157,3.148-7.96l0.386-0.002L279.5,192.358z M117.99,58.823c1.658-2.945,3.145-5.859,5.163-8.031
			c1.977-2.224,4.461-3.98,7.137-5.219c2.656-1.282,5.529-2.058,8.388-2.297c2.854-0.257,5.765,0.225,8.405,1.092
			c2.648,0.857,5.113,1.872,7.37,3.103c2.228,1.221,4.252,2.861,5.894,5.042c1.457,1.944,2.6,4.285,3.109,7.23
			c-11.772-1.931-23.91-1.984-35.96,0.014c-3.811,0.663-7.585,1.48-11.327,2.408C116.734,61.048,117.365,59.944,117.99,58.823z
			 M211.546,182.98c-22.658-1.805-45.32-2.705-67.987-2.83c-22.666-0.13-45.336,0.548-68.011,2.127
			c-19.524,1.437-39.051,3.407-58.586,6.921c0.182-7.692,0.461-15.553,2.438-21.759c1.616-4.965,3.752-9.06,6.196-12.939
			c2.433-3.883,5.249-7.577,8.567-12.302c2.08-2.927,4.181-5.982,6.268-9.255c2.087-3.272,4.045-6.615,5.99-9.902
			c3.882-6.589,7.736-13.029,12.486-18.557c6.145-6.978,14.007-12.161,21.932-16.74c8.007-4.475,16.393-8.164,25.506-11.26
			c10.777-3.749,18.755-4.55,29.289-5.862c8.121-0.585,6.511-1.708,11.651,0.216c2.482,1.193,6.967,2.316,11.373,2.954
			c0.192,0.019,0.381,0.042,0.572,0.062c0.121,0.019,0.242,0.042,0.362,0.06c8.337,0.839,16.139,2.371,23.768,4.892
			c3.685,1.263,7.321,2.766,10.917,4.567c0.331,0.169,0.659,0.348,0.989,0.523c1.52,0.821,3.033,1.684,4.536,2.616
			c0.455,0.285,0.908,0.58,1.36,0.878c0.328,0.213,0.656,0.425,0.983,0.645c0.842,0.574,1.681,1.166,2.516,1.786
			c7.279,5.575,13.376,12.675,19.5,19.943c3.079,3.656,6.105,7.293,9.18,10.907c3.02,3.558,6.112,7.115,9.398,10.694
			c6.294,6.924,11.281,13.323,15.623,20.222c4.296,6.924,8.031,14.377,10.679,23.758c0.481,1.747,0.882,3.049,1.267,4.234
			c0.89,3.502,1.737,7.073,2.457,9.984c0.127,0.546,0.25,0.698,0.365,0.555c0.067,0.334,0.132,0.659,0.197,0.983
			C252.741,187.026,232.145,184.708,211.546,182.98z"/>
		<path style="fill:#FFFFFF;" d="M145.984,232.422c18.706-0.008,37.412-0.471,56.117-1.467c18.706-1.049,37.412-2.507,56.117-5.319
			c-18.706-2.812-37.412-4.27-56.117-5.319c-18.706-0.996-37.412-1.459-56.117-1.467c-18.706-0.011-37.412,0.454-56.117,1.449
			c-18.706,1.045-37.412,2.508-56.117,5.338c18.706,2.829,37.412,4.292,56.117,5.338
			C108.572,231.968,127.278,232.433,145.984,232.422z"/>
	</g>
</g>
</svg>
