<?xml version="1.0" encoding="iso-8859-1"?>
<!-- Generator: Adobe Illustrator 21.1.0, SVG Export Plug-In . SVG Version: 6.00 Build 0)  -->
<svg version="1.1" id="Calque_1" xmlns="http://www.w3.org/2000/svg" xmlns:xlink="http://www.w3.org/1999/xlink" x="0px" y="0px"
	 viewBox="0 0 283.46 283.46" style="enable-background:new 0 0 283.46 283.46;" xml:space="preserve">
<g>
	<path d="M35.04,205.94c0.223-0.54,0.423-1.091,0.673-1.617c1.153-2.42,3.039-3.847,5.722-4.179
		c0.278-0.034,0.555-0.071,0.831-0.116c0.075-0.012,0.145-0.057,0.325-0.131c1.106-22.327,8.763-42.189,23.378-59.195
		c14.586-16.972,33.004-27.583,54.903-32.118c-1.196-11.305,8.28-20.592,18.887-20.45c10.6,0.142,19.518,9.364,18.452,20.443
		c21.884,4.549,40.308,15.141,54.899,32.114c14.6,16.983,22.251,36.803,23.404,59.371c1.272,0,2.53-0.017,3.787,0.003
		c3.651,0.06,6.4,2.132,7.22,5.503c0.505,2.078,0.206,4.067-1.043,5.834c-2.908,4.112-5.756,8.27-8.793,12.285
		c-5.004,6.616-11.783,10.015-20.04,10.024c-50.833,0.056-101.666,0.06-152.499-0.004c-8.546-0.011-15.42-3.668-20.463-10.617
		c-2.653-3.655-5.291-7.322-7.859-11.037c-0.734-1.061-1.197-2.31-1.784-3.472C35.04,207.7,35.04,206.82,35.04,205.94z
		 M229.134,199.984c-2.55-31.898-16.862-56.621-44.243-73.2c-29.247-17.709-66.763-16.599-95.077,2.749
		c-24.691,16.873-37.624,40.603-39.828,70.45C109.8,199.984,169.325,199.984,229.134,199.984z M42.903,207.665
		c2.954,4.112,5.76,8.047,8.606,11.954c0.513,0.704,1.149,1.333,1.792,1.927c3.588,3.314,7.876,4.689,12.716,4.685
		c27.596-0.021,55.192-0.01,82.789-0.01c22.677,0,45.354-0.011,68.031,0.007c6.163,0.005,11.223-2.236,14.924-7.222
		c2.573-3.466,5.033-7.014,7.539-10.529c0.168-0.236,0.293-0.503,0.469-0.811C174.13,207.665,108.631,207.665,42.903,207.665z
		 M128.385,107.287c3.832-0.16,7.494-0.435,11.156-0.432c3.69,0.003,7.379,0.282,11.178,0.444c0.005-4.223-1.647-7.569-5.17-9.808
		c-3.833-2.436-7.873-2.501-11.767-0.151C130.115,99.552,128.386,102.938,128.385,107.287z"/>
	<path d="M61.211,188.077c0.453-1.915,0.966-4.544,1.7-7.11c5.309-18.56,15.458-33.801,31.175-45.184
		c1.519-1.1,3.113-2.102,4.716-3.077c2.045-1.244,4.292-0.718,5.41,1.191c1.095,1.87,0.476,4.003-1.517,5.249
		c-18.414,11.514-29.236,28.243-33.825,49.252c-0.094,0.429-0.151,0.866-0.25,1.294c-0.437,1.902-2.231,3.202-4.07,2.958
		C62.504,192.378,61.173,190.847,61.211,188.077z"/>
	<path d="M136.336,121.707c1.078,0,2.157-0.029,3.234,0.006c2.163,0.071,3.7,1.638,3.708,3.739c0.009,2.116-1.481,3.761-3.651,3.785
		c-5.567,0.062-11.068,0.625-16.514,1.801c-2.239,0.484-4.164-0.753-4.585-2.774c-0.46-2.207,0.773-4.195,3.106-4.585
		c4.873-0.815,9.771-1.483,14.658-2.212C136.307,121.547,136.322,121.627,136.336,121.707z"/>
	<circle cx="157.418" cy="125.554" r="3.416"/>
</g>
</svg>
