<?xml version="1.0" encoding="iso-8859-1"?>
<!-- Generator: Adobe Illustrator 21.1.0, SVG Export Plug-In . SVG Version: 6.00 Build 0)  -->
<svg version="1.1" xmlns="http://www.w3.org/2000/svg" xmlns:xlink="http://www.w3.org/1999/xlink" x="0px" y="0px"
	 viewBox="0 0 283.46 283.46" style="enable-background:new 0 0 283.46 283.46;" xml:space="preserve">
<g id="Calque_1">
	<path style="fill:#231F20;" d="M31.111,27.943c0.056-0.024,0.094-0.041,0.094-0.041S31.17,27.917,31.111,27.943z"/>
</g>
<g id="Calque_2">
	<path style="fill:#231F20;" d="M277.039,213.831c-9.374-42.673-34.353-14.542-34.353-14.542s21.34-17.862,23.721,5.332
		c0.6,21.974-4.604,43.052-19.73,56.08c-3.204,2.477-6.822,4.784-10.858,7.033c-16.818,7.698-30.726-3.438-36.129-8.843
		c-21.641-23.07-30.343-50.96-30.343-50.96s-2.49-7.319-4.708-17.759c23.458-1.951,48.945-15.457,58.982-21.679
		c14.961-9.275,39.935-48.31,25.461-73.706c-11.407-14.487-28.1-12.646-41.366-7.644c2.953-4.088,5.945-9.163,8.911-15.664
		c0.522-1.064-5.969,11.312-14.834,16.486c-7.352,4.29-6.26,3.364-10.83,7.736c-0.724,0.468-1.369,0.898-1.927,1.279
		c-4.234,2.458-6.894,2.313-13.972,3.546c-3.05,0.531-4.562-0.04-6.361-0.908c-2.326-1.211-4.446-2.996-5.076-3.907
		c-11.056-12.128-16.052-21.71-19.985-29.679c0,0-7.428-14.663-12.908-38.959c-0.012-0.051-0.019-0.088-0.027-0.14
		c-0.144-0.88-1.827-10.61-6.761-15.907c0.003-0.029,0.004-0.061,0.008-0.09c-0.119-0.091-0.234-0.173-0.352-0.262
		c-1.031-1.032-2.194-1.873-3.51-2.405c-0.006-0.002-0.011-0.002-0.017-0.005C97.531-5.424,90.903,24.651,90.903,24.651
		s-9.647,51.438,15.404,101.423c5.398,10.771,7.484,13.993,8.263,14.954c-5.466-1.355-17.522-6.417-37.527-25.05
		c-4.734-25.267-14.981-52.11-32.389-76.566C38.882,30.969,33.79,28.668,30.707,28.15c0.182-0.1,0.32-0.168,0.404-0.206
		c-0.088,0.039-0.242,0.105-0.46,0.197c-1.916-0.311-3.042,0.066-3.042,0.066s-2.918,0.898-4.389,2.505
		c-0.077,0.022-0.15,0.044-0.228,0.065c-16.771,13.898-7.905,42.913,20.369,75.116c1.558,1.775,3.18,3.448,4.838,5.052
		c0.379,4.532,0.686,9.147,0.889,13.791c0.628,14.331,4.9,44.748,4.472,65.68c-3.571-2.809-7.427-5.35-11.685-7.3
		c-2.47-1.132-5.094-2.029-7.811-2.594c-2.713-0.565-5.559-0.754-8.34-0.376c-5.57,0.663-10.729,3.907-13.136,8.453
		c0.979-0.817,2.026-1.492,3.123-2.035c1.089-0.55,2.2-1,3.335-1.312c1.134-0.316,2.288-0.472,3.414-0.587
		c0.575-0.014,1.132-0.068,1.701-0.032l0.84,0.019l0.84,0.088c4.467,0.48,8.615,2.483,12.472,4.959
		c1.916,1.285,3.796,2.644,5.578,4.183l1.352,1.125l1.311,1.195c0.88,0.784,1.732,1.61,2.583,2.445
		c1.169,1.144,2.31,2.326,3.44,3.524c-0.667,3.775-1.702,6.703-3.223,8.423c-9.225,10.432-27.296,6.347-32.751,1.607
		c-5.455-4.74-9.914-15.391-4.016-23.603c-12.465,11.623,2.539,28.861,2.539,28.861s14.424,14.812,42.612-3.022
		c1.52-0.962,2.981-2.128,4.377-3.485l0.479,0.01c2.412,0.048,5.009-0.289,7.49-1.24c2.486-0.931,4.732-2.504,6.488-4.305
		c3.549-3.653,5.319-7.875,6.638-11.841c2.542-8.004,3.243-15.763,4.368-23.175c0.562-3.682,1.146-7.326,2.205-10.517
		c0.527-1.581,1.177-3.04,2.004-4.106c0.544-0.696,1.134-1.216,1.837-1.586c5.569-1.153,16.303,8.836,39.813,28.119
		c3.152,2.585,6.665,4.464,10.427,5.759c0.548,8.497,1.764,15.18,2.567,18.445c2.212,8.995,24.19,76.835,80.689,73.313
		C227.123,279.828,281.834,273.338,277.039,213.831z M26.677,32.156c3.283,1.13,7.9,5.273,11.764,18.369
		c1.271,4.307,3.804,15.578,6.113,30.293C21.748,51.919,23.036,38.197,26.677,32.156z M143.734,173.033
		c-13.229-4.689-28.285-13.931-37.382-19.456c-0.088-0.069-0.169-0.144-0.258-0.213c-1.574-1.218-3.268-2.333-5.174-3.25
		c-0.664-0.306-1.363-0.594-2.095-0.839c-0.107-0.043-0.214-0.086-0.3-0.112c-0.47-0.145-0.888-0.245-1.277-0.32
		c-0.922-0.198-1.894-0.309-2.928-0.274c-1.248,0.049-2.559,0.328-3.766,0.864c-1.21,0.53-2.295,1.293-3.192,2.151
		c-1.803,1.73-2.991,3.703-3.945,5.637c-1.853,3.9-2.907,7.779-3.861,11.586c-0.66,2.621-1.219,5.215-1.787,7.768
		c2.555-13.178,3.23-28.698,1.5-45.333c15.231,6.606,29.163,9.055,35.382,9.882c0.29,0.34,0.361,0.311,0.361,0.311
		s-0.03-0.149-0.048-0.313c-0.73-4.837-9.795-66.407-0.496-80.023c0.439,6.674,29.998,45.694,42.239,50.36
		c0,0,5.33,1.679,15.654-0.962c-7.32,6.793-14.222,14.775-19.282,24.574C146.787,147.252,144.33,160.859,143.734,173.033z
		 M166.482,134.894c19.76-35.852,44.183-41.647,45.857-41.442c15.055,0.584,4.904,36.093,2.245,40.81
		c-5.603,16.827-33.037,38.18-52.406,41.295C160.503,161.726,160.637,146.2,166.482,134.894z"/>
	<g>
	</g>
	<g>
	</g>
	<g>
	</g>
	<g>
	</g>
	<g>
	</g>
	<g>
	</g>
</g>
</svg>
