<?xml version="1.0" encoding="iso-8859-1"?>
<!-- Generator: Adobe Illustrator 21.1.0, SVG Export Plug-In . SVG Version: 6.00 Build 0)  -->
<svg version="1.1" xmlns="http://www.w3.org/2000/svg" xmlns:xlink="http://www.w3.org/1999/xlink" x="0px" y="0px"
	 viewBox="0 0 595.28 841.89" style="enable-background:new 0 0 595.28 841.89;" xml:space="preserve">
<g id="Calque_1" style="display:none;">
	<g style="display:inline;">
		<g>
			<path d="M359.05,139.254l-0.446-0.022l-0.892-0.043l-13.007-0.607c-2.086-0.082-4.175-0.157-6.267-0.223
				c-0.411-0.013-0.822-0.023-1.233-0.035c-0.74-0.021-1.478-0.048-2.219-0.063c-0.274-0.006-0.55-0.008-0.825-0.013
				c-0.464-0.01-0.93-0.015-1.394-0.023c-4.983-0.085-9.995-0.06-15.02,0.138c-0.312,0.012-0.624,0.023-0.935,0.036
				c-1.075,0.047-2.15,0.106-3.226,0.17c-0.232,0.014-0.464,0.022-0.697,0.037c-0.26,0.016-0.52,0.04-0.78,0.057
				c-0.839,0.057-1.678,0.116-2.517,0.185c-0.976,0.079-1.951,0.171-2.927,0.268c-0.504,0.05-1.009,0.096-1.513,0.151
				c-1.214,0.132-2.428,0.284-3.641,0.446c-0.346,0.046-0.693,0.084-1.039,0.133c-1.484,0.209-2.967,0.44-4.446,0.698
				c-0.102,0.018-0.204,0.03-0.306,0.048c-6.794,1.182-13.531,2.932-20.022,5.333c-0.142,0.052-0.283,0.106-0.425,0.159
				c-1.219,0.457-2.431,0.932-3.631,1.437c-0.116,0.049-0.231,0.101-0.347,0.151c-1.104,0.469-2.198,0.96-3.283,1.471
				c-0.171,0.08-0.344,0.158-0.514,0.239c-1.143,0.546-2.272,1.12-3.391,1.713c-0.157,0.083-0.314,0.166-0.47,0.251
				c-1.735,0.933-3.443,1.917-5.113,2.968c0.151-0.084,0.308-0.157,0.46-0.239c-3.222,2.019-6.311,4.242-9.188,6.726
				c-2.104,1.887-4.181,3.83-5.995,5.971l-2.722,3.209l-2.428,3.401c-3.072,4.617-5.689,9.506-7.561,14.607
				c-1.878,5.092-3.335,10.302-4.258,15.567c-0.905,5.264-1.512,10.56-1.723,15.853c-0.16,4.139-0.193,8.279-0.065,12.407
				c-0.004,0.027-0.007,0.052-0.011,0.079l0.198,4.675l0.201,2.816l0.241,2.578l0.031,0.324l0.004,0.038
				c-0.001,0,0,0.002-0.001,0.002l-0.028-0.024l-0.061-0.054l-0.121-0.108l-0.488-0.434c-0.03-0.026-0.061-0.051-0.091-0.078
				l-0.069-0.062c-0.002-0.003-0.005-0.001-0.007-0.004c-0.027-0.023-0.052-0.049-0.08-0.069l-0.342-0.017l-0.688-0.034
				c-1.947-0.103-8.961-0.313-14.289-0.232c-3.115,0.03-6.224,0.108-9.325,0.245l-4.645,0.242l-2.815,0.185l-3.141,0.236
				l-3.208,0.264l-1.6,0.135l-0.4,0.034c-0.095-0.02-0.055,0.082-0.07,0.135l-0.012,0.187l-0.047,0.748l-0.37,5.957l-0.244,4.851
				l-0.173,4.24c-0.215,5.871-0.328,11.724-0.353,17.561c2.788-0.673,6.528,1.308,6.879,4.527c0.143,1.317,0.282,2.632,0.412,3.947
				c0.906,0.723,1.757,1.547,2.566,2.436c-0.177-7.709-0.227-15.379-0.133-23.033c0.084-4.107,0.168-8.209,0.252-12.312
				l-0.031-0.862c0.003-0.143-0.026-0.318,0.003-0.444l0.432-0.076l0.452-0.076c0.181-0.026,0.249-0.048,0.545-0.079l0.764-0.09
				l1.66-0.129c4.759-0.355,9.539-0.587,14.341-0.685c2.401-0.055,4.807-0.068,7.219-0.055l1.878,0.019l2.829,0.086l0.704,0.021
				c0.065,0.013,0.102-0.021,0.191,0.03l0.333,0.263l0.665,0.525l2.648,2.088l2.63,2.066l0.655,0.513l0.916,0.742l2.208,1.813
				l0.199-3.95l0.053-0.977l0.014-0.234l0.021-0.002l0.042-0.003l0.17-0.01l0.174-0.006l0.088-0.001l0.044,0
				c0.008-0.027,0.046,0.064,0.025-0.076l-0.223-2.248c-0.29-2.968-0.615-6.01-0.835-8.726l-0.362-4.148l-0.089-1.025l-0.045-0.68
				l-0.091-1.361c-0.129-1.817-0.246-3.639-0.296-5.462c-0.281-7.295-0.106-14.665,0.881-22.021
				c0.088-0.607,0.194-1.204,0.295-1.804c0.913-5.194,2.267-10.139,4.103-14.76c1.619-4.029,3.598-7.813,5.935-11.305
				c0.032-0.048,0.065-0.096,0.098-0.143c0.308-0.458,0.63-0.904,0.951-1.352c0.291-0.4,0.582-0.801,0.885-1.192
				c0.657-0.884,1.348-1.737,2.057-2.573c0.194-0.228,0.384-0.461,0.582-0.686c0.303-0.345,0.616-0.682,0.928-1.019
				c0.179-0.194,0.359-0.388,0.541-0.58c6.042-6.327,13.643-11.178,22.161-14.821l0.462-0.211
				c5.909-2.472,12.292-4.343,19.066-5.732c9.864-1.93,19.922-2.63,29.921-2.796c5.007-0.08,10.016-0.019,15.029,0.108
				c2.514,0.078,5.022,0.156,7.523,0.234l1.883,0.069l0.736,0.027l0.216,0.001l0.873,0.011l0.45,0.004l0.229,0.001
				c0.088-0.009,0.024,0.109,0.043,0.158l0,0.801l0.002,0.415l0.001,0.212c-0.001,0.097,0.007,0.043-0.011,0.431l-0.141,3.483
				c-0.167,4.641-0.334,9.268-0.5,13.889c-0.137,4.621-0.274,9.235-0.411,13.847l-0.091,3.459l-0.044,1.73l-0.005,0.216l0.002,0.088
				l0.005,0.159l0.01,0.323l0.038,1.356l0.018,0.717l0.009,0.369l0.004,0.187c0.011,0.044-0.008,0.052-0.043,0.039l-0.084-0.011
				c-0.434-0.052-0.88-0.13-1.358-0.143c-0.246-0.012-0.459-0.034-0.746-0.038l-0.905-0.005l-0.567,0.002l-1.005,0.024
				c-0.669,0.02-1.339,0.027-2.005,0.062c-1.328,0.137-2.664,0.185-3.973,0.423l-1.967,0.306l-1.939,0.422
				c-1.3,0.248-2.549,0.681-3.818,1.023c-2.487,0.842-4.945,1.764-7.244,2.987c-4.653,2.331-8.803,5.521-12.224,9.282
				c-3.385,3.796-5.931,8.177-7.555,12.803c-1.603,4.635-2.371,9.51-2.129,14.376c0.012,1.217,0.196,2.427,0.324,3.638
				c0.077,0.604,0.215,1.203,0.321,1.804c0.111,0.601,0.217,1.202,0.393,1.792l0.522,1.939c0.227,0.682,0.486,1.35,0.724,2.021
				c0.021,0.062,0.046,0.123,0.068,0.185c1.612-1.492,3.21-2.997,4.815-4.493l-0.175-0.72c-0.065-0.293-0.158-0.58-0.194-0.879
				l-0.266-1.63c-0.024-0.184-0.042-0.369-0.064-0.554c-0.248-2.216-0.283-4.455-0.099-6.686c0.019-0.194,0.046-0.387,0.068-0.581
				c0.051-0.431,0.102-0.862,0.17-1.291c0.006-0.042,0.015-0.083,0.021-0.125c0.283-1.758,0.701-3.497,1.245-5.199
				c0.178-0.554,0.377-1.101,0.59-1.643c0.05-0.127,0.107-0.253,0.159-0.38c0.187-0.456,0.378-0.911,0.586-1.359
				c0.002-0.005,0.005-0.01,0.007-0.015c0.512-1.098,1.085-2.17,1.703-3.214c0.286-0.492,0.594-0.971,0.914-1.442
				c0.143-0.208,0.295-0.41,0.443-0.615c0.223-0.309,0.443-0.621,0.679-0.921c0.046-0.059,0.095-0.116,0.141-0.174
				c0.727-0.913,1.504-1.789,2.32-2.629c0.42-0.437,0.857-0.861,1.309-1.272c0.046-0.042,0.095-0.081,0.141-0.123
				c1.343-1.207,2.809-2.304,4.357-3.294c1.039-0.711,2.179-1.287,3.289-1.901c0.004-0.002,0.009-0.004,0.013-0.006
				c1.155-0.537,2.295-1.101,3.503-1.535c2.394-0.918,4.884-1.654,7.437-2.076c2.545-0.425,5.134-0.703,7.71-0.612l0.483,0
				c0.17,0.002,0.483,0.044,0.718,0.064l1.519,0.152l1.518,0.152c0.508,0.053,1.079,0.186,1.615,0.275l3.253,0.604l3.176,0.656
				l0.169-0.225c0.059-0.071,0.03-0.258,0.049-0.381l0.048-0.829l0.095-1.658l0.191-3.314l0.368-6.358l0.52-8.952
				c0.351-5.965,0.702-11.926,1.052-17.882l0.531-8.933l0.376-6.353l0.193-3.31l0.096-1.656c0.003-0.068,0.011-0.141,0.009-0.205
				L359.05,139.254z"/>
			<path d="M357.104,308.346c-0.04-1.171-0.08-2.344-0.121-3.52c-0.025-0.936-0.039-1.874-0.052-2.812
				c-0.006-0.444-0.012-0.888-0.015-1.332c-0.013-1.705-0.004-3.416,0.023-5.13c0.013-0.797,0.028-1.594,0.049-2.393
				c0.022-0.847,0.044-1.695,0.076-2.544c0.005-0.144,0.016-0.288,0.022-0.432c-1.149,0.321-2.424,0.294-3.659-0.25
				c-2.048-0.903-3.773-2.065-5.329-3.399c-0.116,0.451-0.241,0.886-0.351,1.348c-0.043,0.418-0.077,0.836-0.117,1.254
				c-0.128,0.547-0.261,1.082-0.383,1.646c-0.881,4.119-1.571,8.725-1.889,14.154c-0.036,1.209-0.073,2.42-0.109,3.634l-0.026,1.825
				l-0.008,0.568l-0.024-0.687l-0.007,0.579l-0.003,0.289l-0.002,0.145c-0.001,0.039-0.005,0.016-0.007,0.027
				c-0.012,0.023-0.027,0.106-0.039,0.152l-0.076,0.303c-0.05,0.186-0.093,0.342-0.138,0.471c-0.304-0.062-0.569-0.134-0.778-0.193
				l-0.15-0.045l-0.069-0.022l-0.741-0.03l-3.101-0.119c-4.142-0.138-8.309-0.277-12.498-0.416c-4.19-0.109-8.403-0.219-12.635-0.33
				c-2.583-0.045-5.191-0.09-7.783-0.135c-4.426-0.078-8.844-0.156-13.291-0.234c0.325,7.982,0.652,15.998,0.98,24.038
				c0.245,5.325,0.491,10.666,0.737,16.015c0.551,10.696,1.104,21.426,1.656,32.133c1.152,21.41,2.355,42.72,3.346,63.475
				c0.207,4.525,0.412,9.016,0.616,13.468c0.455,9.004,0.91,18.006,1.364,27.005l0.089,1.718c0.002,0.215-0.018,0.438-0.108,0.641
				c-0.044,0.108-0.109,0.196-0.187,0.268c-0.004,0.004-0.008,0.007-0.012,0.01c-0.241,0.213-0.61,0.283-0.937,0.299l-12.999,0.608
				c-16.319,0.743-32.623,1.484-48.907,2.225l0.016-1.45l0.084-3.807l0.222-11.462c0.031-1.903,0.044-3.804,0.071-5.707
				c0.011-0.667,0.023-1.334,0.034-2.001c0.034-2.378,0.052-4.754,0.079-7.131c0.03-2.69,0.077-5.381,0.1-8.07
				c0.02-2.544,0.013-5.085,0.025-7.628c0.012-2.587,0.032-5.174,0.035-7.76c-0.003-0.105-0.006-0.211-0.009-0.315
				c0.016-10.022-0.006-20.039-0.109-30.046c-0.156-15.233-0.447-30.448-0.869-45.641c-0.065-2.011-0.129-4.019-0.193-6.029
				c0.01,0.207,0.02,0.412,0.03,0.619c-0.079-2.369-0.158-4.733-0.238-7.1c-0.11-3.421-0.22-6.844-0.329-10.263l-0.103-2.672
				c0-0.014-0.001-0.029-0.001-0.043c-0.002-0.047-0.004-0.094-0.006-0.141l-0.337-8.715l-0.105-2.243
				c-0.002-0.04-0.003-0.079-0.005-0.119l-0.405-8.711l-0.203-4.374l-0.101-2.192l-0.051-1.097
				c-0.017-0.365-0.022-0.751-0.094-1.028l-8.826,3.706l-2.73,1.097c0.373,3.172,0.622,6.358,1.088,9.515
				c0.546-0.217,1.09-0.439,1.637-0.674l0.101-0.042c0.014,0.005,0.022,0.021,0.027,0.039c0.002,0.027,0.005,0.053,0.008,0.078
				l0.012,0.276l0.024,0.551l0.047,1.098l0.092,2.183c0.07,1.745,0.141,3.488,0.211,5.23c0.153,4.188,0.306,8.365,0.458,12.538
				c0.028,0.835,0.056,1.671,0.083,2.506c0.114,3.427,0.208,6.848,0.295,10.267c0.027,1.049,0.06,2.1,0.085,3.148
				c0.088,3.732,0.161,7.457,0.23,11.18c0.181,10.413,0.268,20.793,0.26,31.142c-0.009,9.705-0.104,19.382-0.276,29.038
				c-0.027,1.519-0.056,3.038-0.087,4.557c-0.176,8.595-0.419,17.172-0.726,25.734c-0.065,1.801-0.13,3.603-0.201,5.403
				c-0.098,2.504-0.199,5.007-0.308,7.509c-0.043,0.984-0.09,1.967-0.134,2.951c-0.125,2.748-0.251,5.496-0.39,8.241l-0.238,4.671
				c-0.112,2.539-0.224,5.076-0.336,7.609c-0.109,2.556-0.218,5.116-0.333,7.812c3.922-0.1,7.855-0.201,11.797-0.301
				c1.596-0.037,3.193-0.073,4.793-0.11l3.372-0.057c4.501-0.082,9.023-0.164,13.563-0.246c2.844-0.061,5.706-0.122,8.564-0.183
				c0.3-0.006,0.595-0.011,0.895-0.017c0.906-0.02,1.823-0.04,2.73-0.06c5.066-0.108,10.146-0.217,15.247-0.327
				c4.654-0.114,9.32-0.229,13.997-0.344c0.689-0.016,1.377-0.055,2.06-0.109c0.311-0.023,0.619-0.054,0.926-0.091
				c0.158-0.019,0.316-0.035,0.473-0.058c0.404-0.059,0.804-0.13,1.198-0.216c0.253-0.054,0.499-0.123,0.747-0.189
				c0.204-0.055,0.405-0.116,0.605-0.179c0.151-0.049,0.31-0.081,0.458-0.136c0.063-0.022,0.121-0.055,0.184-0.078
				c0.37-0.138,0.732-0.291,1.085-0.46c0.166-0.08,0.326-0.17,0.487-0.258c0.281-0.151,0.556-0.314,0.824-0.488
				c0.109-0.071,0.22-0.138,0.326-0.212c0.043-0.03,0.089-0.055,0.132-0.086c0.133-0.101,0.256-0.213,0.383-0.319
				c0.617-0.486,1.202-1.011,1.713-1.609c1.352-1.599,2.227-3.527,2.658-5.613c0.219-1.043,0.323-2.128,0.353-3.225
				c0.013-0.548,0.017-1.099,0.001-1.651l-0.036-1.147c-0.287-9.058-0.576-18.146-0.864-27.244
				c-1.232-36.39-2.781-72.929-4.601-108.31c-0.362-5.517-0.724-11.046-1.088-16.593c-0.192-2.773-0.384-5.55-0.576-8.332
				c-0.015-0.243-0.017-0.177-0.024-0.213l-0.017-0.059l-0.035-0.123l-0.072-0.27l-0.15-0.639c0.224-0.055,0.495-0.11,0.813-0.164
				l0.247-0.041l0.065-0.01c0.046-0.003-0.021-0.008,0.159-0.009l0.777-0.012l3.111-0.047c4.152-0.061,8.319-0.122,12.504-0.183
				c4.185-0.055,8.387-0.11,12.609-0.165c0.719-0.018,1.819-0.03,3.17-0.037c0.27,0.008,0.544,0.016,0.813,0.024
				c4.844-0.007,9.703-0.013,14.625-0.02c-0.3-4.072-0.575-8.107-0.816-12.113C357.243,311.138,357.173,309.743,357.104,308.346z"/>
			<path d="M327.791,245.789c-2.149-1.802-3.973-2.716-5.737-3.406c-1.756-0.652-3.423-0.991-5.103-1.069
				c-1.66-0.08-3.331,0.112-5.112,0.597c-1.772,0.181-3.695,0.496-6.318,1.299l-0.31,0.514c0.37,0.253,0.749,0.492,1.133,0.725
				c-0.191,0.126-0.38,0.25-0.577,0.389l-0.144,0.583c1.788,0.556,3.617,0.991,5.469,1.297c0.065,0.011,0.13,0.015,0.195,0.026
				c1.587,0.542,3.224,0.937,4.881,1.203c1.959,0.266,3.944,0.374,5.915,0.233c1.971-0.131,3.922-0.495,5.797-1.082l-0.147-0.582
				c-0.044-0.03-0.085-0.055-0.129-0.084c0.093-0.02,0.187-0.031,0.28-0.051L327.791,245.789z"/>
		</g>
		<g>
			<path style="fill:none;" d="M282.032,41.111C135.712,41.683,17.55,160.773,18.122,307.092
				c0.572,146.319,119.661,264.482,265.981,263.91c146.319-0.572,264.481-119.661,263.909-265.981
				C547.44,158.701,428.351,40.539,282.032,41.111z M231.486,489.825l-0.677-173.186l-34.064,0.133l-0.238-60.884l34.064-0.133
				 M302.43,316.359l0.677,173.186l-71.622,0.28 M302.192,255.547l53.551-0.209l-6.038,60.837l-47.276,0.185 M230.571,255.756
				l-0.154-39.383c-0.11-28.16,13.089-72.329,71.989-72.559l53.038,0.023l0.231,59.083l-38.485,0.15
				c-6.323,0.025-15.19,3.218-15.137,16.642l0.14,35.835"/>
			<path d="M368.962,170.245c-0.046-4.924-0.091-9.844-0.137-14.76c-0.004-6.806-0.008-13.605-0.013-20.397
				c-5.365-0.041-10.724-0.081-16.08-0.122c-0.805-0.015-1.608-0.03-2.413-0.046c-3.763-0.065-7.523-0.144-11.28-0.239
				c-0.948-0.024-1.896-0.048-2.844-0.074c-4.371-0.12-8.739-0.254-13.104-0.419c-0.028-0.001-0.055,0-0.083-0.001
				c-0.08-0.003-0.16-0.005-0.241-0.008c-4.921-0.107-9.751-0.054-14.543,0.109c-2.331,0.052-4.965,0.271-7.449,0.457
				c-1.256,0.083-2.51,0.295-3.76,0.444c-1.25,0.185-2.497,0.293-3.742,0.555c-4.982,0.846-9.905,2.139-14.751,3.754
				c-4.831,1.694-9.556,3.807-14.091,6.387c-0.718,0.374-1.424,0.748-2.12,1.123c-3.387,1.799-6.519,3.646-9.502,5.614
				c-3.681,2.432-7.185,5.044-10.485,8.152c-0.06,0.078-0.121,0.157-0.181,0.235c-1.801,1.709-3.542,3.553-5.202,5.596
				c-2.417,2.944-4.429,6.085-6.114,9.309c-1.661,3.235-2.933,6.567-3.938,9.918c-1.946,6.722-2.704,13.528-2.556,20.259
				c0.019,1.683,0.13,3.365,0.263,5.041l0.247,2.501l0.288,2.406c0.388,3.213,0.779,6.447,1.174,9.714
				c0.773,6.537,1.497,13.215,1.979,20.159c0.52,7.484,5.905,8.458,5.941,6.617c-0.004-0.075-0.006-0.15-0.01-0.225
				c0.004-0.029,0.017-0.053,0.018-0.084c-0.421-8.141-0.699-16.2-0.881-24.205c-0.069-4.003-0.138-7.991-0.207-11.97l-0.029-2.971
				c0.014-0.952-0.006-1.904,0.037-2.855c0.063-1.903,0.182-3.804,0.383-5.695c0.146-1.397,0.34-2.787,0.558-4.173
				c0.104-0.67,0.215-1.339,0.338-2.006c0.108-0.586,0.222-1.17,0.344-1.754c0.152-0.728,0.317-1.453,0.491-2.175
				c0.103-0.432,0.201-0.865,0.312-1.294c0.277-1.066,0.578-2.125,0.901-3.177c0.097-0.318,0.201-0.635,0.302-0.952
				c0.278-0.866,0.575-1.725,0.884-2.58c0.12-0.33,0.234-0.663,0.359-0.992c0.432-1.126,0.89-2.242,1.382-3.342
				c0.066-0.147,0.136-0.292,0.203-0.439c0.447-0.983,0.922-1.953,1.416-2.912c0.126-0.244,0.249-0.489,0.378-0.732
				c0.54-1.016,1.106-2.019,1.7-3.006c0.287-0.474,0.594-0.936,0.894-1.403c0.27-0.424,0.543-0.845,0.824-1.262
				c0.416-0.614,0.842-1.221,1.281-1.82c0.353-0.478,0.716-0.948,1.084-1.416c0.338-0.434,0.674-0.869,1.025-1.295
				c0.725-0.873,1.473-1.729,2.249-2.562c0.134-0.145,0.271-0.288,0.407-0.431c1.81-1.907,3.744-3.709,5.812-5.378
				c5.837-4.65,12.659-8.195,20.055-10.735c2.629-0.863,5.304-1.664,8.041-2.317c0.17-0.04,0.338-0.082,0.508-0.122
				c0.942-0.218,1.891-0.421,2.849-0.599c4.177-0.813,8.417-1.349,12.665-1.623c0.121-0.008,0.241-0.017,0.361-0.024
				c1.392-0.085,2.785-0.143,4.176-0.171c5.879-0.11,11.785-0.11,17.609-0.105c2.528,0.006,5.044,0.024,7.557,0.046
				c0.61,0.006,1.222,0.01,1.831,0.016c2.045,0.021,4.083,0.051,6.12,0.083c1.139,0.018,2.279,0.036,3.415,0.058
				c1.591,0.034,3.179,0.067,4.766,0.1c2.297,0.058,4.595,0.116,6.882,0.173l1.029,0.033l0.125,0.006l0.551,0.031l1.234,0.075
				l2.316,0.163c-0.124,1.519-0.248,3.034-0.372,4.545c-0.139,2.639-0.277,5.272-0.415,7.9c-0.018,0.309-0.036,0.618-0.054,0.926
				c-0.305,5.266-0.652,10.513-1.049,15.749c-0.079,1.046-0.158,2.091-0.237,3.133c-0.293,3.763-0.553,7.579-0.779,11.437
				c-0.054,0.965-0.109,1.932-0.164,2.901l-0.039,0.728l-0.01,0.182c-0.003,0.068-0.006,0.127-0.01,0.114l-0.02,0.043l-0.079,0.154
				c-0.103,0.187-0.199,0.303-0.286,0.366c-0.259-0.087-0.432-0.165-0.544-0.234l-0.039-0.026l-0.017-0.012
				c-0.026-0.004,0.057-0.009-0.146-0.012l-1.694-0.04l-3.392-0.071c-4.526-0.085-9.062-0.134-13.588-0.145
				c-4.526-0.012-9.043,0.014-13.53,0.077l-0.985,0.024l-1.184,0.052c-0.791,0.068-1.577,0.139-2.367,0.26
				c-1.581,0.255-3.162,0.589-4.733,1.149c-3.128,1.053-6.228,2.832-8.653,5.256c-2.163,2.237-3.647,4.896-4.525,7.488
				c-0.935,2.622-1.146,5.139-1.221,7.554l0.055,1.771l0.035,0.882l0.068,0.72c0.092,0.952,0.185,1.907,0.278,2.864
				c0.178,1.915,0.357,3.839,0.537,5.775c0.048,0.545,0.093,1.092,0.139,1.639c-0.005,0.085-0.006,0.173-0.01,0.259
				c0.614,7.245,1.047,14.666,0.887,22.387c-0.037,1.839,1.309,2.087,1.982,2.208c0.449-0.863,0.922-1.649,1.404-2.397
				c0.004-0.111,0.005-0.222,0.009-0.333c0.38-0.593,0.767-1.154,1.156-1.694c-0.003,0.106-0.006,0.212-0.009,0.319
				c0.064-0.086,0.124-0.168,0.185-0.251c0.448-0.605,0.892-1.205,1.316-1.778c0.002-0.1,0.005-0.2,0.007-0.3
				c0.795-1.036,1.559-2.043,2.282-3.067c0.007,0.102,0.01,0.204,0.017,0.307c0.503-0.717,0.98-1.44,1.414-2.206
				c0.017-0.147,0.035-0.295,0.052-0.442c0.099-0.176,0.213-0.338,0.307-0.519c0.713-1.367,1.295-2.88,1.667-4.653
				c0.1-0.687,0.18-1.384,0.268-2.077c0.002,0.112,0.004,0.223,0.006,0.334c0.555-4.35,0.872-8.814,1.038-13.343
				c0.006-0.149,0.016-0.297,0.021-0.446l0.02-0.655c0.007-0.239,0.02-0.475,0.027-0.714l0.013-0.574l0.001-0.046
				c0.02-0.641,0.019-1.417,0.07-1.814c0.043-0.421,0.047-0.863,0.092-1.272c0.008-0.068,0.01-0.141,0.021-0.206
				c0.048-0.265,0.084-0.53,0.122-0.796c0.019-0.192,0.051-0.372,0.092-0.54c0.044-0.213,0.101-0.4,0.153-0.596
				c0.091-0.329,0.189-0.63,0.292-0.918c0.033-0.088,0.066-0.177,0.101-0.261c0.056-0.144,0.117-0.276,0.178-0.41
				c0.261-0.539,0.554-1,0.871-1.383c0.099-0.174,0.25-0.298,0.392-0.432c0.102-0.1,0.209-0.198,0.325-0.29
				c0.177-0.136,0.337-0.291,0.566-0.399c0.501-0.353,1.172-0.631,1.922-0.871c0.744-0.25,1.619-0.403,2.506-0.48l0.334-0.033
				l0.525-0.022l1.084-0.042l2.165-0.085c5.767-0.227,11.492-0.451,17.101-0.57c1.619-0.025,3.225-0.051,4.817-0.076l8.205-0.226
				c4.626-0.077,9.251-0.153,13.873-0.23C369.403,194.082,369.182,182.152,368.962,170.245z"/>
			<path d="M358.819,270.637c0.001-0.007,0.002-0.015,0.002-0.022c0.259-3.388,0.241-6.743,0.077-10.116l-0.089-1.624l-0.051-0.814
				c-0.007-0.159-0.022-0.219-0.023-0.46l-0.005-0.686c-0.028-1.75-0.056-3.507-0.084-5.274c-0.079-3.385-0.2-6.49-0.319-9.362
				c-1.173,0.162-2.363,0.326-3.561,0.491c-0.844,0.054-1.639,0.076-2.411,0.077c-1.121-0.005-2.196-0.052-3.259-0.146
				c-0.096-0.008-0.192-0.019-0.288-0.028c-0.56-0.053-1.12-0.112-1.689-0.183l-0.957-0.127c-0.299-0.045-0.708-0.091-0.875-0.14
				l-1.302-0.314c-0.868-0.229-1.742-0.46-2.633-0.696l-0.078,0.009c-0.991-0.263-2-0.525-3.055-0.752
				c-12.035-2.965-22.397,3.434-34.651,5.516c-3.302,0.561-3.717,6.571-2.905,6.616c0.033-0.004,0.066-0.007,0.099-0.011
				c0.013,0.004,0.023,0.02,0.037,0.02c14.367-1.793,28.159-1.048,42.162-1.051c-0.008-0.004-0.015-0.008-0.023-0.011l1.147,0.001
				l2.384-0.026c1.118-0.029,2.259-0.085,3.507-0.183c-0.007,0.342-0.006,0.703-0.009,1.053c-0.007,0.009-0.013,0.018-0.019,0.027
				c-0.01,1.035-0.001,2.111,0.029,3.289l0.006,0.626l0.001,0.319l-0.018,0.531l-0.088,2.212c-0.068,1.356-0.137,2.705-0.205,4.051
				c-0.061,1.067-0.13,2.129-0.202,3.189c-0.092,1.36-0.192,2.714-0.302,4.063c-0.094,1.15-0.193,2.297-0.3,3.439
				c-0.071,0.758-0.139,1.518-0.215,2.273c-0.183,1.794-0.382,3.58-0.598,5.356c-0.065,0.535-0.134,1.068-0.201,1.602
				c-1.103,8.657-2.592,17.121-4.497,25.483l-0.365,1.584c-0.449,0.623-0.807,0.85-1.087,0.849
				c-0.215-0.134-0.374-0.256-0.499-0.367c-0.026-0.024-0.053-0.047-0.075-0.07c-0.107-0.105-0.183-0.2-0.227-0.283l-0.017-0.034
				c-0.001-0.011,0.023-0.022-0.164-0.032l-0.802-0.058l-1.606-0.1c-1.071-0.059-2.144-0.104-3.216-0.135
				c-4.287-0.122-8.565-0.013-12.734,0.333c-3.535,0.601-7.1,1.629-10.772,2.392c-0.038-0.005-0.077-0.007-0.114-0.012
				c-3.196,0.666-6.47,1.131-9.878,0.931c-0.812-0.046-0.917,1.456-0.969,2.207c0.382,0.504,0.73,1.034,1.062,1.574
				c0.048,0.005,0.097,0.006,0.145,0.011c0.262,0.425,0.509,0.859,0.749,1.295l-0.137-0.011l0.111,0.208
				c0.266,0.497,0.531,0.993,0.788,1.475c0.044,0.002,0.088,0.007,0.132,0.009c0.459,0.89,0.906,1.746,1.36,2.556
				c-0.045,0.007-0.09,0.011-0.135,0.018c0.318,0.564,0.638,1.098,0.977,1.584c0.065,0.022,0.13,0.039,0.195,0.059
				c0.078,0.111,0.15,0.238,0.23,0.344c0.605,0.799,1.274,1.453,2.058,1.873c0.303,0.114,0.611,0.204,0.917,0.305
				c-0.049,0.003-0.098,0.003-0.148,0.006c1.922,0.632,3.894,0.997,5.894,1.194c0.119,0.012,0.238,0.025,0.358,0.036
				c0.364,0.032,0.728,0.058,1.094,0.079c0.292,0.018,0.585,0.035,0.879,0.046c0.162,0.006,0.325,0.009,0.488,0.013
				c6.207,0.166,12.617-1.019,18.704-1.347c0.669-0.025,1.332-0.051,1.989-0.075l2.404-0.185l4.185-0.18
				c2.823-0.107,5.644-0.215,8.463-0.322c0.353-5.49,0.704-10.97,1.056-16.445c0.149-2.41,0.316-4.815,0.5-7.217
				c0.16-2.098,0.332-4.194,0.522-6.285c0.308-3.382,0.667-6.753,1.064-10.115c0.18-1.517,0.372-3.032,0.572-4.545
				c0.081-0.614,0.158-1.229,0.243-1.842c0.301-2.179,0.619-4.353,0.967-6.523c0.002-0.012,0.002-0.024,0.004-0.037
				c0.006-0.04,0.012-0.081,0.018-0.121C358.66,272.538,358.746,271.587,358.819,270.637z"/>
			<path d="M310.325,396.827c-0.05-0.914-0.069-1.803-0.069-2.678c0.001-0.166,0.004-0.331,0.006-0.496
				c0.006-0.588,0.026-1.166,0.051-1.741c0.02-0.418,0.037-0.837,0.066-1.25c0.009-0.138,0.022-0.274,0.032-0.411
				c0.255-3.37,0.77-6.598,1.272-9.989c-0.003-0.041-0.005-0.082-0.008-0.123c0.23-1.552,0.459-3.131,0.657-4.782
				c2.59-18.843-3.097-35.089-4.971-54.288c-0.505-5.173-5.822-5.839-5.86-4.567c0.004,0.052,0.006,0.104,0.01,0.156
				c-0.004,0.02-0.017,0.036-0.018,0.058c1.624,22.508,1.002,44.108,1.042,66.039c0.003-0.012,0.007-0.023,0.01-0.035
				c0.014,6.753,0.097,13.541,0.324,20.394c-0.007,0.01-0.013,0.02-0.02,0.03c0.022,0.673,0.06,1.351,0.085,2.025
				c0.005,0.143,0.012,0.286,0.018,0.429c0.074,1.957,0.143,3.913,0.246,5.881c0.069,1.486,0.125,2.962,0.181,4.438
				c0.025,0.653,0.052,1.308,0.074,1.959c0.054,1.587,0.101,3.168,0.14,4.745c0.034,1.413,0.059,2.819,0.081,4.224
				c0.029,1.779,0.047,3.551,0.056,5.317c0.007,1.521,0.009,3.038,0.001,4.551c-0.005,1.001-0.007,2.003-0.018,3.001
				c-0.027,2.371-0.072,4.733-0.135,7.086c-0.019,0.711-0.042,1.421-0.064,2.13c-0.363,11.48-1.149,22.771-2.381,33.993
				l-0.237,2.166c-0.095,0.881-0.191,1.765-0.287,2.653c-0.094,0.274-0.185,0.371-0.273,0.522c-0.175,0.264-0.335,0.42-0.48,0.495
				c-0.334-0.129-0.575-0.247-0.745-0.352c-0.085-0.053-0.151-0.102-0.203-0.149l-0.019-0.017l-0.009-0.009
				c0,0-0.001-0.006-0.073-0.008l-0.64-0.031l-1.282-0.058c-3.421-0.149-6.859-0.247-10.293-0.295
				c-6.869-0.096-13.723,0.01-20.404,0.324c-5.641,0.532-11.332,1.435-17.191,2.108c-0.06-0.005-0.122-0.006-0.182-0.01
				c-5.1,0.588-10.324,1-15.761,0.837c-1.295-0.038-1.468,1.267-1.553,1.919c0.608,0.436,1.162,0.896,1.689,1.364
				c0.078,0.004,0.157,0.005,0.235,0.009c0.418,0.369,0.813,0.744,1.194,1.122c-0.075-0.003-0.149-0.006-0.224-0.009l0.177,0.18
				c0.424,0.433,0.847,0.863,1.253,1.278c0.07,0.002,0.141,0.005,0.211,0.007c0.73,0.772,1.44,1.514,2.162,2.216
				c-0.072,0.006-0.144,0.01-0.216,0.016c0.505,0.489,1.015,0.952,1.554,1.373c0.104,0.017,0.208,0.034,0.311,0.051
				c0.124,0.096,0.238,0.207,0.366,0.298c0.963,0.692,2.029,1.258,3.277,1.621c0.484,0.098,0.975,0.176,1.462,0.262
				c-0.079,0.003-0.157,0.003-0.235,0.006c3.063,0.543,6.207,0.854,9.395,1.02c0.193,0.01,0.385,0.021,0.578,0.031
				c0.577,0.027,1.155,0.048,1.735,0.065c0.47,0.015,0.94,0.029,1.412,0.038c0.255,0.004,0.51,0.007,0.766,0.01
				c9.905,0.127,20.137-0.921,29.851-1.223c1.066-0.024,2.124-0.048,3.173-0.071l3.879-0.17l1.939-0.081l0.969-0.039l1.335-0.04
				c4.585-0.102,9.167-0.204,13.745-0.306c-0.144-7.236-0.289-14.463-0.432-21.68c-0.092-5.138-0.135-10.271-0.12-15.395
				c0.013-4.441,0.08-8.876,0.189-13.305c0.05-2.015,0.112-4.027,0.184-6.039c0.029-0.808,0.053-1.616,0.085-2.423
				c0.116-2.892,0.25-5.783,0.416-8.671c0.001-0.017,0-0.033,0.001-0.05c0.003-0.053,0.005-0.106,0.008-0.16
				C314.22,421.592,311.92,409.804,310.325,396.827z"/>
			<path d="M239.958,493.104c-2.154-28.108-1.319-55.083-1.365-82.471c-0.004,0.015-0.009,0.029-0.013,0.044
				c-0.016-8.434-0.125-16.91-0.424-25.468c0.009-0.013,0.017-0.024,0.027-0.037c-0.029-0.84-0.079-1.687-0.112-2.528
				c-0.007-0.179-0.017-0.358-0.024-0.537c-0.097-2.444-0.189-4.886-0.325-7.343c-0.471-9.56-0.708-18.948-0.716-28.211
				c0-0.28-0.001-0.56-0.001-0.839c0.001-1.917,0.016-3.827,0.037-5.733c0.008-0.68,0.016-1.36,0.027-2.039
				c0.024-1.6,0.055-3.196,0.093-4.789c0.026-1.065,0.056-2.128,0.089-3.19c0.048-1.485,0.096-2.969,0.144-4.449
				c0.044-1.142,0.089-2.281,0.133-3.422c0.065-1.629,0.13-3.26,0.195-4.885c-0.002,0.018-0.005,0.037-0.007,0.055
				c0.121-3.107,0.241-6.207,0.361-9.299c-4.41-0.107-8.81-0.214-13.2-0.321l-3.302-0.09l-2.217-0.098l-3.017-0.142
				c-0.735-0.035-1.469-0.072-2.203-0.108c-5.632-0.279-11.246-0.594-16.849-0.951l-0.907-0.057
				c-0.266-0.019-0.719-0.037-0.697-0.057l-0.445-0.121c-0.664-0.197-1.128-0.381-1.441-0.552c0.242-0.599,0.463-1.029,0.662-1.329
				l0.074-0.106l0.018-0.025c0.006-0.005,0.012-0.128,0.017-0.186l0.034-0.442l0.132-1.772c0.079-1.183,0.159-2.369,0.238-3.557
				c0.026-0.414,0.041-0.832,0.066-1.246c0.002-0.027,0.003-0.054,0.005-0.081c0-0.001-0.001-0.002-0.001-0.003
				c0.254-4.318,0.445-8.663,0.554-13.015c0.12-4.798,0.151-9.6,0.091-14.37c-0.052-2.385-0.104-4.761-0.156-7.125
				c-0.043-1.182-0.086-2.361-0.129-3.536l-0.077-1.76l-0.021-0.439c-0.006-0.025-0.013-0.013-0.02-0.022l-0.041-0.027
				c-0.227-0.091-0.509-0.337-0.818-0.804c0.009-0.269,0.359-0.565,1.12-0.854c2.678-0.224,5.447-0.437,8.223-0.637
				c0.085,0.004,0.172,0.005,0.257,0.009c8.38-0.607,16.963-1.037,25.893-0.885c2.127,0.035,2.414-1.285,2.555-1.945
				c-0.998-0.44-1.907-0.904-2.772-1.376c-0.128-0.004-0.257-0.005-0.386-0.009c-0.685-0.372-1.334-0.751-1.959-1.133
				c0.123,0.003,0.245,0.006,0.369,0.009l-0.29-0.182c-0.698-0.438-1.391-0.873-2.056-1.29c-0.115-0.002-0.231-0.005-0.346-0.006
				c-1.199-0.779-2.363-1.529-3.548-2.238c0.119-0.007,0.237-0.009,0.356-0.016c-0.828-0.493-1.664-0.96-2.55-1.385
				c-0.171-0.017-0.341-0.034-0.511-0.051c-0.204-0.097-0.391-0.208-0.6-0.301c-1.581-0.698-3.33-1.268-5.38-1.632
				c-0.777-0.096-1.562-0.178-2.345-0.263c0.11-0.002,0.22-0.003,0.33-0.006c-2.657-0.286-5.36-0.491-8.082-0.661
				c-1.256-0.081-2.517-0.153-3.785-0.212l-0.186-0.008c-0.289-0.013-0.573-0.036-0.862-0.048l-1.644-0.061l-0.918-0.026
				l-1.629-0.021c-1.482-0.013-2.97-0.026-4.457-0.04c-0.356-0.004-0.71-0.008-1.066-0.012c-0.152-0.001-0.307-0.001-0.46-0.002
				c-0.201-0.002-0.4-0.004-0.601-0.005c-0.236-0.001-0.476,0.001-0.713-0.001c-4.188-0.025-8.41-0.031-12.629-0.016
				c0.027,2.832,0.054,5.672,0.082,8.519c0.057,2.7,0.114,5.406,0.171,8.116c0.128,2.86,0.301,5.724,0.484,8.581
				c0.366,5.713,0.776,11.393,0.964,16.934c0.032,1.307,0.064,2.605,0.095,3.891c0.196,4.315,0.391,8.628,0.586,12.937l0.129,3.232
				l0.061,1.671l0.064,2.867c0.078,3.775,0.156,7.549,0.234,11.32c9.923-0.113,19.832-0.227,29.731-0.34
				c1.455-0.013,2.911-0.027,4.366-0.04c3.361-0.021,6.721-0.041,10.078-0.062l2.378,0.004l1.591,0.026l-0.148,2.63
				c-0.036,1.358-0.073,2.714-0.109,4.072c-0.073,2.705-0.16,5.408-0.266,8.109c-0.034,0.86-0.066,1.719-0.103,2.579
				c-0.154,3.541-0.329,7.08-0.546,10.616c-0.001,0.022,0,0.044-0.001,0.066c-0.004,0.065-0.007,0.13-0.011,0.195
				c-0.534,15.895,2.523,30.616,4.642,46.82c0.067,1.141,0.091,2.251,0.091,3.345c-0.001,0.207-0.005,0.413-0.008,0.619
				c-0.008,0.734-0.035,1.456-0.069,2.175c-0.026,0.522-0.05,1.046-0.088,1.561c-0.012,0.172-0.029,0.342-0.042,0.513
				c-0.34,4.209-1.027,8.24-1.696,12.475c0.003,0.051,0.007,0.102,0.01,0.153c-0.307,1.938-0.612,3.91-0.875,5.972
				c-3.453,23.532,4.111,43.819,6.598,67.794c0.671,6.46,7.746,7.29,7.797,5.702c-0.005-0.065-0.008-0.129-0.013-0.194
				C239.939,493.151,239.957,493.131,239.958,493.104z"/>
			<path d="M553.812,298.272c-0.093-3.613-0.14-7.232-0.28-10.848l-0.808-10.837c-1.379-14.43-3.845-28.78-7.413-42.851
				c-3.718-14.032-8.534-27.749-14.352-40.974c-5.761-13.256-12.787-25.886-20.605-37.863
				c-7.852-11.953-16.454-23.343-26.023-33.705c-23.668-25.697-52.589-46.799-85.175-61.904
				c-16.294-7.549-33.505-13.611-51.436-17.968c-17.933-4.343-36.574-6.997-55.687-7.815c-0.34-0.009-0.649-0.012-0.966-0.017
				c-0.144-0.006-0.287-0.016-0.431-0.022c-4.017-0.106-6.383,0.116-7.833,0.443c-0.559-0.287-1.668-0.457-3.228-0.444
				c-0.319,0.007-0.636,0.021-0.955,0.029c-0.154,0-0.304-0.001-0.469,0.004c-0.879,0.018-1.755,0.062-2.633,0.089
				c-0.421,0.015-0.842,0.026-1.263,0.043c-9.557,0.338-19.064,1.177-28.479,2.506c-0.752,0.101-1.503,0.204-2.253,0.31
				c-0.162,0.024-0.324,0.047-0.486,0.071c-1.157,0.166-2.313,0.33-3.467,0.508c-2.559,0.443-5.109,0.926-7.652,1.43
				c-6.415,1.244-12.773,2.718-19.062,4.413c-1.118,0.297-2.235,0.597-3.349,0.908c-0.24,0.068-0.481,0.137-0.721,0.205
				c-2.673,0.752-5.337,1.534-7.984,2.363c-3.383,1.111-6.742,2.284-10.077,3.509c-1.25,0.455-2.493,0.924-3.735,1.397
				c-0.173,0.066-0.346,0.133-0.519,0.2c-3.79,1.452-7.546,2.981-11.26,4.601c-3.757,1.622-7.482,3.311-11.164,5.085
				c-3.743,1.872-7.438,3.827-11.093,5.849c-0.661,0.363-1.324,0.726-1.982,1.094c-0.052,0.029-0.103,0.059-0.155,0.089
				c-2.476,1.389-4.923,2.824-7.351,4.288c-0.674,0.406-1.347,0.814-2.018,1.225c-0.773,0.476-1.548,0.949-2.316,1.432
				c-3.072,1.919-6.111,3.887-9.109,5.914c-2.398,1.664-4.764,3.369-7.106,5.104c-0.062,0.045-0.123,0.09-0.185,0.135
				c-1.122,0.833-2.237,1.675-3.347,2.523c-5.582,4.237-10.997,8.682-16.228,13.327c-0.081,0.072-0.163,0.143-0.244,0.215
				c-0.73,0.65-1.459,1.299-2.182,1.957c-0.457,0.412-0.92,0.819-1.375,1.233c-0.652,0.604-1.292,1.219-1.937,1.83
				c-0.503,0.473-1.006,0.946-1.506,1.423c-0.181,0.174-0.359,0.35-0.539,0.524c-4.545,4.362-8.946,8.868-13.171,13.53
				c-5.538,6.119-10.771,12.502-15.716,19.095c-0.49,0.61-0.958,1.236-1.413,1.872c-1.936,2.628-3.808,5.301-5.647,7.996
				l-1.355,1.921l-0.8,1.257c-1.587,2.4-3.125,4.831-4.635,7.279c-0.811,1.274-1.64,2.538-2.363,3.866l-0.248,0.434
				c-1.312,2.219-2.587,4.46-3.835,6.715l-0.76,1.331c-0.756,1.258-1.391,2.581-2.058,3.887c-1.107,2.11-2.187,4.235-3.238,6.374
				l-1.399,2.762l-1.367,3.044c-0.314,0.679-0.611,1.365-0.919,2.046l-1.712,3.816c-0.662,1.486-1.359,2.958-1.921,4.486
				l-0.819,2.094c-0.219,0.546-0.427,1.096-0.643,1.643l-2.095,5.355c-0.625,1.503-1.102,3.061-1.628,4.6l-0.405,1.206
				c-0.031,0.089-0.065,0.178-0.095,0.267c-0.101,0.293-0.191,0.589-0.29,0.882l-0.762,2.272l-1.552,4.629l-1.316,4.646
				c-0.22,0.76-0.426,1.523-0.639,2.285c-0.678,2.388-1.377,4.77-1.959,7.183l-0.865,3.794c-0.108,0.464-0.212,0.928-0.318,1.392
				l-0.989,4.338l-0.538,2.382l-0.424,2.405l-0.545,3.101c-0.037,0.208-0.073,0.415-0.11,0.623l-0.191,1.088l-0.845,4.813
				c-0.314,1.6-0.434,3.228-0.66,4.841l-0.273,2.197c-0.018,0.144-0.036,0.289-0.054,0.433l-0.878,7.073l-0.429,5.848
				c-0.025,0.322-0.047,0.644-0.071,0.966l-0.216,2.94c-0.098,1.627-0.283,3.251-0.308,4.881l-0.105,4.679
				c-0.014,0.499-0.022,0.998-0.033,1.497l-0.079,3.608c-0.033,1.631-0.098,3.263-0.017,4.894l0.102,3.57
				c0.014,0.601,0.034,1.201,0.052,1.801l0.127,4.42c0.028,0.816,0.038,1.633,0.081,2.448l0.194,2.443l0.221,2.776
				c0.011,0.148,0.017,0.296,0.028,0.443c-0.001-0.042-0.001-0.083-0.003-0.125l0.143,1.793c0.26,3.259,0.473,6.523,0.965,9.76
				l1.278,9.735l1.764,9.667c2.591,12.838,5.836,25.606,10.375,37.963c4.472,12.363,9.611,24.552,15.962,36.149
				c0.786,1.453,1.477,2.958,2.343,4.368l2.503,4.282c1.692,2.842,3.273,5.754,5.143,8.491c1.031,1.578,2.064,3.159,3.096,4.738
				c0.025,0.048,0.049,0.094,0.074,0.143c0.144,0.216,0.296,0.428,0.44,0.644c0.609,0.933,1.218,1.865,1.828,2.798
				c0.503,0.695,1.008,1.392,1.511,2.088c1.47,2.095,2.973,4.167,4.503,6.22l1.285,1.773c0.491,0.669,1.03,1.303,1.543,1.956
				l0.313,0.391c1.768,2.279,3.568,4.533,5.41,6.755l0.512,0.639c0.651,0.809,1.34,1.586,2.031,2.362
				c5.034,5.894,10.314,11.589,15.856,17.038c2.442,2.36,4.922,4.674,7.434,6.946c0.956,0.898,1.918,1.789,2.909,2.646
				c0.874,0.743,1.746,1.484,2.619,2.227c0.98,0.845,1.966,1.682,2.956,2.513c0.105,0.089,0.21,0.178,0.315,0.267l2.94,2.5
				l2.066,1.603c2.695,2.16,5.42,4.276,8.182,6.338c2.697,1.948,5.421,3.849,8.17,5.707c1.088,0.764,2.18,1.522,3.294,2.245
				c1.034,0.652,2.066,1.303,3.099,1.954c1.1,0.704,2.204,1.399,3.311,2.088c0.023,0.014,0.046,0.029,0.069,0.043l3.235,2.04
				c0.836,0.516,1.695,0.991,2.551,1.472c2.852,1.683,5.728,3.317,8.632,4.897c0.083,0.044,0.167,0.085,0.25,0.128l0.183,0.103
				l1.7,0.862l0.169,0.085c2.062,1.051,4.132,2.086,6.191,3.134c1.195,0.588,2.374,1.205,3.575,1.777
				c0.088,0.044,0.176,0.089,0.265,0.133c0.039,0.017,0.078,0.035,0.118,0.052c0.102,0.047,0.201,0.101,0.304,0.147l4.341,1.932
				l4.336,1.93c0.959,0.431,1.922,0.85,2.893,1.251c0.172,0.071,0.346,0.138,0.518,0.208c0.319,0.127,0.634,0.265,0.956,0.383
				c2.945,1.143,5.888,2.286,8.827,3.427c1.458,0.602,2.964,1.07,4.457,1.571l4.481,1.493l4.477,1.491
				c1.495,0.485,3.022,0.863,4.531,1.3c3.026,0.842,6.05,1.683,9.071,2.523c3.058,0.695,6.113,1.388,9.166,2.082
				c1.531,0.324,3.042,0.744,4.587,0.989l4.619,0.811l4.615,0.81c1.538,0.268,3.071,0.566,4.623,0.726
				c0.639,0.08,1.277,0.159,1.917,0.239c1.656,0.229,3.315,0.423,4.973,0.62c0.796,0.099,1.594,0.199,2.389,0.298l2.318,0.289
				l2.327,0.18l1.027,0.076c2.979,0.266,5.959,0.495,8.94,0.662c0.553,0.043,1.106,0.09,1.66,0.116l1.989,0.048
				c7.759,0.33,15.516,0.324,23.247-0.016c1.053-0.027,2.105-0.072,3.155-0.137c3.209-0.179,6.411-0.431,9.608-0.726
				c0.479-0.036,0.959-0.073,1.438-0.109c1.543-0.083,3.07-0.318,4.602-0.503l2.611-0.329c0.712-0.088,1.424-0.174,2.135-0.268
				c6.088-0.639,12.073-1.903,18.091-2.918c3.014-0.613,6.002-1.351,9.002-2.019l4.494-1.027l4.438-1.235
				c0.633-0.179,1.264-0.358,1.897-0.536c0.204-0.057,0.408-0.116,0.613-0.173c2.118-0.599,4.235-1.198,6.351-1.797
				c2.31-0.773,4.619-1.545,6.927-2.317c0.209-0.071,0.419-0.139,0.628-0.21c0.389-0.13,0.779-0.26,1.168-0.391
				c-0.194,0.061-0.385,0.121-0.579,0.182c18.28-6.273,35.843-14.464,52.286-24.448c6.757-4.118,13.323-8.536,19.698-13.208
				c0.317-0.206,0.631-0.402,0.949-0.609c6.954-5.151,13.646-10.638,20.075-16.411c0.191-0.171,0.382-0.343,0.573-0.514
				c1.29-1.165,2.569-2.343,3.836-3.532c0.603-0.563,1.208-1.123,1.806-1.691c0.372-0.355,0.737-0.717,1.107-1.074
				c13.462-12.941,25.618-27.219,36.154-42.633c1.332-2.024,2.663-4.046,3.993-6.066l1.994-3.031c0.663-1.011,1.244-2.07,1.87-3.102
				c1.743-2.957,3.491-5.923,5.244-8.896c1.609-3.055,3.223-6.118,4.841-9.189l1.207-2.31l1.101-2.365
				c0.734-1.578,1.469-3.159,2.204-4.741c0.734-1.584,1.469-3.169,2.205-4.757c0.658-1.621,1.317-3.244,1.976-4.868
				c0.658-1.626,1.318-3.253,1.977-4.883l0.989-2.447l0.873-2.492c1.157-3.329,2.317-6.665,3.479-10.007
				c0.345-1.176,0.691-2.357,1.036-3.534c0.24-0.783,0.459-1.574,0.692-2.36c0.422-1.438,0.842-2.872,1.264-4.312l0.746-2.56
				c0.232-0.858,0.42-1.727,0.632-2.591l0.262-1.101c2.082-8.249,3.77-16.63,5.044-25.108c0.278-1.803,0.536-3.61,0.775-5.421
				c0.019-0.148,0.035-0.297,0.054-0.445c0.301-2.319,0.559-4.646,0.79-6.977c0.003-0.034,0.008-0.068,0.012-0.102
				c0-0.01,0.001-0.02,0.001-0.031c0.28-2.829,0.522-5.664,0.692-8.508c0.361-3.589,0.403-7.195,0.51-10.803
				C553.782,305.497,553.971,301.885,553.812,298.272z M119.004,505.003c-2.014-1.443-3.85-3.106-5.775-4.665l-5.718-4.757
				l-5.504-5.021c-1.837-1.676-3.706-3.324-5.429-5.124c-3.508-3.538-7.12-7.001-10.412-10.783
				c-1.682-1.859-3.367-3.721-5.054-5.586c-1.6-1.94-3.203-3.884-4.808-5.83l-2.413-2.924c-0.821-0.964-1.531-2.013-2.304-3.017
				c-1.518-2.031-3.038-4.065-4.561-6.103l-1.144-1.53l-1.07-1.584l-2.142-3.175c-1.415-2.129-2.898-4.224-4.268-6.397
				c-1.332-2.198-2.666-4.401-4.004-6.609l-2.011-3.319l-1.858-3.417c-1.235-2.286-2.474-4.577-3.716-6.875
				c-1.228-2.306-2.285-4.705-3.441-7.065c-0.101-0.206-0.196-0.413-0.295-0.618c-1.614-3.519-3.121-7.023-4.524-10.515
				c-0.233-0.585-0.465-1.169-0.696-1.752c-1.158-2.952-2.248-5.895-3.266-8.831c-0.397-1.177-0.791-2.353-1.189-3.52
				c-0.995-3.029-1.916-6.051-2.773-9.068c-0.27-0.974-0.536-1.937-0.804-2.907c-0.899-3.327-1.72-6.648-2.465-9.966
				c-0.131-0.592-0.262-1.187-0.393-1.778c-0.169-0.777-0.338-1.554-0.499-2.331c-1.756-8.552-3.037-17.094-3.878-25.71
				c-0.022-0.226-0.044-0.451-0.066-0.677c-0.82-8.647-1.197-17.371-1.149-26.256l-0.03-0.762
				c0.039-9.992,0.842-20.186,2.012-30.719c0.533-3.745,1.064-7.473,1.592-11.187c0.699-3.683,1.396-7.35,2.09-11.004
				c0.302-1.835,0.787-3.629,1.207-5.432c0.428-1.801,0.856-3.599,1.283-5.393c0.768-3.61,1.897-7.113,2.882-10.64
				c4.1-14.062,9.219-27.621,15.275-40.628c6.15-12.963,13.253-25.343,21.209-37.106c2.017-2.922,3.938-5.913,6.134-8.703
				l3.198-4.255c1.074-1.412,2.098-2.865,3.259-4.207l6.224-7.538c0.313-0.365,0.624-0.732,0.939-1.096l6.774-7.474
				c9.748-10.35,20.318-19.986,31.684-28.797l4.309-3.252c1.448-1.071,2.85-2.215,4.364-3.197c2.952-2.013,5.909-4.031,8.872-6.052
				c0.092-0.06,0.186-0.118,0.279-0.178c3.035-1.863,6.075-3.731,9.123-5.603c0.747-0.481,1.515-0.924,2.29-1.356
				c0.036-0.021,0.073-0.042,0.109-0.063c0.784-0.436,1.575-0.859,2.361-1.294c1.605-0.88,3.213-1.76,4.822-2.642
				c12.963-6.895,26.668-12.799,41.04-17.526c2.489-0.756,4.976-1.553,7.48-2.314c1.437-0.42,2.874-0.84,4.324-1.236
				c2.652-0.674,5.317-1.35,7.985-2.028c1.384-0.33,2.769-0.658,4.163-0.965c2.761-0.575,5.538-1.124,8.324-1.681
				c2.379-0.441,4.772-0.846,7.178-1.221c1.843-0.268,3.689-0.536,5.54-0.805c4.178-0.697,7.942-0.976,11.264-1.462
				c3.326-0.446,6.227-0.958,8.753-1.239c5.045-0.685,8.536-1.461,10.713-2.185c0.787-0.242,1.394-0.483,1.843-0.715
				c3.231,0.431,6.233,0.87,9.084,1.313c0.625,0.031,1.25,0.074,1.875,0.109c1.31,0.214,2.591,0.481,3.832,0.749
				c1.168,0.258,2.305,0.51,3.429,0.758c-0.481-0.038-0.959-0.075-1.44-0.113c0.391,0.089,0.751,0.171,1.122,0.256
				c2.721,0.627,5.409,1.19,7.908,1.843c0.41,0.044,0.819,0.104,1.229,0.149c3.089,0.857,6.07,1.766,9.051,2.6l2.026,0.575
				c0.671,0.224,1.343,0.448,2.018,0.673c0.071,0.023,0.145,0.047,0.217,0.071c-0.395-0.057-0.787-0.128-1.182-0.184
				c3.085,1.02,6.186,2.017,9.469,3.004c0.598,0.125,1.196,0.245,1.792,0.372c0.05,0.015,0.098,0.03,0.147,0.045
				c0.721,0.25,1.451,0.502,2.189,0.758c2.895,1.002,5.944,2.006,9.212,3.018c3.253,1.072,6.676,2.35,10.41,3.551
				c2.679,0.776,5.288,1.808,7.929,2.762c0.157,0.057,0.316,0.115,0.473,0.172c-0.377-0.123-0.75-0.256-1.127-0.378
				c3.386,1.188,6.761,2.459,10.123,3.798c4.706,1.969,9.474,3.851,14.093,6.149c1.294,0.607,2.59,1.214,3.888,1.823
				c0.449,0.207,0.896,0.419,1.343,0.631c0.368,0.182,0.738,0.359,1.106,0.542c0.474,0.236,0.949,0.471,1.413,0.728
				c2.544,1.337,5.095,2.678,7.652,4.023l0.265,0.14c1.112,0.609,2.221,1.227,3.327,1.853l0.198,0.116l3.753,2.197
				c0.897,0.53,1.801,1.052,2.704,1.577c1.729,1.044,3.449,2.108,5.16,3.193c1.426,0.921,2.857,1.845,4.286,2.768
				c2.423,1.599,4.826,3.239,7.207,4.919c0.295,0.211,0.591,0.421,0.886,0.632c6.691,4.764,13.203,9.844,19.491,15.233
				c0.101,0.087,0.203,0.174,0.304,0.262c2.796,2.403,5.543,4.872,8.247,7.394l1.014,0.957c0.358,0.323,0.701,0.664,1.054,0.992
				c1.864,1.776,3.707,3.576,5.522,5.408c1.304,1.338,2.601,2.684,3.9,4.03c1.327,1.397,2.639,2.809,3.936,4.236l4.129,4.664
				c0.976,1.128,2.002,2.215,2.94,3.376l2.801,3.494l2.805,3.493c0.939,1.162,1.886,2.318,2.74,3.544l5.276,7.246
				c0.906,1.19,1.707,2.451,2.528,3.699l2.462,3.744l2.465,3.742c0.813,1.252,1.533,2.562,2.304,3.839
				c1.362,2.312,2.724,4.622,4.084,6.931c0.379,0.679,0.756,1.36,1.127,2.044c1.169,2.216,2.339,4.431,3.507,6.644
				c3.016,5.966,5.857,12.016,8.441,18.153c0.621,1.521,1.241,3.04,1.862,4.558c1.305,3.3,2.538,6.622,3.662,9.976l1.465,4.171
				c0.513,1.381,0.86,2.814,1.298,4.216c0.833,2.819,1.664,5.633,2.494,8.441c0.736,2.833,1.383,5.683,2.076,8.515
				c0.341,1.417,0.682,2.833,1.022,4.247c0.27,1.429,0.54,2.856,0.81,4.282c0.307,1.646,0.614,3.289,0.92,4.929l0.376,2.016
				c0.113,0.626,0.232,1.252,0.339,1.878l0.137,1.026c0.412,3.096,0.823,6.179,1.232,9.251c0.158,1.24,0.306,2.482,0.444,3.725
				l0.06,0.699l0.33,3.843c0.211,2.563,0.463,5.123,0.644,7.688l0.27,7.712c0.045,1.572,0.12,3.144,0.154,4.716
				c0.005,0.52,0.011,1.04,0.013,1.56c-0.002,0.479-0.004,0.959-0.023,1.438l-0.121,7.717c-0.005,0.171-0.004,0.343-0.007,0.514
				c-0.069,2.018-0.159,4.035-0.274,6.05l-0.076,1.143l-0.277,4.175c-0.245,3.201-0.55,6.397-0.906,9.586
				c-0.064,0.535-0.132,1.07-0.191,1.606l-0.451,3.832c-0.024,0.213-0.052,0.426-0.076,0.64c-0.122,0.92-0.251,1.839-0.386,2.757
				c-0.025,0.141-0.04,0.283-0.067,0.424l-1.289,7.607l-0.177,1.031c-0.397,2.101-0.817,4.197-1.257,6.29l-0.055,0.247l-1.669,7.533
				c-0.576,2.506-1.336,4.966-1.994,7.451l-1.022,3.72c-0.335,1.242-0.67,2.483-1.098,3.697l-2.414,7.327
				c-0.151,0.447-0.296,0.897-0.441,1.346c-0.34,1.001-0.689,1.999-1.048,2.993l-1.125,2.917c-1.673,4.475-3.489,8.894-5.416,13.263
				l-0.773,1.743c-2.98,6.623-6.244,13.117-9.78,19.459c-0.272,0.477-0.543,0.955-0.813,1.434
				c-2.277,4.023-4.656,7.989-7.147,11.884l-0.326,0.515c-5.453,8.484-11.405,16.645-17.806,24.434
				c-0.278,0.337-0.56,0.671-0.839,1.007c-4.467,5.38-9.152,10.575-14.037,15.574c-0.522,0.536-1.047,1.068-1.572,1.599
				c-3.391,3.41-6.867,6.734-10.442,9.947l-5.799,5.068l-1.449,1.267c-0.489,0.415-1.002,0.801-1.502,1.203l-3.018,2.39
				c-2.022,1.58-3.999,3.218-6.056,4.751l-6.256,4.482l-3.127,2.242l-3.228,2.091l-6.462,4.172
				c-2.163,1.376-4.423,2.592-6.628,3.897l-3.327,1.926l-1.663,0.963c-0.561,0.308-1.137,0.591-1.705,0.887
				c-18.083,9.648-37.263,17.175-57.037,22.362c-0.57,0.145-1.144,0.268-1.715,0.409c0.108-0.028,0.216-0.052,0.324-0.08
				c-4.828,1.203-9.689,2.264-14.574,3.186c-0.155,0.029-0.311,0.054-0.467,0.083c-2.271,0.424-4.547,0.822-6.827,1.186
				c-0.473,0.075-0.948,0.136-1.421,0.209c-1.973,0.303-3.947,0.597-5.925,0.855c-0.862,0.112-1.727,0.2-2.59,0.304
				c-1.604,0.193-3.208,0.391-4.815,0.555c-1.289,0.13-2.58,0.229-3.871,0.34c-1.199,0.104-2.398,0.223-3.598,0.31
				c-1.642,0.119-3.285,0.201-4.929,0.289c-0.87,0.047-1.74,0.112-2.61,0.15c-1.518,0.066-3.037,0.094-4.556,0.134
				c-1.005,0.026-2.01,0.072-3.015,0.087c-2.687,0.04-5.374,0.036-8.06-0.006l-6.903-0.194c-1.7-0.071-3.398-0.165-5.095-0.269
				c-0.935-0.078-1.869-0.158-2.804-0.224l-6.438-0.511c-0.783-0.077-1.565-0.161-2.346-0.245l-6.381-0.826l-3.778-0.495
				l-0.703-0.092c-0.691-0.106-1.383-0.207-2.073-0.319l-0.985-0.181l-7.49-1.374c-0.363-0.069-0.728-0.134-1.091-0.199
				c-1.685-0.343-3.367-0.698-5.044-1.079c-0.191-0.042-0.379-0.089-0.569-0.131l-0.736-0.174
				c-12.353-2.789-24.387-6.343-36.039-10.669c-0.411-0.153-0.818-0.316-1.228-0.472c-1.621-0.611-3.234-1.237-4.84-1.878
				c-1.217-0.488-2.427-0.99-3.636-1.495c-0.777-0.324-1.553-0.648-2.326-0.979c-1.414-0.606-2.822-1.224-4.224-1.853
				c-0.578-0.259-1.154-0.523-1.73-0.786c-1.39-0.636-2.776-1.281-4.154-1.94c-1.595-0.769-3.186-1.546-4.764-2.345
				c-0.201-0.101-0.403-0.198-0.603-0.299C147.292,524.836,132.681,515.585,119.004,505.003z"/>
		</g>
	</g>
	<g id="Calque_2" style="display:inline;">
	</g>
</g>
<g id="Calque_3">
	<g>
		<path style="fill:#FFFFFF;" d="M556.954,312.107c-0.041-1.548-0.081-3.094-0.122-4.637c-0.047-1.781-0.093-3.56-0.139-5.334
			c-0.021-0.996-0.05-1.99-0.094-2.982c-0.016-0.384-0.041-0.767-0.072-1.15c-0.025-0.392-0.038-0.785-0.074-1.175
			c-0.257-3.526-0.513-7.038-0.768-10.535c-0.077-1.366-0.279-2.719-0.444-4.076l-0.511-4.068c-0.262-1.995-0.503-3.993-0.768-5.987
			l-0.133-1.053c-0.015-0.095-0.033-0.189-0.048-0.284c-0.038-0.268-0.068-0.537-0.109-0.804l-1.413-8.072
			c-0.302-1.664-0.575-3.333-0.89-4.993l-0.048-0.274l-0.032-0.145c-0.172-0.881-0.354-1.759-0.57-2.631l-1.801-7.99
			c-0.258-1.102-0.494-2.21-0.764-3.309l-0.047-0.206l-0.022-0.078c-0.033-0.131-0.06-0.264-0.095-0.395l-1.091-3.947l-2.185-7.891
			c-0.338-1.323-0.791-2.611-1.214-3.908l-1.28-3.888c-0.87-2.586-1.672-5.195-2.599-7.76l-2.931-7.641l-1.466-3.819
			c-0.469-1.281-1.075-2.506-1.606-3.762l-0.553-1.258c-0.765-1.789-1.549-3.569-2.35-5.342l-0.391-0.888
			c-0.614-1.48-1.316-2.919-2.032-4.351c-1.381-2.898-2.817-5.77-4.297-8.618l-0.858-1.719l-0.921-1.647
			c-1.375-2.557-2.792-5.091-4.25-7.602c-0.932-1.675-1.87-3.347-2.918-4.954c-1.554-2.558-3.155-5.087-4.784-7.596
			c-0.907-1.403-1.843-2.785-2.774-4.171c-0.515-0.764-1.018-1.535-1.54-2.295c-1.164-1.697-2.358-3.373-3.558-5.044
			c-0.393-0.546-0.777-1.098-1.173-1.642c-1.068-1.464-2.159-2.909-3.255-4.352c-0.634-0.836-1.262-1.677-1.904-2.506
			c-0.785-1.011-1.586-2.009-2.385-3.009c-1.049-1.318-2.102-2.634-3.175-3.933c-0.383-0.462-0.772-0.919-1.158-1.379
			c-4.508-5.395-9.192-10.642-14.088-15.684c-2.458-2.505-4.976-4.949-7.521-7.363c-0.459-0.437-0.925-0.866-1.387-1.3
			c-1.324-1.239-2.652-2.474-3.998-3.688c-1.142-1.034-2.299-2.05-3.458-3.064c-0.755-0.659-1.507-1.32-2.268-1.972
			c-1.463-1.253-2.941-2.487-4.429-3.709c-0.579-0.476-1.157-0.952-1.739-1.423c-1.474-1.192-2.961-2.365-4.458-3.526
			c-0.768-0.597-1.538-1.191-2.313-1.78c-1.175-0.892-2.357-1.774-3.547-2.647c-1.356-0.999-2.721-1.985-4.094-2.961
			c-0.509-0.359-1.018-0.719-1.529-1.075c-3.203-2.245-6.435-4.447-9.727-6.559c-18.383-11.573-38.078-21.031-58.604-28.081
			c-20.574-6.91-41.974-11.297-63.581-13.1c-1.347-0.162-2.702-0.209-4.055-0.273l-4.061-0.195l-0.797-0.038
			c2.469,0.085,4.937,0.203,7.404,0.358c-3.806-0.267-7.616-0.448-11.428-0.55c-1.1-0.055-2.2-0.118-3.301-0.089l-1.13,0.004
			c-2.326-0.024-4.652-0.012-6.978,0.025l-0.021,0l-4.064,0.018l-4.057,0.225l-0.749,0.042c-0.104,0.005-0.208,0.012-0.312,0.017
			l-7.052,0.393c-1.355,0.045-2.698,0.227-4.045,0.365l-4.038,0.436c-0.043,0.005-0.086,0.009-0.129,0.014
			c-0.206,0.022-0.413,0.045-0.619,0.068c-2.442,0.272-4.893,0.479-7.321,0.852l-3.792,0.611c-1.42,0.217-2.838,0.444-4.254,0.684
			l-3.917,0.632c-0.018,0.003-0.036,0.008-0.055,0.011l-0.007,0.001c-0.04,0.007-0.08,0.017-0.121,0.024
			c-1.241,0.217-2.467,0.516-3.702,0.768l-7.757,1.67c-0.663,0.127-1.322,0.272-1.978,0.429l-0.339,0.073
			c-0.357,0.086-0.71,0.186-1.064,0.282c-1.44,0.375-2.872,0.781-4.311,1.159l-7.661,2.074c-0.121,0.037-0.24,0.078-0.361,0.116
			l-0.317,0.086l-2.305,0.754c-1.523,0.496-3.043,0.998-4.567,1.491l-3.772,1.235l-1.886,0.618l-0.874,0.333
			c-0.195,0.071-0.388,0.149-0.582,0.222l-0.398,0.152l-7.407,2.856c-1.232,0.481-2.474,0.942-3.699,1.441l-3.625,1.616
			c-0.105,0.046-0.208,0.096-0.313,0.143c-0.329,0.151-0.664,0.288-0.992,0.443c-0.297,0.133-0.586,0.277-0.882,0.411
			c-1.986,0.895-3.956,1.813-5.91,2.757c-0.498,0.24-0.992,0.486-1.488,0.73c-1.653,0.812-3.295,1.64-4.924,2.487
			c-0.929,0.481-1.854,0.967-2.776,1.458c-0.915,0.49-1.824,0.988-2.731,1.489c-12.76,7.003-24.801,15.014-35.9,24.057
			c-16.43,13.293-31.118,28.417-43.829,45.064c-12.624,16.716-23.336,34.875-32.008,54.198l-0.837,1.801l-0.759,1.838l-1.506,3.685
			c-0.993,2.463-2.034,4.91-2.991,7.395c-0.546,1.541-1.095,3.087-1.642,4.631c-0.281,0.785-0.562,1.57-0.836,2.358
			c-0.066,0.186-0.131,0.371-0.197,0.557l-1.34,3.782c-0.447,1.262-0.793,2.56-1.195,3.84c-0.777,2.568-1.555,5.141-2.336,7.721
			l-0.579,1.937l-0.495,1.963l-0.992,3.933c-0.641,2.629-1.371,5.243-1.944,7.901c-0.541,2.665-1.083,5.336-1.627,8.016
			c-0.326,1.593-0.706,3.164-0.986,4.746c-0.265,1.584-0.528,3.159-0.79,4.725c-0.265,1.565-0.528,3.122-0.79,4.67
			c-0.247,1.55-0.569,3.081-0.726,4.629c-0.241,2.02-0.498,4.02-0.752,6.014c-0.133,1.066-0.28,2.138-0.402,3.199
			c-0.245,2.022-0.45,4.034-0.627,6.041c-0.201,2.12-0.375,4.23-0.532,6.334c-0.04,0.494-0.083,0.989-0.12,1.482
			c-0.007,0.1-0.013,0.2-0.02,0.301c-0.149,2.056-0.264,4.104-0.359,6.147c-0.021,0.432-0.042,0.865-0.061,1.296
			c-0.031,0.737-0.056,1.472-0.081,2.208c-0.052,1.354-0.114,2.71-0.148,4.06c-0.117,4.844-0.118,9.665-0.013,14.478
			c0.006,0.658,0.01,1.317,0.018,1.974c0.038,0.836,0.08,1.672,0.121,2.508c0.227,6.19,0.652,12.378,1.271,18.59
			c0.062,0.65,0.13,1.301,0.197,1.952c0.088,0.829,0.172,1.657,0.267,2.487c0.197,1.732,0.409,3.466,0.648,5.203
			c0.353,2.657,0.732,5.319,1.161,7.994l0.119,0.665c1.64,10.396,4.089,20.901,7.013,31.739
			c4.281,15.384,10.015,30.084,16.748,44.067c0.85,1.745,1.698,3.488,2.545,5.228l0.637,1.304l0.696,1.271l1.395,2.538
			c0.932,1.69,1.862,3.377,2.791,5.062c0.93,1.685,1.84,3.377,2.881,4.991c2.024,3.26,4.043,6.512,6.057,9.757
			c2.174,3.14,4.342,6.272,6.506,9.397c17.145,23.613,37.621,44.261,60.957,60.942c0.52,0.374,1.044,0.742,1.566,1.112
			c0.453,0.319,0.899,0.646,1.354,0.962c0.407,0.285,0.821,0.559,1.23,0.841c0.853,0.589,1.707,1.176,2.566,1.755
			c0.866,0.584,1.738,1.159,2.611,1.733c0.713,0.469,1.424,0.94,2.142,1.402c1.417,0.914,2.844,1.811,4.277,2.699
			c0.155,0.096,0.308,0.194,0.463,0.29c8.205,5.057,16.678,9.696,25.404,13.878c13.543,6.452,27.725,11.695,42.352,15.805
			c14.633,4.093,29.745,6.984,45.209,8.54c15.464,1.57,31.282,1.615,47.254,0.303c4.315-0.229,8.121-0.887,11.491-1.439
			c3.366-0.581,6.3-1.07,8.783-1.827c4.986-1.379,8.335-2.622,10.356-3.629c0.822-0.434,1.417-0.819,1.827-1.156
			c3.138-0.333,6.089-0.61,8.925-0.855c0.407-0.095,0.811-0.202,1.218-0.299c1.559-0.119,3.044-0.366,4.509-0.545
			c1.195-0.152,2.358-0.3,3.506-0.445c-0.471,0.128-0.94,0.255-1.412,0.383c0.401-0.049,0.771-0.093,1.153-0.14
			c1.402-0.173,2.798-0.345,4.169-0.514c1.371-0.18,2.74-0.295,4.026-0.545c0.46-0.142,0.914-0.303,1.373-0.448
			c0.242-0.041,0.485-0.084,0.728-0.121c2.914-0.499,5.761-0.986,8.618-1.475c1.446-0.22,2.842-0.596,4.274-0.922
			c0.1-0.024,0.202-0.049,0.302-0.073c-0.408,0.161-0.811,0.335-1.22,0.495c3.259-0.777,6.556-1.596,10.041-2.534
			c0.537-0.206,1.068-0.423,1.601-0.638c0.878-0.264,1.759-0.544,2.645-0.862c3.041-1.023,6.245-2.132,9.643-3.417
			c3.327-1.429,6.858-3.011,10.646-4.785c2.661-1.397,5.322-2.83,7.973-4.307c-0.243,0.145-0.482,0.298-0.726,0.443
			c1.272-0.705,2.547-1.411,3.823-2.119l1.916-1.067l1.861-1.162c0.884-0.555,1.775-1.114,2.661-1.67
			c1.254-0.769,2.502-1.553,3.745-2.35c0.357-0.224,0.71-0.446,1.067-0.67l1.875-1.182l1.815-1.275
			c0.251-0.177,0.504-0.355,0.755-0.532c0.516-0.357,1.027-0.723,1.54-1.086c0.447-0.315,0.893-0.629,1.34-0.945
			c1.213-0.858,2.427-1.718,3.644-2.579l1.821-1.3l1.76-1.385c2.346-1.854,4.698-3.712,7.056-5.576
			c1.197-0.913,2.326-1.906,3.454-2.906l3.4-2.988c1.179-0.994,2.331-2.018,3.468-3.062c0.607-0.531,1.207-1.069,1.778-1.639
			l1.181-1.151c2.282-2.194,4.529-4.436,6.812-6.65c0.036-0.036,0.07-0.075,0.106-0.112c0.656-0.652,1.303-1.313,1.92-2.005
			c0.25-0.271,0.502-0.544,0.753-0.815c1.159-1.252,2.31-2.513,3.478-3.761l1.256-1.364c0.309-0.334,0.616-0.666,0.924-1.001
			c0.037-0.039,0.071-0.081,0.109-0.121l0.824-0.894c0.124-0.14,0.242-0.286,0.365-0.427c0.349-0.402,0.697-0.807,1.039-1.216
			c0.127-0.153,0.256-0.304,0.383-0.457c0.128-0.154,0.258-0.306,0.385-0.46l3.04-3.643l3.04-3.653
			c0.084-0.1,0.159-0.207,0.241-0.308c0.124-0.149,0.247-0.297,0.37-0.446c0.176-0.234,0.353-0.47,0.53-0.704
			c0.586-0.772,1.163-1.55,1.755-2.318c0.931-1.243,1.865-2.489,2.797-3.733c0.16-0.212,0.319-0.424,0.479-0.637
			c0.52-0.708,1.053-1.406,1.579-2.11c0.288-0.385,0.576-0.768,0.864-1.153c1.785-2.635,3.572-5.273,5.361-7.914
			c1.839-2.609,3.452-5.366,5.115-8.093l2.486-4.098l1.241-2.052l1.145-2.107l4.574-8.439c1.495-2.83,2.809-5.753,4.219-8.627
			l2.079-4.33l1.882-4.419c0.916-2.197,1.853-4.385,2.763-6.584l0.41-0.971c0.046-0.114,0.086-0.23,0.132-0.345
			c0.13-0.322,0.269-0.639,0.396-0.962c1.211-3.325,2.458-6.636,3.641-9.967l0.671-1.83l0.332-1.056
			c0.589-1.743,1.158-3.492,1.674-5.259c0.622-1.853,1.186-3.722,1.727-5.596c0.143-0.466,0.291-0.931,0.422-1.401l0.366-1.392
			c0.915-3.337,1.769-6.689,2.652-10.027c0.44-1.76,0.818-3.533,1.188-5.307c0.209-0.965,0.412-1.93,0.611-2.896
			c0.079-0.371,0.156-0.743,0.238-1.113l0.987-4.656c0.3-1.556,0.524-3.126,0.79-4.687c0.508-3.125,1.016-6.245,1.523-9.361
			c0.361-3.135,0.722-6.266,1.083-9.391c0.168-1.563,0.385-3.12,0.513-4.684l0.237-3.496c0.205-2.576,0.376-5.151,0.51-7.722
			c0.059-0.945,0.126-1.889,0.166-2.833c0.013-0.643,0.026-1.282,0.04-1.925c0.092-2.657,0.151-5.31,0.165-7.958
			C556.937,314.839,557,313.472,556.954,312.107z M542.23,324.998c-0.738,13.878-2.436,27.678-5.091,41.251
			c-0.742,3.377-1.483,6.751-2.224,10.121c-0.791,3.358-1.768,6.667-2.636,9.999c-0.824,3.346-1.945,6.6-2.98,9.876l-1.565,4.906
			c-0.517,1.636-1.175,3.221-1.753,4.833l-1.788,4.814c-0.599,1.602-1.16,3.219-1.863,4.776c-1.336,3.144-2.671,6.282-4.003,9.415
			c-2.924,6.146-5.773,12.313-9.097,18.201c-15.771,29.51-37.097,56.632-64.012,78.835c-1.91,1.575-3.856,3.118-5.822,4.641
			c-0.297,0.211-0.594,0.422-0.888,0.637c-25.83,19.856-56.539,35.055-90.521,42.873c-3.949,0.855-6.173,1.645-7.474,2.318
			c-0.643-0.119-1.683-0.071-3.054,0.174c-0.216,0.043-0.432,0.079-0.648,0.121c-0.232,0.028-0.474,0.061-0.728,0.1
			c-4.403,0.865-8.825,1.601-13.258,2.218c-0.731,0.1-1.462,0.186-2.193,0.28c-1.151,0.15-2.302,0.293-3.454,0.426
			c-1.004,0.116-2.009,0.225-3.014,0.329c-1.681,0.173-3.363,0.341-5.046,0.479c-0.11,0.009-0.22,0.021-0.331,0.03
			c-27.357,2.206-54.918-0.199-81.233-6.974c-10.808-2.764-21.403-6.253-31.715-10.404l-2.214-0.922
			c-0.803-0.344-1.61-0.677-2.418-1.01c-2.286-0.973-4.559-1.975-6.815-3.013l-5.638-2.681c-1.782-0.873-3.552-1.769-5.313-2.682
			l-5.996-3.219c-0.209-0.106-0.412-0.224-0.62-0.333c-1.356-0.754-2.703-1.521-4.045-2.299c-1.234-0.742-2.462-1.496-3.701-2.228
			l-3.315-1.993c-1.057-0.659-2.116-1.315-3.164-1.989c-0.57-0.387-1.138-0.777-1.716-1.151c-1.283-0.821-2.554-1.658-3.817-2.508
			c-3.333-2.267-6.612-4.609-9.833-7.027c-0.353-0.266-0.707-0.532-1.059-0.8c-1.103-0.837-2.193-1.69-3.282-2.545
			c-4.256-3.352-8.416-6.823-12.489-10.381c-6.49-5.741-12.703-11.785-18.606-18.114c-0.064-0.069-0.127-0.138-0.191-0.207
			c-1.227-1.318-2.434-2.655-3.634-3.997c-0.378-0.423-0.759-0.845-1.135-1.27c-7.237-8.194-13.98-16.818-20.182-25.811
			c-0.087-0.127-0.175-0.253-0.262-0.379c-1.192-1.735-2.365-3.484-3.516-5.246c-0.09-0.138-0.179-0.277-0.269-0.415
			c-3.612-5.547-7.025-11.223-10.224-17.017c-17.246-31.156-28.329-65.664-32.837-101.124c-1.307-10.368-2.211-20.805-2.248-31.286
			l-0.106-4.844l0.123-4.845l0.121-4.848c0.064-1.615,0.024-3.236,0.181-4.847l0.706-9.685l0.181-2.422l0.292-2.412l0.584-4.826
			l0.582-4.829c0.181-1.612,0.518-3.202,0.768-4.805c0.553-3.198,1.057-6.407,1.648-9.602c0.692-3.175,1.385-6.352,2.079-9.531
			l0.519-2.385c0.18-0.793,0.413-1.574,0.617-2.362l1.264-4.719l1.263-4.723c0.394-1.583,0.964-3.115,1.436-4.676
			c1.004-3.104,1.953-6.23,3.001-9.324c0.65-1.752,1.301-3.506,1.951-5.259c0.02-0.041,0.039-0.079,0.058-0.12
			c6.32-17.049,14.343-33.524,23.982-49.108c1.593-2.781,3.471-5.373,5.225-8.042c1.781-2.652,3.518-5.331,5.472-7.852
			c1.801-2.41,3.578-4.835,5.392-7.227c0.134-0.174,0.264-0.351,0.4-0.524c1.844-2.244,3.686-4.486,5.527-6.727
			c1.33-1.581,2.673-3.149,4.032-4.701c0.904-0.991,1.815-1.975,2.705-2.978c1.121-1.236,2.234-2.478,3.369-3.698
			c0.633-0.668,1.269-1.333,1.911-1.992c0.405-0.41,0.81-0.822,1.226-1.221c0.896-0.891,1.79-1.781,2.685-2.672
			c3.003-2.967,6.068-5.865,9.199-8.682c0.372-0.336,0.745-0.673,1.116-1.009c1.49-1.326,3-2.628,4.518-3.917
			c1.079-0.91,2.164-1.812,3.257-2.704c0.095-0.078,0.19-0.155,0.284-0.232c10.824-8.806,22.324-16.689,34.355-23.524
			c0.926-0.524,1.855-1.039,2.787-1.551c0.161-0.089,0.322-0.179,0.484-0.268c5.063-2.766,10.216-5.349,15.44-7.753
			c0.639-0.292,1.276-0.587,1.917-0.874c0.357-0.16,0.714-0.318,1.071-0.477c25.799-11.431,53.327-18.346,81.033-20.6
			c0.858-0.065,1.716-0.132,2.574-0.188c19.489-1.331,39.027-0.347,58.105,2.846c1.193,0.195,2.392,0.352,3.579,0.578l3.549,0.742
			l7.09,1.481c1.186,0.223,2.352,0.535,3.517,0.847l3.498,0.92l6.985,1.852l6.882,2.187c2.283,0.756,4.607,1.386,6.84,2.282
			l6.749,2.524c1.122,0.425,2.252,0.83,3.367,1.271l3.304,1.427c13.152,5.545,25.799,12.165,37.801,19.737l0.373,0.232
			c5.53,3.502,10.912,7.219,16.152,11.116c1.274,0.969,2.55,1.932,3.82,2.903c0.748,0.578,1.499,1.152,2.24,1.737
			c1.09,0.866,2.174,1.74,3.25,2.623c0.287,0.235,0.574,0.47,0.861,0.706c8.462,7,16.476,14.506,23.995,22.452
			c1.305,1.389,2.606,2.782,3.879,4.199l4.695,5.276l0.889,1.002c0.361,0.424,0.712,0.857,1.065,1.288l0.323,0.4l2.211,2.74
			c0.507,0.628,1.016,1.258,1.524,1.887c2.342,2.929,4.627,5.916,6.86,8.954c0.439,0.598,0.877,1.196,1.317,1.794
			c2.092,2.894,4.123,5.843,6.112,8.829c0.592,0.888,1.184,1.775,1.77,2.668c1.138,1.752,2.263,3.515,3.364,5.297
			c0.733,1.192,1.461,2.388,2.158,3.607l1.751,2.919c0.888,1.527,1.756,3.069,2.617,4.616c0.231,0.436,0.46,0.873,0.698,1.305
			l2.418,4.501c0.338,0.649,0.692,1.29,1.042,1.933c0.556,1.077,1.091,2.166,1.633,3.251c1.37,2.865,2.742,5.734,4.116,8.608
			c0.163,0.321,0.315,0.647,0.465,0.974c0.211,0.466,0.41,0.939,0.619,1.406c0.327,0.776,0.643,1.556,0.977,2.329l1.999,4.745
			c10.525,25.376,17.285,52.626,20.106,80.301C542.408,297.172,542.909,311.112,542.23,324.998z"/>
		<path style="fill:#FFFFFF;" d="M236.917,312.3c-0.026,0.006-0.052,0.011-0.078,0.017c-0.011-0.002-0.02-0.014-0.031-0.014
			c-11.317,2.613-22.382,3.063-33.554,4.155c0.014,0.006,0.028,0.011,0.042,0.017c-0.807,0.079-1.613,0.147-2.421,0.234
			c-2.003,0.215-4.011,0.458-6.025,0.744c-0.644,0.099-1.292,0.198-1.939,0.297c-0.006-0.006-0.011-0.011-0.017-0.017l-2.106,0.345
			l-1.054,0.187c-0.347,0.064-0.754,0.135-0.886,0.18c-1.457,0.355-3.107,0.657-4.723,0.881c-0.145-1.542-0.221-3.222-0.215-4.818
			l-0.009-1.132c-0.001-0.388-0.002-0.776-0.003-1.164l0.005-1.056c0.005-0.532,0.023-1.062,0.035-1.593
			c0.015-0.702,0.031-1.404,0.058-2.104c0.186-4.673,0.631-9.304,1.345-13.924l0.172-1.117c0.231-1.444,0.412-2.911,0.57-4.386
			c0.016-0.151,0.031-0.303,0.046-0.455c0.121-1.19,0.219-2.385,0.292-3.587c0.013-0.213,0.031-0.424,0.043-0.637
			c-0.001-0.001-0.001-0.002-0.002-0.004c0.307-5.688,0.091-11.462-0.67-16.977c-0.603-2.617-1.522-5.243-2.282-7.949
			c-0.055-0.196-0.101-0.396-0.154-0.592c0.002-0.024,0.002-0.048,0.005-0.072c-0.172-0.633-0.333-1.27-0.478-1.913
			c-0.149-0.67-0.266-1.241-0.335-1.721c-0.071-0.485-0.088-0.89-0.058-1.143c0.011-0.134,0.037-0.215,0.057-0.262
			c0.011-0.018,0.019-0.036,0.028-0.029c0.026,0.012-0.014-0.009-0.06-0.033l-0.138-0.071c-0.047-0.025-0.094-0.05-0.141-0.08
			c-0.032-0.018-0.054-0.032-0.076-0.047c-0.013-0.008-0.026-0.017-0.036-0.024c-0.019-0.013-0.037-0.026-0.056-0.04
			c-0.002-0.001-0.004-0.003-0.006-0.005c0.01-0.014,0.016-0.031,0.026-0.044c0.189-0.229,0.324-0.375,0.64-0.529
			c0.613-0.298,1.518-0.44,2.609-0.54c0.444-0.042,0.889-0.073,1.333-0.102c0.218-0.014,0.436-0.029,0.654-0.041
			c1.478-0.083,2.957-0.13,4.437-0.25c-0.003-0.003-0.005-0.006-0.008-0.009c1.32-0.108,2.641-0.282,3.962-0.592
			c0.003,0.006,0.005,0.012,0.008,0.018c0.13-0.03,0.259-0.075,0.389-0.108c0.027-0.007,0.055-0.016,0.082-0.023
			c0.377-0.097,0.754-0.19,1.13-0.315c0.284-0.086,0.568-0.16,0.851-0.233c0.126-0.033,0.253-0.068,0.379-0.098
			c0.306-0.073,0.611-0.14,0.916-0.199c0.272-0.052,0.543-0.095,0.814-0.135c0.348-0.052,0.696-0.095,1.043-0.128
			c0.296-0.028,0.592-0.051,0.888-0.065c0.196-0.01,0.393-0.022,0.589-0.026c0.466-0.008,0.932,0.002,1.398,0.028
			c0.141,0.008,0.282,0.02,0.423,0.031c2.277,0.181,4.552,0.764,6.852,1.769l0.444,0.193c0.574,0.258,1.153,0.467,1.734,0.653
			c0.061,0.02,0.122,0.037,0.183,0.056c0.469,0.144,0.938,0.265,1.408,0.361c0.082,0.017,0.164,0.039,0.247,0.055l0.001-0.002
			c2.222,0.417,4.442,0.315,6.522-0.335c1.037-0.589,2.052-1.534,3.119-2.261c0.012,0.004,0.024,0.004,0.036,0.008
			c0.929-0.635,1.896-1.103,2.955-1.02c0.252,0.019,0.172-1.237,0.132-1.866c-0.155-0.411-0.301-0.845-0.443-1.288
			c-0.015-0.003-0.03-0.003-0.045-0.006c-0.112-0.349-0.22-0.705-0.326-1.062l0.043,0.006l-0.05-0.17
			c-0.118-0.406-0.236-0.812-0.352-1.211c-0.014-0.001-0.028-0.003-0.041-0.004c-0.207-0.732-0.408-1.435-0.607-2.1
			c0.013-0.007,0.027-0.011,0.04-0.018c-0.139-0.463-0.277-0.901-0.418-1.299c-0.022-0.017-0.043-0.029-0.064-0.045
			c-0.032-0.09-0.064-0.195-0.096-0.281c-0.245-0.652-0.499-1.182-0.77-1.513c-0.101-0.087-0.202-0.156-0.304-0.232
			c0.015-0.004,0.03-0.005,0.045-0.009c-0.635-0.48-1.266-0.736-1.893-0.852c-0.038-0.007-0.076-0.015-0.114-0.021
			c-0.113-0.018-0.226-0.03-0.339-0.038c-0.091-0.008-0.183-0.015-0.274-0.017c-0.05-0.001-0.099,0-0.148,0.001
			c-1.913,0.014-3.788,1.161-5.628,1.584c-0.202,0.046-0.403,0.085-0.603,0.112c-4.073,1.232-8.174,2.017-12.347,1.681
			c-0.861-0.07-1.724-0.172-2.593-0.345c-0.003,0-0.005,0-0.008,0c-0.011-0.002-0.022-0.003-0.034-0.005
			c-2.524-0.196-4.634,2.14-7.037,3.828c-0.174,0.06-0.347,0.091-0.518,0.103c-0.033,0.002-0.065,0.001-0.098,0.001
			c-0.115,0.003-0.23-0.008-0.345-0.024c-0.083-0.013-0.167-0.023-0.25-0.044c-0.028-0.007-0.056-0.017-0.084-0.024
			c-0.681-0.193-1.356-0.634-2.062-1.06c-0.008,0.003-0.016,0.006-0.023,0.009c-0.323-0.196-0.652-0.389-0.991-0.552
			c-1.953-1.089-3.604-0.235-5.215,1.146c-0.811,0.69-1.802,1.533-2.724,2.445c-0.463,0.455-0.92,0.933-1.341,1.424
			c-0.41,0.487-0.761,0.972-1.077,1.458c-0.354,0.542,0.278,1.873,1.02,2.936c0.011,0.018,0.023,0.034,0.034,0.051
			c-0.108-0.028-0.212-0.066-0.324-0.086c-0.017,0.019-0.028,0.047-0.044,0.067c-0.377-0.056-0.774-0.067-1.176-0.044
			c0.016-0.032,0.027-0.067,0.044-0.098l-0.192,0.007c-0.457,0.03-0.925,0.11-1.378,0.219c-0.013,0.04-0.018,0.08-0.03,0.12
			c-0.822,0.206-1.62,0.517-2.349,0.909c-0.001-0.045-0.005-0.083-0.005-0.128c-0.514,0.274-0.991,0.583-1.418,0.921
			c-0.021,0.065-0.033,0.124-0.052,0.188c-0.102,0.083-0.209,0.164-0.305,0.249c-0.691,0.615-1.228,1.321-1.553,2.035
			c-0.084,0.251-0.148,0.504-0.22,0.756c-0.004-0.037-0.006-0.074-0.01-0.11c-0.451,1.563-0.677,3.157-0.761,4.768
			c-0.005,0.097-0.011,0.194-0.016,0.291c-0.012,0.292-0.019,0.584-0.021,0.877c-0.003,0.238-0.005,0.476-0.003,0.714
			c0.002,0.126,0.005,0.251,0.009,0.377c0.111,4.994,1.365,10.092,1.886,14.969c0.057,0.535,0.106,1.066,0.144,1.593
			c0.877,6.557,1.597,13.107,2.002,19.653c0.202,3.273,0.326,6.545,0.351,9.816c0.008,1.016-0.012,2.032-0.024,3.047
			c-0.008,0.621-0.001,1.241-0.017,1.862c-0.004,2.725-0.008,5.451-0.012,8.181c0.001,0.027,0.002,0.053,0.002,0.08
			c0,0.041,0,0.082,0,0.123c0.05,2.523,0.206,4.983,0.432,7.273c4.839-0.688,9.617-1.67,13.794-2.688
			c1.233-0.274,1.568-0.462,2.247-0.689c0.614-0.221,1.232-0.443,1.853-0.666c1.242-0.446,2.499-0.893,3.783-1.315
			c0.461-0.091,0.912-0.152,1.358-0.194c0.085-0.007,0.169-0.012,0.253-0.018c0.3-0.023,0.597-0.031,0.893-0.035
			c0.215-0.001,0.43-0.005,0.643,0.002c0.071,0.002,0.142,0.007,0.213,0.01c1.741,0.078,3.434,0.409,5.209,0.72l0.062-0.013
			c0.812,0.143,1.638,0.282,2.498,0.389c9.845,1.537,17.59-4.606,27.198-7.295C237.728,317.319,237.569,312.274,236.917,312.3z"/>
		<path style="fill:#FFFFFF;" d="M364.663,135.955l-0.173-0.014l-1.382-0.111c-1.854-0.146-3.704-0.292-5.552-0.438
			c-2.926-0.218-5.842-0.435-8.748-0.651c-8.505-0.586-16.996-0.883-25.48-0.629c-8.479,0.256-16.962,1.06-25.327,2.746
			c-8.355,1.684-16.604,4.274-24.34,8.072c-1.649,0.807-3.266,1.681-4.859,2.598c-0.007,0.004-0.014,0.008-0.021,0.012
			c-0.82,0.472-1.629,0.961-2.432,1.462c-0.3,0.186-0.602,0.367-0.9,0.557c-0.336,0.216-0.665,0.441-0.998,0.662
			c-1.584,1.043-3.143,2.126-4.649,3.284c-1.576,1.221-3.085,2.519-4.552,3.861c-0.123,0.112-0.248,0.221-0.371,0.334
			c-0.509,0.472-1.007,0.954-1.502,1.439c-0.242,0.236-0.493,0.462-0.732,0.701c-0.164,0.164-0.319,0.336-0.482,0.502
			c-0.28,0.286-0.556,0.575-0.831,0.866c-0.637,0.669-1.261,1.348-1.872,2.038c-0.076,0.086-0.151,0.171-0.227,0.257
			c-4.586,5.224-8.467,11.04-11.604,17.23c-5.455,10.807-8.787,22.631-10.205,34.891c-0.038,0.319-0.069,0.64-0.104,0.96
			c-0.08,0.747-0.157,1.494-0.223,2.244c-0.053,0.592-0.098,1.185-0.142,1.779c-0.038,0.521-0.073,1.041-0.105,1.563
			c-0.038,0.64-0.073,1.28-0.101,1.921c-0.028,0.626-0.047,1.253-0.066,1.881c-0.012,0.447-0.027,0.894-0.034,1.342
			c-0.025,1.369-0.035,2.739-0.016,4.113c0.038,4.82,0.779,8.561,1.499,11.35c0.867,2.78,1.761,4.62,2.553,5.712
			c1.667,2.227,2.822,1.484,2.533-0.809c-0.026-0.158-0.046-0.316-0.07-0.474c-0.005-0.095,0.001-0.177-0.009-0.278
			c-1.093-7.278-1.446-14.662-1.07-21.988c0.012-0.216,0.022-0.432,0.035-0.649c0.048-0.839,0.112-1.677,0.18-2.514
			c0.066-0.806,0.142-1.612,0.225-2.416c0.042-0.406,0.082-0.812,0.129-1.217c0.066-0.575,0.14-1.149,0.216-1.722
			c1.303-9.414,3.89-18.609,7.791-27.146c0.112-0.242,0.221-0.485,0.335-0.727c0.222-0.481,0.46-0.952,0.692-1.427
			c0.236-0.479,0.469-0.96,0.714-1.433c0.382-0.74,0.776-1.473,1.18-2.201c0.026-0.048,0.052-0.096,0.078-0.143
			c0.332-0.596,0.676-1.184,1.023-1.771c0.402-0.674,0.806-1.346,1.228-2.006c0.067-0.106,0.132-0.214,0.199-0.32
			c3.289-5.081,7.179-9.736,11.562-13.828c0.703-0.68,1.439-1.32,2.18-1.955c0.555-0.471,1.12-0.929,1.69-1.382
			c0.284-0.225,0.567-0.451,0.855-0.671c0.426-0.328,0.854-0.653,1.287-0.971c1.009-0.734,2.034-1.445,3.074-2.138
			c1.151-0.758,2.322-1.488,3.516-2.181c0.689-0.376,1.378-0.752,2.065-1.129c0.411-0.22,0.818-0.446,1.228-0.668
			c0.459-0.237,0.917-0.474,1.38-0.702c0.203-0.095,0.406-0.19,0.615-0.274c2.208-0.983,4.387-2.029,6.696-2.792
			c1.144-0.403,2.265-0.86,3.425-1.22l3.502-1.023l0.791-0.231c0.725-0.194,1.453-0.381,2.183-0.559l0.561-0.128l2.39-0.547
			c1.394-0.299,2.797-0.569,4.205-0.817c0.195-0.034,0.391-0.065,0.586-0.101c0.166-0.026,0.33-0.058,0.495-0.087
			c1.427-0.238,2.86-0.451,4.298-0.642c0.528-0.066,1.056-0.131,1.583-0.199c1.275-0.154,2.553-0.295,3.834-0.416
			c0.249-0.02,0.497-0.047,0.746-0.062c5.757-0.498,11.556-0.692,17.379-0.682c0.987,0.005,1.974,0.007,2.962,0.023
			c0.387,0.005,0.774,0.009,1.162,0.016c0.387,0.004,0.773,0.012,1.16,0.021c0.74,0.016,1.481,0.038,2.221,0.06
			c0.44,0.015,0.881,0.03,1.321,0.044c1.611,0.045,3.225,0.114,4.84,0.199c2.059,0.102,4.116,0.192,6.181,0.333l5.461,0.359
			l0.951,0.069l0.475,0.035l0.09,0.006c0.015,0.001,0.027,0.004,0.033,0.012c0.018,0.018,0.005,0.065,0.012,0.094l-0.001,0.24
			l-0.009,1.914l-0.018,6.176c-0.018,10.095-0.036,20.201-0.054,30.325c0.003-0.036,0.005-0.072,0.008-0.108
			c-0.002,2.031-0.004,4.061-0.005,6.093l0,1.354v0.677l0,0.339c-0.081,0.057-0.205,0.083-0.305,0.127
			c-0.429,0.155-0.834,0.32-1.282,0.468l-1.393,0.427c-3.2,0.882-6.738,1.596-10.265,2.257c-3.552,0.676-7.195,1.298-10.903,2.196
			c-3.699,0.897-7.476,2.043-11.13,3.82c-3.65,1.76-7.132,4.245-9.941,7.397c-2.796,3.186-4.833,6.954-6.083,10.836
			c-0.372,1.107-0.679,2.221-0.941,3.339c-0.013,0.031-0.025,0.057-0.039,0.088c-0.642,2.732-0.984,5.479-1.144,8.201
			c-0.059,0.683-0.055,1.359-0.085,2.039c-0.009,0.339-0.028,0.68-0.022,1.017l0.001,1.133c-0.011,0.946,0.039,1.868,0.082,2.797
			c0.037,0.929,0.082,1.854,0.16,2.767l0.213,2.749l0.115,1.376c0.025,0.2,0.026,0.422,0.066,0.606l0.004,0.046l0.003,0
			c0.001,0.005,0.001,0.011,0.002,0.016l0.69,0.042c1.849,0.102,3.651,0.243,5.524,0.309c2.978,0.111,5.958,0.222,8.942,0.333
			c8.718,0.332,17.387,0.662,26.011,0.991c1.333,0.048,2.664,0.096,3.993,0.144l0.978,0.036l0.245,0.009l0.061,0.002
			c0.01,0.009-0.001,0.037-0.001,0.054l-0.013,0.119l-0.054,0.478l-0.217,1.923l-0.195,2.036l-0.243,2.889
			c-0.192,2.161-0.305,4.325-0.441,6.484c-0.223,4.321-0.33,8.637-0.341,12.941c0.008,4.305,0.133,8.598,0.35,12.877
			c0.237,4.278,0.588,8.538,1.029,12.78l0.368,3.175l0.155,1.282l0.128,0.963c0.158,1.283,0.368,2.557,0.549,3.817
			c-1.694,0.008-3.371,0.022-5.041,0.075l-1.037,0.04l-0.882,0.029c-0.173,0.006-0.344,0.018-0.517,0.025l-1.509,0.058l-4.124,0.217
			c-3.011,0.187-6.014,0.424-9.01,0.702c-0.351,0.033-0.702,0.068-1.053,0.102c-1.279,0.123-2.557,0.255-3.833,0.394
			c-0.353,0.039-0.707,0.078-1.06,0.118c-0.48,0.054-0.961,0.103-1.441,0.16c-0.813,0.101-1.625,0.207-2.437,0.311
			c-0.377,0.048-0.754,0.094-1.131,0.144c-1.523,0.2-3.045,0.409-4.562,0.64c-0.043,0.006-0.086,0.014-0.129,0.02
			c-0.016,0.002-0.031,0.004-0.047,0.007l-2.542,0.391l-0.76,0.125c-0.189,0.031-0.379,0.058-0.568,0.089l-1.181,0.195l-0.271,0.049
			l-0.009,0.001c-0.014,0.003-0.029,0.005-0.043,0.008l-1.095,0.198l-2.844,0.513l-2.85,0.536l-0.164,0.031
			c-0.051,0.009-0.102,0.019-0.152,0.028l-0.897,0.169l-0.449,0.085l-0.196,0.037c-0.009,0.001-0.016,0.003-0.025,0.005
			l-0.004,0.001l-0.112,0.021c-0.04,0.005-0.008,0.066-0.016,0.096l0.074,1.801l0.151,3.617l0.114,2.605
			c0.075,1.803,0.15,3.604,0.224,5.405c0.236,6.17,0.452,12.327,0.626,18.471c0.576,19.964,0.848,39.797,0.81,59.552
			c0,0.266-0.001,0.532-0.002,0.798c-0.015,6.484-0.062,12.96-0.144,19.429c-0.037,2.665-0.074,5.327-0.111,7.981
			c-0.283,15.084-0.572,30.498-0.865,46.098l-0.062,2.926l-0.03,1.465c-0.01,0.637-0.02,0.623-0.029,0.797l-0.112,1.712
			l-0.053,0.816c-0.003,0.033-0.005,0.071-0.007,0.108c-0.016,0.114-0.036,0.209-0.064,0.258l-0.075-0.023l-0.205-0.066
			l-0.628-0.105l-0.316-0.052l-0.094-0.014l-0.373-0.039l-0.747-0.077l-2.989-0.308l-5.99-0.558
			c-3.999-0.344-8.006-0.652-12.02-0.899c-8.027-0.514-16.078-0.803-24.124-0.924l-6.033-0.047l-4.354,0.008l-0.329,0.001
			l0.025-0.002l0.012-0.001l0.031-0.302l0.061-0.603c0.203-2.191,0.405-4.378,0.607-6.56c0.371-3.941,0.706-7.876,1.005-11.802
			c0.325-3.924,0.599-7.841,0.856-11.745c0.278-3.902,0.493-7.795,0.708-11.671c0.856-20.598,0.868-41.375,0.548-62.742
			c0.007-0.213,0.014-0.429,0.021-0.642c-0.294-18.594-0.805-37.607-1.296-57.388c-0.115-4.713-1.394-5.313-2.033-5.607
			c-0.35,2.22-0.729,4.24-1.119,6.16c0.005,0.294,0.009,0.588,0.014,0.881c-0.306,1.515-0.622,2.953-0.947,4.334
			c-0.004-0.277-0.007-0.552-0.011-0.829c-0.053,0.224-0.103,0.431-0.153,0.644c-0.386,1.558-0.769,3.103-1.129,4.557
			c0.004,0.258,0.006,0.516,0.01,0.774c-0.456,1.768-0.907,3.491-1.339,5.214c-0.217,0.844-0.43,1.69-0.639,2.543
			c-0.009-0.236-0.016-0.472-0.025-0.708c-0.446,1.828-0.868,3.671-1.247,5.621c-0.011,0.344-0.022,0.69-0.033,1.033
			c-0.09,0.47-0.185,0.93-0.27,1.412c-0.62,3.477-1.171,7.318-1.492,11.818c-0.093,1.74-0.18,3.504-0.27,5.257
			c-0.001-0.278,0.002-0.556,0.001-0.835c-0.45,9.187-0.869,18.564-1.294,28.067c-0.707,15.624-1.416,31.59-2.326,47.659
			c-0.775,13.705-1.679,27.475-2.828,41.126c-0.54,5.712-1.08,11.413-1.618,17.099l-0.206,2.165l-0.013,0.135
			c0.038,0.01,0.098,0,0.146,0.002l0.306-0.008l0.612-0.016l1.222-0.031l4.869-0.123c3.073-0.075,6.141-0.149,9.203-0.224
			c1.375-0.024,2.747-0.049,4.119-0.073c1.043-0.015,2.084-0.026,3.124-0.034c1.044-0.007,2.089-0.013,3.131-0.02
			c1.1,0,2.197,0.008,3.294,0.015c1.195,0.007,2.388,0.019,3.579,0.036c1.035,0.014,2.071,0.025,3.102,0.047
			c3.818,0.077,7.607,0.207,11.361,0.382c5.483,0.211,10.964,0.507,16.437,0.888l4.104,0.302l2.051,0.164l1.025,0.082l1.461,0.134
			l14.368,1.404l0.463,0.046l0.116,0.011l0-0.106l0-0.211l0-0.844l0.001-1.686l0.002-3.366l0.005-6.709l-0.009-3.623l0.001-1.206
			l-0.008-1.333l-0.011-4.113l-0.132-16.671c-0.083-7.66-0.199-15.314-0.331-22.966c-0.007-0.42-0.015-0.84-0.022-1.261
			c-0.099-5.636-0.21-11.27-0.335-16.901c-0.007-0.317-0.014-0.634-0.021-0.952c-0.183-8.164-0.383-16.325-0.619-24.479
			c-0.095-3.27-0.203-6.536-0.307-9.804c-0.016-0.505-0.029-1.011-0.045-1.517c-0.002-0.027-0.004-0.055-0.005-0.082
			c-0.588-18.334-1.297-36.64-2.136-54.911l-0.334-7.247l-0.03-1.038l-0.007-0.255l-0.002-0.063l0.065-0.012l0.13-0.022l0.115-0.019
			l1.671-0.267c1.8-0.301,3.603-0.574,5.407-0.837c0.47-0.069,0.94-0.138,1.411-0.204c1.826-0.255,3.653-0.495,5.483-0.71
			c0.231-0.027,0.462-0.051,0.692-0.077c1.654-0.19,3.309-0.361,4.965-0.518c0.42-0.04,0.839-0.082,1.259-0.12
			c1.781-0.16,3.563-0.301,5.345-0.424c0.389-0.027,0.778-0.05,1.167-0.076c1.694-0.109,3.388-0.202,5.083-0.276l0.841-0.04
			l0.753-0.027l2.951-0.094l1.701-0.039c1.694-0.038,3.403-0.058,5.119-0.072l9.07-0.056c-0.323-2.182-0.645-4.362-0.967-6.54
			c-0.063-0.426-0.126-0.853-0.189-1.279c-0.357-2.598-0.714-5.193-1.07-7.787l-0.162-1.596c-0.103-1-0.206-2-0.296-3l-0.078-0.958
			c-0.096-1.119-0.189-2.238-0.266-3.358c-0.139-1.814-0.253-3.622-0.355-5.428c-0.045-0.801-0.087-1.6-0.125-2.4
			c-0.082-1.728-0.152-3.453-0.201-5.175c-0.025-0.87-0.038-1.737-0.054-2.605c-0.02-1.04-0.031-2.078-0.039-3.115
			c-0.035-5.081,0.069-10.135,0.325-15.165c0.069-1.389,0.141-2.776,0.246-4.16l0.141-2.077l0.355-3.552l0.769-7.509l0.388-3.77
			l0.024-0.235c-0.007-0.029,0.034-0.1-0.014-0.096l-0.121-0.004l-0.486-0.017l-0.97-0.034l-1.935-0.067l-7.673-0.261l-3.76-0.124
			l-2.133-0.046l-8.533-0.166c-5.692-0.091-11.392-0.182-17.114-0.273l-2.147-0.03l-1.074-0.015l-0.256-0.003l-0.094,0.005
			l-0.19,0.009l-1.617,0.07l-0.43,0.016l-0.219,0.008c-0.07-0.001-0.171,0.03-0.155-0.061l-0.133-0.771
			c-0.082-0.528-0.153-1.085-0.206-1.672l-0.017-0.216l-0.008-0.11l-0.008-0.253c-0.01-0.337-0.025-0.675-0.018-1.008
			c0.01-0.667-0.012-1.344,0.022-2.007c0.042-1.333,0.129-2.66,0.285-3.968c0.307-2.616,0.864-5.169,1.754-7.559
			c0.888-2.39,2.114-4.613,3.715-6.557c1.672-1.894,3.584-3.644,5.887-5.007c2.758-1.581,5.807-2.681,8.925-3.532
			c0.616-0.17,1.238-0.321,1.861-0.471c0.255-0.06,0.506-0.127,0.763-0.183c0.693-0.158,1.388-0.31,2.087-0.451
			c1.239-0.247,2.483-0.474,3.731-0.691c0.004-0.001,0.009-0.001,0.013-0.002c3.787-0.658,7.614-1.226,11.463-1.994
			c1.282-0.243,2.576-0.568,3.862-0.847c1.717-0.526,3.477-0.996,5.256-1.607c1.295-0.042,2.149-0.397,2.715-0.96l0.212-0.073
			l0.43-0.149l0.216-0.075l0.012-0.218l0.063-1.49c0.191-1.071,0.144-2.317,0.128-3.551c0.002-0.103,0.009-0.201,0.011-0.305
			l0.045-1.66c0.009-0.098,0.014-0.198,0.025-0.293c0.198-5.117,0.396-10.259,0.599-15.506c-0.003-0.182-0.005-0.365-0.008-0.547
			c0.21-5.692,0.425-11.503,0.649-17.557c0.073-2.174,0.145-4.338,0.217-6.493l0.047-1.762l0.045-2.796
			c0.027-1.878,0.053-3.753,0.08-5.624l0.035-2.824l0.008-0.707l0.004-0.354C364.794,135.949,364.721,135.959,364.663,135.955z"/>
	</g>
</g>
</svg>
