<?xml version="1.0" encoding="utf-8"?>
<!-- Generator: Adobe Illustrator 21.1.0, SVG Export Plug-In . SVG Version: 6.00 Build 0)  -->
<svg version="1.1" id="Calque_3" xmlns="http://www.w3.org/2000/svg" xmlns:xlink="http://www.w3.org/1999/xlink" x="0px" y="0px"
	 viewBox="0 0 841.9 595.3" style="enable-background:new 0 0 841.9 595.3;" xml:space="preserve">
<path d="M732.4,203.5l-0.2-7.6c0-1.3,0-2.5-0.1-3.8l-0.3-3.8l-0.6-7.6l-1-7.6c-2.6-20.3-8.2-40.4-16.7-59.2
	c-17.1-37.7-46.5-69.9-83.8-88.7l-3.5-1.7l-3.6-1.6c-1.2-0.5-2.4-1.1-3.6-1.6l-3.6-1.4c-2.4-1-4.8-1.7-7.3-2.6
	c-2.4-0.8-4.9-1.5-7.4-2.3c-9.9-2.9-20-4.9-30.1-6.1l-3.8-0.4L563,7.1c-2.5-0.2-5.1-0.3-7.7-0.4c-5.1-0.2-10.2-0.1-15.3,0.1
	c-10.2,0.4-20.3,1.8-30.3,3.9c-10,2.1-19.7,5.2-29.1,8.9c-9.4,3.8-18.5,8.3-27.1,13.5C439,41.8,426,52.5,414.4,64.4
	c-4.5-5.4-9.4-10.3-14.7-14.7c-2.1-1.6-4.1-3.2-6.2-4.7c-2.1-1.4-4.2-2.9-6.4-4.3l-3.3-2c-1.1-0.7-2.2-1.4-3.3-1.9l-3.4-1.8
	c-1.1-0.6-2.3-1.2-3.4-1.7c-9.2-4.4-18.7-7.9-28.4-10.5c-9.7-2.7-19.5-4.5-29.3-5.8c-9.9-1.3-19.7-1.9-29.6-2.1
	c-4.9-0.1-9.9,0-14.9,0.3c-2.5,0.1-5,0.3-7.5,0.5c-2.6,0.3-5.1,0.7-7.6,1.1c-9.8,1.8-19.4,4.4-28.8,7.7c-9.4,3.3-18.6,7.2-27.4,11.8
	c-4.4,2.3-8.7,4.8-13,7.4c-4.2,2.6-8.4,5.5-12.4,8.5c-4,3-7.9,6.2-11.7,9.5c-3.8,3.3-7.3,6.9-10.8,10.5
	c-6.9,7.3-13.2,15.3-18.8,23.8c-5.5,8.5-10.4,17.4-14.5,26.7c-8.3,18.6-13.4,38.4-16.3,58.5c-1.4,10-2.2,20.1-2.6,30.2l-0.1,7.6
	l0.1,7.5c0,2.5,0.2,5,0.2,7.5c0.1,2.5,0.2,5,0.4,7.5l0.5,7.5l0.7,7.5c0.2,2.5,0.6,5,0.9,7.5c0.4,2.5,0.6,5,1.1,7.5
	c1.5,10,3.8,20,6.4,29.8c2.7,9.8,6,19.5,9.7,28.9c3.8,9.4,8.1,18.7,12.7,27.7c4.7,9,9.8,17.7,15.4,26.2c5.5,8.5,11.5,16.6,17.7,24.6
	c6.2,7.9,12.8,15.5,19.7,22.8c6.8,7.3,13.9,14.4,21.3,21.1c29.5,27,62.5,49.4,97.3,67.9c17.4,9.2,35.3,17.5,53.5,24.8
	c4.5,1.8,9.1,3.6,13.7,5.3c4.6,1.7,9.2,3.3,13.9,4.8c4.6,1.6,9.3,3,14,4.4c2.3,0.7,4.7,1.4,7.1,2c1.2,0.3,2.4,0.6,3.6,0.9l1.8,0.4
	l0.9,0.2l0.5,0.1l0.2,0.1c0.1,0,0.4,0.1,0.7,0.1c4.7-0.9,9.5-1.9,14.4-3l0.2-0.1c9.3-2.9,18.2-6.2,27.2-9.7
	c9-3.5,17.8-7.4,26.5-11.4c17.5-8.1,34.6-16.9,51.3-26.8c33.3-19.7,64.8-42.8,93-70.1c14.1-13.6,27.3-28.3,39.1-44.2
	c0.8-1,1.5-2,2.3-2.9l2.1-3l4.3-6.1c2.9-4,5.5-8.3,8.2-12.5c1.3-2.1,2.7-4.2,3.9-6.3l3.6-6.5l3.6-6.5c0.3-0.5,0.6-1.1,0.9-1.6
	l0.8-1.7l1.6-3.4l3.3-6.7l1.6-3.4l1.5-3.5l2.9-6.9l1.4-3.5c0.5-1.2,1-2.3,1.4-3.5l5-13.9c1.6-4.7,3-9.4,4.5-14.1
	c5.7-19,9.9-38.6,12.2-58.6c0.2-1.2,0.3-2.5,0.4-3.8l0.3-3.8l0.6-7.5l0.2-7.6l0.1-3.8l0-1.9L732.4,203.5z M698.8,230.5
	c-1.8,17.9-5.4,35.7-10.1,53.4c-1.3,4.4-2.5,8.8-3.8,13.2l-4.3,13.1c-1.5,4.3-3.2,8.4-4.8,12.7l-1.2,3.2l-1.4,3.1l-2.8,6.2
	c-15.1,32.9-36.2,63.4-61.4,90.6c-25.1,27.2-53.8,51.5-84.5,73.2c-15.3,10.9-31.3,21-47.6,30.6c-16.3,9.5-33,18.6-50.2,26.5l0.2-0.1
	c-4.2,1.5-8.5,3-12.9,4.6l-0.1-0.1l-0.4-0.2l-0.8-0.3l-1.7-0.7l-3.3-1.4c-2.2-1-4.4-1.9-6.6-2.9c-4.4-2-8.8-4.1-13.1-6.2
	c-8.7-4.2-17.3-8.5-25.8-13.1c-17-9.1-33.7-18.7-49.8-29.1c-32.2-20.8-62.6-44.2-89.3-70.9c-26.7-26.7-49.7-56.8-66.5-90
	c-4.2-8.3-7.9-16.8-11.3-25.4c-3.3-8.6-6.3-17.4-8.9-26.3l-1.8-6.7c-0.3-1.1-0.6-2.2-0.9-3.4l-0.8-3.4c-0.5-2.3-1.1-4.5-1.6-6.8
	l-1.4-6.8c-0.5-2.3-0.8-4.6-1.2-6.9c-0.4-2.3-0.8-4.6-1.1-6.9l-1-7l-0.8-7c-2.1-18.7-2.9-37.4-1.8-56c1.1-18.6,4.4-37,10.5-54.6
	c3.1-8.8,6.8-17.3,11.3-25.4c4.5-8.1,9.8-15.8,15.8-23c6-7.2,12.7-13.8,20-19.7c7.3-5.9,15.1-11.3,23.4-15.9
	c8.3-4.6,16.9-8.5,25.8-11.7c8.9-3.2,18.1-5.7,27.4-7.3c2.3-0.4,4.7-0.8,6.9-1c2.3-0.2,4.7-0.3,7-0.4c4.7-0.2,9.5-0.1,14.3,0
	c4.8,0.1,9.5,0.4,14.3,0.9c4.7,0.5,9.5,1,14.1,1.8c18.7,3,37.1,8.6,53.3,17.5c1,0.5,2,1.1,3,1.7l3,1.8c1,0.6,1.9,1.3,2.9,1.9
	l2.8,1.9c1.9,1.3,3.6,2.8,5.4,4.2c1.7,1.5,3.4,3,5.1,4.5c6.6,6.2,12.2,13.3,16.7,21l5.2,8.9l7.8-7.7c13-12.8,27.8-23.7,43.7-31.9
	c8-4.1,16.3-7.6,24.7-10.3c8.5-2.8,17.2-4.9,25.9-6.3c8.8-1.4,17.6-2.1,26.5-2.2c4.4,0,8.8,0.1,13.2,0.5c2.2,0.2,4.4,0.3,6.6,0.6
	l3.3,0.4l3.3,0.5c8.7,1.3,17.3,3.3,25.7,6c2.1,0.7,4.2,1.4,6.2,2.2c2,0.8,4.1,1.5,6.1,2.4l3,1.3c1,0.4,1.9,0.9,2.9,1.4l2.9,1.4
	l2.8,1.5c15.1,8.2,28.8,19.4,40.4,32.4l2.1,2.5c0.7,0.8,1.4,1.6,2.1,2.5l4,5.1l3.8,5.3c0.7,0.9,1.2,1.8,1.8,2.7l1.8,2.7
	c0.6,0.9,1.2,1.8,1.7,2.8l1.6,2.8c1.1,1.9,2.2,3.7,3.2,5.7l3,5.8l2.7,6c0.9,2,1.6,4,2.5,6.1c0.8,2,1.6,4,2.3,6.1l2.1,6.2l1.7,6.3
	c0.3,1.1,0.6,2.1,0.9,3.2l0.7,3.2c0.5,2.1,1,4.3,1.4,6.4l1.1,6.5c0.2,1.1,0.4,2.2,0.5,3.3l0.4,3.3
	C700.5,194.7,700.7,212.6,698.8,230.5z"/>
</svg>
