<?xml version="1.0" encoding="utf-8"?>
<!-- Generator: Adobe Illustrator 21.1.0, SVG Export Plug-In . SVG Version: 6.00 Build 0)  -->
<svg version="1.1" id="Calque_1" xmlns="http://www.w3.org/2000/svg" xmlns:xlink="http://www.w3.org/1999/xlink" x="0px" y="0px"
	 viewBox="0 0 841.9 595.3" style="enable-background:new 0 0 841.9 595.3;" xml:space="preserve">
<path d="M712.4,169.6c-3.6-21.3-10-41.6-19.8-60.9c-11-21.5-25.5-40.2-44.6-55.2c-23.6-18.6-50.4-29-80.2-31.7
	c-4.9-0.4-9.8-0.7-14.6-0.7c-9.5,0-19,0.8-28.4,2.4c-18.1,3-35.4,8.5-52.2,15.9c-20,8.8-38.6,19.9-56.4,32.6
	c-0.8,0.6-1.7,1.2-2.5,1.7c-1-0.7-1.8-1.3-2.5-1.9c-16.6-12.2-34.1-22.9-52.8-31.6c-20.8-9.6-42.4-16.4-65.3-19.1
	c-6.6-0.8-13.2-1.2-19.8-1.2c-8.8,0-17.6,0.7-26.3,2.2c-31.6,5.3-58.7,19.4-81.4,41.9c-17.3,17.2-29.9,37.4-38.9,60
	c-9.1,22.9-14,46.8-15.5,71.4c-0.1,2.1-0.6,4.2-0.9,6.3c0,5.9,0,11.8,0,17.8c0.3,2,0.7,4.1,0.9,6.1c0.6,12.3,2.2,24.5,4.6,36.6
	c5.7,29.2,15.6,56.8,29.3,83.2c17.9,34.7,41.2,65.4,68.7,93.1c23.5,23.7,49.4,44.5,77.3,62.9c35.8,23.7,73.9,42.9,113.7,58.9
	c3.1,1.2,6,1.8,9,1.8c3.1,0,6.2-0.7,9.3-2c14.3-6,28.5-12.3,42.4-19.1c37.4-18.4,72.9-40,105.6-66c29.2-23.3,55.5-49.4,78-79.3
	c23-30.7,41.1-64,52.9-100.6c7.8-24.3,12.5-49.1,13.5-74.6C716.2,203.6,715.3,186.5,712.4,169.6z M675.6,219.1
	c-0.9,21.2-4.8,42.7-11.6,64c-10.1,31.2-25.4,60.3-46.8,88.8c-19.6,26.1-42.8,49.7-70.9,72.1c-29,23.1-61.2,43.2-98.3,61.4
	c-10.1,5-21.1,10-34.2,15.6c-37.4-15.5-70.3-32.7-100.6-52.7c-26.5-17.5-50.4-36.9-70.9-57.7c-25.9-26.2-46.1-53.4-61.5-83.3
	c-12.2-23.5-20.8-47.9-25.5-72.4c-2.1-10.6-3.4-21.1-3.9-31.1c-0.2-2.9-0.5-5.3-0.8-7.2v-11.4c0.3-1.9,0.6-4.3,0.8-7
	c1.3-21.5,5.5-40.8,12.7-59c7.4-18.6,17.2-33.7,29.9-46.4c17-16.8,36.5-26.9,59.8-30.9c6.4-1.1,13-1.6,19.7-1.6
	c5,0,10.1,0.3,15.2,0.9c17.3,2,34.7,7.1,53.1,15.7c15.3,7.1,30.3,16.1,46,27.5l1.6,1.1l0.9,0.7l23.1,17l23.5-16.5l0.7-0.5
	c0.7-0.5,1.5-1,2.2-1.6c16.6-12,32.7-21.3,49.1-28.5c14.7-6.5,28.7-10.7,42.6-13.1c7.4-1.2,14.7-1.8,21.9-1.8c3.7,0,7.4,0.2,11,0.5
	c22.5,2,41.8,9.6,59.1,23.3c13.8,10.9,24.9,24.7,33.7,42c7.7,15,12.9,31.2,16,49.3C675.3,190.1,676.2,204.5,675.6,219.1z"/>
</svg>
