<?xml version="1.0" encoding="iso-8859-1"?>
<!-- Generator: Adobe Illustrator 21.1.0, SVG Export Plug-In . SVG Version: 6.00 Build 0)  -->
<svg version="1.1" xmlns="http://www.w3.org/2000/svg" xmlns:xlink="http://www.w3.org/1999/xlink" x="0px" y="0px"
	 viewBox="0 0 283.46 283.46" style="enable-background:new 0 0 283.46 283.46;" xml:space="preserve">
<g id="Calque_1" style="display:none;">
	<g style="display:inline;">
		<path style="fill:#6A453B;" d="M151.605,124.565h-21.402c-3.418,0-6.195,2.777-6.195,6.195v21.399
			c0,3.418,2.777,6.199,6.195,6.199h21.402c3.415,0,6.196-2.781,6.196-6.199V130.76C157.801,127.342,155.02,124.565,151.605,124.565
			L151.605,124.565z M140.902,152.585c-6.132,0-11.125-4.993-11.125-11.125c0-6.133,4.993-11.125,11.125-11.125
			c6.137,0,11.125,4.992,11.125,11.125C152.027,147.592,147.035,152.585,140.902,152.585L140.902,152.585z M152.387,132.635
			c-1.453,0-2.633-1.179-2.633-2.632c0-1.45,1.18-2.633,2.633-2.633c1.449,0,2.633,1.183,2.633,2.633
			C155.02,131.456,153.836,132.635,152.387,132.635L152.387,132.635z M152.387,132.635"/>
		<path style="fill:#6A453B;" d="M140.902,135.038c-3.539,0-6.422,2.879-6.422,6.422c0,3.543,2.883,6.425,6.422,6.425
			c3.543,0,6.426-2.882,6.426-6.425C147.328,137.921,144.445,135.038,140.902,135.038L140.902,135.038z M140.902,135.038"/>
		<path style="fill:#6A453B;" d="M140.902,105.46c-19.828,0-35.902,16.074-35.902,35.902c0,19.828,16.074,35.902,35.902,35.902
			s35.903-16.074,35.903-35.902C176.805,121.534,160.73,105.46,140.902,105.46L140.902,105.46z M162.5,152.159
			c0,6.012-4.887,10.898-10.895,10.898h-21.402c-6.008,0-10.898-4.886-10.898-10.898V130.76c0-6.007,4.89-10.898,10.898-10.898
			h21.402c6.008,0,10.895,4.891,10.895,10.898V152.159z M162.5,152.159"/>
	</g>
</g>
<g id="Calque_2">
	<g>
		<path style="fill:#FFFFFF;" d="M275.653,136.935l-0.006-0.771c-0.004-0.6-0.008-1.201-0.021-1.801
			c-0.018-0.782-0.047-1.563-0.076-2.343l-0.011-0.288c-0.018-0.49-0.036-0.979-0.061-1.469c-0.03-0.599-0.068-1.197-0.107-1.797
			c-0.058-0.958-0.124-1.915-0.202-2.87l-0.053-0.621c-0.061-0.748-0.121-1.495-0.198-2.251c-0.472-4.378-1.177-8.883-2.093-13.381
			l-0.098-0.472c-0.202-0.976-0.409-1.95-0.631-2.917c-0.175-0.776-0.361-1.549-0.55-2.324l-0.279-1.131
			c-0.273-1.083-0.563-2.161-0.863-3.243l-0.131-0.468c-0.292-1.034-0.598-2.063-0.914-3.087c-0.137-0.445-0.277-0.889-0.42-1.338
			c-0.183-0.567-0.365-1.134-0.554-1.695l-0.188-0.579c-0.085-0.263-0.17-0.526-0.262-0.795
			c-3.482-10.044-8.213-19.791-14.063-28.975c-5.729-8.918-12.681-17.249-20.665-24.763c-0.185-0.174-0.373-0.344-0.562-0.514
			l0.014-0.015c-0.408-0.375-0.824-0.742-1.24-1.108l-0.753-0.668c-0.249-0.224-0.498-0.448-0.754-0.67
			c-0.218-0.189-0.438-0.375-0.659-0.561l-0.34-0.287c-2.763-2.356-5.629-4.596-8.521-6.659l-0.232-0.161
			c-0.965-0.685-1.935-1.361-2.917-2.02c-3.308-2.222-6.752-4.317-10.196-6.206c-1.601-0.942-3.27-1.751-4.884-2.534
			c-0.724-0.351-1.447-0.701-2.184-1.073l-0.103-0.047l-0.671,1.342l0,0l0.557-1.395c-1.508-0.723-3.058-1.378-4.557-2.011
			c-0.817-0.346-1.636-0.691-2.541-1.085l-2.238-0.831c-1.684-0.629-3.426-1.279-5.212-1.852c-0.764-0.228-1.524-0.466-2.285-0.705
			c-0.669-0.21-1.338-0.419-2.065-0.639c-0.955-0.288-2.09-0.619-3.232-0.88l-0.695-0.173c-0.179-0.044-0.357-0.083-0.535-0.123
			l-0.397-0.09c-0.78-0.186-1.561-0.367-2.34-0.534c-0.655-0.142-1.311-0.273-1.967-0.403c-0.445-0.088-0.89-0.174-1.332-0.255
			c-0.938-0.174-1.874-0.336-2.841-0.491c-7.517-1.203-15.064-1.651-22.434-1.33c-10.584,0.437-20.965,2.193-30.853,5.219
			c-9.803,3.005-19.386,7.211-28.489,12.504C76.94,26.461,68.44,32.824,60.506,40.197c-1.43,1.287-2.933,2.676-4.595,4.247
			l-0.687,0.654c-0.699,0.667-1.396,1.335-2.077,2.004c-0.283,0.277-0.56,0.556-0.837,0.834l-0.77,0.771
			c-0.415,0.415-0.83,0.83-1.23,1.242c-3.113,3.187-6.128,6.498-8.963,9.843c-6.117,7.245-11.266,14.465-15.771,22.128
			c-0.1,0.187-0.194,0.376-0.287,0.566l-0.048,0.105c-2.684,4.62-4.995,9.145-7.065,13.832c-3.071,6.915-5.535,14.37-7.324,22.16
			c-1.748,7.685-2.749,15.295-2.977,22.617c-0.528,15.102,1.575,29.889,6.249,43.944c2.312,7.023,5.215,13.855,8.635,20.317
			c3.494,6.506,7.559,12.755,12.083,18.571c4.583,5.894,9.707,11.433,15.23,16.466c5.556,5.033,11.707,9.679,18.246,13.783
			c1.841,1.23,3.617,2.074,5.122,2.742c1.716,0.746,3.043,1.266,4.317,1.543c2.455,0.602,4.524,0.767,6.158,0.487
			c0.219-0.039,0.43-0.087,0.635-0.145c0.857,0.768,1.704,1.551,2.525,2.336l3.33,3.061c0.393,0.354,0.782,0.717,1.169,1.078
			c0.652,0.608,1.298,1.209,1.938,1.753l0.197,0.168l-1.333-0.364l6.851,4.886c1.6,1.141,3.013,2.081,4.446,2.959l0.316,0.146
			c0.203,0.066,0.407,0.128,0.61,0.189l0.354,0.157c0.284,0.164,0.568,0.327,0.85,0.467c1.428,0.733,2.992,1.51,4.796,2.233
			c1.778,0.656,3.667,1.269,5.699,1.842c1.313,0.292,2.662,0.566,4.019,0.815l-0.004,0.026c5.802,1.119,11.993,1.722,18.391,1.793
			c0.128,0.002,0.256,0.003,0.385,0.003c0.161,0,0.321-0.001,0.482-0.003l1.072-0.003c0.735,0,1.469-0.001,2.204-0.019
			c1.02-0.023,2.04-0.072,3.06-0.124l0.459-0.021c0.348-0.017,0.696-0.032,1.048-0.054c0.663-0.043,1.326-0.098,1.989-0.153
			l0.136-0.012c2.507-0.2,4.596-0.415,6.591-0.678c1.541-0.224,3.132-0.487,4.841-0.803l1.278-0.217
			c1.083-0.21,2.161-0.452,3.24-0.695l3.759-0.854l2.251-0.623c0.462-0.121,0.92-0.258,1.379-0.394l1.503-0.438
			c1.317-0.39,2.633-0.805,3.906-1.233l0.603-0.203c1.073-0.368,2.143-0.747,3.199-1.143c0.647-0.238,1.291-0.485,1.936-0.736
			c0.744-0.29,1.485-0.585,2.228-0.89c0.585-0.241,1.17-0.483,1.744-0.729l0.616-0.257c0.31-0.127,0.618-0.255,0.95-0.399
			l4.381-2.003l4.198-2.166c1.418-0.705,2.759-1.482,4.248-2.357c0.458-0.273,0.921-0.539,1.383-0.806
			c0.904-0.521,1.84-1.059,2.715-1.635c1.529-0.953,3.119-2.003,4.997-3.3c0.196-0.134,0.39-0.271,0.583-0.408l0.284-0.201
			c1.042-0.73,2.076-1.469,3.092-2.221l0.094-0.07c2.23-1.653,4.386-3.325,6.425-4.985c9.808-8.27,18.373-17.463,25.438-27.298
			c0.847-1.127,1.736-2.382,2.803-3.959l0.067-0.1c0.798-1.181,1.578-2.367,2.355-3.551l0.722-1.099
			c1.12-1.819,2.253-3.764,3.462-5.942l0.432-0.767c0.403-0.738,0.795-1.483,1.187-2.229l0.346-0.656
			c0.137-0.256,0.272-0.511,0.404-0.768c6.275-12.238,10.837-25.188,13.558-38.488c0.146-0.711,0.278-1.424,0.41-2.138l0.165-0.875
			c0.062-0.315,0.122-0.632,0.179-0.951c0.081-0.465,0.155-0.931,0.229-1.396l0.12-0.745c0.117-0.72,0.234-1.44,0.34-2.169
			l0.049-0.37c0.151-1.055,0.299-2.107,0.427-3.169c0.645-5.495,0.983-11.134,1.006-16.755
			C275.661,137.78,275.657,137.357,275.653,136.935z M174.424,19.396L174.424,19.396L174.424,19.396L174.424,19.396z M79.75,250.34
			c-0.34-0.189-0.68-0.379-1.018-0.57c-0.671-0.382-1.34-0.767-2.001-1.16c-0.221-0.133-0.44-0.269-0.659-0.404l-0.397-0.245
			c-10.225-6.268-19.294-14.161-26.954-23.46l-0.505-0.615c-0.569-0.7-1.131-1.408-1.684-2.125l-0.34-0.448
			c-0.975-1.274-1.958-2.623-2.92-4.005l-0.603-0.863c-0.435-0.638-0.86-1.28-1.282-1.926c-0.306-0.469-0.607-0.941-0.907-1.417
			l-0.219-0.346c-0.278-0.438-0.557-0.877-0.826-1.319c-0.625-1.03-1.234-2.069-1.827-3.122l-0.447-0.807
			c-0.754-1.367-1.319-2.428-1.834-3.442c-2.611-5.115-4.879-10.531-6.741-16.1l-0.22-0.667c-0.388-1.183-0.758-2.371-1.109-3.565
			l-0.121-0.399c-0.352-1.213-0.694-2.476-1.046-3.857l-0.226-0.922c-0.253-1.027-0.493-2.059-0.719-3.09l-0.21-0.959
			c-0.265-1.261-0.512-2.523-0.738-3.79l-0.156-0.937c-0.165-0.971-0.319-1.944-0.46-2.919c-0.068-0.462-0.135-0.924-0.197-1.388
			c-0.131-0.977-0.248-1.955-0.356-2.933c-0.076-0.692-0.144-1.386-0.208-2.078c-0.07-0.752-0.137-1.505-0.193-2.256
			c-0.051-0.682-0.096-1.363-0.136-2.048c-0.028-0.468-0.05-0.936-0.071-1.402l-0.008-0.178c-0.075-1.626-0.12-3.215-0.132-4.724
			l-0.007-0.471c-0.004-0.871,0.005-1.743,0.019-2.614l0.019-0.938c0.062-2.641,0.209-5.333,0.439-8.002
			c0.039-0.452,0.079-0.904,0.123-1.357c0.074-0.766,0.151-1.532,0.24-2.302l0.088-0.721c0.239-1.972,0.499-3.797,0.794-5.58
			c0.49-2.969,1.099-5.983,1.81-8.958l-1.459-0.349l1.497,0.184c0.2-0.831,0.412-1.659,0.627-2.484
			c0.103-0.392,0.208-0.784,0.315-1.176c0.75-2.765,1.583-5.495,2.476-8.114l-1.42-0.484l0,0l1.463,0.356
			c1.326-3.873,2.85-7.734,4.548-11.521c0.708-1.579,1.47-3.186,2.331-4.915l0.383-0.776c0.398-0.788,0.806-1.571,1.219-2.352
			l0.335-0.627c0.944-1.759,1.905-3.466,2.858-5.074l-0.007-0.005c2.456-4.153,5.087-8.106,7.826-11.756
			c9.555-12.864,21.263-23.788,34.8-32.467c0.763-0.488,1.529-0.972,2.371-1.486l0.1-0.06c5.295-3.226,10.86-6.095,16.542-8.526
			l0.307-0.13c0.908-0.386,1.82-0.764,2.735-1.128c9.558-3.788,19.522-6.299,29.615-7.462l-0.172-1.49l0.295,1.474
			c1.425-0.163,2.867-0.299,4.352-0.411c6.492-0.451,12.136-0.446,17.265,0.018c2.678,0.221,5.359,0.53,7.964,0.917l1.099,0.169
			c0.48,0.077,0.959,0.164,1.438,0.251l0.484,0.088c1.074,0.196,2.146,0.408,3.21,0.634l0.423,0.091
			c0.766,0.164,1.53,0.328,2.289,0.518l0.161,0.04c1.245,0.3,2.536,0.636,3.844,1.001l0.411,0.116
			c10.748,3.052,20.953,7.717,30.324,13.859l0.647,0.434c0.646,0.429,1.28,0.872,1.956,1.342l0.125,0.087
			c0.559,0.392,1.118,0.783,1.669,1.186l0.41,0.306c13.334,9.847,24.382,22.728,31.95,37.256c1.923,3.651,3.687,7.501,5.243,11.446
			c0.14,0.351,0.274,0.704,0.408,1.057l0.115,0.301c0.622,1.636,1.201,3.261,1.721,4.829l0.227,0.682
			c0.296,0.914,0.581,1.831,0.854,2.748c0.246,0.831,0.481,1.665,0.708,2.502l0.23,0.819c0.09,0.34,0.173,0.682,0.257,1.023
			l0.129,0.525c0.255,1.022,0.499,2.047,0.725,3.077l0.084,0.377c0.066,0.296,0.133,0.593,0.194,0.892
			c0.281,1.351,0.544,2.733,0.778,4.107c0.062,0.362,0.118,0.724,0.176,1.086l0.051,0.323c0.159,1.002,0.303,2.006,0.436,3.01
			c0.1,0.753,0.195,1.508,0.281,2.263c0.108,0.962,0.206,1.925,0.293,2.887c0.071,0.807,0.134,1.614,0.19,2.42
			c0.027,0.402,0.05,0.805,0.072,1.208l0.048,0.846c0.03,0.532,0.061,1.063,0.081,1.587l0.111,3.227
			c0.013,0.693,0,1.386-0.013,2.079c-0.007,0.376-0.014,0.753-0.017,1.151c0.004,0.56-0.01,1.121-0.022,1.677
			c-0.011,0.403-0.022,0.807-0.037,1.206c-0.062,1.571-0.16,3.144-0.258,4.718l-0.057,0.837c-0.032,0.43-0.063,0.861-0.099,1.265
			l-0.088,0.851c-0.259,2.521-0.526,5.127-0.958,7.677c-1.051,6.725-2.383,12.643-4.076,18.109
			c-3.544,11.891-8.786,23.352-15.573,34.055c-3.754,5.818-7.404,10.77-11.158,15.135c-4.091,4.746-8.509,9.24-13.12,13.348
			c-9.654,8.407-20.03,15.182-30.871,20.15c-14.519,7.077-29.395,11.173-44.216,12.173c-1.133,0.076-2.271,0.128-3.413,0.168
			l-0.369-0.022l-0.081,0.003c-15.506,0.483-30.87-2.631-44.411-9.028c-1.272-0.621-2.393-0.96-3.396-1.022
			c-0.281-0.314-0.672-0.635-1.217-0.925l-0.271-0.139c-0.06-0.043-0.122-0.085-0.194-0.126l-0.09-0.048
			C83.185,252.184,81.479,251.297,79.75,250.34z"/>
		<path style="fill:#FFFFFF;" d="M103.414,214.655c2.835-0.152,5.67-0.31,8.52-0.468c6.34-0.353,12.896-0.717,19.643-1.025
			c1.212-0.055,2.414-0.126,3.615-0.196c3.462-0.204,7.043-0.412,10.784-0.225c0.467,0.067,0.874,0.146,1.281,0.226
			c0.94,0.183,1.914,0.371,3.503,0.428c17.217,0.46,35.008-0.327,46.428-2.052l1.005-0.152c0.514,0.582,1.374,0.843,1.872,0.993
			l0.156,0.038c0.537,0.102,1.148,0.185,1.817,0.246l0.41,0.009c0.583,0.007,1.244,0.012,1.917-0.069
			c1.561-0.159,3.206-0.593,4.667-1.236c3.241-1.521,5.946-3.912,7.805-6.889c1.824-2.799,2.855-6.31,2.903-9.89
			c0.058-4.926,0.021-9.695-0.022-13.712v-0.021c-0.23-9.24-0.488-18.37-0.745-27.468c-0.563-20.003-1.146-40.688-1.398-61.664
			l-0.056-3.864l-0.023-0.415c-0.021-0.406-0.044-0.812-0.092-1.216c-0.265-2.231-0.998-4.445-2.119-6.397
			c-2.233-3.919-5.996-6.836-10.31-7.999c-1.061-0.296-2.17-0.483-3.3-0.557c-0.897-0.057-1.566-0.054-2.213-0.05l-5.45,0.007
			l-9.76-0.011l-77.223-0.553l-19.456-0.048l-2.455,0.002l-1.443,0.042c-0.574,0.015-1.158,0.076-1.752,0.182
			c-2.251,0.349-4.47,1.169-6.413,2.367c-3.963,2.425-6.828,6.394-7.839,10.813c-0.158,0.553-0.229,1.101-0.292,1.583
			c-0.025,0.193-0.05,0.386-0.081,0.578l-0.013,0.099c-0.024,0.263-0.036,0.526-0.046,0.79l-0.021,0.516
			c-0.012,0.308-0.022,0.628-0.015,0.792l0.076,22.108c-0.032,8.398-0.135,16.858-0.307,25.146
			c-0.345,16.738-0.978,33.361-1.878,49.373c-0.139,1.754-0.401,3.284-0.679,4.904l-0.021,0.119
			c-0.147,0.859-0.298,1.746-0.439,2.721l-0.199,1.498l-0.065,1.596c-0.005,0.361-0.008,0.73,0.02,1.081
			c0.318,4.957,2.64,9.876,6.204,13.151c3.008,2.805,6.887,4.705,10.967,5.358l1.461,0.188c0.398,0.034,0.798,0.047,1.197,0.058
			l1.073,0.02l4.883-0.185C93.583,215.158,97.877,214.951,103.414,214.655z M207.157,204.537c-0.97,0.842-1.935,1.507-2.834,1.96
			c-0.301,0.143-0.73,0.346-1.066,0.659c-0.344,0.129-0.68,0.243-1.008,0.343l-1.551-0.216c-0.786-0.109-1.502-0.234-2.189-0.354
			c-1.375-0.24-2.673-0.466-4.193-0.522c-2.892-0.106-5.816-0.186-8.724-0.265c-8.19-0.223-15.928-0.433-22.611-1.198
			c-4.658-0.565-9.005-1.23-13.208-1.873c-7.611-1.164-15.481-2.368-25.552-3.045c-6.567-0.457-13.753-0.683-21.801-0.683
			c-2.625,0-5.343,0.023-8.161,0.071l-7.662,0.18l-1.879,0.057l-0.577,0.001l-0.131,0.006c-0.014,0-0.057,0.002-0.171-0.014
			l-0.128-0.014c-0.504-0.028-1.019-0.152-1.572-0.386c-0.245-0.095-0.49-0.216-0.73-0.36l-0.027-0.016
			c-0.698-0.425-1.334-1.039-1.832-1.764l-1.26,0.812h0l1.201-0.909c-0.289-0.479-0.518-0.995-0.672-1.508
			c-0.035-0.123-0.064-0.248-0.09-0.364c-0.04-0.179-0.078-0.358-0.097-0.609l-0.095-1.652c-0.731-18.847-0.542-35.971-0.34-54.1
			c0.077-6.978,0.157-14.193,0.183-21.604c-0.03-7.382,0.108-13.76,0.242-19.927l0.171-8.926c0.001-0.128,0.001-0.258,0.006-0.32
			c0.021-0.15,0.03-0.301,0.037-0.452c0.003-0.059,0.002-0.117,0.01-0.168l0.019-0.108c0.215-1.58,1.118-3.064,2.412-4.03
			c1.191-0.794,2.133-1.046,2.751-1.162c0.153-0.016,0.29-0.035,0.428-0.055c0.212-0.03,0.431-0.063,0.814-0.074l1.427-0.07
			c1.583-0.052,2.699,0.05,6.152,0.748c3.787,0.922,10.489,1.58,16.715,1.638l0.751-0.016l0.599,0.009
			c8.885-0.158,17.484-0.416,25.801-0.666c11.08-0.333,22.536-0.676,34.471-0.771c2.719-0.017,5.467-0.023,8.265-0.013
			c6.685,0.063,13.34,0.28,18.968,0.484l1.182,0.043l0.926,0.054c0.285,0.025,0.586,0.101,0.807,0.162
			c0.524,0.159,1.011,0.417,1.451,0.771c0.614,0.488,1.099,1.169,1.375,1.95c0.078,0.229,0.134,0.459,0.166,0.686l0.008,0.052
			c0.026,0.233,0.047,0.477,0.035,0.702l-0.003,0.062l0.005,0.111l-0.146,6.818c-0.053,3.43-0.067,6.568-0.043,9.631v0.172
			c0.053,6.843,0.303,13.151,0.766,19.282c1.064,14.363,2.158,26.148,3.315,38.625c0.861,9.275,1.751,18.866,2.627,29.61
			c0.042,0.533,0.091,1.038,0.137,1.516c0.069,0.716,0.133,1.367,0.158,1.995c0.017,0.266,0.004,0.521-0.006,0.771
			c-0.006,0.171-0.013,0.34-0.015,0.508l-0.042,0.35c-0.233,1.645-0.801,3.224-1.643,4.569
			C208.82,202.789,208.03,203.741,207.157,204.537z"/>
		<path style="fill:#FFFFFF;" d="M177.678,119.558c-3.263-3.233-6.937-5.95-10.933-8.081c-2.135-1.115-4.157-0.864-5.631-0.12
			l-0.905-2.988l0.225,0.055l-1.337-2.845c-0.354-0.753-0.713-1.406-1.099-1.994l-0.186-0.283l-0.289-0.176
			c-0.009-0.005-0.018-0.011-0.026-0.016c-0.042-0.058-0.088-0.118-0.138-0.182c-0.915-1.113-2.021-2.031-3.286-2.729l-0.176-0.082
			c-0.426-0.167-0.86-0.326-1.3-0.477l0.011-0.043c-1.774-0.576-3.699-1.139-5.654-1.334l-0.083-0.012
			c-0.25-0.035-0.499-0.064-0.739-0.092c-0.334-0.041-0.669-0.081-0.997-0.105c-0.123-0.01-0.246-0.016-0.37-0.022l-0.397-0.021
			c-0.192-0.011-0.386-0.022-0.567-0.026c-0.214-0.007-0.428-0.009-0.64-0.009c-0.758,0-1.481,0.006-2.316,0.033l-0.463,0.011
			c-0.395,0.028-0.789,0.077-1.184,0.127l-0.747,0.096c-0.89,0.118-1.81,0.241-2.817,0.435l-1.225,0.309
			c-0.57,0.136-1.137,0.288-1.695,0.451l-0.119,0.035l0.433,1.436l0,0l-0.531-1.407c-0.309,0.092-0.616,0.187-0.908,0.284
			c-0.327,0.105-0.65,0.221-0.972,0.339c-0.209,0.077-0.417,0.158-0.634,0.245l-0.112,0.042c-0.08,0.029-0.16,0.06-0.239,0.092
			c-0.548,0.196-1.114,0.43-1.775,0.732l-0.728,0.341c-1.014,0.491-2.008,1.025-2.969,1.542l-0.243,0.132
			c-0.667,0.392-1.3,0.819-1.913,1.231l-1.974,1.339l-1.243,1.007c-3.599,2.774-6.416,6.149-8.507,8.833l-1.974,2.778
			c-3.647,5.875-5.933,12.693-6.609,19.708c-0.091,0.885-0.152,1.811-0.188,2.831l-0.004,0.394
			c-0.019,0.745-0.025,1.491-0.005,2.233l0.023,0.464c0.028,0.739,0.069,1.479,0.135,2.225l0.018,0.165
			c0.315,3.391,1.027,6.791,2.114,10.1l0.185,0.543c0.153,0.459,0.307,0.919,0.455,1.308c0.417,1.277,0.985,2.46,1.534,3.603
			c0.178,0.371,0.356,0.741,0.511,1.075c0.257,0.601,0.573,1.123,0.878,1.628c0.136,0.226,0.272,0.45,0.43,0.731
			c0.142,0.234,0.28,0.471,0.419,0.708c0.292,0.5,0.584,1,0.921,1.498c1.614,2.313,3.826,5.295,6.622,7.849
			c0.201,0.186,0.398,0.376,0.596,0.567c0.41,0.396,0.834,0.806,1.323,1.2l2.995,2.359c0.239,0.173,0.487,0.333,0.735,0.492
			l0.256,0.165c0.847,0.583,1.75,1.156,2.761,1.754c0.277,0.163,0.554,0.324,0.816,0.467c1.179,0.665,2.177,1.185,3.157,1.645
			l0.435,0.186c0.988,0.449,2.022,0.871,3.143,1.281l0.615,0.229c0.174,0.066,0.348,0.133,0.561,0.204l0.222,0.063
			c0.053,0.017,0.107,0.03,0.147,0.038c0.732,0.222,1.506,0.424,2.3,0.601l0.374,0.075c0.708,0.148,1.423,0.274,2.125,0.374
			l0.454,0.061c0.686,0.087,1.372,0.152,2.144,0.202l0.399,0.025c0.555,0.027,1.107,0.041,1.656,0.041
			c0.121,0,0.243-0.001,0.363-0.002l0.503,0.001c0.658-0.017,1.313-0.056,1.962-0.108c2.71-0.211,5.377-0.719,7.932-1.509
			c4.082-1.277,8.042-3.319,11.773-6.072l0.24-0.181c1.71-1.279,3.318-2.654,4.725-4.035l1.764-1.556
			c0.429-0.385,0.858-0.764,1.291-1.128c0.601-0.508,1.154-1.035,1.688-1.545l0.751-0.708c0.198-0.185,0.398-0.368,0.652-0.589
			c0.596-0.56,1.157-1.146,1.722-1.738c0.385-0.403,0.771-0.809,1.215-1.25c0.689-0.74,1.326-1.531,1.942-2.296
			c0.264-0.328,0.529-0.659,0.804-0.99l0.151-0.222c0.043-0.075,0.08-0.153,0.124-0.252c0.981-1.353,1.832-2.658,2.604-3.997
			c2.42-4.277,3.696-9.303,3.689-14.539c-0.02-4.792-1.11-9.629-3.154-13.992C183.772,126.732,181.074,122.944,177.678,119.558z
			 M163.004,119.155l0.807-1.265l0,0l-0.698,1.332c0.515,0.331,1.049,0.704,1.622,1.13c1.375,1.042,2.672,2.248,3.848,3.578
			c0.279,0.318,0.556,0.638,0.823,0.97c0.153,0.189,0.304,0.381,0.454,0.578c0.202,0.262,0.394,0.531,0.626,0.857
			c1.304,1.852,2.386,3.865,3.217,5.987l0.136,0.333c0.103,0.272,0.195,0.547,0.288,0.823l0.047,0.14
			c0.089,0.263,0.174,0.526,0.254,0.783c0.121,0.395,0.24,0.79,0.345,1.19c0.382,1.464,0.652,2.985,0.804,4.514l0.034,0.456
			c0.046,0.538,0.075,1.077,0.091,1.617c0.012,0.439,0.019,0.879,0.013,1.317c-0.006,0.4-0.019,0.801-0.042,1.218l-0.011,0.203
			c-0.063,1.011-0.177,2.018-0.338,2.993c-0.051,0.312-0.114,0.621-0.177,0.929l-0.022,0.111c-0.078,0.377-0.158,0.754-0.251,1.133
			l-0.132,0.536c-0.162,0.615-0.34,1.227-0.531,1.824c-0.478,1.453-1.069,2.89-1.757,4.262c-0.286,0.563-0.59,1.115-0.899,1.658
			c-0.146,0.253-0.296,0.504-0.453,0.761c-0.746,1.239-1.465,2.286-2.182,3.183c-2.165,2.617-4.286,4.65-6.479,6.212
			c-1.061,0.748-2.22,1.478-3.417,2.152l-0.428,0.233c-0.193,0.106-0.387,0.213-0.596,0.32c-0.37,0.195-0.744,0.386-1.085,0.552
			c-0.461,0.207-0.927,0.404-1.396,0.602c-0.448,0.188-0.898,0.379-1.347,0.578c-2.419,0.836-4.973,1.378-7.57,1.611
			c-0.748,0.057-1.455,0.09-2.182,0.083l-0.331-0.003c-0.209-0.002-0.418-0.003-0.638-0.012l-0.403-0.021
			c-0.615-0.032-1.229-0.079-1.838-0.146l-0.279-0.03c-0.585-0.07-1.167-0.163-1.749-0.27l-0.415-0.071
			c-0.693-0.137-1.359-0.296-2.039-0.489l-0.108-0.032c-3.263-1.026-5.718-2.157-7.726-3.559l-0.118-0.074
			c-0.236-0.135-0.459-0.288-0.662-0.428l-0.283-0.198c-0.495-0.364-0.97-0.755-1.443-1.144l-0.497-0.405
			c-0.283-0.246-0.564-0.494-0.807-0.723l-1.319-1.326c-1.909-2.063-3.478-4.377-4.662-6.878c-0.454-0.958-0.858-1.959-1.201-2.975
			l-1.421,0.479l0,0l1.368-0.643c-0.136-0.411-0.258-0.823-0.397-1.32l-0.079-0.287c-0.091-0.346-0.17-0.693-0.247-1.04
			l-0.105-0.469c-0.086-0.426-0.159-0.852-0.223-1.28c-0.033-0.223-0.059-0.445-0.085-0.668l-0.017-0.141
			c-0.024-0.202-0.049-0.404-0.068-0.609c-0.023-0.241-0.041-0.483-0.057-0.722c-0.02-0.3-0.035-0.6-0.043-0.902l-0.013-0.399
			c-0.005-0.484,0-0.969,0.019-1.387l0.19-2.093c0.043-0.36,0.088-0.72,0.133-1.022l0.336-1.883
			c0.056-0.273,0.118-0.545,0.163-0.748l0.04-0.142c0.19-0.687,0.367-1.37,0.517-1.983l0.118-0.373
			c0.236-0.639,0.47-1.276,0.66-1.839c1.154-2.884,2.538-5.448,4.099-7.602c1.728-2.313,3.703-4.389,5.874-6.174
			c1.952-1.611,4.301-3.036,7.262-4.398c3.676-1.962,7.054-3.119,10.33-3.538c0.218-0.028,0.439-0.046,0.66-0.065l0.046-0.004
			l0.049,0.007l0.169-0.015c1.809-0.16,3.607-0.082,5.44,0.251c0.408,0.075,0.814,0.165,1.22,0.269l0.236,0.067
			c0.359,0.097,0.716,0.202,1.069,0.322l0.424,0.158c0.292,0.108,0.583,0.215,0.867,0.337c0.237,0.103,0.47,0.218,0.784,0.375
			l0.244,0.116c0.111,0.052,0.223,0.104,0.357,0.176c0.341,0.176,0.699,0.265,1.059,0.269l0.421,0.232
			c0.297,0.128,0.588,0.269,0.879,0.41l0.341,0.165c0.129,0.062,0.258,0.123,0.396,0.195c0.121,0.063,0.24,0.129,0.359,0.195
			l0.146,0.081C161.959,118.52,162.488,118.826,163.004,119.155z"/>
		<circle style="fill:#FFFFFF;" cx="178.589" cy="99.474" r="7.432"/>
	</g>
</g>
</svg>
