<?xml version="1.0" encoding="iso-8859-1"?>
<!-- Generator: Adobe Illustrator 21.1.0, SVG Export Plug-In . SVG Version: 6.00 Build 0)  -->
<svg version="1.1" id="Calque_1" xmlns="http://www.w3.org/2000/svg" xmlns:xlink="http://www.w3.org/1999/xlink" x="0px" y="0px"
	 viewBox="0 0 283.46 283.46" style="enable-background:new 0 0 283.46 283.46;" xml:space="preserve">
<g>
	<path style="fill:#6A453B;" d="M151.605,124.565h-21.402c-3.418,0-6.195,2.777-6.195,6.195v21.399c0,3.418,2.777,6.199,6.195,6.199
		h21.402c3.415,0,6.196-2.781,6.196-6.199V130.76C157.801,127.342,155.02,124.565,151.605,124.565L151.605,124.565z
		 M140.902,152.585c-6.132,0-11.125-4.993-11.125-11.125c0-6.133,4.993-11.125,11.125-11.125c6.137,0,11.125,4.992,11.125,11.125
		C152.027,147.592,147.035,152.585,140.902,152.585L140.902,152.585z M152.387,132.635c-1.453,0-2.633-1.179-2.633-2.632
		c0-1.45,1.18-2.633,2.633-2.633c1.449,0,2.633,1.183,2.633,2.633C155.02,131.456,153.836,132.635,152.387,132.635L152.387,132.635z
		 M152.387,132.635"/>
	<path style="fill:#6A453B;" d="M140.902,135.038c-3.539,0-6.422,2.879-6.422,6.422c0,3.543,2.883,6.425,6.422,6.425
		c3.543,0,6.426-2.882,6.426-6.425C147.328,137.921,144.445,135.038,140.902,135.038L140.902,135.038z M140.902,135.038"/>
	<path style="fill:#6A453B;" d="M140.902,105.46c-19.828,0-35.902,16.074-35.902,35.902c0,19.828,16.074,35.902,35.902,35.902
		s35.903-16.074,35.903-35.902C176.805,121.534,160.73,105.46,140.902,105.46L140.902,105.46z M162.5,152.159
		c0,6.012-4.887,10.898-10.895,10.898h-21.402c-6.008,0-10.898-4.886-10.898-10.898V130.76c0-6.007,4.89-10.898,10.898-10.898
		h21.402c6.008,0,10.895,4.891,10.895,10.898V152.159z M162.5,152.159"/>
</g>
</svg>
