<?xml version="1.0" encoding="utf-8"?>
<!-- Generator: Adobe Illustrator 21.1.0, SVG Export Plug-In . SVG Version: 6.00 Build 0)  -->
<svg version="1.1" id="Calque_2" xmlns="http://www.w3.org/2000/svg" xmlns:xlink="http://www.w3.org/1999/xlink" x="0px" y="0px"
	 viewBox="0 0 283.5 283.5" style="enable-background:new 0 0 283.5 283.5;" xml:space="preserve">
<path d="M241.6,132.3c0-0.6,0-1.2,0-1.7c0-0.7,0-1.3-0.1-2c0-0.5,0-1-0.1-1.5c0-0.5-0.1-1-0.1-1.5c0-0.8-0.1-1.6-0.2-2.4
	c0-0.1,0-0.1,0-0.2c-0.1-0.7-0.1-1.5-0.2-2.2c-0.4-3.7-1-7.5-1.7-11.2c0-0.1-0.1-0.3-0.1-0.4c-0.2-0.8-0.3-1.6-0.5-2.4
	c-0.1-0.6-0.3-1.3-0.5-1.9c-0.1-0.3-0.2-0.6-0.2-0.9c-0.2-0.9-0.5-1.8-0.7-2.7c0-0.1-0.1-0.3-0.1-0.4c-0.2-0.9-0.5-1.7-0.8-2.6
	c-0.1-0.4-0.2-0.7-0.3-1.1c-0.2-0.5-0.3-0.9-0.5-1.4c-0.1-0.4-0.2-0.8-0.4-1.1c-2.9-8.5-6.9-16.6-11.7-24.2
	c-4.9-7.6-10.7-14.5-17.2-20.6c-0.3-0.3-0.6-0.6-0.9-0.8c0.2,0.1,0.3,0.3,0.5,0.4c-0.5-0.4-1-0.8-1.4-1.3c-0.3-0.3-0.6-0.5-0.9-0.8
	c-0.3-0.2-0.6-0.5-0.8-0.7c-2.3-1.9-4.7-3.8-7.1-5.5c-0.1,0-0.1-0.1-0.2-0.1c-0.8-0.6-1.6-1.1-2.4-1.7c-2.8-1.9-5.6-3.6-8.5-5.2
	c-1.9-1.1-3.9-2-5.9-3c0,0-0.1,0-0.1,0c0,0,0,0,0,0c0,0,0,0,0,0c-1.9-0.9-3.9-1.7-5.9-2.6c-0.1,0-0.2-0.1-0.3-0.1c0,0,0,0,0,0
	c-0.1,0-0.2-0.1-0.3-0.1c-1.9-0.7-3.8-1.4-5.7-2c-1.2-0.4-2.4-0.8-3.6-1.1c0,0,0,0,0,0c-0.9-0.3-1.8-0.5-2.7-0.7
	c-0.1,0-0.2-0.1-0.4-0.1c-0.1,0-0.1,0-0.2-0.1c-0.3-0.1-0.5-0.1-0.8-0.2c-0.6-0.2-1.3-0.3-1.9-0.4c-0.5-0.1-1.1-0.2-1.6-0.3
	c-0.4-0.1-0.7-0.1-1.1-0.2c-0.8-0.1-1.6-0.3-2.3-0.4c0,0,0,0,0,0c-6.2-1-12.5-1.4-18.7-1.1c-8.8,0.4-17.4,1.8-25.7,4.3
	c-8.3,2.5-16.2,6.1-23.7,10.4c-7.5,4.4-14.5,9.7-21.1,15.8c-1.3,1.2-2.6,2.4-3.8,3.6c-0.2,0.2-0.4,0.4-0.6,0.5
	c-0.6,0.6-1.2,1.1-1.7,1.7c-0.4,0.3-0.7,0.7-1,1c-0.4,0.4-0.9,0.9-1.3,1.3c-2.6,2.7-5.1,5.4-7.5,8.2c-4.9,5.8-9.2,11.8-13.1,18.4
	c-0.1,0.2-0.2,0.4-0.3,0.6c-2.1,3.6-4.1,7.4-5.9,11.5c-2.7,6-4.7,12.2-6.1,18.4c-1.4,6.2-2.3,12.6-2.5,18.8
	c-0.4,12.5,1.3,24.9,5.2,36.6c1.9,5.8,4.3,11.5,7.2,16.9c2.9,5.4,6.3,10.6,10.1,15.5c3.8,4.9,8,9.5,12.7,13.7
	c4.7,4.2,9.8,8.1,15.2,11.5c1.4,1,2.9,1.6,4.1,2.2c1.3,0.6,2.4,1,3.4,1.2c2.1,0.5,3.6,0.6,4.7,0.4c0.4-0.1,0.8-0.2,1-0.3
	c1,0.8,1.9,1.7,2.7,2.5c0.2,0.1,0.3,0.1,0.5,0.2c0.9,0.8,1.7,1.5,2.4,2.2c-0.2-0.1-0.4-0.2-0.5-0.2c0.1,0.1,0.2,0.2,0.4,0.3
	c0.9,0.8,1.7,1.6,2.6,2.4c0.2,0.1,0.4,0.1,0.5,0.2c1,0.9,2.1,1.8,3.1,2.6c0.5,0.4,1,0.8,1.6,1.2c-0.2,0-0.3-0.1-0.5-0.1
	c1.2,0.8,2.4,1.6,3.7,2.4c0.3,0.1,0.5,0.2,0.8,0.2c0.3,0.2,0.6,0.4,0.9,0.5c1.2,0.6,2.5,1.3,3.9,1.8c1.4,0.5,3,1,4.6,1.5
	c1.2,0.3,2.4,0.5,3.6,0.7c-0.1,0-0.2,0-0.3,0c5,1,10.1,1.4,15.3,1.5c0.4,0,0.8,0,1.2,0c0.8,0,1.5,0,2.3,0c0.8,0,1.7-0.1,2.5-0.1
	c0.4,0,0.8,0,1.3-0.1c0.6,0,1.2-0.1,1.8-0.1c1.8-0.1,3.6-0.3,5.5-0.6c1.4-0.2,2.7-0.4,4-0.7c0.3-0.1,0.7-0.1,1-0.2
	c1.3-0.3,2.6-0.6,3.9-0.8l1.9-0.4l1.9-0.5c0.6-0.2,1.2-0.3,1.7-0.5c0.2-0.1,0.4-0.1,0.6-0.2c1.1-0.3,2.2-0.7,3.3-1
	c0.2-0.1,0.3-0.1,0.5-0.2c0.9-0.3,1.8-0.6,2.7-1c0.5-0.2,1.1-0.4,1.6-0.6c0.6-0.2,1.2-0.5,1.9-0.7c0.5-0.2,1-0.4,1.5-0.6
	c0.4-0.2,0.9-0.4,1.3-0.5l3.6-1.7l3.6-1.8c1.2-0.6,2.3-1.3,3.5-1.9c1.1-0.7,2.3-1.3,3.4-2c1.4-0.9,2.8-1.8,4.2-2.8
	c0.2-0.2,0.5-0.3,0.7-0.5c0.9-0.6,1.7-1.2,2.6-1.9c0,0,0,0,0.1-0.1c1.8-1.3,3.6-2.7,5.4-4.2c8.1-6.8,15.3-14.5,21.2-22.8
	c0.8-1.1,1.6-2.2,2.3-3.3c0,0,0,0,0,0c0,0,0,0,0,0c0.9-1.3,1.7-2.6,2.6-3.9c1-1.6,2-3.3,2.9-5c0.1-0.2,0.2-0.4,0.4-0.6
	c0.4-0.7,0.7-1.3,1.1-2c0.2-0.3,0.4-0.7,0.5-1c5.2-10.2,9-21,11.3-32.1c0.1-0.7,0.3-1.4,0.4-2.1c0.1-0.4,0.2-0.8,0.2-1.2
	c0.1-0.5,0.2-1,0.3-1.6c0.1-0.7,0.2-1.3,0.3-2c0-0.1,0-0.2,0-0.3c0.1-0.9,0.2-1.8,0.4-2.6c0.5-4.6,0.8-9.3,0.8-14
	C241.6,133.3,241.6,132.8,241.6,132.3z M81.4,231.7c-1.5-0.7-2.9-1.5-4.3-2.3c-0.3-0.2-0.6-0.3-0.9-0.5c-0.6-0.3-1.1-0.7-1.7-1
	c-0.3-0.2-0.6-0.4-0.9-0.6c-8.7-5.4-16.6-12.2-23-20.1c-0.1-0.2-0.3-0.3-0.4-0.5c-0.5-0.6-1-1.2-1.4-1.8c-0.1-0.1-0.2-0.3-0.3-0.4
	c-0.9-1.1-1.7-2.3-2.5-3.4c-0.2-0.2-0.3-0.5-0.5-0.7c-0.4-0.5-0.7-1.1-1.1-1.6c-0.3-0.4-0.5-0.8-0.8-1.2c-0.3-0.5-0.6-0.9-0.9-1.4
	c-0.5-0.9-1.1-1.8-1.6-2.7c-0.1-0.2-0.3-0.5-0.4-0.7c-0.5-1-1.1-1.9-1.6-2.9c-2.3-4.4-4.2-9-5.8-13.7c-0.1-0.2-0.1-0.4-0.2-0.6
	c-0.3-1-0.6-2-0.9-3c0-0.1-0.1-0.2-0.1-0.3c-0.3-1.1-0.6-2.2-0.9-3.3c-0.1-0.3-0.1-0.5-0.2-0.8c-0.2-0.9-0.4-1.8-0.6-2.6
	c-0.1-0.3-0.1-0.5-0.2-0.8c-0.2-1.1-0.4-2.2-0.6-3.2c0-0.3-0.1-0.5-0.1-0.8c-0.1-0.8-0.3-1.7-0.4-2.5c-0.1-0.4-0.1-0.8-0.2-1.2
	c-0.1-0.8-0.2-1.7-0.3-2.5c-0.1-0.6-0.1-1.2-0.2-1.8c-0.1-0.6-0.1-1.3-0.2-1.9c0-0.6-0.1-1.2-0.1-1.7c0-0.4,0-0.9-0.1-1.3
	c-0.1-1.3-0.1-2.7-0.1-4c0-0.1,0-0.3,0-0.4c0-0.7,0-1.5,0-2.2c0-0.3,0-0.5,0-0.8c0.1-2.3,0.2-4.6,0.4-6.8c0-0.4,0.1-0.8,0.1-1.2
	c0.1-0.7,0.1-1.3,0.2-2c0-0.2,0.1-0.4,0.1-0.6c0.2-1.6,0.4-3.2,0.7-4.8c0.4-2.6,0.9-5.1,1.5-7.6c0,0,0-0.1,0-0.1
	c0.2-0.7,0.4-1.4,0.5-2.1c0.1-0.3,0.2-0.7,0.3-1c0.6-2.3,1.3-4.6,2.1-6.9c0,0,0-0.1,0-0.1c1.1-3.3,2.4-6.6,3.9-9.8c0,0,0,0,0,0
	c0.6-1.4,1.3-2.8,2-4.2c0.1-0.2,0.2-0.4,0.3-0.7c0.3-0.7,0.7-1.3,1-2c0.1-0.2,0.2-0.4,0.3-0.5c0.8-1.5,1.6-2.9,2.4-4.3
	c0,0,0,0-0.1,0.1c2.1-3.5,4.3-6.9,6.7-10.1c8.1-10.8,18.1-20.3,29.7-27.7c0.7-0.4,1.3-0.8,2-1.2c0,0,0.1-0.1,0.1-0.1
	c4.5-2.7,9.2-5.2,14.1-7.3c0.1,0,0.2-0.1,0.3-0.1c0.8-0.3,1.6-0.7,2.3-1c8.2-3.2,16.7-5.4,25.3-6.4c0,0,0.1,0,0.1,0
	c1.2-0.1,2.4-0.3,3.7-0.3c0,0,0,0,0.1,0c4.9-0.3,9.9-0.4,14.7,0c2.3,0.2,4.5,0.4,6.8,0.8c0.3,0,0.6,0.1,0.9,0.1
	c0.6,0.1,1.1,0.2,1.6,0.3c0.9,0.2,1.8,0.3,2.7,0.5c0.8,0.2,1.6,0.3,2.3,0.5c0,0,0.1,0,0.1,0c1.1,0.3,2.2,0.6,3.3,0.9
	c0.1,0,0.2,0.1,0.4,0.1c9.2,2.6,18,6.7,25.9,11.8c0.2,0.1,0.4,0.2,0.5,0.4c0.6,0.4,1.1,0.8,1.7,1.1c0.5,0.4,1,0.7,1.5,1.1
	c0.1,0.1,0.2,0.2,0.4,0.3c11.5,8.5,20.8,19.4,27.3,31.8c1.7,3.2,3.2,6.4,4.5,9.8c0.2,0.4,0.3,0.8,0.4,1.2c0.5,1.4,1,2.7,1.5,4.1
	c0.1,0.2,0.1,0.4,0.2,0.6c0.3,0.8,0.5,1.6,0.7,2.3c0.2,0.7,0.4,1.4,0.6,2.1c0.1,0.2,0.1,0.5,0.2,0.7c0.1,0.4,0.2,0.9,0.3,1.3
	c0.2,0.9,0.4,1.7,0.6,2.6c0.1,0.4,0.2,0.7,0.2,1.1c0.2,1.2,0.5,2.3,0.7,3.5c0.1,0.4,0.1,0.8,0.2,1.2c0.1,0.9,0.3,1.7,0.4,2.6
	c0.1,0.6,0.2,1.3,0.2,1.9c0.1,0.8,0.2,1.6,0.3,2.5c0.1,0.7,0.1,1.4,0.2,2.1c0,0.5,0.1,0.9,0.1,1.4c0,0.6,0.1,1.2,0.1,1.7l0.1,2.7
	c0,0.9,0,1.8,0,2.7c0,0.5,0,1,0,1.5c0,0.3,0,0.7,0,1c-0.1,1.5-0.2,3-0.2,4.5c0,0.5-0.1,0.9-0.1,1.4c-0.2,2.4-0.5,4.8-0.9,7.3
	c-0.8,5.2-1.9,10.4-3.5,15.4c-3,10.2-7.5,20-13.3,29c-2.9,4.5-6,8.8-9.5,12.9c-3.5,4-7.2,7.8-11.2,11.4c-8,7-16.9,12.8-26.3,17.2
	c-11.5,5.6-24.3,9.5-37.7,10.4c-1,0.1-2,0.1-3,0.1c-0.1,0-0.2,0-0.3,0c-12.6,0.4-25.8-1.9-38-7.7c-1.4-0.7-2.3-0.8-3-0.7
	c-0.1-0.3-0.4-0.7-0.9-0.9c-0.1-0.1-0.2-0.1-0.3-0.2C81.5,231.7,81.5,231.7,81.4,231.7z"/>
<path d="M194.4,169.6c-0.6-25.3-1.5-49.6-1.8-75.1l0-2.1l0-1.1c0-0.4,0-0.9-0.1-1.3c-0.2-1.7-0.8-3.4-1.6-4.9
	c-1.7-3-4.6-5.3-7.9-6.2c-0.8-0.2-1.7-0.4-2.5-0.4c-0.9-0.1-1.5,0-2.2,0c-1.4,0-2.8,0-4.1,0c-2.8,0-5.5,0-8.2,0
	c-10.9-0.1-21.8-0.1-32.6-0.2c-10.8-0.1-21.6-0.2-32.5-0.3c-5.4,0-10.9,0-16.4,0l-2.1,0l-0.5,0l-0.7,0c-0.4,0-0.9,0.1-1.3,0.1
	c-1.7,0.3-3.4,0.9-4.9,1.8c-3,1.8-5.3,4.9-6.1,8.4c-0.2,0.5-0.2,1.1-0.3,1.7c0,0.3,0,0.6,0,0.8c0,0.3,0,0.6,0,0.8l0,2.7l0,5.3
	c0,3.6,0,7.1,0,10.7c0,7.1-0.1,14.2-0.3,21.2c-0.3,14.1-0.8,28-1.6,41.7c-0.1,1.6-0.4,2.9-0.6,4.3c-0.1,0.7-0.2,1.5-0.4,2.2
	c-0.1,0.4-0.1,0.8-0.2,1.2l0,0.2l0,0.3c0,0.2,0,0.3,0,0.5c0,0.4,0,0.7,0,1.1c0.3,3.9,2.1,7.7,4.8,10.2c2.4,2.2,5.4,3.7,8.5,4.2
	l1.2,0.2c0.4,0,0.8,0,1.2,0.1l0.6,0l0.4,0l0.7,0c1,0,2-0.1,3-0.1c3.9-0.2,7.8-0.4,11.7-0.6c7.8-0.4,15.5-0.9,23.7-1.3
	c4.1-0.2,8-0.6,12.3-0.4c1.3,0.2,2.1,0.5,3.9,0.5c13.4,0.4,28.6-0.2,38.9-1.7c-0.1,0-0.2,0-0.3,0c0.1,0,0.2,0,0.2,0
	c-0.7-0.1-1.3-0.2-1.9-0.3c1.5-0.1,3.2-0.3,4.9-0.5c-2-0.3-3.4-0.7-5.3-0.7c-9.2-0.3-18.8-0.4-26.5-1.2c-11-1.3-19.5-3.3-32.6-4.1
	c-8.1-0.6-16.6-0.7-25.1-0.5c-2.1,0-4.3,0.1-6.5,0.1l-1.6,0l-0.5,0c-0.1,0-0.3,0-0.4,0c-0.6,0-1.2-0.2-1.7-0.4
	c-0.3-0.1-0.5-0.2-0.8-0.4c0,0,0,0,0,0c-0.8-0.5-1.4-1.1-2-1.9c0,0-0.1-0.1-0.1-0.1c-0.3-0.5-0.5-1-0.7-1.6c0-0.1-0.1-0.3-0.1-0.4
	c0-0.2-0.1-0.4-0.1-0.6c0-0.1,0-0.1,0-0.3l0-0.4l0-0.8c-0.9-22.1-0.2-41.7-0.1-63.9c0-6.6,0.1-12.1,0.2-17.6c0-1.4,0.1-2.7,0.1-4.1
	c0-0.7,0-1.4,0-2.1l0-0.5c0-0.2,0-0.4,0-0.4c0-0.2,0-0.4,0.1-0.6c0.2-1.6,1.1-3.2,2.6-4.3c1.2-0.8,2.1-1,2.8-1.2
	c0.4,0,0.6-0.1,1.2-0.1c0.5,0,0.9,0,1.2-0.1c1.5,0,2.5,0.1,5.5,0.7c2.9,0.7,8.4,1.3,13.8,1.3c0.2,0,0.4,0,0.7,0c0.2,0,0.3,0,0.5,0
	c17.5-0.3,33.2-1.1,50.8-1.2c2.3,0,4.6,0,7,0c5.4,0.1,10.7,0.2,16,0.4l1,0l0.5,0c0.1,0,0.2,0,0.2,0l0.1,0c0.3,0,0.6,0.1,0.9,0.2
	c0.6,0.2,1.2,0.5,1.6,0.9c0.7,0.6,1.3,1.4,1.6,2.2c0,0,0,0,0,0c0.1,0.3,0.2,0.5,0.2,0.8c0,0,0,0,0,0c0,0.3,0.1,0.6,0,0.8l0,0.1
	l0,0.2l0,0.5l0,1c0,1.3-0.1,2.7-0.1,4c0,2.7-0.1,5.4,0,8.1c0,0,0,0,0,0c0,0,0,0.1,0,0.1c0,5.3,0.2,10.7,0.6,16.2
	c1.6,21.4,3.3,36.6,5,57.5c0.1,1.1,0.2,2.1,0.3,3c0,0.4,0,0.8,0,1.2c0,0.1,0,0.3,0,0.4c-0.2,1.5-0.7,3-1.6,4.3
	c-0.6,1-1.4,1.9-2.2,2.7c-0.8,0.7-1.8,1.4-2.7,1.8c-0.6,0.3-0.7,0.4-0.5,0.4c-1,0.4-1.9,0.7-2.9,0.8c-0.3,0.1-0.5,0.1-0.6,0.1
	c-0.1,0-0.2,0.1-0.3,0.1c0,0,0,0,0,0c-0.9,0.3-0.5,0.6,0.5,0.9c0.4,0.1,0.9,0.1,1.4,0.2c0.5,0,1.1,0,1.7-0.1
	c1.2-0.1,2.5-0.5,3.5-0.9c2.5-1.2,4.6-3.1,6.1-5.4c1.5-2.3,2.2-5,2.2-7.7C194.5,177.3,194.4,173.6,194.4,169.6z"/>
<path d="M139.7,102.9c-0.4-0.2-0.8-0.3-1.2-0.4c0.1,0,0.1,0,0.2,0c-1.5-0.5-3-0.9-4.6-1.1c0,0,0,0,0,0c-0.2,0-0.4-0.1-0.6-0.1
	c-0.3,0-0.5-0.1-0.8-0.1c-0.1,0-0.3,0-0.4,0c-0.2,0-0.4,0-0.6,0c-0.3,0-0.5,0-0.8,0c-0.5,0-1.1,0-1.6,0c0,0,0,0-0.1,0l-0.3,0
	c-0.4,0-0.8,0.1-1.3,0.1c-0.8,0.1-1.7,0.2-2.5,0.4c-0.3,0.1-0.7,0.2-1.1,0.3c-0.5,0.1-0.9,0.2-1.4,0.4c-0.1,0-0.1,0-0.2,0
	c-0.2,0.1-0.5,0.1-0.7,0.2c-0.3,0.1-0.5,0.2-0.8,0.3c-0.2,0.1-0.3,0.1-0.5,0.2c-0.1,0-0.2,0.1-0.3,0.1c-0.5,0.2-1,0.4-1.5,0.6
	l-0.2,0.1l-0.3,0.2c-0.9,0.4-1.8,0.9-2.6,1.4c-0.7,0.4-1.4,0.9-2.2,1.4l-1.1,0.7l-1,0.8c-2.7,2.1-4.9,4.6-6.9,7.2
	c-0.5,0.8-1.1,1.5-1.6,2.3c-3,4.9-4.8,10.4-5.4,16.1c-0.1,0.8-0.1,1.5-0.2,2.3c0,0.1,0,0.2,0,0.3c0,0.6,0,1.2,0,1.8
	c0,0.1,0,0.3,0,0.4c0,0.6,0.1,1.2,0.1,1.8c0,0,0,0.1,0,0.1c0.3,2.8,0.8,5.6,1.7,8.2c0,0.1,0.1,0.1,0.1,0.2c0.1,0.4,0.3,0.9,0.5,1.3
	c0.4,1.3,1.1,2.6,1.7,3.8c0.3,0.6,0.7,1.2,1,1.8c0.4,0.6,0.7,1.2,1.1,1.8c1.6,2.3,3.3,4.5,5.4,6.4c0.5,0.5,1,1,1.5,1.4l1.7,1.3
	l0.8,0.7c0.3,0.2,0.5,0.4,0.8,0.5c0.7,0.5,1.5,1,2.3,1.4c0.2,0.1,0.4,0.3,0.7,0.4c0.8,0.5,1.7,0.9,2.6,1.3c0,0,0.1,0,0.1,0
	c0.1,0,0.2,0.1,0.3,0.1c0.8,0.4,1.7,0.7,2.6,1c0.1,0,0.2,0.1,0.2,0.1c0.2,0.1,0.5,0.2,0.7,0.3c0.1,0,0.1,0,0.2,0c0,0,0,0,0,0
	c0,0,0.1,0,0.1,0c0.6,0.2,1.2,0.3,1.8,0.5c0.1,0,0.2,0,0.3,0.1c0.6,0.1,1.1,0.2,1.7,0.3c0.1,0,0.2,0,0.4,0c0.6,0.1,1.1,0.1,1.7,0.2
	c0.1,0,0.3,0,0.4,0c0.5,0,1.1,0,1.6,0c0.1,0,0.3,0,0.4,0c0.5,0,1.1,0,1.6-0.1c2.2-0.2,4.3-0.6,6.4-1.2c3.5-1.1,6.7-2.8,9.5-4.9
	c0.1,0,0.1-0.1,0.2-0.1c1.4-1,2.7-2.1,3.9-3.3c0.1-0.1,0.1-0.1,0.2-0.2c0.1-0.1,0.2-0.2,0.4-0.3c0.2-0.2,0.4-0.4,0.6-0.6
	c0.1-0.1,0.2-0.2,0.3-0.2c0.4-0.3,0.7-0.7,1.1-1c0.6-0.5,1.2-1,1.7-1.6c0.1-0.1,0.2-0.2,0.3-0.3c0.2-0.2,0.4-0.3,0.5-0.5
	c0.8-0.8,1.6-1.6,2.4-2.5c0.8-0.8,1.5-1.8,2.3-2.7c0-0.1,0.1-0.2,0.1-0.2c0.8-1,1.5-2.1,2.2-3.4c2-3.6,3-7.7,2.9-11.6
	c0-4-0.9-7.8-2.5-11.3c-1.6-3.5-3.9-6.5-6.5-9.1c-2.6-2.6-5.6-4.8-8.9-6.6c-1.8-0.9-3.4-0.4-4.3,0.4c-0.2,0.2-0.3,0.3-0.5,0.5
	c-0.2-0.4-0.3-0.8-0.4-1.3l-0.1-0.1c-0.1-0.4-0.3-0.8-0.4-1.2c0,0,0.1,0.1,0.1,0.1l-0.1-0.2c-0.1-0.5-0.3-0.9-0.4-1.4
	c-0.1,0-0.1,0-0.2-0.1c-0.2-0.5-0.4-1-0.6-1.6c-0.1-0.2-0.2-0.5-0.3-0.7c0.1,0,0.1,0,0.2,0c-0.2-0.5-0.5-1-0.8-1.5
	c-0.1,0-0.1-0.1-0.2-0.1c-0.1-0.1-0.2-0.2-0.2-0.3C141.5,104.1,140.7,103.4,139.7,102.9z M158.2,128.7c0.1,0.3,0.2,0.6,0.3,0.9
	c0.1,0.2,0.2,0.5,0.2,0.7c0.1,0.3,0.2,0.7,0.3,1.1c0.3,1.3,0.6,2.7,0.7,4c0,0.1,0,0.3,0,0.4c0,0.5,0.1,1,0.1,1.4c0,0.4,0,0.8,0,1.2
	c0,0.4,0,0.7,0,1.1c0,0.1,0,0.1,0,0.2c-0.1,0.9-0.2,1.8-0.3,2.6c-0.1,0.3-0.1,0.6-0.2,0.9c-0.1,0.3-0.1,0.7-0.2,1
	c0,0.2-0.1,0.3-0.1,0.5c-0.1,0.5-0.3,1.1-0.5,1.6c-0.4,1.3-0.9,2.6-1.6,3.8c-0.3,0.5-0.5,1-0.8,1.5c-0.1,0.2-0.3,0.4-0.4,0.7
	c-0.6,1-1.2,1.9-1.9,2.8c-1.7,2-3.5,3.9-5.7,5.5c-1,0.7-2,1.3-3,1.9c-0.3,0.2-0.6,0.3-0.9,0.5c-0.3,0.2-0.7,0.3-1,0.5
	c-0.8,0.4-1.6,0.7-2.4,1c-2.2,0.8-4.5,1.2-6.8,1.4c-0.7,0-1.3,0.1-2,0.1c-0.3,0-0.6,0-0.8,0c-0.1,0-0.2,0-0.4,0
	c-0.5,0-1.1-0.1-1.6-0.1c-0.1,0-0.2,0-0.2,0c-0.5-0.1-1-0.1-1.5-0.2c-0.1,0-0.2,0-0.4-0.1c-0.6-0.1-1.2-0.3-1.8-0.4
	c-0.1,0-0.1,0-0.2-0.1c-2.4-0.8-4.8-1.7-6.9-3.2c-0.2-0.1-0.5-0.3-0.7-0.4c-0.1-0.1-0.2-0.1-0.3-0.2c-0.6-0.4-1.2-0.9-1.7-1.4
	c-0.3-0.2-0.5-0.4-0.7-0.7c-0.3-0.3-0.6-0.6-0.9-0.9c-0.1-0.1-0.1-0.1-0.2-0.2l-0.1-0.1c-1.7-1.8-3.1-3.9-4.1-6.1
	c-0.4-0.9-0.8-1.7-1.1-2.6c0,0,0-0.1,0-0.1c-0.1-0.4-0.2-0.7-0.3-1.1c0-0.1-0.1-0.2-0.1-0.3c-0.1-0.3-0.2-0.6-0.2-0.9
	c0-0.1-0.1-0.3-0.1-0.4c-0.1-0.4-0.1-0.8-0.2-1.1c0-0.2-0.1-0.5-0.1-0.7c0-0.2,0-0.4-0.1-0.6c0-0.2,0-0.4-0.1-0.6c0-0.3,0-0.5,0-0.8
	c0-0.1,0-0.2,0-0.4c0-0.4,0-0.9,0-1.3l0.1-1.4l0-0.4c0-0.3,0.1-0.6,0.1-0.9l0.1-0.5l0.2-1l0-0.1c0-0.2,0.1-0.5,0.2-0.7l0-0.1
	c0.2-0.6,0.3-1.1,0.4-1.7c0-0.1,0.1-0.3,0.1-0.4c0.2-0.5,0.4-1.1,0.6-1.6c0.9-2.4,2.1-4.6,3.6-6.7c1.5-2,3.2-3.8,5.2-5.4
	c1.9-1.6,4.1-2.8,6.3-3.8c2.7-1.4,5.7-2.7,9.1-3.1c0.3,0,0.5-0.1,0.8-0.1c0,0,0,0,0,0c1.6-0.1,3.2-0.1,4.8,0.2c0,0,0.1,0,0.1,0
	c0.4,0.1,0.7,0.2,1.1,0.2c0.1,0,0.1,0,0.2,0.1c0.3,0.1,0.7,0.2,1,0.3c0.1,0,0.3,0.1,0.4,0.1c0.3,0.1,0.5,0.2,0.8,0.3
	c0.2,0.1,0.5,0.2,0.7,0.3c0.2,0.1,0.4,0.2,0.5,0.3c0.3,0.2,0.7,0.1,0.9-0.2c0,0.2,0,0.4,0.1,0.5c0,0,0.1,0,0.1,0c0,0,0,0,0,0
	c0.3,0.1,0.6,0.3,0.9,0.4c0.2,0.1,0.4,0.2,0.6,0.3c0.2,0.1,0.3,0.2,0.5,0.2c0.5,0.3,0.9,0.5,1.4,0.8c0,0,0.1,0,0.1,0.1
	c0.5,0.3,1,0.7,1.4,1c1.2,0.9,2.4,2,3.4,3.2c0.2,0.3,0.5,0.6,0.7,0.9c0.1,0.2,0.3,0.3,0.4,0.5c0.2,0.3,0.4,0.5,0.6,0.8
	c1.2,1.6,2.1,3.4,2.9,5.3C158.1,128.5,158.1,128.6,158.2,128.7z"/>
<circle cx="161" cy="101.1" r="5"/>
</svg>
