<?xml version="1.0" encoding="utf-8"?>
<!-- Generator: Adobe Illustrator 21.1.0, SVG Export Plug-In . SVG Version: 6.00 Build 0)  -->
<svg version="1.1" id="Calque_2" xmlns="http://www.w3.org/2000/svg" xmlns:xlink="http://www.w3.org/1999/xlink" x="0px" y="0px"
	 viewBox="0 0 841.9 595.3" style="enable-background:new 0 0 841.9 595.3;" xml:space="preserve">
<path d="M305,538.3l-41.5-54.2c-14.2-18.6-28.7-37.6-43.1-57c-3.6-4.8-7.3-9.7-10.9-14.7l-10.9-14.8c-7.2-10-14.5-19.9-21.6-30
	l-10.7-15.1l-10.6-15.2l-10.5-15.3l-10.4-15.3l-0.5-0.7l-0.3-0.6c-0.4-0.9-0.7-1.5-1-2.2l-0.9-2c-0.6-1.3-1.2-2.7-1.7-4
	c-1.1-2.7-2.1-5.4-3.1-8.1c-1.9-5.4-3.6-10.9-5.1-16.4c-3-11-5.2-22.3-6.4-33.7c-1.2-11.4-1.5-22.9-0.7-34.4
	c0.9-11.5,2.9-22.9,6.3-33.9c3.4-11,8-21.6,13.9-31.4c1.5-2.4,3.1-4.8,4.7-7.2l4.8-6.7l4.8-6.7l4.9-6.7c13.1-17.6,27-35,43.8-49.8
	c4.2-3.7,8.6-7.1,13.1-10.4c2.3-1.6,4.6-3.2,7-4.7c1.2-0.7,2.3-1.5,3.6-2.3l3.6-2.1c9.7-5.6,20-10.2,30.5-14
	c10.5-3.7,21.3-6.7,32.2-9.2c5.4-1.2,10.9-2.3,16.3-3.3c2.7-0.5,5.5-0.9,8.2-1.4c0.7-0.1,1.4-0.2,2.1-0.3l2.2-0.3l4.3-0.5
	c23.1-2.6,47.5,1.8,68.6,12.5l3.9,2.1c1.3,0.7,2.6,1.4,3.9,2.1l3.8,2.3l1.9,1.1c0.6,0.4,1.2,0.8,1.8,1.2l3.6,2.5
	c0.6,0.4,1.2,0.8,1.8,1.3l1.7,1.3c2.3,1.8,4.7,3.5,6.9,5.4c8.9,7.5,17.1,15.9,24.4,24.7c14.7,17.8,26.6,37.6,36,58.5
	c4.7,10.5,8.7,21.2,12,32.3l1.2,4.2l1.1,4.2c0.8,2.8,1.3,5.7,1.9,8.5c0.6,2.8,1.2,5.7,1.8,8.5l1.2,8.7c1.4,11.6,2.2,23.4,1.4,35.2
	c-0.7,11.8-2.4,23.6-5.7,35.2l-0.6,2.2l-0.7,2.2l-1.4,4.3c-1.1,2.9-2.1,5.7-3.3,8.6c-0.6,1.4-1.2,2.8-1.9,4.3
	c-0.6,1.4-1.4,2.9-2.2,4.3l-0.7,1.2l-0.4,0.6l-0.6,0.9l-1.2,1.8l-2.4,3.5c-6.4,9.3-12.8,18.7-19.3,28c-25.9,37.2-52.5,73.7-78.7,109
	L305,538.3z M304.9,535.6c23.9-40,46.4-78.6,68.3-116.1c21.9-37.5,43.5-73.6,65.7-109.2c5.5-8.9,11.2-17.7,16.8-26.5l2.1-3.3
	l1.1-1.7c0,0,0,0,0,0c0,0,0-0.1,0-0.1l0.1-0.2l0.3-0.6c0.5-1,1-1.9,1.4-3c0.5-1,0.9-2.1,1.4-3.2c0.9-2.2,1.7-4.5,2.5-6.7l1-3.5
	l0.5-1.7l0.4-1.8c4.9-19,5.9-39.3,3.5-59.3l-1-7.5c-0.4-2.5-0.9-5-1.4-7.5c-0.5-2.5-0.9-5-1.5-7.5l-0.9-3.7l-1-3.7
	c-2.7-9.9-5.9-19.7-9.8-29.3c-7.8-19.1-17.9-37.4-30.4-53.7c-12.5-16.2-27.4-30.5-44.6-40.7c-2.2-1.3-4.4-2.4-6.6-3.6
	c-2.3-1.1-4.5-2.1-6.8-3.2c-2.3-0.9-4.6-1.9-7-2.7l-3.6-1.2c-1.2-0.4-2.4-0.8-3.6-1.1c-9.7-2.6-19.7-3.9-29.9-3.7l-3.8,0.1l-1.9,0.1
	c-0.6,0-1.3,0.1-2,0.1c-2.7,0.2-5.4,0.4-8,0.7c-5.3,0.5-10.7,1.1-15.9,1.9c-10.6,1.5-21.1,3.6-31.3,6.5c-2.5,0.8-5.1,1.5-7.6,2.4
	c-2.5,0.9-5,1.7-7.5,2.8c-2.5,0.9-4.9,2-7.3,3.1c-1.2,0.5-2.4,1.1-3.6,1.7c-1.2,0.6-2.4,1.1-3.5,1.8c-4.7,2.4-9.2,5.2-13.6,8.2
	c-4.3,3-8.6,6.2-12.6,9.7c-8.1,6.9-15.5,14.7-22.3,22.9c-6.8,8.3-13.1,17-19.1,26.1c-3,4.5-5.8,9.1-8.7,13.7
	c-1.4,2.3-2.8,4.6-4.2,6.9c-1.2,2.3-2.5,4.5-3.7,6.9c-4.6,9.3-7.9,19.2-9.8,29.3c-2,10.1-2.7,20.5-2.5,30.8
	c0.3,10.3,1.6,20.6,3.5,30.8c1,5.1,2.1,10.1,3.4,15.2c0.6,2.5,1.4,5,2.1,7.5c0.8,2.5,1.5,5,2.3,7.4c1.6,4.9,3.3,9.8,5.2,14.6
	c0.9,2.4,1.9,4.8,2.9,7.1c0.5,1.2,1,2.3,1.5,3.5l0.8,1.7l0.7,1.5l-0.8-1.4l9.6,14.3l9.5,14.4l9.4,14.4l9.3,14.5
	c6.2,9.7,12.3,19.5,18.5,29.3l9.1,14.8c3.1,5,6.1,9.9,9.1,15c12.2,20,24.4,40.5,36.9,61.5L304.9,535.6z"/>
<path d="M230.6,192.6c-0.1,1.7,0,3.4,0,5.1c0.1,1.7,0.1,3.4,0.3,5c0.1,1,0.2,1.9,0.3,2.9c0.1,0.9,0.3,1.9,0.4,2.8
	c0.1,0.4,0.1,0.7,0.2,1c0.2,1,0.4,2,0.6,3c0.1,0.3,0.1,0.5,0.2,0.8c0.3,1.1,0.5,2.2,0.9,3.3c0.1,0.4,0.2,0.8,0.4,1.2
	c0.2,0.8,0.5,1.6,0.8,2.4c0.3,0.8,0.5,1.5,0.8,2.3c0.2,0.5,0.4,1,0.6,1.5c2.3,5.8,5.3,11.4,9,16.4c1.8,2.4,3.7,4.7,5.7,6.9
	c0.2,0.2,0.5,0.5,0.7,0.7c0.8,0.8,1.5,1.6,2.3,2.3c0.3,0.3,0.5,0.5,0.8,0.7c0.8,0.8,1.6,1.5,2.5,2.2c0,0,0,0,0.1,0
	c0.8,0.7,1.6,1.3,2.4,1.9c0.2,0.2,0.5,0.4,0.7,0.5c0.9,0.6,1.8,1.3,2.6,1.9c0.2,0.1,0.4,0.3,0.6,0.4c0.2,0.1,0.3,0.2,0.5,0.4
	c0.7,0.5,1.5,0.9,2.2,1.4c0.4,0.2,0.7,0.4,1.1,0.6c0.9,0.5,1.8,1,2.8,1.5c0.1,0.1,0.3,0.2,0.4,0.2c5,2.5,10.2,4.5,15.6,5.7
	c5.4,1.3,10.9,1.9,16.5,1.9c0.2,0,0.3,0,0.5,0c0,0-0.1,0-0.1,0c0.4,0,0.8,0,1.2-0.1c0.9,0,1.8-0.1,2.7-0.1c0.8-0.1,1.6-0.1,2.3-0.2
	c0.6-0.1,1.1-0.1,1.7-0.2c1.1-0.1,2.1-0.3,3.2-0.5c0.3-0.1,0.6-0.1,0.9-0.1c2.7-0.5,5.4-1.2,8.1-2c0.4-0.1,0.8-0.3,1.2-0.4
	c0.9-0.3,1.8-0.6,2.7-0.9c0.4-0.2,0.8-0.3,1.3-0.5c0.9-0.3,1.8-0.7,2.6-1.1c0.3-0.1,0.6-0.3,0.9-0.4c0.9-0.4,1.8-0.8,2.7-1.3
	c0.1,0,0.1-0.1,0.2-0.1c0,0,0.1,0,0.1-0.1c0.2-0.1,0.4-0.3,0.7-0.4c0.9-0.5,1.8-1,2.6-1.5c0.4-0.3,0.9-0.6,1.3-0.9
	c0.6-0.4,1.2-0.8,1.8-1.2c0.6-0.4,1.2-0.9,1.8-1.3c0.3-0.3,0.7-0.5,1-0.8c0.7-0.6,1.5-1.2,2.2-1.8c0.1-0.1,0.1-0.1,0.2-0.2
	c0.7-0.6,1.4-1.2,2-1.8c4-3.9,7.4-8.4,10.3-13.1c2.9-4.8,5.1-9.9,6.8-15.2c1.7-5.3,2.7-10.9,3.2-16.6c0.5-3.6,0.8-6.9,0.9-10.2
	c0.1-1.5,0.1-2.9,0.2-4.4c0-1.4,0-2.9,0-4.3c0,0,0,0,0,0c0,0,0-0.1,0-0.1c-0.1-3.3-0.3-6.7-0.9-10.1c0-0.1-0.1-0.2-0.1-0.3
	c-0.4-2.7-1-5.5-1.8-8.3c-2.3-8.2-6.4-15.5-11.6-21.5c-5.3-6-11.6-10.6-18.4-13.9c-6.9-3.3-14.2-5.3-21.7-5.9
	c-7.5-0.7-15.1-0.1-22.6,1.7c-4.1,1-6,3.2-6.6,4.9c-0.1,0.3-0.2,0.7-0.2,0.9c-0.8-0.2-1.6-0.4-2.3-0.6c-0.1,0-0.2,0.1-0.3,0.1
	c-0.7-0.2-1.4-0.4-2.1-0.6c0.1,0,0.2-0.1,0.3-0.1c-0.1,0-0.2-0.1-0.3-0.1c-0.8-0.2-1.6-0.4-2.3-0.6c-0.1,0-0.2,0.1-0.3,0.1
	c-1.4-0.4-2.7-0.7-4.1-0.8c0.1-0.1,0.2-0.1,0.3-0.2c-1-0.1-1.9-0.2-2.9-0.2c-0.2,0.1-0.3,0.1-0.5,0.2c-0.2,0-0.5,0-0.7,0
	c-0.9,0.1-1.8,0.2-2.8,0.4c-0.9,0.2-1.9,0.5-2.9,1c-0.7,0.3-1.4,0.7-2.1,1.1c0.1,0,0.1-0.1,0.2-0.1c-4.9,2.6-9.4,6.2-13.5,10.5
	c0,0-0.1,0.1-0.1,0.1c-0.2,0.2-0.5,0.5-0.7,0.7c-0.2,0.2-0.4,0.4-0.6,0.6c-0.5,0.5-0.9,1.1-1.4,1.6c-0.1,0.1-0.1,0.2-0.2,0.2
	c-0.4,0.5-0.8,1-1.2,1.5c-0.1,0.2-0.3,0.4-0.4,0.5c-0.6,0.9-1.3,1.7-1.9,2.6c-0.7,1-1.4,2.1-2,3.2c-0.1,0.1-0.1,0.2-0.2,0.4
	c-0.3,0.6-0.7,1.2-1,1.8c-0.1,0.2-0.2,0.3-0.2,0.5c-0.6,1.1-1.1,2.1-1.7,3.2c-0.5,1-0.9,2.1-1.3,3.1c-0.1,0.2-0.2,0.5-0.3,0.7
	c-0.8,1.9-1.5,3.9-2.1,5.9c-1,3.3-1.8,6.7-2.3,10.2C231.1,185.8,230.7,189.2,230.6,192.6z M281.9,139.1c0.9-0.3,1.8-0.6,2.7-0.9
	c0.8-0.2,1.3-0.7,1.4-1.2c0.2,0.2,0.5,0.3,0.8,0.3c0.1,0,0.1,0,0.2-0.1c0,0,0.1,0,0.1,0c7.8-2.7,16.2-3.4,24.3-2.3
	c8,1.1,15.7,4,22.5,8.4c0.1,0.1,0.3,0.2,0.4,0.3c0.7,0.5,1.4,1,2.1,1.5c0.1,0.1,0.1,0.1,0.2,0.1c0.8,0.6,1.5,1.2,2.3,1.8
	c0.1,0.1,0.2,0.2,0.3,0.3c0.7,0.6,1.4,1.2,2,1.8c0,0,0.1,0.1,0.1,0.1c3.8,3.4,7.1,7.4,9.9,11.7c4.5,6.9,7.5,14.9,9.1,23.1
	c0,0,0,0,0-0.1c0.4,2.4,0.7,4.8,0.9,7.2c0.6,8-0.3,16.1-2.6,23.9c0,0,0,0,0,0c-1.2,4.1-2.8,8.1-4.7,12c0,0,0,0.1-0.1,0.1
	c-0.4,0.8-0.9,1.7-1.3,2.5c-0.1,0.2-0.2,0.4-0.3,0.6c-1.1,1.9-2.3,3.7-3.6,5.5c-0.1,0.1-0.2,0.3-0.3,0.4c-0.6,0.8-1.2,1.6-1.9,2.4
	c-0.2,0.2-0.4,0.5-0.6,0.7c-0.4,0.5-0.9,1-1.3,1.5c-0.4,0.4-0.8,0.9-1.3,1.3c-0.4,0.4-0.9,0.9-1.3,1.3c-0.4,0.4-0.8,0.7-1.2,1.1
	c-0.4,0.3-0.7,0.7-1.1,1c-0.5,0.4-1,0.9-1.5,1.3c-0.6,0.5-1.2,0.9-1.8,1.4c-0.2,0.1-0.4,0.3-0.5,0.4c-0.8,0.6-1.7,1.2-2.5,1.7
	c-0.1,0.1-0.3,0.2-0.4,0.3c-0.7,0.5-1.5,0.9-2.2,1.3c-0.2,0.1-0.5,0.3-0.7,0.4c-0.7,0.4-1.5,0.8-2.2,1.2c-0.4,0.2-0.9,0.4-1.3,0.6
	c-0.4,0.2-0.7,0.3-1.1,0.5c-0.9,0.4-1.9,0.8-2.8,1.2c-0.2,0.1-0.4,0.1-0.5,0.2c-1.8,0.7-3.7,1.2-5.6,1.7c-0.3,0.1-0.6,0.1-0.8,0.2
	c-0.6,0.2-1.3,0.3-1.9,0.4c-0.7,0.1-1.5,0.3-2.2,0.4c-0.2,0-0.4,0.1-0.7,0.1c-8.7,1.2-17.5,0.3-25.6-2.6c-5.1-1.8-9.8-4.4-14.1-7.6
	c0,0,0,0,0,0c-0.8-0.6-1.5-1.2-2.2-1.8c-0.2-0.1-0.3-0.3-0.5-0.4c-0.6-0.5-1.3-1.1-1.9-1.7c-0.1-0.1-0.2-0.2-0.3-0.3
	c-0.7-0.7-1.4-1.4-2.1-2.2c-0.7-0.8-1.4-1.5-2.1-2.4c-0.3-0.4-0.7-0.8-1-1.2c-0.2-0.3-0.5-0.6-0.7-0.9c-0.3-0.4-0.6-0.7-0.8-1.1
	c-0.3-0.4-0.6-0.8-0.9-1.2c-0.5-0.7-1-1.4-1.4-2.1c-0.2-0.3-0.3-0.5-0.5-0.8c-0.3-0.6-0.7-1.1-1-1.7c-0.1-0.1-0.1-0.2-0.2-0.3
	c-4.1-7.2-6.8-15.2-8-23.6c-1.7-12.2,0.2-24.8,5-35.7c2.7-6.9,6.5-13.7,11.9-19.5c0.4-0.4,0.8-0.8,1.2-1.2c0.1,0,0.1-0.1,0.2-0.1
	c4.5-4.6,10-8.5,16.4-10.9C281.8,139.1,281.9,139.1,281.9,139.1z"/>
<path d="M599.2,493.7c-0.2-1.7-0.3-3.5-0.8-5.2c-0.2-0.8-0.4-1.7-0.7-2.5c-0.2-0.8-0.6-1.6-0.9-2.3c-2.6-6.2-6.5-10.9-10.6-14.6
	l-1.5-1.4c-0.5-0.5-1-0.9-1.6-1.3l-3.2-2.4c-2.1-1.4-4.3-2.8-6.5-4c-4.3-2.5-8.7-4.4-13.1-6.2c-8.8-3.5-17.6-6-26.4-8.1
	c-17.6-4.1-35.2-6.7-53.1-9c-9-1.1-18-2.2-27.1-3.2c-9.2-1-18.4-2-27.9-2.9c-5.1-0.5-9.1-0.8-12.2-0.9c-3-0.2-5.2-0.3-6.5-0.3
	c-2.6,0-2.1,0.3,0.4,0.5c0.1,0,0.3,0,0.4,0c0.1,0,0.3,0,0.4,0c2.2,0.2,4.4,0.5,6.6,0.7c1.2,0.1,2.4,0.3,3.6,0.4
	c0.8,0.1,1.7,0.2,2.5,0.3c2.4,0.3,4.8,0.6,7.2,0.9c1.2,0.2,2.4,0.3,3.5,0.5c0.9,0.1,1.9,0.3,2.8,0.4c2.2,0.3,4.3,0.6,6.5,0.9
	c0.1,0,0.1,0,0.2,0c10.9,1.6,21.6,3.4,32.3,5.5c10.6,2.1,21.2,4.5,31.6,7.2c0.1,0,0.1,0,0.2,0.1c0.5,0.1,1.1,0.3,1.6,0.4
	c1.2,0.3,2.4,0.7,3.6,1c0.5,0.1,1,0.3,1.5,0.4c3.3,0.9,6.5,1.9,9.8,2.9c0.5,0.2,1,0.3,1.5,0.5c1.2,0.4,2.3,0.8,3.5,1.2
	c0.5,0.2,1.1,0.4,1.6,0.5c1.4,0.5,2.7,1,4.1,1.4c1,0.4,1.9,0.7,2.9,1.1c0.4,0.2,0.9,0.3,1.3,0.5c1,0.4,2,0.8,3,1.2
	c1.3,0.5,2.5,1,3.8,1.6c1.2,0.5,2.4,1,3.5,1.5c0.1,0,0.2,0.1,0.2,0.1c1.1,0.5,2.2,1,3.3,1.5c0.1,0,0.2,0.1,0.2,0.1
	c4.7,2.3,9.3,4.8,13.6,7.6c1.6,1.1,3.2,2.2,4.7,3.4c0,0,0,0,0,0c0.5,0.4,1,0.8,1.5,1.2c0,0,0,0,0,0c0.2,0.2,0.4,0.3,0.6,0.5
	c0.3,0.3,0.6,0.6,1,0.8c0.9,0.8,1.8,1.7,2.7,2.5c0,0,0,0,0.1,0.1c0.3,0.3,0.7,0.7,1,1.1c0.2,0.3,0.5,0.5,0.7,0.8c0,0,0,0,0,0
	c0.6,0.7,1.1,1.4,1.6,2.1c0.1,0.1,0.1,0.2,0.2,0.3l0.6,0.9c0.2,0.3,0.4,0.7,0.6,1l0.6,1.2l0.4,0.7c0,0.1,0.1,0.2,0.1,0.2
	c0.1,0.2,0.2,0.5,0.3,0.7l0.6,1.7c0.2,0.6,0.3,1.1,0.4,1.7c0.1,0.4,0.2,0.7,0.2,1.1c0,0.1,0,0.2,0,0.3c0,0.1,0,0.2,0,0.3
	c0.1,0.5,0.1,1.1,0.1,1.6c0,0,0,0.1,0,0.1c0,0.2,0,0.3,0,0.5c0,0.3,0,0.6,0,0.9c0,0.3,0,0.5-0.1,0.8c0,0.3-0.1,0.6-0.1,0.8
	c0,0.2-0.1,0.4-0.1,0.6c-0.1,0.5-0.2,1-0.3,1.4c0,0.1-0.1,0.2-0.1,0.4c-0.1,0.4-0.3,0.8-0.4,1.3c0,0.1-0.1,0.2-0.1,0.3
	c-0.2,0.5-0.4,1-0.7,1.5c0,0.1-0.1,0.1-0.1,0.2c-0.2,0.4-0.4,0.7-0.6,1.1c-0.1,0.2-0.2,0.4-0.4,0.6c-0.3,0.4-0.5,0.8-0.8,1.2
	c-1.3,1.9-2.9,3.7-4.5,5.4c-0.3,0.3-0.5,0.5-0.8,0.8c0,0-0.1,0.1-0.1,0.1c-0.6,0.5-1.2,1.1-1.8,1.6c-0.1,0.1-0.2,0.1-0.3,0.2
	c-0.6,0.5-1.3,1-1.9,1.5c-0.1,0.1-0.2,0.2-0.3,0.2c-0.5,0.4-1,0.8-1.5,1.1c-0.8,0.5-1.5,1.1-2.3,1.6c-0.1,0.1-0.2,0.1-0.3,0.2
	c-1,0.6-2,1.3-3,1.9c-0.3,0.2-0.5,0.3-0.8,0.5c-0.8,0.5-1.5,0.9-2.3,1.3c-0.3,0.2-0.6,0.3-0.9,0.5c-1,0.6-2.1,1.1-3.1,1.7
	c0,0-0.1,0-0.1,0.1c-1.1,0.6-2.2,1.1-3.2,1.6c-0.1,0.1-0.3,0.1-0.4,0.2c-2.3,1.1-4.6,2.1-6.9,3.1c-6.8,2.9-13.8,5.4-20.9,7.7
	c-14.7,4.7-29.7,8.4-45,11.5c-7.2,1.5-14.5,2.8-21.8,4c-1.1,0.2-2.2,0.4-3.3,0.5c-2.6,0.4-5.2,0.8-7.8,1.2c-1.4,0.2-2.9,0.4-4.3,0.6
	c-2.3,0.3-4.5,0.7-6.8,1c-1.1,0.2-2.2,0.3-3.3,0.5c-0.4,0-0.7,0.1-1.1,0.1c-3,0.4-5.9,0.8-8.9,1.1c-1.5,0.2-3,0.4-4.5,0.5
	c-1.9,0.2-3.8,0.4-5.7,0.6c-1.6,0.2-3.2,0.3-4.8,0.5c-2.2,0.2-4.3,0.4-6.5,0.6c-1.2,0.1-2.4,0.2-3.6,0.3c-3.5,0.3-7,0.6-10.5,0.9
	c-0.2,0-0.3,0-0.5,0c-3.5,0.3-7.1,0.5-10.6,0.8c-0.3,0-0.6,0-0.8,0.1c-11.1,0.7-22.2,1.3-33.2,1.7c-3.7,0.1-7.4,0.2-11.1,0.3
	c-0.1,0-0.1,0-0.2,0c-3.3,0.1-6.5,0.1-9.8,0.2c-0.8,0-1.5,0-2.3,0c-2.5,0-5,0-7.5,0.1c-1.1,0-2.3,0-3.4,0c-3.1,0-6.3,0-9.4,0
	c-1.1,0-2.1,0-3.2,0c-2.5,0-5-0.1-7.5-0.1c-1,0-1.9,0-2.9-0.1c-2.4,0-4.8-0.1-7.3-0.2c-1.1,0-2.2-0.1-3.4-0.1
	c-2.4-0.1-4.7-0.2-7.1-0.2c-1,0-2.1-0.1-3.1-0.1c-3.1-0.1-6.2-0.3-9.4-0.4c-11.6-0.6-23.2-1.3-34.7-2.3c-5.6-0.5-11.2-1-16.8-1.6
	c-0.4,0-0.8-0.1-1.2-0.1c-2.3-0.2-4.6-0.5-7-0.8c-0.5-0.1-1-0.1-1.5-0.2c-5.5-0.6-11-1.3-16.5-2.1c-0.1,0-0.1,0-0.2,0
	c-2.7-0.4-5.3-0.7-8-1.1c-0.3,0-0.6-0.1-0.9-0.1c-2.6-0.4-5.1-0.8-7.7-1.2c-0.1,0-0.3,0-0.4-0.1c-2.8-0.4-5.5-0.9-8.3-1.4
	c-2.8-0.5-5.6-1-8.4-1.5c-1.1-0.2-2.3-0.4-3.4-0.6c-1.4-0.3-2.8-0.5-4.2-0.8c-0.9-0.2-1.7-0.3-2.6-0.5c-1.9-0.4-3.7-0.8-5.6-1.2
	c-0.6-0.1-1.3-0.3-1.9-0.4c-2.2-0.5-4.5-1-6.7-1.5c-1.2-0.3-2.4-0.6-3.6-0.8c-1.1-0.3-2.2-0.5-3.3-0.8c-1.4-0.3-2.7-0.7-4.1-1
	c-1.1-0.3-2.2-0.6-3.3-0.8c-1.9-0.5-3.8-1-5.7-1.5c-1.6-0.4-3.3-0.9-4.9-1.4c-0.7-0.2-1.4-0.4-2.1-0.6c-5-1.5-9.9-3-14.9-4.7
	c-1.7-0.6-3.4-1.2-5.1-1.8c-7.7-2.9-15.4-6.1-22.5-10c-3.6-1.9-7-4.1-10.3-6.4c-3.2-2.3-6.2-4.9-8.7-7.8c-1.3-1.4-2.3-2.9-3.2-4.5
	c-0.9-1.6-1.6-3.2-2.1-4.9c-0.5-1.7-0.7-3.4-0.5-5.1l0.1-1.3c0-0.4,0.2-0.8,0.2-1.3l0.3-1.3c0.1-0.4,0.3-0.8,0.5-1.2
	c1.2-3.3,3.4-6.4,6-9.2c2.6-2.8,5.7-5.3,8.9-7.5c6.5-4.5,13.7-8.2,21.1-11.4c4.5-2,9.2-3.8,14-5.6c4.8-1.7,9.6-3.4,14.5-4.9
	c9.8-3,19.8-5.7,30.1-8c2-0.5,4.1-0.9,6.1-1.4c1.3-0.3,2.6-0.6,3.9-0.8c1.3-0.3,2.7-0.6,4.1-0.8c1-0.2,2.1-0.4,3.1-0.6
	c1.6-0.3,3.2-0.6,4.8-0.9c0.9-0.2,1.8-0.3,2.8-0.5c1.7-0.3,3.4-0.6,5.1-0.9c0.9-0.2,1.8-0.3,2.7-0.5c1.7-0.3,3.4-0.6,5.1-0.8
	c1-0.2,1.9-0.3,2.9-0.5c1.6-0.2,3.2-0.5,4.8-0.7c1.1-0.2,2.2-0.3,3.3-0.5c1.4-0.2,2.9-0.4,4.3-0.6c1.3-0.2,2.6-0.4,3.9-0.5
	c1.1-0.2,2.3-0.3,3.5-0.4c1.6-0.2,3.2-0.4,4.9-0.6c5-0.6,5.6-0.9,6-1.1c-2.3,0.2-4.5,0.4-6.5,0.5c-0.2,0-0.4,0.1-0.6,0.1
	c-1.7,0.1-3.3,0.3-4.9,0.4c0.3,0,0.6-0.1,0.9-0.1c-0.2,0-0.5,0-0.7,0.1c-1.7,0.2-3.3,0.2-4.9,0.2c-0.2,0-0.4,0.1-0.6,0.1
	c-2.9,0-5.7-0.1-8.5-0.2c0.2,0,0.5-0.1,0.7-0.1c-2-0.1-4-0.2-6.2-0.2c-0.3,0-0.7,0-1,0.1c-0.6,0-1.1,0-1.7-0.1
	c-3.8-0.1-8.1-0.2-13,0c-1.9,0.1-3.8,0.2-5.7,0.3c0.3,0,0.6-0.1,0.8-0.1c-3.4,0.2-6.9,0.5-10.4,0.7c-3.5,0.3-7,0.6-10.5,0.9
	c-3.8,0.4-7.7,0.9-11.5,1.4c-0.7,0.1-1.4,0.2-2.1,0.3c-1.3,0.2-2.6,0.4-3.9,0.6c0,0-0.1,0-0.1,0c0,0-0.1,0-0.1,0
	c-1.2,0.2-2.5,0.4-3.7,0.6c-0.5,0.1-1,0.2-1.5,0.3c-0.4,0.1-0.8,0.1-1.2,0.2c-1.1,0.2-2.1,0.4-3.2,0.6c-0.5,0.1-0.9,0.2-1.4,0.2
	c-1.1,0.2-2.3,0.5-3.4,0.7c-0.1,0-0.1,0-0.2,0c-0.7,0.1-1.3,0.3-2,0.4c-1.9,0.4-3.7,0.8-5.6,1.3c-0.7,0.2-1.4,0.4-2.1,0.5
	c-0.4,0.1-0.7,0.2-1.1,0.3c-0.3,0.1-0.7,0.2-1,0.3c-1,0.2-1.9,0.5-2.9,0.8c-0.9,0.2-1.8,0.5-2.7,0.7c-1.1,0.3-2.2,0.6-3.3,1
	c-0.6,0.2-1.2,0.4-1.8,0.5c-1.4,0.4-2.8,0.9-4.2,1.4c-0.3,0.1-0.5,0.2-0.8,0.3c-0.8,0.3-1.7,0.6-2.5,0.9c-7.5,2.7-14.9,5.8-22.2,10
	c-3.7,2.1-7.3,4.5-10.9,7.3c-3.6,2.8-7,6.1-10.2,10.2c-2.6,3.3-4.9,7.4-6.3,11.9c0,0.1-0.1,0.1-0.1,0.2c0,0.1,0,0.1,0,0.2
	c-0.3,0.9-0.5,1.7-0.7,2.6c-0.2,0.7-0.3,1.4-0.4,2.2c-0.1,0.7-0.2,1.5-0.2,2.2C3.1,493.5,3,494.2,3,495c0,0.7,0,1.5,0.1,2.3
	c0,0.8,0.1,1.5,0.2,2.2c0.1,0.7,0.2,1.5,0.3,2.2c0.3,1.4,0.6,2.9,1.1,4.2c0.9,2.8,2.1,5.2,3.4,7.6c1.4,2.3,2.8,4.4,4.4,6.3
	c3.1,3.8,6.5,6.9,9.9,9.7c3.9,3.2,7.9,5.9,11.8,8.3c6.2,3.7,12.5,6.7,18.9,9.4c6.3,2.7,12.7,5.1,19,7.2c12.7,4.3,25.5,7.7,38.3,10.7
	c25.6,5.9,51.3,9.9,77,13c25.7,3.1,51.4,5.2,77.1,6.7c0.3,0,0.6,0,0.9,0c0,0,0,0,0,0c1.2,0.1,2.5,0.1,3.7,0.2
	c1.8,0.1,3.5,0.2,5.3,0.3c22.1,1.1,44.2,1.8,66.4,2c0.1,0,0.3,0,0.4,0c0.1,0,0.3,0,0.4,0c25.8-0.3,50.6-3.7,75.1-8.8
	c24.5-5.2,48.8-12,73.7-20c5.4-1.5,10.6-2.8,15.7-4.1c5.8-1.4,11.5-2.8,17.1-4.2c10.8-2.7,21.6-5.5,32.7-9.8l0.4-0.2
	c2.7-1,5.3-2.2,8-3.4c3.6-1.6,7.2-3.5,10.9-5.8c4.6-2.8,9-6.2,13.1-10.4c2-2.2,4-4.5,5.6-7.3c1.7-2.7,3.1-5.8,4.1-9.1
	C599,500.8,599.5,497.2,599.2,493.7z"/>
</svg>
