<?xml version="1.0" encoding="utf-8"?>
<!-- Generator: Adobe Illustrator 21.1.0, SVG Export Plug-In . SVG Version: 6.00 Build 0)  -->
<svg version="1.1" id="Calque_1" xmlns="http://www.w3.org/2000/svg" xmlns:xlink="http://www.w3.org/1999/xlink" x="0px" y="0px"
	 viewBox="0 0 841.9 595.3" style="enable-background:new 0 0 841.9 595.3;" xml:space="preserve">
<g>
	<path d="M420,295.1c3.1,0,5.6-2.5,5.6-5.6c0-3.1-2.5-5.6-5.6-5.6s-5.6,2.5-5.6,5.6C414.4,292.6,416.9,295.1,420,295.1L420,295.1z
		 M420,285.5c2.2,0,4,1.8,4,4c0,2.2-1.8,4-4,4c-2.2,0-4-1.8-4-4C416,287.3,417.8,285.5,420,285.5L420,285.5z M420,285.5"/>
	<path d="M419.9,318.1l12.3-17.7c4.6-6.1,3.9-16.2-1.4-21.6c-2.9-2.9-6.8-4.5-10.8-4.5c-4.1,0-8,1.6-10.8,4.5
		c-5.4,5.4-6,15.4-1.4,21.6L419.9,318.1z M410.1,279.9c2.6-2.6,6-4,9.7-4c3.7,0,7.1,1.4,9.7,4c4.8,4.8,5.4,13.9,1.3,19.5l-11,15.9
		l-11-15.9C404.7,293.9,405.3,284.7,410.1,279.9L410.1,279.9z M410.1,279.9"/>
	<path d="M429.7,308.7c-0.4-0.1-0.8,0.3-0.9,0.7c-0.1,0.4,0.3,0.8,0.7,0.9c8.4,1,12.9,3.7,12.9,5.2c0,2.2-8.5,5.2-22.4,5.2
		c-13.9,0-22.4-3-22.4-5.2c0-1.5,4.5-4.2,12.9-5.2c0.4-0.1,0.8-0.5,0.7-0.9c-0.1-0.4-0.4-0.8-0.9-0.7c-8.4,1-14.3,3.8-14.3,6.8
		c0,3.4,8.2,6.8,24,6.8s24-3.4,24-6.8C444,312.5,438.1,309.7,429.7,308.7L429.7,308.7z M429.7,308.7"/>
</g>
</svg>
