<?xml version="1.0" encoding="utf-8"?>
<!-- Generator: Adobe Illustrator 21.1.0, SVG Export Plug-In . SVG Version: 6.00 Build 0)  -->
<svg version="1.1" id="Calque_2" xmlns="http://www.w3.org/2000/svg" xmlns:xlink="http://www.w3.org/1999/xlink" x="0px" y="0px"
	 viewBox="0 0 100 100" style="enable-background:new 0 0 100 100;" xml:space="preserve">
<style type="text/css">
	.st0{fill:#FDC279;}
</style>
<path class="st0" d="M37.9,7.4c-0.5,0.1-1.1,0.3-1.6,0.4c0.1,0,0.2-0.1,0.3-0.1c-0.9,0.3-1.8,0.6-2.8,0.9c-0.5,0.1-0.9,0.3-1.4,0.5
	l-0.6,0.3c-0.6,0.3-1.2,0.5-1.8,0.8c-0.1,0.1-0.2,0.1-0.3,0.2c-0.8,0.4-1.6,0.9-2.3,1.3c-0.5,0.3-1,0.6-1.4,0.9c0,0,0,0,0,0L25.4,13
	c-0.4,0.3-0.8,0.6-1.2,0.9c-0.8,0.6-1.7,1.3-2.5,2c-0.2,0.2-0.4,0.4-0.6,0.6c-0.9,0.8-1.8,1.7-2.6,2.6c-0.1,0.1-0.2,0.3-0.3,0.4
	c-0.3,0.4-0.7,0.8-1,1.1c-0.4,0.4-0.7,0.8-1,1.2l-0.3,0.4l-0.4,0.6c-0.6,0.9-1.3,1.8-1.9,2.8c-0.1,0.1-0.1,0.2-0.2,0.3
	c0,0-0.1,0.1-0.1,0.1c-0.1,0.1-0.1,0.2-0.2,0.4c-0.4,0.6-0.7,1.3-1.1,2l-0.7,1.4l-0.6,1.5C8.9,35,8,39.1,7.3,43.1
	c-0.1,1.2-0.3,2.3-0.4,3.5c-0.5,7.2,0.9,14.4,3.7,21c0,0.1,0,0.1,0.1,0.2c0,0,0,0,0,0c0.2,0.4,0.3,0.8,0.5,1.3l0.3,0.6
	c0.5,1,1,1.9,1.5,2.8l0.1,0.2c0.1,0.2,0.2,0.4,0.4,0.5c0.5,0.8,1,1.6,1.5,2.4c0.2,0.3,0.4,0.6,0.7,0.9c0.6,0.8,1.3,1.7,2,2.5
	l0.2,0.3c0.4,0.5,0.9,1,1.4,1.5c0.1,0.1,0.2,0.2,0.3,0.3c0.1,0.1,0.1,0.1,0.2,0.2c0.6,0.6,1.2,1.3,1.9,1.9l1.4,1.2
	c0.1,0,0.1,0.1,0.1,0.1c1.3,1.2,2.8,2.2,4.2,3.2c0.7,0.5,1.5,0.9,2.3,1.4c0.8,0.4,1.5,0.9,2.3,1.3l2.4,1.1l1.2,0.5l1.3,0.4l2.5,0.9
	c0.8,0.3,1.7,0.4,2.6,0.7c0.9,0.2,1.7,0.4,2.6,0.6l2.6,0.4l1.3,0.2c0.4,0,0.8,0,1.3,0.1c0.9,0.1,1.9,0.1,2.8,0.1c0.5,0,1,0,1.6,0
	c1.1,0,2.3-0.1,3.4-0.2l0.2,0l0.5-0.1c1.1-0.1,2.1-0.3,3.2-0.5c0.4-0.1,0.9-0.1,1.3-0.3c0,0,0,0,0,0c5.3-1.2,10.1-3.5,14.3-6.6
	c0.2-0.1,0.4-0.3,0.6-0.5c0.3-0.2,0.6-0.4,0.9-0.7c0,0,0,0,0,0c0.9-0.7,1.7-1.4,2.5-2.2c2.8-2.7,5.2-5.8,7.3-9.1
	c0.2-0.3,0.3-0.5,0.5-0.8c0.4-0.6,0.7-1.3,1-1.9c0.2-0.3,0.3-0.7,0.5-1c0.3-0.6,0.6-1.1,0.8-1.7c0.1-0.3,0.3-0.7,0.4-1
	c0.2-0.6,0.5-1.1,0.7-1.7c0.1-0.4,0.3-0.8,0.4-1.2c0.2-0.5,0.4-1.1,0.6-1.6c0-0.1,0.1-0.2,0.1-0.3c0.3-0.9,0.6-1.8,0.8-2.6
	c0,0,0,0,0,0c0.8-2.7,1.4-5.3,1.7-8.1c0-0.2,0.1-0.4,0.1-0.6c0.1-1,0.2-2,0.3-3.1c0-0.1,0-0.3,0-0.4c0.1-1.6,0-3.3-0.1-5
	c-0.4-5.2-2-10.2-4.3-14.5c-2.4-4.4-5.5-8.2-9.2-11.4c-0.6-0.5-1.1-0.9-1.7-1.3c-0.3-0.3-0.7-0.5-1-0.7c-0.1-0.1-0.2-0.1-0.3-0.2
	c-2.4-1.7-5-3.2-7.8-4.3c-1-0.4-2-0.8-3.1-1.2c-0.2-0.1-0.3-0.1-0.5-0.2c-0.2-0.1-0.5-0.2-0.7-0.2c-3.8-1.2-7.8-2-11.9-2.1
	c-3.3,0-4.8,0.9-5.2,1.7c-0.5-0.1-0.9-0.3-1.4-0.4l-0.2,0c-0.4-0.1-0.8-0.3-1.2-0.4c0.1,0,0.2,0,0.2,0l-0.2-0.1
	c-0.5-0.2-0.9-0.3-1.3-0.5c-0.1,0-0.2,0-0.2,0c-0.5-0.2-1-0.3-1.6-0.5c-0.3-0.1-0.5-0.1-0.8-0.2c0.1,0,0.1,0,0.2,0
	c-0.6-0.1-1.1-0.3-1.8-0.4c-0.1,0-0.2,0-0.3,0c-0.1,0-0.3,0-0.4,0C40.4,7.2,39.2,7.2,37.9,7.4z M51.2,10.6c0.2,0,0.4,0,0.6,0
	c2.7-0.1,5.3,0.1,8,0.6c0.2,0,0.4,0.1,0.5,0.1c0.5,0.1,0.9,0.2,1.4,0.3c1,0.2,1.9,0.5,2.9,0.8c0.3,0.1,0.6,0.2,0.9,0.3
	c0.1,0,0.2,0.1,0.3,0.1c0.8,0.3,1.6,0.6,2.3,0.9c0.1,0.1,0.3,0.1,0.4,0.2c0.6,0.3,1.3,0.6,1.9,0.9c2.1,1.1,4.1,2.3,6,3.8
	c0.5,0.4,1.1,0.8,1.6,1.3c0.2,0.2,0.4,0.4,0.7,0.6c0.4,0.3,0.8,0.7,1.2,1.1c0.3,0.3,0.7,0.6,1,1c0,0,0.1,0.1,0.1,0.1
	c1.3,1.4,2.6,2.9,3.7,4.5c0.3,0.4,0.5,0.7,0.7,1.1c0.2,0.3,0.4,0.5,0.5,0.8c0.4,0.7,0.8,1.4,1.2,2.1c0.2,0.4,0.4,0.7,0.6,1.1
	c0.1,0.2,0.2,0.4,0.3,0.6c0.6,1.1,1.1,2.3,1.5,3.5c0.1,0.4,0.3,0.8,0.4,1.2c0.2,0.6,0.4,1.2,0.5,1.8c0,0.1,0.1,0.3,0.1,0.4
	c0.2,0.9,0.4,1.7,0.6,2.6c0.7,3.3,0.9,6.7,0.8,10l0,0c0,0.6,0,1.2-0.1,1.7l-0.4,2.9c-0.7,3.8-1.8,7.6-3.5,11.2
	c-0.9,1.7-1.8,3.4-2.9,5.1c-0.1,0.1-0.2,0.2-0.2,0.3c-0.4,0.6-0.9,1.2-1.3,1.9c-0.7,0.9-1.5,1.8-2.2,2.7c-0.1,0.1-0.2,0.2-0.3,0.3
	c-1.9,2-3.9,3.7-6.1,5.3c-0.1,0.1-0.3,0.2-0.4,0.3c-0.2,0.1-0.4,0.3-0.6,0.4c-1.7,1.1-3.5,2.1-5.4,3c-0.2,0.1-0.4,0.2-0.5,0.2
	c-0.5,0.2-1,0.4-1.5,0.6c-0.1,0.1-0.3,0.1-0.4,0.2c-1.6,0.6-3.3,1.1-4.9,1.5c-3.5,0.7-7.1,1.2-10.6,0.9l-1,0c-0.3,0-0.6,0-0.9-0.1
	c-0.1,0-0.1,0-0.2,0c0,0,0,0,0,0c-0.2,0-0.5-0.1-0.7-0.1l-1.9-0.3c-0.5-0.1-1.1-0.2-1.6-0.3c-0.2,0-0.3-0.1-0.5-0.1
	c-0.5-0.1-1-0.2-1.4-0.4l-0.3-0.1c-3.5-1-6.9-2.5-10-4.4c-1.2-0.7-2.3-1.5-3.3-2.3c-0.2-0.2-0.4-0.3-0.6-0.5
	c-0.3-0.2-0.6-0.5-0.8-0.7c-0.3-0.2-0.5-0.5-0.8-0.7c-0.1-0.1-0.3-0.3-0.4-0.4c-1.5-1.4-2.9-3-4.2-4.6c-0.1-0.1-0.1-0.2-0.2-0.2
	c-0.3-0.4-0.5-0.7-0.8-1.1c-0.3-0.5-0.7-1-1-1.5l-1-1.8l-0.2-0.3c-0.3-0.6-0.6-1.2-0.9-1.8l-0.2-0.5L17,67.1c-0.2-0.5-0.4-1-0.6-1.5
	c-0.3-0.8-0.6-1.6-0.8-2.4c-0.1-0.3-0.2-0.7-0.3-1c-0.2-0.8-0.4-1.6-0.6-2.3c-0.8-4-1.1-8-0.8-12.1c0.4-4,1.3-8,2.8-11.8
	c1.5-3.8,3.6-7.2,6.1-10.3c3-3.9,6.7-7.4,11.1-10.1c0.4-0.3,0.9-0.5,1.4-0.8c0.3-0.2,0.6-0.3,0.9-0.5c0.3-0.1,0.6-0.3,0.8-0.4
	c0.3-0.1,0.6-0.3,0.9-0.4c0.3-0.1,0.6-0.3,0.9-0.4c0.3-0.1,0.6-0.2,0.9-0.4c0.3-0.1,0.6-0.2,0.9-0.3c0.3-0.1,0.6-0.2,0.9-0.3
	c0.3-0.1,0.6-0.2,1-0.3c0.3-0.1,0.6-0.2,0.9-0.2c0.3-0.1,0.7-0.2,1.1-0.2c0.3-0.1,0.6-0.1,0.9-0.2c0.4-0.1,0.8-0.1,1.2-0.2
	c0.3,0,0.5-0.1,0.8-0.1c0.5-0.1,1-0.1,1.5-0.1c0.2,0,0.4,0,0.7-0.1c0.6,0,0.9-0.2,1.1-0.4c0.1,0.1,0.3,0.2,0.5,0.2
	C51.1,10.6,51.1,10.6,51.2,10.6C51.2,10.6,51.2,10.6,51.2,10.6z"/>
<path class="st0" d="M77.5,48.7c-0.2-2.4-0.8-4.7-1.7-6.9c0-0.1-0.1-0.2-0.1-0.2c0,0,0,0,0-0.1c-0.2-0.5-0.5-1.1-0.8-1.6
	c-0.1-0.1-0.1-0.2-0.2-0.4c-0.2-0.4-0.5-0.9-0.7-1.3c-0.1-0.1-0.1-0.2-0.2-0.4c-0.3-0.4-0.6-0.9-0.9-1.3c-0.1-0.1-0.1-0.2-0.2-0.2
	c-0.3-0.5-0.7-0.9-1.1-1.4c0,0,0,0-0.1-0.1c-1.3-1.5-2.7-2.9-4.3-4.1c-2.1-1.6-3-0.7-2.5-0.4c0,0,0,0,0.1,0c0,0,0,0,0,0
	c0.5,0.3,1,0.7,1.5,1.1c0.1,0,0.1,0.1,0.2,0.1c2.5,2.1,4.6,4.7,6.1,7.6c0,0.1,0.1,0.1,0.1,0.2c0.3,0.5,0.5,1,0.7,1.5
	c0,0.1,0.1,0.2,0.1,0.3c0.2,0.5,0.4,1,0.6,1.6c0.1,0.2,0.1,0.5,0.2,0.7c0.1,0.4,0.2,0.8,0.3,1.2c0,0.2,0.1,0.3,0.1,0.5
	c0.1,0.6,0.2,1.2,0.3,1.8c0,0,0,0.1,0,0.1c0.1,0.5,0.1,1.1,0.2,1.6c0,0.2,0,0.5,0,0.7c0,0.5,0,1,0,1.5c0,0.1,0,0.1,0,0.2
	c0,2.7-0.5,5.3-1.3,7.9c-1.1,3.2-2.7,6.1-4.9,8.6c0,0,0,0,0,0l-0.1,0.2c-0.3,0.4-0.7,0.8-1,1.1c-0.1,0.1-0.1,0.1-0.2,0.2
	c-0.2,0.2-0.4,0.4-0.5,0.5c-0.2,0.2-0.4,0.4-0.6,0.5c-0.1,0.1-0.2,0.2-0.4,0.3c-2.8,2.4-6.2,4.1-9.6,4.8c-0.2,0.1-0.5,0.1-0.7,0.1
	c-0.1,0-0.3,0-0.4,0.1c-0.3,0-0.6,0.1-0.8,0.1c-0.1,0-0.2,0-0.3,0c-1.4,0.1-2.8,0.2-4.1,0.1c-0.3,0-0.6-0.1-0.9-0.1
	c-0.1,0-0.3,0-0.4-0.1c-0.2,0-0.4-0.1-0.6-0.1c-0.3,0-0.6-0.1-0.9-0.2c-0.1,0-0.2,0-0.2,0c-0.4-0.1-0.8-0.2-1.2-0.3c0,0,0,0,0,0
	c-1.9-0.5-3.8-1.4-5.5-2.4c-0.4-0.3-0.8-0.6-1.2-0.8l-0.6-0.4c-0.1-0.1-0.1-0.1-0.2-0.2c-0.2-0.1-0.3-0.3-0.5-0.4
	c-0.3-0.3-0.7-0.6-1-0.9c-0.2-0.1-0.3-0.3-0.5-0.5L36,68.9c-0.1-0.1-0.1-0.1-0.2-0.2c0,0,0,0-0.1-0.1c-0.2-0.2-0.4-0.5-0.6-0.7
	c-0.2-0.3-0.4-0.6-0.6-0.8c-0.1-0.1-0.2-0.2-0.2-0.3c-1.1-1.4-2-3-2.8-4.7c-0.2-0.4-0.3-0.7-0.5-1.1c-0.5-1.2-0.9-2.4-1.2-3.7
	c-0.9-4-1-8.2-0.1-12.1c0.5-2.4,1.3-4.8,2.5-7.1c0.2-0.3,0.4-0.7,0.6-1c0.2-0.3,0.4-0.7,0.6-1c0.1-0.2,0.2-0.3,0.3-0.5
	c0.3-0.4,0.5-0.7,0.8-1.1c0,0,0,0,0.1-0.1c0.4-0.4,0.8-0.9,1.2-1.3c0,0,0.1-0.1,0.1-0.1c0.4-0.4,0.8-0.8,1.3-1.2
	c0.5-0.4,0.4-0.7,0.3-0.8c-0.3,0.1-0.5,0.2-0.8,0.3c0,0-0.1,0-0.1,0.1c-0.2,0.1-0.4,0.1-0.6,0.2l0.1-0.1l-0.1,0
	c-0.2,0.1-0.4,0.1-0.6,0.2c0,0,0,0-0.1,0.1c-0.2,0.1-0.5,0.2-0.7,0.2c-0.1,0-0.2,0.1-0.3,0.2c0,0,0-0.1,0.1-0.1
	c-0.2,0.1-0.5,0.2-0.7,0.4c0,0-0.1,0.1-0.1,0.1c-0.1,0-0.1,0.1-0.2,0.1c-0.4,0.3-0.9,0.6-1.3,1.1c-0.2,0.2-0.3,0.4-0.5,0.6
	c0,0,0-0.1,0.1-0.1c-0.1,0.1-0.1,0.2-0.2,0.3c-0.2,0.2-0.3,0.4-0.5,0.6c-0.1,0.1-0.2,0.3-0.3,0.4c-0.2,0.2-0.4,0.5-0.5,0.7
	c-0.1,0.1-0.2,0.3-0.3,0.4c-0.2,0.3-0.3,0.5-0.5,0.8c-0.1,0.2-0.2,0.3-0.3,0.5c-0.1,0.2-0.3,0.5-0.4,0.7c-0.1,0.2-0.2,0.4-0.3,0.7
	c-0.1,0.2-0.2,0.4-0.3,0.6c-0.1,0.3-0.2,0.6-0.3,0.8c-0.1,0.2-0.1,0.3-0.2,0.5c-0.1,0.3-0.2,0.7-0.3,1c0,0.1-0.1,0.3-0.1,0.4
	c-0.1,0.4-0.2,0.7-0.3,1.1c0,0.1,0,0.2-0.1,0.3c0,0,0,0.1,0,0.1c0,0.1,0,0.2-0.1,0.2c-0.1,0.2-0.1,0.4-0.1,0.7
	c0,0.2-0.1,0.4-0.1,0.6c0,0.2-0.1,0.5-0.1,0.7c0,0.3-0.1,0.5-0.1,0.8c0,0.2,0,0.4-0.1,0.6c0,0.3-0.1,0.6-0.1,0.9c0,0.1,0,0.3,0,0.4
	c0,0.4,0,0.7,0,1.1c0,0.1,0,0.2,0,0.3c0,1.9,0.2,3.7,0.5,5.5c0.1,0.6,0.3,1.1,0.4,1.6c1.1,4.2,3.2,8.1,6,11.3c0,0,0,0,0,0
	c0.3,0.3,0.6,0.6,0.8,0.9c0,0,0,0,0.1,0.1c0.3,0.3,0.5,0.6,0.8,0.8c0,0,0.1,0.1,0.1,0.1c0.3,0.2,0.5,0.5,0.8,0.7
	c0.1,0.1,0.1,0.1,0.2,0.2c0.3,0.2,0.5,0.4,0.8,0.6c0.1,0.1,0.2,0.1,0.3,0.2c0.2,0.2,0.5,0.4,0.7,0.5c0.1,0.1,0.2,0.2,0.3,0.2
	c0.2,0.1,0.4,0.2,0.5,0.4c0.1,0,0.1,0.1,0.2,0.1c0,0,0,0,0.1,0c0,0,0,0,0,0c2.8,1.7,5.8,2.9,9,3.5c0,0,0,0-0.1,0
	c0.2,0,0.3,0,0.5,0.1c0.2,0,0.5,0.1,0.7,0.1c0.1,0,0.1,0,0.2,0c1.4,0.2,2.8,0.3,4.2,0.2c0.1,0,0.3,0,0.4,0c0.1,0,0.2,0,0.3,0
	c1.1-0.1,2.2-0.2,3.3-0.4c0,0,0.1,0,0.1,0c0,0,0,0,0,0c3.2-0.6,6.2-2.1,8.7-4c2.6-1.9,4.7-4.4,6.5-7.3c1.6-2.6,2.9-4.9,3.9-7.6
	c0,0,0,0,0-0.1l0-0.1c0.3-0.8,0.5-1.6,0.7-2.5c0.1-0.6,0.2-1.2,0.4-1.8c0.1-0.6,0.1-1.2,0.2-1.8C77.6,51.1,77.6,49.9,77.5,48.7z"/>
<g>
	<path class="st0" d="M52.4,50.4c0.1-1.8,0.1-3.5,0.2-5.3c-0.1,0.5-0.2,1-0.3,1.4C52.1,47.8,52.3,49.1,52.4,50.4z"/>
	<path class="st0" d="M52.6,42.5c0-0.6,0-1.2,0-1.8C52.6,41.3,52.6,41.9,52.6,42.5z"/>
	<path class="st0" d="M52.6,19.7l-0.1-0.6h-0.1h-0.3c0,0-0.1,0-0.1,0c-0.1,0-0.1,0-0.2,0c-0.2,0-0.3,0-0.5,0
		c-0.4,0.1-0.8,0.6-0.8,1.5C50.4,24,50.4,27,50.4,30c0.1,1.1,0.1,2.3,0.1,3.4c0-0.6-0.1-1.1-0.1-1.7c0,1.4,0,2.7,0.1,4.2
		c0,0,0-0.1,0-0.1c0,0.3,0,0.7,0,1c0,0.5,0,1.1,0,1.7c0,0,0,0,0,0c0,0,0,0.1,0,0.1c0,0.3,0,0.6,0,1c0,0.3,0,0.8,0,1.3
		c0,0.1,0,1,0,1.7c0,0,0,0,0,0c0,0.1,0,0.2,0,0.3c0,0.2,0,0.3-0.1,0.4c0,0.2,0,0.3,0,0.4c0,1.6-0.1,3.1-0.2,4.5c0,0.6,0,1.2,0,1.9
		c0-0.1,0-0.1,0-0.2c0,0.3,0,0.6,0,0.9c0,0,0,0,0,0.1c-0.2,1.2-0.1,3-0.1,3.1c0,0.2,0,0.3,0,0.5c0,0.4,0,0.7,0,1.1c0,0,0,0,0.1,0
		c0.2,1.1,0.3,2.3,0.3,3.5c0,0.3,0.1,0.7,0.1,1c0.1,0.6,0.3,0.9,0.5,1c0-0.1,0.1-0.2,0.1-0.3c0-0.1,0-0.1,0.1-0.2
		c0.2-0.4,0.4-0.5,0.7-0.5c0,0.1,0,0.3,0,0.4c0-0.1,0.1-0.1,0.1-0.2c0,0,0,0,0,0c0,0.1,0,0.2,0,0.3c0,0-0.1,0-0.2,0.2
		c0-0.1,0-0.3,0-0.4c-0.3,0-0.5,0.2-0.7,0.5c0.1,0.2,0.1,0.3,0.2,0.4c0.4-0.3,0.7-0.7,0.7-0.8c0,0.2,0,0.4,0,0.6
		c0-1.1,0.1-2.1,0.1-3.1c0-0.2-0.1-0.4-0.1-0.6C52,57.5,52,58,52,58.4c-0.1-1,0-2,0.1-2.9c-0.1-0.5-0.1-0.9,0-1.2
		c0-0.1,0-0.1,0.1-0.2c0,0.4,0,0.7-0.1,1.1c0,0.1,0,0.2,0,0.3c0,0.1,0,0.3,0.1,0.4c0,0,0,0,0,0.1c-0.1,0.3-0.1,0.7,0,1.1
		c0-0.1,0-0.2,0-0.3c0.1-0.4,0.1-0.7,0.1-1.1c0,0,0,0,0,0c0-0.6,0.1-1.3,0.1-1.9c0-1.2,0.1-2.4,0.1-3.6c-0.1-1.3-0.3-2.6-0.1-3.9
		c0.1-0.4,0.2-0.9,0.3-1.4c0-1.4,0.1-2.8,0.1-4.2c0-0.6,0-1.2,0-1.8c0.1-5.5,0.2-11,0.2-16.9C52.8,21.9,52.7,20,52.6,19.7z
		 M50.9,42.5C50.9,42.5,50.9,42.5,50.9,42.5c0.1,0.1,0,0.3,0,0.4c0,0.1,0,0.1,0,0.2c0,0.1,0,0.2,0,0.2c0-0.1,0-0.1,0-0.2
		c0,0,0-0.1,0-0.1C50.8,42.8,50.7,42.5,50.9,42.5z"/>
	<path class="st0" d="M50.3,60.4c0-1.3-0.1-2.6-0.3-3.8C50.1,57.8,50.2,59.1,50.3,60.4z"/>
</g>
</svg>
