<?xml version="1.0" encoding="iso-8859-1"?>
<!-- Generator: Adobe Illustrator 21.1.0, SVG Export Plug-In . SVG Version: 6.00 Build 0)  -->
<svg version="1.1" id="Layer_1" xmlns="http://www.w3.org/2000/svg" xmlns:xlink="http://www.w3.org/1999/xlink" x="0px" y="0px"
	 viewBox="-49 141 512 512" style="enable-background:new -49 141 512 512;" xml:space="preserve">
<path style="fill:#FDC279;" d="M207,171c124.617,0,226,101.383,226,226S331.617,623,207,623S-19,521.617-19,397S82.383,171,207,171
	 M207,141C65.841,141-49,255.841-49,397S65.841,653,207,653s256-114.841,256-256S348.159,141,207,141L207,141z"/>
<path style="fill:#FDC279;" d="M207,560.384c-90.091,0-163.384-73.293-163.384-163.384c0-57.658,30.907-111.653,80.659-140.914
	c6.347-3.729,14.514-1.613,18.244,4.733c3.732,6.345,1.613,14.514-4.733,18.244C96.14,303.555,70.27,348.746,70.27,397
	c0,75.392,61.335,136.729,136.729,136.729S343.728,472.394,343.728,397c0-48.254-25.87-93.445-67.517-117.937
	c-6.345-3.732-8.464-11.9-4.733-18.244c3.732-6.344,11.902-8.464,18.244-4.733c49.752,29.261,80.659,83.257,80.659,140.914
	C370.384,487.091,297.091,560.384,207,560.384z"/>
<path style="fill:#FDC279;" d="M207,410.328c-7.361,0-13.328-5.967-13.328-13.328V229.16c0-7.36,5.967-13.328,13.328-13.328
	s13.328,5.968,13.328,13.328V397C220.328,404.361,214.361,410.328,207,410.328z"/>
</svg>
