<?xml version="1.0" encoding="iso-8859-1"?>
<!-- Generator: Adobe Illustrator 21.1.0, SVG Export Plug-In . SVG Version: 6.00 Build 0)  -->
<svg version="1.1" xmlns="http://www.w3.org/2000/svg" xmlns:xlink="http://www.w3.org/1999/xlink" x="0px" y="0px"
	 viewBox="0 0 595.28 603.345" style="enable-background:new 0 0 595.28 603.345;" xml:space="preserve">
<g id="Calque_2">
	<path style="fill:#FFFFFF;" d="M588.924,299.877c0.002-0.543,0-1.086-0.001-1.629c-0.004-1.965-0.029-3.927-0.078-5.886
		c-0.023-0.933-0.049-1.866-0.081-2.798c-0.032-0.898-0.061-1.797-0.102-2.693c-0.09-2.006-0.208-4.006-0.344-6.004
		c-0.015-0.212-0.029-0.424-0.045-0.635c-0.944-13.436-2.905-26.687-5.88-39.628c-5.064-21.765-12.776-42.67-22.787-62.38
		c-1.165-2.505-2.602-4.878-3.913-7.31c-1.345-2.415-2.667-4.842-4.039-7.24c-1.457-2.35-2.915-4.701-4.375-7.054
		c-1.462-2.349-2.89-4.717-4.51-6.97c-3.161-4.553-6.225-9.169-9.695-13.519c-1.695-2.201-3.367-4.42-5.087-6.604
		c-1.796-2.125-3.595-4.253-5.397-6.385l-2.703-3.192c-0.886-1.077-1.886-2.062-2.825-3.098c-1.905-2.044-3.813-4.092-5.726-6.144
		l-1.434-1.537l-1.506-1.474l-3.018-2.946c-2.027-1.951-3.999-3.959-6.078-5.868c-2.111-1.873-4.226-3.75-6.347-5.631l-3.18-2.82
		l-3.314-2.684c-2.213-1.784-4.431-3.573-6.656-5.366c-2.233-1.778-4.6-3.404-6.9-5.118c-5.342-4.253-10.912-7.911-16.2-11.733
		c-2.569-1.67-5.109-3.322-7.633-4.964c-0.177-0.114-0.353-0.231-0.53-0.344c-1.33-0.87-2.655-1.737-3.975-2.6
		c-1.368-0.81-2.731-1.616-4.089-2.42c-0.001-0.001-0.002-0.001-0.003-0.002c-1.677-1.017-3.355-2.026-5.037-3.008
		c-1.013-0.605-2.035-1.215-3.043-1.817c-0.811-0.438-1.612-0.872-2.42-1.309c-2.252-1.261-4.508-2.497-6.773-3.701
		c-0.396-0.21-0.796-0.408-1.192-0.616c-0.626-0.341-1.254-0.684-1.879-1.024c-0.648-0.317-1.295-0.633-1.943-0.949
		c-3.134-1.595-6.289-3.139-9.466-4.63c-0.342-0.167-0.684-0.335-1.026-0.502c-0.478-0.213-0.957-0.423-1.435-0.635
		c-11.842-5.437-24.031-10.172-36.888-14.147l-0.721-0.183c-10.621-3.305-21.749-5.866-33.452-8.021
		c-4.188-0.65-8.358-1.298-12.512-1.942c-4.189-0.409-8.361-0.816-12.517-1.222c-2.079-0.237-4.165-0.271-6.246-0.366
		c-2.082-0.079-4.16-0.159-6.234-0.238c-4.151-0.237-8.289-0.055-12.417,0.003c-16.503,0.401-32.763,2.383-48.56,5.779
		c-15.778,3.501-31.065,8.437-45.722,14.591c-3.652,1.571-7.339,3.041-10.873,4.848l-5.341,2.605
		c-1.773,0.88-3.571,1.703-5.286,2.693l-10.368,5.738l-10.055,6.236c-13.22,8.588-25.685,18.253-37.305,28.883l-4.308,4.044
		c-1.423,1.362-2.905,2.658-4.248,4.108c-2.737,2.831-5.479,5.668-8.226,8.51c-2.605,2.964-5.215,5.933-7.832,8.91
		c-1.335,1.459-2.535,3.041-3.777,4.587c-1.234,1.549-2.47,3.101-3.707,4.654c-9.742,12.538-18.534,25.934-26.275,40.11
		c-1.856,3.589-3.806,7.137-5.606,10.777c-1.717,3.677-3.442,7.368-5.173,11.076c-1.607,3.759-3.125,7.573-4.708,11.371
		c-0.825,1.885-1.49,3.841-2.185,5.787c-0.697,1.945-1.395,3.894-2.094,5.847c-1.601,4.175-2.448,8.1-3.224,11.553
		c-0.736,3.467-1.263,6.515-1.347,9.246c-0.292,5.427,0.165,9.275,0.967,11.767c0.333,0.996,0.713,1.778,1.116,2.37
		c-1.459,2.954-2.906,5.719-4.342,8.374c-0.106,0.475-0.2,0.952-0.303,1.428c-0.761,1.395-1.426,2.776-2.097,4.122
		c-0.583,1.147-1.144,2.251-1.704,3.353c0.092-0.494,0.183-0.986,0.275-1.482c-0.2,0.383-0.384,0.735-0.574,1.099
		c-1.39,2.699-2.767,5.374-4.061,7.886c-0.075,0.498-0.131,1-0.204,1.498c-1.49,3.092-2.897,6.15-4.319,9.248l-0.969,2.161
		c-0.282,0.73-0.564,1.461-0.848,2.196c-0.039,0.104-0.077,0.213-0.116,0.317c0.027-0.459,0.04-0.917,0.069-1.376
		c-1.269,3.368-2.487,6.811-3.632,10.505c-0.074,0.623-0.15,1.246-0.222,1.869c-0.032,0.1-0.062,0.198-0.094,0.299
		c-0.227,0.823-0.421,1.659-0.627,2.507c-0.795,3.327-1.526,6.862-2.171,10.672c-0.58,3.809-0.86,7.892-1.127,12.314
		c-0.154,3.143-0.01,6.288,0.066,9.454c0.002,0.083,0.005,0.166,0.007,0.248c-0.03-0.339-0.069-0.677-0.098-1.016
		c0.094,3.072,0.167,6.164,0.315,9.263c0.269,3.09,0.54,6.191,0.811,9.301c0.147,1.557,0.295,3.116,0.442,4.678
		c0.223,1.552,0.447,3.106,0.671,4.663c0.468,3.115,0.936,6.239,1.407,9.372c0.635,3.105,1.271,6.219,1.909,9.341
		c0.33,1.56,0.641,3.127,0.994,4.686c0.404,1.546,0.81,3.095,1.215,4.645c0.626,2.345,1.245,4.701,1.889,7.052
		c0.025,0.093,0.051,0.185,0.076,0.278c0.182,0.661,0.355,1.323,0.543,1.982c0.99,3.067,1.983,6.141,2.978,9.221
		c0.302,0.891,0.587,1.788,0.882,2.683c0.03,0.092,0.059,0.183,0.089,0.275c0.039,0.11,0.082,0.218,0.122,0.328
		c0.151,0.441,0.293,0.886,0.462,1.32l1.003,2.624c0.651,1.704,1.312,3.407,1.961,5.116l0.213,0.549
		c0.287,0.752,0.579,1.502,0.874,2.252l0.735,1.892l2.044,4.61c1.389,3.064,2.698,6.174,4.182,9.205
		c1.533,3.008,3.069,6.02,4.606,9.036l1.16,2.259c0.401,0.745,0.837,1.473,1.255,2.21l2.539,4.408
		c1.073,1.949,2.22,3.856,3.389,5.75c0.329,0.533,0.652,1.07,0.994,1.595c2.101,3.335,4.279,6.628,6.415,9.947
		c1.952,2.788,3.967,5.536,5.956,8.302c1.011,1.371,1.969,2.78,3.027,4.117l3.192,3.996l3.198,3.99
		c1.064,1.331,2.121,2.668,3.274,3.926l6.781,7.654c1.107,1.295,2.315,2.5,3.505,3.719l3.572,3.654l3.574,3.646
		c1.199,1.206,2.481,2.331,3.718,3.499c2.5,2.308,4.977,4.636,7.494,6.913c2.6,2.185,5.199,4.369,7.795,6.55
		c0.48,0.389,0.965,0.77,1.446,1.157c0.098,0.082,0.196,0.164,0.294,0.246c0.891,0.737,1.802,1.448,2.719,2.153
		c2.848,2.239,5.728,4.429,8.64,6.568l0.352,0.267c0.282,0.216,0.578,0.414,0.867,0.621c6.058,4.403,12.257,8.571,18.635,12.397
		l4.27,2.638c1.408,0.901,2.908,1.646,4.355,2.475c2.918,1.616,5.83,3.23,8.736,4.84c2.954,1.519,5.945,2.952,8.903,4.426
		l4.44,2.192c1.51,0.663,3.018,1.324,4.524,1.985c1.739,0.759,3.475,1.517,5.208,2.273l2.596,1.133l1.296,0.566l1.32,0.504
		c3.517,1.343,7.02,2.681,10.507,4.013l2.048,0.757l2.081,0.661l1.873,0.594c2.414,0.801,4.839,1.566,7.272,2.3
		c1.113,0.351,2.226,0.702,3.344,1.037l2.294,0.603c2.784,0.777,5.579,1.511,8.385,2.203c2.062,0.547,4.124,1.092,6.222,1.487
		l2.429,0.51c0.877,0.189,1.754,0.372,2.632,0.553l3.468,0.728c1.425,0.279,2.834,0.636,4.271,0.85l4.304,0.684l8.605,1.361
		c2.875,0.402,5.772,0.651,8.656,0.982l4.329,0.465c1.442,0.16,2.884,0.321,4.336,0.379l3.481,0.202
		c0.78,0.049,1.56,0.094,2.34,0.136l2.871,0.167l4.344,0.238l4.352,0.04l8.7,0.072c2.899,0.001,5.795-0.198,8.692-0.29l4.343-0.177
		c1.448-0.054,2.895-0.107,4.337-0.263l8.656-0.774c1.441-0.14,2.886-0.237,4.323-0.413l4.302-0.594
		c2.916-0.376,5.826-0.798,8.727-1.263c0.482-0.074,0.967-0.136,1.448-0.216l1.277-0.24c3.419-0.581,6.826-1.219,10.219-1.922
		l1.562-0.295l1.67-0.397c3.421-0.749,6.827-1.561,10.218-2.433l1.03-0.245c0.441-0.115,0.877-0.246,1.316-0.367
		c3.604-0.958,7.188-1.986,10.751-3.079c1.519-0.439,3.031-0.899,4.521-1.427c2.835-0.919,5.655-1.881,8.459-2.885l0.28-0.096
		l2.09-0.714l2.057-0.803l0.531-0.21c2.314-0.875,4.616-1.781,6.906-2.713c3.248-1.297,6.461-2.675,9.644-4.117
		c5.509-2.471,10.941-5.108,16.285-7.905c0.927-0.473,1.855-0.946,2.779-1.423c1.027-0.574,2.052-1.151,3.077-1.73
		c5.917-3.267,11.72-6.734,17.394-10.393c1.507-0.967,3.003-1.951,4.486-2.952c0.479-0.322,0.962-0.638,1.439-0.963
		c4.703-3.3,9.468-6.515,13.947-10.113c2.261-1.768,4.57-3.478,6.789-5.296l6.56-5.574l3.278-2.788l3.149-2.931l6.284-5.876
		c2.081-1.973,4.022-4.085,6.039-6.121l2.997-3.082l1.498-1.542c0.488-0.524,0.953-1.069,1.431-1.603
		c15.427-16.955,28.908-35.642,40.088-55.609c2.946-5.347,5.712-10.789,8.322-16.303c0.074-0.157,0.143-0.315,0.217-0.472
		c1.098-2.33,2.173-4.671,3.211-7.028c0.288-0.654,0.557-1.317,0.841-1.973c0.809-1.876,1.619-3.751,2.389-5.643
		c0.54-1.322,1.046-2.656,1.567-3.985c0.489-1.251,0.995-2.496,1.467-3.753c0.821-2.181,1.602-4.376,2.372-6.576
		c0.151-0.433,0.316-0.862,0.465-1.296c1.858-5.387,3.567-10.825,5.115-16.306c0.025-0.087,0.048-0.175,0.072-0.263l1.111-3.821
		c0.362-1.301,0.647-2.622,0.966-3.934c0.726-2.86,1.408-5.731,2.05-8.612c0.412-1.587,0.728-3.194,1.026-4.804
		c0.771-3.751,1.476-7.516,2.1-11.295l0.123-0.663l0.121-0.882c0.695-4.355,1.291-8.726,1.785-13.11l0.117-0.872l0.056-0.65
		c0.423-3.945,0.758-7.9,1.012-11.862c0.071-0.814,0.139-1.628,0.182-2.443l0.084-2.314c0.007-0.153,0.017-0.307,0.024-0.46
		c0.012-0.297,0.013-0.593,0.025-0.89l0.022-0.621c0.046-1.34,0.08-2.679,0.106-4.018
		C588.905,302.587,588.918,301.232,588.924,299.877z M133.686,85.71c1.417-1.064,2.843-2.117,4.281-3.153
		c0.228-0.165,0.455-0.332,0.684-0.496c5.361-3.836,10.863-7.468,16.486-10.895c8.231-4.968,16.721-9.489,25.382-13.633
		c0.439-0.206,0.883-0.401,1.323-0.604l6.869-3.056c1.862-0.798,3.73-1.577,5.609-2.332c0.035-0.014,0.071-0.027,0.106-0.041
		l4.581-1.779l1.396-0.542c2.539-0.95,5.094-1.856,7.66-2.728l0.185-0.062l4.164-1.39c19.367-6.219,39.416-10.253,59.658-11.97
		c36.406-3.128,73.401,1.313,108.243,12.697c-0.064-0.027-0.129-0.053-0.193-0.08l1.793,0.593c3.116,1.03,6.252,2.009,9.289,3.261
		l9.192,3.549l9.008,4.003c11.905,5.552,23.602,11.688,34.604,18.978c11.025,7.224,21.752,15.026,31.641,23.863
		c1.241,1.098,2.56,2.111,3.74,3.277l3.619,3.415c2.396,2.296,4.896,4.493,7.149,6.939l3.977,4.12
		c0.021,0.034,0.041,0.066,0.061,0.1c7.9,8.32,15.297,17.148,22.145,26.422c0.366,0.511,0.734,1.019,1.104,1.527
		c2.127,2.921,4.2,5.885,6.216,8.892c0.792,1.205,1.585,2.41,2.377,3.616c0.752,1.16,1.513,2.313,2.248,3.484
		c0.814,1.329,1.615,2.665,2.407,4.006l0.24,0.408c4.716,8.012,9.038,16.221,12.959,24.594c0.323,0.696,0.645,1.392,0.968,2.088
		c0.511,1.115,1.022,2.229,1.519,3.35c0.564,1.332,1.116,2.668,1.661,4.006l0.413,1.021c3.338,8.276,6.302,16.673,8.856,25.174
		c0.327,1.113,0.653,2.226,0.98,3.338c0.277,0.966,0.558,1.93,0.824,2.898c0.805,3.103,1.512,6.228,2.272,9.337
		c0.358,1.559,0.782,3.104,1.085,4.674l0.883,4.711l0.883,4.707c0.301,1.567,0.602,3.134,0.785,4.718
		c0.429,3.159,0.857,6.315,1.284,9.469c0.248,1.573,0.349,3.161,0.486,4.745l0.36,4.277c0.291,3.613,0.515,7.227,0.656,10.841
		c0.036,1.149,0.072,2.296,0.108,3.444c0.096,3.735,0.113,7.467,0.051,11.195c-0.018,0.969-0.036,1.939-0.054,2.907
		c-0.049,1.774-0.121,3.546-0.206,5.317c-0.078,1.555-0.17,3.108-0.275,4.661c-0.002,0.028-0.004,0.057-0.006,0.085
		c-1.689,24.787-6.854,49.173-15.18,72.246c-0.599,1.64-1.194,3.283-1.826,4.909c-14.335,37.124-36.993,70.528-65.592,97.082
		c-17.745,16.429-37.632,30.331-58.883,41.272c-0.544,0.279-1.09,0.552-1.635,0.827c-1.268,0.642-2.543,1.269-3.821,1.89
		c-0.941,0.456-1.882,0.911-2.828,1.355c-0.811,0.382-1.627,0.752-2.442,1.125c-4.098,1.875-8.238,3.644-12.416,5.305
		c-0.758,0.3-1.514,0.604-2.274,0.898c-1.025,0.396-2.054,0.782-3.083,1.165c-1.364,0.506-2.73,1.005-4.101,1.487
		c-0.487,0.172-0.973,0.347-1.461,0.516c-2.128,0.734-4.263,1.444-6.408,2.12c-2.285,0.678-4.569,1.355-6.85,2.032l-3.414,1.016
		c-1.137,0.337-2.303,0.577-3.451,0.869c-2.572,0.627-5.154,1.256-7.736,1.885c-1.841,0.417-3.691,0.805-5.544,1.186
		c-1.512,0.296-3.025,0.592-4.54,0.889c-2.896,0.545-5.804,1.046-8.724,1.501c-1.112,0.164-2.224,0.329-3.338,0.494
		c-0.307,0.046-0.614,0.092-0.921,0.138c-2.865,0.401-5.74,0.753-8.624,1.065c-0.202,0.02-0.404,0.04-0.607,0.06l-4.291,0.435
		c-1.874,0.17-3.749,0.333-5.629,0.465l-0.299,0.016c-2.631,0.142-5.269,0.285-7.908,0.427c-1.524,0.061-3.05,0.106-4.576,0.142
		c-2.701,0.018-5.402,0.035-8.11,0.053l-1.535,0.012c-1.005-0.011-2.011-0.04-3.017-0.063c-0.205-0.009-0.409-0.02-0.614-0.027
		l-5.17-0.217c-9.962-0.479-19.947-1.391-29.86-2.929c-0.543-0.085-1.086-0.165-1.629-0.254c-3.252-0.528-6.496-1.12-9.727-1.795
		c-3.429-0.559-6.8-1.437-10.185-2.238c-3.38-0.822-6.79-1.53-10.113-2.583c-3.34-0.985-6.696-1.914-10.027-2.926l-9.878-3.392
		c-13.075-4.781-25.804-10.469-38.039-17.044c-12.157-6.719-23.786-14.312-34.777-22.67c-11.036-8.308-21.235-17.616-30.717-27.476
		c-9.448-9.889-18.283-20.309-25.994-31.41c-19.757-26.995-35.29-57.924-43.989-91.998c-0.543-2.133-1.06-4.277-1.548-6.432
		c-0.103-0.653-0.208-1.314-0.31-1.964c-7.017-32.071-7.719-66.719-0.032-101.149c0.922-3.91,0.841-6.347,0.379-7.934
		c0.674-0.472,1.262-1.429,1.644-2.831c0.055-0.233,0.116-0.465,0.172-0.698c0.08-0.208,0.155-0.425,0.225-0.657
		c1.59-6.731,3.455-13.386,5.58-19.948c0.04-0.124,0.08-0.247,0.12-0.371c9.32-28.634,23.629-55.478,42.031-79.02
		c13.944-17.892,30.209-33.877,48.173-47.578C132.61,86.523,133.147,86.115,133.686,85.71z"/>
</g>
<g id="Calque_3">
	<path style="fill:#FFFFFF;" d="M497.53,172.543l-0.331-0.359l-0.472-0.126c-0.377-0.101-0.79-0.238-1.265-0.419l-1.562-0.673
		c-0.106-0.249-0.212-0.465-0.319-0.649c-1.128-2.008-2.535-2.202-3.214-2.174l0.96-0.959l-5.459,1.11
		c-0.141,0.028-0.271,0.068-0.436,0.123c-0.449,0.108-0.883,0.234-1.307,0.381c-0.25,0.088-0.496,0.183-0.728,0.281
		c-0.425,0.176-0.837,0.367-1.249,0.581c-0.159,0.085-0.319,0.172-0.46,0.253c-1.063,0.596-2.032,1.274-2.786,1.819l-2.241,1.717
		c-0.131,0.097-0.43,0.317-0.631,0.709c-0.224-0.202-0.536-0.374-0.971-0.479c-0.036-0.009-0.083-0.016-0.068-0.002l-0.019-0.011
		c-0.048-0.114-0.114-0.4-0.084-0.9c0.046-0.086,0.102-0.18,0.145-0.253l0.12-0.183c0.081-0.126,0.169-0.244,0.267-0.377
		c0.283-0.379,0.564-0.71,0.839-0.99c0.817-0.8,1.635-1.586,2.535-2.403l0.324-0.325l0.005-0.014
		c0.428-0.407,0.863-0.842,1.235-1.288c2.799-2.915,4.075-6.831,3.898-11.963c-0.068-2.4-0.46-4.779-0.838-7.08l-0.042-0.253
		l0.15-0.126c0.831-0.691,1.976-2.222,0.313-4.708l-0.582-0.869l-0.872,0.117c-1.149-2.068-4.533-2.727-5.827-2.79
		c-0.421-0.02-0.769,0.013-1.059,0.084l3.946-3.174l-14.206,7.17c-2.977,1.503-5.866,3.156-8.049,4.428l-0.701,0.403
		c-0.821,0.483-1.646,0.972-2.467,1.461l-6.816,4.065c-6.996,4.232-9.054,5.001-13.274,2.825c-0.556-0.263-1.2-0.712-1.905-1.203
		c-2.256-1.506-4.588-3.615-6.772-5.672c-0.615-0.577-1.235-1.167-1.863-1.765c-1.845-1.757-3.752-3.573-5.856-5.38
		c-2.641-2.26-5.125-4.049-7.592-5.468l-0.186-0.099c-0.701-0.397-1.452-0.817-2.244-1.193c-0.104-0.049-0.209-0.092-0.313-0.135
		l-0.165-0.073c-0.067-0.031-0.132-0.057-0.23-0.096c-0.919-0.413-1.735-0.752-2.494-1.035c-0.252-0.094-0.504-0.178-0.758-0.263
		l-0.381-0.129c-0.6-0.206-1.199-0.411-1.804-0.59c-0.203-0.06-0.408-0.114-0.612-0.168l-0.282-0.075
		c-0.718-0.198-1.437-0.386-2.157-0.549l-0.789-0.168c-0.509-0.111-1.018-0.222-1.535-0.315l-0.877-0.132
		c-6.435-1.014-12.982-1.169-21.223-0.502c-1.788,0.159-3.641,0.374-5.507,0.638c-5.194,0.73-10.437,1.857-15.617,3.359l-0.37,0.123
		c-0.831,0.263-1.65,0.548-2.491,0.861c-0.796,0.296-1.582,0.61-2.357,0.941l-0.39,0.168c-0.575,0.251-1.146,0.509-1.7,0.773
		c-0.336,0.157-0.669,0.317-1.009,0.484l-0.675,0.344c-3.509,1.785-6.938,3.947-10.196,6.427
		c-5.278,4.024-10.227,8.88-15.132,14.845l-3.626,3.8c-0.653,0.664-1.302,1.317-1.947,1.966c-2.426,2.443-4.719,4.75-7.049,7.395
		l-0.242,0.358c-1.234,1.451-2.268,2.736-3.244,4.032c-3.026,4.01-5.505,8.725-7.373,14.034c-1.514,4.459-2.504,9.329-3.03,14.925
		c-0.343,4.852-0.286,9.893,0.17,14.999c0.481,4.792,1.227,9.696,2.289,15.038c1.089,4.758,4.921,6.286,7.289,5.845
		c1.659-0.306,2.311-1.469,2.24-2.474l0.008-0.034l-0.075-0.479c-0.296-1.217-0.557-2.464-0.794-3.803l-0.071-0.42
		c-0.194-1.133-0.362-2.312-0.499-3.508l-0.048-0.38c-0.13-1.193-0.227-2.413-0.297-3.725l-0.025-0.647
		c-0.049-1.14-0.072-2.266-0.067-3.342l0.001-0.454c0.061-5.256,0.706-10.6,1.917-15.884c0.273-1.202,0.596-2.467,0.957-3.754
		l0.076-0.276c0.358-1.254,0.745-2.497,1.152-3.699l0.102-0.279c0.328-0.955,0.682-1.9,1.044-2.838
		c0.226-0.579,0.457-1.154,0.699-1.732c0.309-0.745,0.618-1.489,0.951-2.232l0.206-0.479c0.476-1.043,1-2.121,1.597-3.288
		c0.135-0.262,0.275-0.523,0.415-0.783l0.145-0.273c1.77-3.341,3.742-6.547,5.861-9.526l1.013-1.428
		c0.611-0.831,1.177-1.562,1.737-2.245c3.24-4.137,7.117-8.178,11.509-12.002l1.643-1.401c0.309-0.258,0.617-0.516,0.926-0.768
		c0.513-0.417,1.037-0.823,1.562-1.23c0.449-0.348,0.897-0.697,1.304-1.022l0.579-0.417c0.747-0.548,1.501-1.081,2.263-1.598
		c0.488-0.33,0.979-0.656,1.472-0.972c0.789-0.507,1.586-0.997,2.394-1.473c0.608-0.359,1.224-0.703,1.84-1.043
		c0.651-0.358,1.306-0.708,1.963-1.045l0.237-0.121c0.432-0.222,0.865-0.443,1.3-0.653c0.98-0.473,1.97-0.922,2.969-1.35
		c0.483-0.207,0.968-0.403,1.511-0.621c0.776-0.312,1.556-0.61,2.342-0.895c0.513-0.187,1.027-0.373,1.542-0.548
		c0.989-0.334,1.983-0.644,2.983-0.933c0.43-0.125,0.863-0.247,1.292-0.363c1.334-0.36,2.446-0.633,3.497-0.86l0.71-0.141
		c1.174-0.241,2.324-0.448,3.418-0.616l0.784-0.123c0.277-0.04,0.555-0.076,0.832-0.111l0.155-0.02
		c0.509-0.066,1.02-0.126,1.528-0.18c0.354-0.037,0.705-0.074,1.061-0.105c0.401-0.036,0.801-0.064,1.277-0.098l0.311-0.022
		c0.329-0.024,0.657-0.047,1.032-0.066c3.531-0.177,7.139-0.079,10.701,0.284c1.365,0.156,2.711,0.37,4.004,0.637l0.34-1.642l0,0
		l-0.197,1.672c4.159,0.877,7.625,2.279,10.339,4.194c0.415,0.276,0.811,0.595,1.232,0.933l0.074,0.059
		c2.548,2.15,5.083,5.023,7.899,8.286l0.622,0.716c2.657,3.065,5.67,6.538,9.639,9.841c0.409,0.33,0.847,0.655,1.283,0.978
		l0.424,0.316c0.572,0.432,1.204,0.892,1.93,1.312l1.913,1.145l0.122,0.067c0.717,0.352,1.453,0.688,2.133,0.992
		c0.697,0.343,1.479,0.633,2.546,0.943c0.215,0.061,0.428,0.126,0.641,0.191c0.6,0.183,1.222,0.373,1.94,0.501l0.205,0.033
		c1.641,0.263,3.336,0.531,5.103,0.434c1.796-0.008,3.639-0.198,5.284-0.594c1.512-0.35,3.018-0.835,4.607-1.487
		c2.798-1.162,5.072-2.494,7.041-3.687c5.061-3.352,9.814-7.346,13.795-10.809l0.271-0.237c-0.608,1.298-1.299,2.663-2.096,4.143
		l-0.906,1.682c-0.205,0.349-0.389,0.677-0.578,1.016c-0.455,0.819-0.927,1.666-1.902,3.113l-1.147,1.792
		c-0.444,0.667-0.948,1.334-1.446,1.994c-0.479,0.635-0.953,1.265-1.34,1.834l-0.425,0.578l-3.284,3.397l-1.418,1.373
		c-2.128,1.967-4.236,3.898-6.633,5.895l-1.064,0.888l0.671,1.212c0.017,0.032,0.035,0.064,0.052,0.097l-0.181,0.512
		c-0.024,0.056-0.045,0.112-0.064,0.17l-1.515,1.739l-0.319,2.2l2.592,0.323c2.788,0.387,5.801,0.858,8.926,1.678l0.869,0.233
		c1.92,0.459,4.214,0.659,6.651,0.582l0.156-0.007c2.489-0.091,5.078-0.461,7.696-1.1l0.604-0.146
		c0.542-0.129,1.085-0.259,1.726-0.446l1.453-0.507c-0.094,0.115-0.188,0.229-0.281,0.342l-0.097,0.117
		c-0.128,0.154-0.255,0.308-0.392,0.467c-0.347,0.408-0.697,0.813-1.056,1.205l-0.222,0.234c-1.531,1.65-3.176,3.214-4.593,4.535
		c-1.281,1.21-2.765,2.628-4.199,4.142l-0.295,0.318c-1.094,1.174-1.91,2.125-2.646,3.085c-0.123,0.16-0.237,0.328-0.349,0.497
		l-0.175,0.255c-0.23,0.319-0.455,0.64-0.675,0.971c-0.246,0.372-0.488,0.744-0.719,1.125c-0.162,0.267-0.313,0.539-0.465,0.812
		l-0.105,0.187c-0.379,0.677-0.738,1.376-1.071,2.082l-0.121,0.249c-0.074,0.153-0.15,0.307-0.217,0.46l-0.072,0.176
		c-0.209,0.476-0.398,0.952-0.586,1.436l-0.383,1.026c-0.091,0.236-0.181,0.471-0.261,0.716c-0.106,0.326-0.198,0.651-0.288,0.976
		l-0.193,0.67c-0.064,0.215-0.128,0.429-0.188,0.651c-0.087,0.331-0.167,0.662-0.267,1.082c-0.097,0.395-0.19,0.79-0.274,1.182
		c-0.085,0.39-0.167,0.779-0.242,1.168l-0.151,0.836c-0.271,1.518-0.496,3.107-0.67,4.718l-0.014,0.145
		c-0.287,2.698-0.451,5.348-0.61,7.912l-0.04,0.659c-0.097,1.924-0.258,3.859-0.401,5.536c-0.126,1.619-0.276,3.234-0.44,4.849
		c-0.111,1.033-0.223,2.067-0.349,3.105l-0.129,1.052c-0.154,1.237-0.309,2.473-0.465,3.672c-0.469,3.072-0.929,5.834-1.402,8.435
		c-0.175,0.938-0.35,1.876-0.543,2.823l-0.09,0.466c-0.078,0.4-0.155,0.8-0.235,1.192c-0.383,1.828-0.793,3.65-1.221,5.469
		c-0.096,0.411-0.197,0.82-0.296,1.23l-0.166,0.681c-0.344,1.41-0.699,2.818-1.068,4.22l-0.364,1.377
		c-0.561,2.077-1.095,3.966-1.661,5.86l-0.036,0.119c-0.548,1.826-1.122,3.645-1.714,5.458l-0.413,1.253
		c-0.526,1.581-1.072,3.156-1.63,4.722c-0.283,0.788-0.571,1.575-0.863,2.362c-0.396,1.073-0.799,2.144-1.21,3.21
		c-0.515,1.328-1.04,2.653-1.582,3.972l0.002,0.002c-1.441,3.55-2.792,6.693-4.129,9.609c-4.748,10.404-10.294,20.75-16.487,30.756
		l-0.412,0.643c-1.54,2.459-3.133,5.002-4.815,7.464c-0.797,1.227-1.619,2.437-2.454,3.645l-0.604,0.871
		c-0.745,1.069-1.494,2.135-2.243,3.193c-4.892,6.833-10.244,13.568-15.904,20.012c-0.536,0.606-1.08,1.205-1.623,1.803
		l-0.804,0.888c-0.468,0.518-0.937,1.036-1.412,1.55c-0.451,0.489-0.906,0.973-1.36,1.456l-0.425,0.451
		c-4.044,4.277-8.3,8.484-12.65,12.507c-1.323,1.225-2.664,2.426-4.008,3.616c-0.663,0.586-1.329,1.164-1.997,1.742
		c-0.78,0.676-1.562,1.346-2.352,2.013c-0.646,0.548-1.296,1.093-1.948,1.633c-1.248,1.032-2.502,2.055-3.772,3.062l-0.423,0.34
		c-1.655,1.306-3.309,2.577-4.917,3.778c-1.632,1.223-3.275,2.425-4.923,3.606l-0.511,0.361c-1.146,0.817-2.303,1.616-3.458,2.412
		c-0.865,0.593-1.73,1.186-2.604,1.77l-1.092,0.722c-8.245,5.451-16.629,10.322-24.919,14.476c-2.945,1.471-5.885,2.842-8.74,4.076
		l-0.188,0.08c-1.406,0.605-2.819,1.189-4.218,1.742l-0.195,0.078c-1.467,0.578-2.955,1.135-4.422,1.655
		c-2.911,1.031-5.959,1.978-9.107,2.83c-2.971,0.801-6.086,1.531-9.258,2.167c-1.558,0.312-3.119,0.611-4.665,0.877
		c-11.196,1.801-22.199,3.027-32.678,3.642l-1.92,0.084c-1.42,0.06-2.841,0.121-4.262,0.198l-0.123,0.011
		c-6.017,0.215-11.527,0.237-16.85,0.069c-19.604-0.519-38.448-2.741-56.067-6.622c-11.768-2.148-22.85-4.921-33.867-8.474
		l-2.207-0.735c0.248-0.017,0.496-0.035,0.743-0.055c1.186-0.093,2.371-0.198,3.559-0.325l0.578-0.068
		c1.225-0.137,2.447-0.295,3.67-0.467l0.93-0.133c0.354-0.05,0.708-0.099,1.066-0.156c2.16-0.347,4.415-0.775,6.701-1.273
		l0.552-0.125c1.034-0.23,2.065-0.474,3.09-0.73c0.463-0.115,0.926-0.23,1.389-0.351c0.715-0.187,1.427-0.384,2.136-0.583
		c1.342-0.374,2.678-0.771,4.011-1.19l0.925-0.286c0.232-0.07,0.464-0.141,0.694-0.217l11.868-3.937l-1.747,0.094
		c3.125-1.327,6.213-2.777,9.248-4.344l0.028,0.004l0.466-0.245c0.22-0.116,0.438-0.235,0.656-0.354l0.46-0.25
		c0.552-0.294,1.102-0.592,1.647-0.893c0.608-0.334,1.215-0.67,1.827-1.017l0.914-0.526c0.715-0.408,1.43-0.817,2.134-1.24
		c3.959-2.365,7.218-4.365,10.256-6.298l4.992-3.179l31.054-20.667l2.719-1.854l-0.174-0.519l2.721-3.468l-3.8,0.276
		c-6.54,0.476-13.095,0.875-19.49,1.186c-3.756,0.203-7.143,0.257-10.273,0.172c-0.544-0.043-1.1-0.074-1.66-0.104
		c-0.695-0.038-1.397-0.076-2.126-0.146c-0.38-0.038-0.758-0.083-1.182-0.152l-2.417-0.317l-1.327-0.328
		c-0.527-0.118-1.002-0.268-1.478-0.415l-0.324-0.1c-1.697-0.524-3.35-1.155-4.944-1.889c-0.663-0.29-1.348-0.626-2.156-1.06
		l-0.423-0.234c-0.652-0.36-1.298-0.735-2.006-1.17c-2.746-1.712-5.655-3.937-8.894-6.803c-3.026-2.673-6.165-5.755-8.931-8.471
		c-2.854-2.815-5.779-5.784-8.75-8.881l-1.907-1.8c-3.297-3.106-6.705-6.316-9.896-9.797l-0.16-0.199
		c-0.241-0.263-0.483-0.531-0.727-0.806c12.161,1.632,24.367,1.852,36.346,0.651l20.321-2.036l-18.545-8.447
		c-13.044-5.941-26.794-12.469-38.916-21.16c-0.96-0.695-1.912-1.399-2.849-2.12c-2.117-1.627-4.097-3.268-5.882-4.876l-0.326-0.302
		c-0.687-0.625-1.359-1.265-2.02-1.912c-0.3-0.293-0.597-0.588-0.891-0.884c-0.674-0.681-1.466-1.491-2.231-2.343
		c-0.797-0.881-1.602-1.811-2.392-2.766l-0.185-0.224c-0.62-0.755-1.216-1.528-1.794-2.292l-0.267-0.35
		c-0.124-0.161-0.251-0.322-0.395-0.537l-0.183-0.255c-0.554-0.762-1.099-1.531-1.598-2.284c-0.215-0.342-0.426-0.687-0.638-1.031
		l-0.509-0.825c-0.413-0.644-0.801-1.302-1.173-1.95c-0.623-1.113-1.12-2.048-1.577-2.973c-0.425-0.859-0.862-1.81-1.377-2.989
		l-0.339-0.786c-0.941-2.229-1.782-4.52-2.502-6.815c-1.438-4.522-2.621-9.511-3.617-15.243l-0.484-2.895l-0.448-3.105l0.083,0.034
		c1.224,0.516,2.399,0.964,3.584,1.369l4.293,1.42c0.231,0.07,0.464,0.135,0.697,0.199l0.515,0.145
		c0.409,0.12,0.82,0.235,1.231,0.35l0.852,0.245c0.403,0.118,0.806,0.236,1.205,0.338c4.858,1.278,9.894,2.264,14.974,2.931
		c3.309,1.907,6.796,3.305,10.37,4.155l1.665,0.372l0.366-1.667l0.277-1.863l39.512,1.076l-0.028-0.008l0.704,0.019l-36.302-9.632
		l-2.535-0.684l0.538-3.68l-1.932-0.008c-2.276-0.01-4.758-0.108-7.576-0.3l-0.26-0.175c-1.49-1.031-2.946-2.232-4.437-3.655
		c-1.803-1.765-3.509-3.799-5.069-6.043l-0.271-0.402c-0.263-0.386-0.522-0.777-0.774-1.17l-0.328-0.524
		c-0.596-0.959-1.167-1.948-1.698-2.937c-0.39-0.731-0.768-1.467-1.126-2.217c-0.451-0.942-0.869-1.934-1.223-2.785
		c-0.063-0.153-0.13-0.305-0.197-0.456c-0.073-0.167-0.147-0.334-0.216-0.511c-0.084-0.212-0.159-0.429-0.234-0.645
		c-0.063-0.181-0.126-0.362-0.191-0.537c-1.488-4.045-2.622-8.411-3.371-12.966l-0.07-0.423c-0.123-0.769-0.223-1.54-0.322-2.311
		l-0.06-0.474c-0.093-0.756-0.188-1.513-0.256-2.27l-0.023-0.235c-0.117-1.333-0.203-2.676-0.26-4.055
		c-0.032-0.798-0.039-1.593-0.045-2.388l-0.003-0.345c-0.012-3.563,0.159-6.801,0.52-9.871c0.543-4.017,1.373-9.274,3.008-14.344
		l0.188-0.646c0.103-0.358,0.206-0.716,0.309-1.034l0.624-1.739c0.144-0.386,0.281-0.774,0.418-1.161l0.075-0.212
		c0.34-0.912,0.693-1.817,1.042-2.679l0.364-0.841c0.49-1.137,0.997-2.313,1.532-3.424l0.21-0.413c0.2-0.404,0.4-0.807,0.622-1.212
		c0.213-0.396,0.414-0.797,0.615-1.199c0.342-0.685,0.665-1.332,1.073-1.967l0.937-1.568l0.446-0.72l0.13,0.388l0.457,0.943
		c0.196,0.31,0.391,0.624,0.586,0.939c0.205,0.33,0.411,0.662,0.61,0.977l0.223,0.357c0.062,0.095,0.128,0.186,0.194,0.275
		l0.15,0.22c0.084,0.13,0.168,0.26,0.229,0.34c0.078,0.11,0.159,0.214,0.241,0.318l0.346,0.47c0.077,0.105,0.158,0.204,0.24,0.303
		l0.117,0.145c0.668,0.884,1.274,1.645,1.854,2.325c0.17,0.2,0.344,0.395,0.518,0.59l0.221,0.248c0.543,0.61,1.089,1.213,1.649,1.79
		c0.382,0.396,0.771,0.78,1.163,1.164c0.434,0.425,0.869,0.846,1.309,1.252c0.474,0.439,0.952,0.87,1.435,1.292l0.218,0.197
		c0.114,0.105,0.228,0.209,0.343,0.308c0.129,0.11,0.26,0.217,0.391,0.323l0.568,0.477c0.154,0.135,0.308,0.27,0.466,0.398
		l0.233,0.16c2.83,2.293,5.938,4.503,9.241,6.573c1.269,0.79,2.503,1.525,3.742,2.263l1.645,0.983
		c1.671,1.014,3.459,2.047,5.452,3.148c14.312,8.097,29.523,15.097,45.25,20.819c10.205,3.449,21.506,6.509,35.563,9.627
		l0.544,0.162c10.17,2.24,20.472,4.242,31.378,6.362l1.597,0.311c2.645,0.519,4.465-0.21,5.413-2.166l0.698-1.439l-1.404-0.765
		c-1.036-0.565-2.044-1.165-3.172-1.89l-0.26-0.167l-0.194-0.04l-2.561-1.845c-0.152-0.108-0.304-0.216-0.454-0.323l0.277,0.046
		l-5.655-4.147c-1.011-0.741-1.983-1.406-2.97-2.031l-0.186-0.118l-0.528-0.165c-0.2-0.128-0.4-0.257-0.596-0.375
		c-2.02-1.248-4.153-2.297-6.566-3.223l-2.423-0.838l0.014-0.047l-13.716-4.611c-3.467-1.167-6.964-2.343-10.477-3.541
		c-2.142-0.736-4.291-1.477-6.444-2.225c-3.802-1.326-7.164-2.53-10.284-3.681c-8.644-3.175-15.574-5.912-21.833-8.623
		c-2.699-1.12-5.399-2.359-8.01-3.558c-0.871-0.4-1.741-0.799-2.565-1.172c-0.882-0.434-1.765-0.863-2.646-1.291
		c-2.529-1.228-5.143-2.498-7.617-3.84c-0.608-0.328-1.218-0.649-1.827-0.97c-1.35-0.711-2.625-1.384-3.911-2.135
		c-0.754-0.419-1.514-0.835-2.271-1.25c-2.304-1.262-4.685-2.567-6.781-3.885c-2.966-1.848-5.622-3.756-7.894-5.672
		c-2.554-2.155-4.639-4.335-6.17-6.439l-0.587-0.855c-0.083-0.132-0.157-0.235-0.233-0.338c-0.1-0.138-0.18-0.246-0.4-0.783
		l-1.401-3.141c-0.011-0.04-0.021-0.082-0.029-0.127l-0.079-7.019l1.727-22.208l-6.443,6.926l-1.343,1.213
		c-0.01,0.01-0.02,0.019-0.029,0.028l-0.633,0.072l-3.112,3.858c-1.897,2.354-3.784,4.695-5.516,6.917l-2.072,2.631
		c-0.261,0.331-0.522,0.662-0.758,0.976l-0.736,1.06c-0.07,0.097-0.139,0.195-0.176,0.258l-3.493,5.307
		c-0.675,1.01-1.234,1.875-1.794,2.857l-1.258,2.374c-0.224,0.446-0.459,0.888-0.692,1.329l-0.393,0.746
		c-0.155,0.294-0.296,0.594-0.47,0.965l-0.091,0.182c-0.08,0.157-0.158,0.314-0.203,0.425c-0.635,1.393-1.271,2.786-1.865,4.178
		l-0.434,1.034c-0.313,0.767-0.616,1.537-0.865,2.243c-0.29,0.707-0.556,1.422-0.793,2.097l-0.135,0.395
		c-0.417,1.206-0.8,2.425-1.182,3.643l-0.523,1.659c-1.176,4.301-2.609,10-3.245,15.867c-0.3,1.893-0.424,3.797-0.543,5.638
		c-0.053,0.822-0.107,1.644-0.176,2.465l-0.087,6.232l0.297,6.12l0.117,1.059c0.11,1.261,0.26,2.611,0.456,4.099l0.153,1.18
		c0.269,1.869,0.605,3.775,0.997,5.65l0.109,0.492c0.21,0.978,0.438,1.954,0.68,2.924c0.1,0.407,0.201,0.813,0.309,1.22
		c0.277,1.05,0.57,2.099,0.888,3.148c0.066,0.215,0.135,0.428,0.204,0.642l0.241,0.757c0.123,0.393,0.247,0.786,0.379,1.18
		c0.097,0.287,0.201,0.571,0.305,0.855l0.389,1.078c0.467,1.265,0.954,2.487,1.444,3.625l0.068,0.153
		c0.477,1.099,0.993,2.206,1.577,3.38l0.282,0.567c0.615,1.21,1.22,2.323,1.849,3.405l0.257,0.425c0.42,0.71,0.868,1.433,1.337,2.16
		c-0.234-0.063-0.468-0.127-0.703-0.191c-0.343-0.094-0.687-0.188-1.039-0.279c-0.426-0.11-0.847-0.237-1.316-0.378l-1.688-0.531
		c-3.4-1.223-6.198-2.338-8.81-3.512l-10.161-4.525l-0.856,2.644l3.289,22.437l1.095,6.403c0.34,1.887,0.692,3.762,1.078,5.629
		c1.544,7.213,3.206,12.756,5.389,17.97l0.266,0.503c1.51,3.517,3.181,6.701,5.095,9.716c3.582,5.797,8.215,11.232,13.77,16.156
		c4.81,4.264,10.164,8.074,16.371,11.647c4.488,2.584,9.3,5.013,14.804,7.466c-6.11-0.013-12.192-0.435-18.113-1.34
		c-1.011-0.154-1.988-0.27-2.914-0.346l-0.147-0.236c-0.249-0.398-0.5-0.797-0.734-1.213c-0.508-0.9-1.768-2.234-4.513-1.062
		l-0.936,0.398l-0.079,1.014c-0.034,0.444-0.09,0.905-0.17,1.423c-0.802,0.193-1.5,0.449-2.086,0.765
		c-1.538,0.823-2.374,2.087-2.235,3.38c0.12,1.111,0.917,1.98,2.201,2.345l0.46,0.129c0.064,0.015,0.128,0.03,0.192,0.044
		l-0.079,0.435c-0.148,0.813-0.241,1.55-0.286,2.253l-0.026,0.414l0.123,0.274c-0.003,0.049-0.005,0.096-0.006,0.141
		c-0.038,1.484,0.174,2.882,0.65,4.274l0.048,0.123c0.154,0.356,0.322,0.709,0.491,1.061l0.076,0.16l-0.047,0.028
		c0.953,2.02,2.083,4.063,3.45,6.236l0.314,0.501c0.373,0.582,0.758,1.159,1.151,1.734l0.096,0.141
		c0.166,0.244,0.333,0.487,0.504,0.731c0.314,0.445,0.637,0.887,0.961,1.325c0.29,0.393,0.579,0.784,0.878,1.174
		c0.215,0.281,0.435,0.558,0.655,0.836l0.099,0.125c0.388,0.492,0.778,0.982,1.18,1.468l0.463,0.551
		c1.096,1.305,2.104,2.456,3.083,3.516c0.092,0.1,0.188,0.197,0.284,0.294l0.221,0.227c5.313,5.697,11.059,10.694,16.987,15.749
		l2.648,2.203c1.198,0.925,2.515,1.883,4.028,2.93l0.597,0.407c0.651,0.441,1.305,0.879,1.974,1.302l0.43,0.263
		c1.143,0.714,2.361,1.421,3.621,2.101l0.23,0.124c0.338,0.183,0.677,0.366,1.02,0.54l0.274,0.147
		c0.149,0.082,0.299,0.164,0.45,0.239c4.642,2.298,9.772,3.929,14.801,4.712c1.223,0.217,2.374,0.349,3.486,0.477l0.189,0.022
		l-3.338,2.27c-2.298,1.58-4.581,3.225-6.788,4.815l-0.783,0.564c-4.901,3.525-9.968,7.171-15.527,10.44
		c-0.668,0.333-1.391,0.664-2.199,1.006c-0.23,0.096-0.459,0.186-0.697,0.28c-0.414,0.167-0.827,0.319-1.23,0.465
		c-3.566,1.269-7.04,1.962-11.157,2.613l-0.272,0.065c-1.129,0.171-2.273,0.335-3.442,0.502l-1.026,0.147
		c-4.803,0.615-9.363,1.429-13.266,2.145c-1.299,0.244-2.591,0.496-3.883,0.748c-2.866,0.56-5.83,1.138-8.786,1.603
		c-6.907,1.155-12.631,1.573-17.973,1.306c-0.811-0.422-1.623-0.864-2.476-1.327l-4.899-2.785c-3.538-2.036-5.333-0.383-5.923,0.16
		l-1.244,1.146l1.158,1.234c0.189,0.201,0.377,0.405,0.564,0.612c-2.3,0.699-3.816,2.389-4.257,3.819
		c-0.471,1.524,0.243,2.601,1.168,3.001l0.004,0.002c0.009,0.004,0.019,0.008,0.028,0.012l0.362,0.137
		c3.221,0.995,6.539,1.826,10.112,2.531l1.79,2.081c0.949,1.103,1.788,2.014,2.64,2.868l0.568,0.396l0.174,0.116
		c0.17,0.17,0.34,0.341,0.521,0.514c0.919,0.875,1.852,1.687,2.874,2.502c0.933,0.717,1.987,1.422,3.571,2.382
		c0.721,0.406,1.46,0.795,2.199,1.183l0.329,0.174l-0.022,0.046c0.523,0.281,1.058,0.549,1.594,0.817l1.916,0.971
		c1.411,0.71,2.911,1.432,4.458,2.149l0.116,0.053c0.428,0.198,0.855,0.396,1.288,0.592c1.389,0.627,2.793,1.233,4.212,1.827
		l0.368,0.154c0.479,0.201,0.958,0.401,1.441,0.597c1.296,0.524,2.605,1.031,3.921,1.526l0.239,0.092
		c0.663,0.251,1.324,0.501,1.992,0.743c1.194,0.433,2.398,0.848,3.607,1.259l0.395,0.134c0.75,0.255,1.5,0.51,2.257,0.754
		c1.093,0.354,2.194,0.691,3.296,1.025l0.249,0.076c0.924,0.282,1.846,0.563,2.779,0.832c0.902,0.258,1.809,0.503,2.717,0.749
		l0.692,0.188c0.984,0.266,1.967,0.532,2.959,0.784c0.774,0.195,1.552,0.38,2.33,0.564l1.547,0.373
		c0.547,0.135,1.093,0.271,1.644,0.395l1.483,0.324c0.357,0.078,0.716,0.148,1.074,0.221l0.841,0.17
		c1.343,0.283,2.685,0.564,4.034,0.823c0.447,0.085,0.895,0.165,1.342,0.243l0.698,0.124c1.492,0.272,2.983,0.542,4.48,0.786
		l1.439,0.221c1.704,0.267,3.409,0.527,5.118,0.762l0.436,0.055c9.984,1.348,20.525,2.197,31.361,2.523l7.339,0.087
		c15.174-0.057,30.386-1.363,45.206-3.879c8.161-1.342,15.439-2.893,22.243-4.74l1.653-0.474c1.521-0.424,3.04-0.862,4.552-1.331
		c0.372-0.115,0.742-0.237,1.113-0.359l0.61-0.2c1.284-0.414,2.566-0.831,3.839-1.277c0.354-0.123,0.704-0.253,1.055-0.384
		l0.612-0.225c1.282-0.465,2.56-0.937,3.827-1.435c0.401-0.158,0.798-0.323,1.194-0.487l1.476-0.603
		c0.617-0.248,1.234-0.496,1.848-0.761l1.503-0.679c11.719-5.198,23.426-11.747,37.969-21.241l0.432-0.297l0.002,0.003
		c1.079-0.719,2.143-1.461,3.205-2.203l1.485-1.032c0.49-0.34,0.983-0.675,1.476-1.012c0.905-0.617,1.811-1.235,2.703-1.872
		c1.227-0.876,2.436-1.777,3.644-2.679l1.351-1.006c0.478-0.355,0.961-0.706,1.442-1.058c0.841-0.614,1.681-1.227,2.521-1.869
		c2.667-2.076,5.241-4.118,7.651-6.071l0.523-0.421c0.241-0.194,0.484-0.388,0.718-0.581c2.697-2.206,5.308-4.428,7.761-6.603
		l0.645-0.562c0.193-0.176,0.382-0.354,0.572-0.532l0.418-0.39c0.989-0.906,1.972-1.817,2.936-2.735l0.492-0.474
		c1.195-1.147,2.374-2.305,3.536-3.476l0.258-0.261c1.185-1.198,2.351-2.407,3.49-3.62l0.348-0.369
		c1.033-1.104,2.049-2.218,3.053-3.34l0.717-0.796c0.57-0.645,1.129-1.295,1.689-1.947l0.146-0.17
		c12.762-14.771,23.999-31.949,34.336-52.482c0.906-1.704,1.796-3.363,2.674-4.995c5.281-9.79,10.269-19.036,14.939-29.373
		l0.082-0.216c1.68-3.707,3.112-7.134,4.369-10.46c3.907-10.008,6.772-20.58,8.512-31.419c0.325-2.011,0.581-4.043,0.828-6.008
		l0.236-1.857c0.224-1.93,0.371-3.879,0.515-5.763l0.164-2.113c0.272-4.599,0.397-9.802,0.373-15.448
		c0.026-4.303,0.146-9.265,1.234-13.69c0.54-2.205,1.276-4.115,2.253-5.849c0.89-1.603,2.166-3.319,4.019-5.398
		c0.914-1.027,1.885-2.048,2.877-3.091c0.804-0.846,1.621-1.705,2.436-2.596c1.202-1.321,2.426-2.799,3.742-4.516l0.45-0.584
		c0.364-0.469,0.726-0.939,1.067-1.423c3.244-4.593,5.903-9.636,7.907-15.002c0.086-0.236,0.154-0.458,0.222-0.681l0.531-0.668
		c0.897-1.168,1.915-2.491,3.114-3.701l0.166-0.155c0.293-0.288,0.59-0.574,0.896-0.835c0.423-0.351,0.676-0.849,0.713-1.401
		C499.023,174.259,498.288,173.366,497.53,172.543z M474.195,140.398l-0.021,0.073c-0.029,0.081-0.05,0.16-0.067,0.234l-0.079,0.274
		l0.025,0.305c0.015,0.186,0.026,0.371,0.034,0.556l-0.521-0.034c-0.341-0.022-0.693-0.043-1.052-0.056L474.195,140.398z
		 M450.212,187.774C450.212,187.774,450.212,187.774,450.212,187.774l-1.474,0.806c-0.014-0.032-0.028-0.071-0.04-0.116
		L450.212,187.774z M450.029,191.6l-0.016-0.014l0.019,0.003C450.031,191.593,450.03,191.596,450.029,191.6z M465.6,193.935
		L465.6,193.935L465.6,193.935L465.6,193.935z M140.813,130.449c0.01,0,0.02,0,0.03,0l-0.093,0.001
		C140.77,130.449,140.792,130.449,140.813,130.449z"/>
</g>
</svg>
