<?xml version="1.0" encoding="utf-8"?>
<!-- Generator: Adobe Illustrator 21.1.0, SVG Export Plug-In . SVG Version: 6.00 Build 0)  -->
<svg version="1.1" xmlns="http://www.w3.org/2000/svg" xmlns:xlink="http://www.w3.org/1999/xlink" x="0px" y="0px"
	 viewBox="0 0 595.3 841.9" style="enable-background:new 0 0 595.3 841.9;" xml:space="preserve">
<style type="text/css">
	.st0{fill:#231F20;}
</style>
<g id="Calque_2">
	<path class="st0" d="M550.3,399.8c0-0.5,0-1,0-1.5c0-1.8,0-3.5-0.1-5.3c0-0.8,0-1.7-0.1-2.5c0-0.8-0.1-1.6-0.1-2.4
		c-0.1-1.8-0.2-3.6-0.3-5.4c0-0.2,0-0.4,0-0.6c-0.8-12-2.6-23.9-5.3-35.4c-4.5-19.5-11.4-38.2-20.4-55.8c-1-2.2-2.3-4.4-3.5-6.5
		c-1.2-2.2-2.4-4.3-3.6-6.5c-1.3-2.1-2.6-4.2-3.9-6.3c-1.3-2.1-2.6-4.2-4-6.2c-2.8-4.1-5.6-8.2-8.7-12.1c-1.5-2-3-4-4.6-5.9
		c-1.6-1.9-3.2-3.8-4.8-5.7l-2.4-2.9c-0.8-1-1.7-1.8-2.5-2.8c-1.7-1.8-3.4-3.7-5.1-5.5l-1.3-1.4l-1.3-1.3l-2.7-2.6
		c-1.8-1.7-3.6-3.5-5.4-5.2c-1.9-1.7-3.8-3.4-5.7-5l-2.8-2.5l-3-2.4c-2-1.6-4-3.2-6-4.8c-2-1.6-4.1-3-6.2-4.6
		c-4.8-3.8-9.8-7.1-14.5-10.5c-2.3-1.5-4.6-3-6.8-4.4c-0.2-0.1-0.3-0.2-0.5-0.3c-1.2-0.8-2.4-1.6-3.6-2.3c-1.2-0.7-2.4-1.4-3.7-2.2
		c0,0,0,0,0,0c-1.5-0.9-3-1.8-4.5-2.7c-0.9-0.5-1.8-1.1-2.7-1.6c-0.7-0.4-1.4-0.8-2.2-1.2c-2-1.1-4-2.2-6.1-3.3
		c-0.4-0.2-0.7-0.4-1.1-0.6c-0.6-0.3-1.1-0.6-1.7-0.9c-0.6-0.3-1.2-0.6-1.7-0.8c-2.8-1.4-5.6-2.8-8.5-4.1c-0.3-0.1-0.6-0.3-0.9-0.4
		c-0.4-0.2-0.9-0.4-1.3-0.6c-10.6-4.9-21.5-9.1-33-12.7l-0.6-0.2c-9.5-3-19.5-5.2-29.9-7.2c-3.7-0.6-7.5-1.2-11.2-1.7
		c-3.7-0.4-7.5-0.7-11.2-1.1c-1.9-0.2-3.7-0.2-5.6-0.3c-1.9-0.1-3.7-0.1-5.6-0.2c-3.7-0.2-7.4,0-11.1,0c-14.8,0.4-29.3,2.1-43.4,5.2
		c-14.1,3.1-27.8,7.5-40.9,13.1c-3.3,1.4-6.6,2.7-9.7,4.3l-4.8,2.3c-1.6,0.8-3.2,1.5-4.7,2.4l-9.3,5.1l-9,5.6
		c-11.8,7.7-23,16.3-33.4,25.8l-3.9,3.6c-1.3,1.2-2.6,2.4-3.8,3.7c-2.4,2.5-4.9,5.1-7.4,7.6c-2.3,2.7-4.7,5.3-7,8
		c-1.2,1.3-2.3,2.7-3.4,4.1c-1.1,1.4-2.2,2.8-3.3,4.2c-8.7,11.2-16.6,23.2-23.5,35.9c-1.7,3.2-3.4,6.4-5,9.6
		c-1.5,3.3-3.1,6.6-4.6,9.9c-1.4,3.4-2.8,6.8-4.2,10.2c-0.7,1.7-1.3,3.4-2,5.2c-0.6,1.7-1.2,3.5-1.9,5.2c-1.4,3.7-2.2,7.2-2.9,10.3
		c-0.7,3.1-1.1,5.8-1.2,8.3c-0.3,4.9,0.1,8.3,0.9,10.5c0.3,0.9,0.6,1.6,1,2.1c-1.3,2.6-2.6,5.1-3.9,7.5c-0.1,0.4-0.2,0.9-0.3,1.3
		c-0.7,1.2-1.3,2.5-1.9,3.7c-0.5,1-1,2-1.5,3c0.1-0.4,0.2-0.9,0.2-1.3c-0.2,0.3-0.3,0.7-0.5,1c-1.2,2.4-2.5,4.8-3.6,7.1
		c-0.1,0.4-0.1,0.9-0.2,1.3c-1.3,2.8-2.6,5.5-3.9,8.3l-0.9,1.9c-0.3,0.7-0.5,1.3-0.8,2c0,0.1-0.1,0.2-0.1,0.3c0-0.4,0-0.8,0.1-1.2
		c-1.1,3-2.2,6.1-3.2,9.4c-0.1,0.6-0.1,1.1-0.2,1.7c0,0.1-0.1,0.2-0.1,0.3c-0.2,0.7-0.4,1.5-0.6,2.2c-0.7,3-1.4,6.1-1.9,9.5
		c-0.5,3.4-0.8,7.1-1,11c-0.1,2.8,0,5.6,0.1,8.5c0,0.1,0,0.1,0,0.2c0-0.3-0.1-0.6-0.1-0.9c0.1,2.7,0.1,5.5,0.3,8.3
		c0.2,2.8,0.5,5.5,0.7,8.3c0.1,1.4,0.3,2.8,0.4,4.2c0.2,1.4,0.4,2.8,0.6,4.2c0.4,2.8,0.8,5.6,1.3,8.4c0.6,2.8,1.1,5.6,1.7,8.4
		c0.3,1.4,0.6,2.8,0.9,4.2c0.4,1.4,0.7,2.8,1.1,4.2c0.6,2.1,1.1,4.2,1.7,6.3c0,0.1,0,0.2,0.1,0.2c0.2,0.6,0.3,1.2,0.5,1.8
		c0.9,2.7,1.8,5.5,2.7,8.2c0.3,0.8,0.5,1.6,0.8,2.4c0,0.1,0.1,0.2,0.1,0.2c0,0.1,0.1,0.2,0.1,0.3c0.1,0.4,0.3,0.8,0.4,1.2l0.9,2.3
		c0.6,1.5,1.2,3,1.8,4.6l0.2,0.5c0.3,0.7,0.5,1.3,0.8,2l0.7,1.7l1.8,4.1c1.2,2.7,2.4,5.5,3.7,8.2c1.4,2.7,2.7,5.4,4.1,8.1l1,2
		c0.4,0.7,0.7,1.3,1.1,2l2.3,3.9c1,1.7,2,3.4,3,5.1c0.3,0.5,0.6,1,0.9,1.4c1.9,3,3.8,5.9,5.7,8.9c1.7,2.5,3.5,5,5.3,7.4
		c0.9,1.2,1.8,2.5,2.7,3.7l2.9,3.6l2.9,3.6c1,1.2,1.9,2.4,2.9,3.5l6.1,6.8c1,1.2,2.1,2.2,3.1,3.3l3.2,3.3l3.2,3.3
		c1.1,1.1,2.2,2.1,3.3,3.1c2.2,2.1,4.5,4.1,6.7,6.2c2.3,2,4.7,3.9,7,5.9c0.4,0.3,0.9,0.7,1.3,1c0.1,0.1,0.2,0.1,0.3,0.2
		c0.8,0.7,1.6,1.3,2.4,1.9c2.5,2,5.1,4,7.7,5.9l0.3,0.2c0.3,0.2,0.5,0.4,0.8,0.6c5.4,3.9,11,7.7,16.7,11.1l3.8,2.4
		c1.3,0.8,2.6,1.5,3.9,2.2c2.6,1.4,5.2,2.9,7.8,4.3c2.6,1.4,5.3,2.6,8,4l4,2c1.4,0.6,2.7,1.2,4,1.8c1.6,0.7,3.1,1.4,4.7,2l2.3,1
		l1.2,0.5l1.2,0.5c3.1,1.2,6.3,2.4,9.4,3.6l1.8,0.7l1.9,0.6l1.7,0.5c2.2,0.7,4.3,1.4,6.5,2.1c1,0.3,2,0.6,3,0.9l2.1,0.5
		c2.5,0.7,5,1.4,7.5,2c1.8,0.5,3.7,1,5.6,1.3l2.2,0.5c0.8,0.2,1.6,0.3,2.4,0.5l3.1,0.7c1.3,0.2,2.5,0.6,3.8,0.8l3.8,0.6l7.7,1.2
		c2.6,0.4,5.2,0.6,7.7,0.9l3.9,0.4c1.3,0.1,2.6,0.3,3.9,0.3l3.1,0.2c0.7,0,1.4,0.1,2.1,0.1l2.6,0.1l3.9,0.2l3.9,0l7.8,0.1
		c2.6,0,5.2-0.2,7.8-0.3l3.9-0.2c1.3,0,2.6-0.1,3.9-0.2l7.7-0.7c1.3-0.1,2.6-0.2,3.9-0.4l3.8-0.5c2.6-0.3,5.2-0.7,7.8-1.1
		c0.4-0.1,0.9-0.1,1.3-0.2l1.1-0.2c3.1-0.5,6.1-1.1,9.1-1.7l1.4-0.3l1.5-0.4c3.1-0.7,6.1-1.4,9.1-2.2l0.9-0.2
		c0.4-0.1,0.8-0.2,1.2-0.3c3.2-0.9,6.4-1.8,9.6-2.8c1.4-0.4,2.7-0.8,4-1.3c2.5-0.8,5.1-1.7,7.6-2.6l0.3-0.1l1.9-0.6l1.8-0.7l0.5-0.2
		c2.1-0.8,4.1-1.6,6.2-2.4c2.9-1.2,5.8-2.4,8.6-3.7c4.9-2.2,9.8-4.6,14.6-7.1c0.8-0.4,1.7-0.8,2.5-1.3c0.9-0.5,1.8-1,2.8-1.5
		c5.3-2.9,10.5-6,15.6-9.3c1.3-0.9,2.7-1.7,4-2.6c0.4-0.3,0.9-0.6,1.3-0.9c4.2-3,8.5-5.8,12.5-9c2-1.6,4.1-3.1,6.1-4.7l5.9-5
		l2.9-2.5l2.8-2.6l5.6-5.3c1.9-1.8,3.6-3.7,5.4-5.5l2.7-2.8l1.3-1.4c0.4-0.5,0.9-1,1.3-1.4c13.8-15.2,25.9-31.9,35.9-49.7
		c2.6-4.8,5.1-9.7,7.4-14.6c0.1-0.1,0.1-0.3,0.2-0.4c1-2.1,1.9-4.2,2.9-6.3c0.3-0.6,0.5-1.2,0.8-1.8c0.7-1.7,1.4-3.4,2.1-5
		c0.5-1.2,0.9-2.4,1.4-3.6c0.4-1.1,0.9-2.2,1.3-3.4c0.7-2,1.4-3.9,2.1-5.9c0.1-0.4,0.3-0.8,0.4-1.2c1.7-4.8,3.2-9.7,4.6-14.6
		c0-0.1,0-0.2,0.1-0.2l1-3.4c0.3-1.2,0.6-2.3,0.9-3.5c0.6-2.6,1.3-5.1,1.8-7.7c0.4-1.4,0.7-2.9,0.9-4.3c0.7-3.4,1.3-6.7,1.9-10.1
		l0.1-0.6l0.1-0.8c0.6-3.9,1.2-7.8,1.6-11.7l0.1-0.8l0-0.6c0.4-3.5,0.7-7.1,0.9-10.6c0.1-0.7,0.1-1.5,0.2-2.2l0.1-2.1
		c0-0.1,0-0.3,0-0.4c0-0.3,0-0.5,0-0.8l0-0.6c0-1.2,0.1-2.4,0.1-3.6C550.3,402.2,550.3,401,550.3,399.8z M143.1,208.3
		c1.3-1,2.5-1.9,3.8-2.8c0.2-0.1,0.4-0.3,0.6-0.4c4.8-3.4,9.7-6.7,14.7-9.7c7.4-4.4,15-8.5,22.7-12.2c0.4-0.2,0.8-0.4,1.2-0.5
		l6.1-2.7c1.7-0.7,3.3-1.4,5-2.1c0,0,0.1,0,0.1,0l4.1-1.6l1.2-0.5c2.3-0.8,4.6-1.7,6.9-2.4l0.2-0.1l3.7-1.2
		c17.3-5.6,35.3-9.2,53.4-10.7c32.6-2.8,65.7,1.2,96.8,11.4c-0.1,0-0.1,0-0.2-0.1l1.6,0.5c2.8,0.9,5.6,1.8,8.3,2.9l8.2,3.2l8.1,3.6
		c10.6,5,21.1,10.5,31,17c9.9,6.5,19.5,13.4,28.3,21.3c1.1,1,2.3,1.9,3.3,2.9l3.2,3.1c2.1,2.1,4.4,4,6.4,6.2l3.6,3.7
		c0,0,0,0.1,0.1,0.1c7.1,7.4,13.7,15.3,19.8,23.6c0.3,0.5,0.7,0.9,1,1.4c1.9,2.6,3.8,5.3,5.6,8c0.7,1.1,1.4,2.2,2.1,3.2
		c0.7,1,1.4,2.1,2,3.1c0.7,1.2,1.4,2.4,2.2,3.6l0.2,0.4c4.2,7.2,8.1,14.5,11.6,22c0.3,0.6,0.6,1.2,0.9,1.9c0.5,1,0.9,2,1.4,3
		c0.5,1.2,1,2.4,1.5,3.6l0.4,0.9c3,7.4,5.6,14.9,7.9,22.5c0.3,1,0.6,2,0.9,3c0.2,0.9,0.5,1.7,0.7,2.6c0.7,2.8,1.4,5.6,2,8.4
		c0.3,1.4,0.7,2.8,1,4.2l0.8,4.2l0.8,4.2c0.3,1.4,0.5,2.8,0.7,4.2c0.4,2.8,0.8,5.6,1.1,8.5c0.2,1.4,0.3,2.8,0.4,4.2l0.3,3.8
		c0.3,3.2,0.5,6.5,0.6,9.7c0,1,0.1,2.1,0.1,3.1c0.1,3.3,0.1,6.7,0,10c0,0.9,0,1.7,0,2.6c0,1.6-0.1,3.2-0.2,4.8
		c-0.1,1.4-0.2,2.8-0.2,4.2c0,0,0,0.1,0,0.1c-1.5,22.2-6.1,44-13.6,64.6c-0.5,1.5-1.1,2.9-1.6,4.4c-12.8,33.2-33.1,63.1-58.7,86.8
		c-15.9,14.7-33.7,27.1-52.7,36.9c-0.5,0.2-1,0.5-1.5,0.7c-1.1,0.6-2.3,1.1-3.4,1.7c-0.8,0.4-1.7,0.8-2.5,1.2
		c-0.7,0.3-1.5,0.7-2.2,1c-3.7,1.7-7.4,3.3-11.1,4.7c-0.7,0.3-1.4,0.5-2,0.8c-0.9,0.4-1.8,0.7-2.8,1c-1.2,0.5-2.4,0.9-3.7,1.3
		c-0.4,0.2-0.9,0.3-1.3,0.5c-1.9,0.7-3.8,1.3-5.7,1.9c-2,0.6-4.1,1.2-6.1,1.8l-3.1,0.9c-1,0.3-2.1,0.5-3.1,0.8
		c-2.3,0.6-4.6,1.1-6.9,1.7c-1.6,0.4-3.3,0.7-5,1.1c-1.4,0.3-2.7,0.5-4.1,0.8c-2.6,0.5-5.2,0.9-7.8,1.3c-1,0.1-2,0.3-3,0.4
		c-0.3,0-0.5,0.1-0.8,0.1c-2.6,0.4-5.1,0.7-7.7,1c-0.2,0-0.4,0-0.5,0.1l-3.8,0.4c-1.7,0.2-3.4,0.3-5,0.4l-0.3,0
		c-2.4,0.1-4.7,0.3-7.1,0.4c-1.4,0.1-2.7,0.1-4.1,0.1c-2.4,0-4.8,0-7.3,0l-1.4,0c-0.9,0-1.8,0-2.7-0.1c-0.2,0-0.4,0-0.5,0l-4.6-0.2
		c-8.9-0.4-17.8-1.2-26.7-2.6c-0.5-0.1-1-0.1-1.5-0.2c-2.9-0.5-5.8-1-8.7-1.6c-3.1-0.5-6.1-1.3-9.1-2c-3-0.7-6.1-1.4-9-2.3
		c-3-0.9-6-1.7-9-2.6l-8.8-3c-11.7-4.3-23.1-9.4-34-15.2c-10.9-6-21.3-12.8-31.1-20.3c-9.9-7.4-19-15.8-27.5-24.6
		c-8.5-8.8-16.4-18.2-23.3-28.1c-17.7-24.1-31.6-51.8-39.3-82.3c-0.5-1.9-0.9-3.8-1.4-5.8c-0.1-0.6-0.2-1.2-0.3-1.8
		c-6.3-28.7-6.9-59.7,0-90.5c0.8-3.5,0.8-5.7,0.3-7.1c0.6-0.4,1.1-1.3,1.5-2.5c0-0.2,0.1-0.4,0.2-0.6c0.1-0.2,0.1-0.4,0.2-0.6
		c1.4-6,3.1-12,5-17.8c0-0.1,0.1-0.2,0.1-0.3c8.3-25.6,21.1-49.6,37.6-70.7c12.5-16,27-30.3,43.1-42.6
		C142.1,209,142.6,208.6,143.1,208.3z"/>
</g>
<g id="Calque_3">
	<path class="st0" d="M467.4,286.9c-0.4-0.1-0.9-0.3-1.3-0.4c0,0,0,0-0.1,0.1c-0.3-0.1-0.7-0.3-1-0.4l0.1,0L465,286
		c-0.3-0.1-0.6-0.3-0.9-0.4c-0.1-0.4-0.3-0.7-0.4-0.9c-0.9-1.5-2-1.5-2.3-0.4c-0.2-0.1-0.3-0.2-0.5-0.2c0,0-0.1,0-0.1,0
		c-0.1,0-0.2-0.1-0.3-0.1c-0.6-0.3-1.2-0.4-1.7-0.4c-0.2,0-0.3,0.1-0.5,0.1c0,0,0,0,0,0c-0.1,0-0.2,0.1-0.3,0.1
		c-0.4,0.1-0.7,0.2-1,0.3c-0.2,0.1-0.4,0.1-0.6,0.2c-0.3,0.1-0.7,0.3-1,0.5c-0.1,0.1-0.3,0.1-0.4,0.2c-0.8,0.4-1.6,1-2.3,1.5
		c-0.4,0.3-0.9,0.7-1.3,1l-0.7,0.5c-0.2,0.1-0.1,0.1-0.1,0.2l0,0.1c-0.1,0.1-0.2,0.3-0.2,0.4c-0.1,0.1-0.1,0.2-0.2,0.3
		c-0.1,0.1-0.1,0.1-0.2,0.1c-0.7,0.8-2.4,1.7-3.7,1.9c-0.3,0.1-0.6,0.1-0.9,0c-0.2-0.1-0.6,0,0-0.4c0.2-0.1,0.4-0.3,0.6-0.4
		c0.2-0.2,0.4-0.3,0.7-0.5c0,0,0.1-0.1,0.1-0.1c0.4-0.3,0.8-0.5,1.2-0.8l0,0c0,0,0,0,0,0l0,0c0,0,0.1-0.1,0.1-0.1c0,0,0,0,0,0
		c0.3-0.3-0.2-0.2-0.6-0.4c-0.5-0.3-0.9-1-0.8-2.5c0-0.1,0.1-0.2,0.1-0.3c0.1-0.1,0.1-0.2,0.2-0.4c0-0.1,0.1-0.1,0.1-0.2
		c0.1-0.1,0.2-0.3,0.3-0.4c0.3-0.4,0.6-0.7,0.9-1.1c0.7-0.7,1.5-1.4,2.3-2.2l0,0c0.4-0.4,0.9-0.9,1.3-1.3c2.6-2.7,3.2-6.2,3.1-9.6
		c-0.1-2.4-0.5-4.8-0.9-7.2c0.3-0.2,0.5-0.4,0.8-0.7c0.9-0.8,0.3-1.7,0-2.2c-0.4,0.1-0.8,0.1-1.2,0.1c0-0.1,0-0.3,0-0.4
		c-0.2-1.9-4.7-2.5-4.8-2.1c0,0,0,0,0,0c0,0,0,0,0,0c0,0.3,0,0.6,0,0.9c0,0.2,0,0.4,0,0.6c0,0.2,0,0.4,0,0.6c0,0.1,0,0.1,0,0.2
		c-0.8-0.1-1.5-0.1-2.2-0.2c0,0,0.1-0.1,0.1-0.1c-0.6,0-1.2-0.1-1.8-0.1l-0.2,0.1c-0.1,0-0.3,0-0.4,0c-1.1,0.1-2.1,0.3-3.2,0.7
		c-0.4,0.2-0.8,0.4-1.2,0.6c0.1-0.1,0.1-0.1,0.2-0.2c-2.4,1.2-4.8,2.5-7.1,3.9c-0.2,0.1-0.4,0.2-0.6,0.4c-0.7,0.4-1.5,0.9-2.2,1.3
		c-2,1.2-4,2.4-6.1,3.6c-6.2,3.7-8.7,5-13.3,2.6c-0.6-0.3-1.3-0.7-1.9-1.2c-2-1.4-4.1-3.2-6.3-5.2c-2.1-2-4.4-4.2-6.9-6.3
		c-1.9-1.7-4.1-3.3-6.6-4.7c-0.1,0-0.1-0.1-0.2-0.1c-0.6-0.4-1.3-0.7-1.9-1c-0.1-0.1-0.3-0.1-0.4-0.2c0,0,0,0,0,0
		c-0.1,0-0.1-0.1-0.2-0.1c-0.7-0.3-1.4-0.6-2.1-0.9c-0.3-0.1-0.6-0.2-0.9-0.3c-0.5-0.2-1.1-0.4-1.6-0.5c-0.3-0.1-0.5-0.1-0.8-0.2
		c-0.6-0.2-1.2-0.3-1.9-0.5c-0.1,0-0.3-0.1-0.4-0.1c-0.5-0.1-1.1-0.2-1.6-0.3c-0.2,0-0.3,0-0.5-0.1c0,0-0.1,0-0.1,0c0,0,0,0,0,0
		c-6.4-1-12.6-0.9-18.7-0.5c-1.6,0.1-3.2,0.3-4.8,0.6c-4.6,0.7-9.2,1.6-13.7,3c-0.1,0-0.1,0-0.2,0.1c0,0,0,0,0,0c0,0-0.1,0-0.1,0
		c-0.7,0.2-1.4,0.5-2.1,0.7c0,0,0,0,0,0c-0.7,0.3-1.4,0.5-2,0.8c-0.1,0-0.2,0.1-0.3,0.1c-0.5,0.2-1,0.4-1.5,0.7
		c-0.3,0.1-0.6,0.3-0.9,0.4c-0.2,0.1-0.4,0.2-0.6,0.3c-3.2,1.6-6.1,3.5-8.9,5.6c-4.9,3.7-9.3,8.2-13.3,13.1
		c-1.1,1.2-2.2,2.3-3.3,3.5c-2.7,2.8-5.4,5.3-8,8.3l-0.1,0.2c-1,1.2-2,2.4-2.9,3.7c-2.9,3.8-4.9,7.9-6.4,12.1
		c-1.4,4.2-2.2,8.6-2.6,13c-0.3,4.4-0.2,8.8,0.1,13.2c0.4,4.4,1.1,8.8,2,13.3c1.1,4.8,5.7,4.6,5.6,3.4c0,0,0-0.1,0-0.1
		c0,0,0,0,0-0.1c-0.3-1.2-0.5-2.3-0.7-3.5c0-0.1,0-0.3-0.1-0.4c-0.2-1.1-0.3-2.1-0.5-3.2c0-0.1,0-0.2,0-0.4
		c-0.1-1.1-0.2-2.3-0.3-3.4c0-0.2,0-0.4,0-0.6c0-1-0.1-2-0.1-3.1c0-0.1,0-0.3,0-0.4c0.1-4.9,0.7-9.8,1.8-14.5
		c0.3-1.2,0.6-2.3,0.9-3.4c0-0.1,0-0.2,0.1-0.2c0.3-1.1,0.7-2.3,1.1-3.4c0-0.1,0.1-0.2,0.1-0.3c0.3-0.9,0.6-1.7,1-2.6
		c0.2-0.5,0.4-1.1,0.6-1.6c0.3-0.7,0.6-1.4,0.9-2c0.1-0.1,0.1-0.3,0.2-0.4c0.5-1,1-2,1.5-3c0.2-0.3,0.3-0.6,0.5-1
		c1.6-3,3.4-5.9,5.3-8.7c0,0,0,0,0,0c0.8-1.1,1.6-2.3,2.5-3.4c3.1-4,6.6-7.6,10.5-11l1.4-1.2c0.3-0.3,0.6-0.5,1-0.8
		c0.9-0.7,1.7-1.4,2.6-2c0.2-0.1,0.4-0.3,0.5-0.4c0.7-0.5,1.4-1,2.1-1.5c0.4-0.3,0.9-0.6,1.3-0.9c0.7-0.5,1.5-0.9,2.2-1.3
		c0.6-0.3,1.1-0.6,1.7-1c0.6-0.3,1.2-0.6,1.8-1c0.5-0.2,0.9-0.5,1.4-0.7c0.9-0.4,1.8-0.8,2.7-1.2c0.5-0.2,0.9-0.4,1.4-0.6
		c0.7-0.3,1.4-0.6,2.1-0.8c0.5-0.2,0.9-0.3,1.4-0.5c0.9-0.3,1.8-0.6,2.7-0.9c0.4-0.1,0.8-0.2,1.2-0.3c1.1-0.3,2.1-0.6,3.2-0.8
		c0.2,0,0.4-0.1,0.7-0.1c1-0.2,2.1-0.4,3.1-0.6c0.2,0,0.5-0.1,0.7-0.1c0.3,0,0.6-0.1,0.9-0.1c0.5-0.1,0.9-0.1,1.4-0.2
		c0.3,0,0.6-0.1,1-0.1c0.4,0,0.8-0.1,1.2-0.1c0.4,0,0.8-0.1,1.2-0.1c0,0,0,0,0,0c3.3-0.2,6.6-0.1,9.8,0.3c1.3,0.1,2.5,0.3,3.7,0.6
		c0,0,0.1,0,0.1,0c3.7,0.8,7.1,2.1,9.8,4c0.5,0.3,0.9,0.6,1.3,1c2.4,2,4.7,4.7,7.2,7.6c2.5,2.9,5.3,6.2,9,9.3c0.5,0.4,1,0.8,1.5,1.1
		c0.5,0.4,1,0.7,1.6,1.1l1.7,1c0.6,0.3,1.3,0.6,1.9,0.9c0.6,0.3,1.3,0.5,2,0.7c0.7,0.2,1.4,0.4,2.1,0.6c1.5,0.2,3,0.5,4.5,0.4
		c1.5,0,3-0.2,4.4-0.5c1.4-0.3,2.7-0.8,3.9-1.3c2.4-1,4.3-2.1,6-3.2c4.3-2.8,8.2-6.1,12.2-9.6c0.3-0.2,0.5-0.5,0.8-0.7
		c0.1,0,0.1-0.1,0.2-0.1c1.3-1.1,2.6-2.3,3.9-3.4c-0.5,1.6-1.1,3.2-1.8,4.7c0,0,0,0.1,0,0.1c-0.7,1.6-1.5,3.2-2.4,4.8c0,0,0,0,0,0
		c-0.2,0.5-0.5,0.9-0.7,1.4c-0.7,1.2-1.1,2-2.4,3.9l-0.8,1.3c-0.1,0.1-0.2,0.2-0.2,0.4c0,0,0,0,0,0c-0.8,1.2-1.8,2.4-2.5,3.5
		l-0.4,0.6l-0.6,0.6l-1.2,1.3l-1.2,1.2l-0.6,0.6l-0.7,0.7c-1.9,1.8-3.8,3.5-6,5.3c0.1,0.1,0.2,0.3,0.2,0.4c0.1,0.2,0.2,0.3,0.1,0.5
		l-0.3,0.9c0,0.1,0,0.1-0.1,0.2c0,0.1-0.1,0.1-0.1,0.2c0,0,0,0.1-0.1,0.1l-0.4,0.5c-0.1,0.1-0.1,0.2-0.2,0.2l0,0.1l0,0
		c-0.1,0.1-0.1,0.1-0.2,0.2l-0.2,0.3c0,0-0.1,0.1-0.1,0.1l0.3,0l0.5,0.1c3,0.4,5.5,0.8,8.2,1.5l0.7,0.2c1.5,0.4,3.4,0.6,5.6,0.5
		c0,0,0.1,0,0.1,0c2-0.1,4.2-0.4,6.6-0.9c0.6-0.2,1.3-0.3,1.9-0.5l2-0.7l2-0.7c0.7-0.3,1.3-0.6,1.9-0.9c0,0,0,0,0,0
		c-1,1.6-2.1,3.1-3.3,4.6c-0.1,0.2-0.3,0.4-0.4,0.5c-0.3,0.4-0.6,0.8-1,1.1c-0.1,0.1-0.1,0.1-0.2,0.2c-1.3,1.4-2.7,2.7-4.2,4.1
		c-1.2,1.1-2.5,2.3-3.7,3.6c-0.1,0.1-0.2,0.2-0.3,0.3c-0.8,0.8-1.5,1.7-2.3,2.6c-0.2,0.2-0.3,0.4-0.4,0.6c-0.2,0.3-0.4,0.5-0.6,0.8
		c-0.2,0.3-0.4,0.6-0.6,1c-0.2,0.3-0.3,0.6-0.5,0.8c-0.3,0.6-0.6,1.2-0.9,1.8c-0.1,0.2-0.2,0.4-0.3,0.6c0,0.1,0,0.1-0.1,0.2
		c-0.2,0.4-0.3,0.8-0.5,1.2c-0.1,0.2-0.1,0.4-0.2,0.5c-0.1,0.3-0.2,0.6-0.3,0.9c-0.1,0.4-0.2,0.8-0.3,1.2c-0.1,0.3-0.2,0.5-0.2,0.8
		c-0.1,0.3-0.2,0.6-0.2,0.9c-0.1,0.3-0.2,0.7-0.2,1c-0.1,0.3-0.1,0.7-0.2,1c0,0.2-0.1,0.5-0.1,0.7c-0.2,1.4-0.4,2.8-0.6,4.1
		c0,0,0,0,0,0.1c0,0,0,0,0,0.1c-0.3,2.6-0.4,5.1-0.6,7.6c-0.1,1.7-0.2,3.3-0.4,5c-0.1,1.5-0.2,2.9-0.4,4.4c-0.1,0.9-0.2,1.9-0.3,2.8
		c0,0.3-0.1,0.6-0.1,1c-0.1,1.1-0.3,2.2-0.4,3.3c-0.4,2.5-0.8,5.1-1.3,7.6c-0.2,0.8-0.3,1.7-0.5,2.5c-0.1,0.5-0.2,1-0.3,1.5
		c-0.3,1.6-0.7,3.3-1.1,4.9c-0.1,0.6-0.3,1.1-0.4,1.7c-0.3,1.3-0.6,2.5-1,3.8c-0.1,0.4-0.2,0.8-0.3,1.2c-0.5,1.7-1,3.5-1.5,5.2
		c0,0.1,0,0.1-0.1,0.2c-0.5,1.6-1,3.3-1.5,4.9c-0.1,0.4-0.2,0.8-0.4,1.1c-0.5,1.4-1,2.8-1.5,4.3c-0.3,0.7-0.5,1.4-0.8,2.1
		c-0.4,1-0.7,1.9-1.1,2.9c-0.5,1.2-0.9,2.4-1.4,3.6c0,0,0,0,0,0c-1.2,2.9-2.4,5.8-3.7,8.7c-4.4,9.5-9.4,18.8-15,27.9c0,0,0,0,0,0
		c-1.5,2.4-3,4.7-4.5,7.1c-0.7,1.1-1.5,2.2-2.2,3.3c-0.2,0.3-0.4,0.5-0.5,0.8c-0.7,1-1.3,1.9-2,2.9c-4.5,6.3-9.3,12.3-14.3,18
		c-0.6,0.7-1.3,1.4-1.9,2.1c-0.5,0.6-1,1.1-1.5,1.7c-0.5,0.6-1.1,1.1-1.6,1.7c-3.7,3.9-7.5,7.7-11.4,11.3c-1.2,1.1-2.4,2.2-3.6,3.3
		c-0.6,0.5-1.2,1-1.8,1.6c-0.7,0.6-1.4,1.2-2.1,1.8c-0.6,0.5-1.2,1-1.8,1.5c-1.1,0.9-2.3,1.9-3.4,2.8c-0.1,0.1-0.3,0.2-0.4,0.3
		c-1.5,1.2-2.9,2.3-4.4,3.4c-1.5,1.1-2.9,2.2-4.4,3.2c-0.2,0.1-0.3,0.2-0.5,0.3c-1,0.7-2.1,1.5-3.1,2.2c-0.8,0.5-1.6,1.1-2.3,1.6
		c-0.3,0.2-0.7,0.4-1,0.7c-7.3,4.8-14.8,9.2-22.4,13c-2.6,1.3-5.2,2.5-7.9,3.7c-0.1,0-0.1,0-0.2,0.1c-1.3,0.5-2.5,1.1-3.8,1.6
		c-0.1,0-0.1,0-0.2,0.1c-1.3,0.5-2.7,1-4,1.5c-2.7,1-5.4,1.8-8.2,2.6c0,0,0,0,0,0c-2.8,0.7-5.6,1.4-8.4,2c-1.4,0.3-2.8,0.6-4.2,0.8
		c-9.5,1.5-19.4,2.7-29.4,3.3c-1.8,0.1-3.7,0.2-5.5,0.3c0,0,0,0,0,0c-5.1,0.2-10.2,0.2-15.3,0.1c-17.1-0.5-34.1-2.4-50.4-5.9
		c-10.1-1.8-20.3-4.3-30.5-7.6c-0.7-0.2-1.4-0.5-2.2-0.7c-0.1,0-0.2-0.1-0.3-0.1c-2.2-0.8-4.4-1.6-6.7-2.4c0.8,0,1.6,0,2.4,0
		c0.2,0,0.5,0,0.7,0c0.2,0,0.4,0,0.6,0c0.4,0,0.8,0,1.3-0.1c0.5,0,1.1-0.1,1.6-0.1c0.5,0,1.1-0.1,1.6-0.1c1-0.1,2.1-0.2,3.1-0.3
		c0.2,0,0.3,0,0.5-0.1c1.1-0.1,2.2-0.3,3.2-0.4c0.1,0,0.3,0,0.4-0.1c0.5-0.1,0.9-0.1,1.4-0.2c2-0.3,4-0.7,5.9-1.1
		c0.2,0,0.3-0.1,0.5-0.1c0.9-0.2,1.8-0.4,2.7-0.6c0.4-0.1,0.8-0.2,1.2-0.3c0.6-0.2,1.3-0.3,1.9-0.5c1.2-0.3,2.4-0.7,3.5-1
		c0.1,0,0.3-0.1,0.4-0.1c0.3-0.1,0.7-0.2,1-0.3c0,0-0.1,0-0.1,0c6-2,11.9-4.5,17.6-7.4c0,0,0,0,0,0c0.3-0.2,0.7-0.4,1-0.5
		c0.5-0.3,1-0.5,1.5-0.8c0.5-0.3,1.1-0.6,1.6-0.9c0.2-0.1,0.3-0.2,0.5-0.3c0.7-0.4,1.5-0.9,2.2-1.3c3.1-1.9,6.2-3.7,9.1-5.6
		c1.5-0.9,3-1.9,4.5-2.8c0.2-0.2,0.5-0.3,0.7-0.4c0,0,0,0,0,0c0.3-0.2,0.6-0.4,0.9-0.6c1.5-0.9,2.9-1.9,4.3-2.8
		c4-2.7,7.9-5.3,11.8-7.9c1.4-0.9,2.7-1.8,4.1-2.8c1.4-0.9,2.7-1.8,4.1-2.7l0.3-0.2l1.6-1.1l0.9-0.6l0.4-0.3c0,0,0.1-0.1,0.1-0.1
		l0,0l0,0c0,0,0,0,0,0l0-0.1c0.1-0.2,0.2-0.4,0.3-0.5c0.1-0.1,0.1-0.2,0.2-0.3l0.3-0.4c-5.2,0.4-11.1,0.8-17.5,1.1
		c-3.2,0.2-6.3,0.2-9.4,0.2c-1.1-0.1-2.3-0.1-3.4-0.2c0,0,0,0,0,0c-0.4,0-0.7-0.1-1.1-0.1l-2.2-0.3l-1.2-0.3
		c-0.6-0.1-1.2-0.3-1.7-0.5c-1.6-0.5-3.1-1.1-4.6-1.7c-0.7-0.3-1.4-0.6-2-1c-0.1-0.1-0.3-0.1-0.4-0.2c-0.6-0.3-1.2-0.7-1.8-1
		c0,0,0,0-0.1,0c-2.8-1.7-5.5-3.9-8.2-6.2c-2.7-2.4-5.4-5-8-7.6c-2.7-2.6-5.3-5.3-7.8-7.9c-3.5-3.4-7.3-6.8-10.7-10.6c0,0,0,0,0-0.1
		c-1.1-1.2-2.2-2.5-3.2-3.8c12,2,24.2,2.3,36,1.2l12.6-1.3l-11.5-5.3c-12.3-5.6-24.4-11.4-35.1-19.1c-0.9-0.6-1.7-1.3-2.6-1.9
		c-1.8-1.4-3.6-2.9-5.4-4.4c-0.1-0.1-0.2-0.2-0.3-0.3c-0.6-0.6-1.2-1.2-1.8-1.7c-0.3-0.3-0.5-0.5-0.8-0.8c-0.7-0.7-1.4-1.4-2-2.1
		c-0.7-0.8-1.5-1.7-2.2-2.5c-0.1-0.1-0.1-0.1-0.2-0.2c-0.6-0.7-1.1-1.4-1.7-2.1c-0.2-0.3-0.4-0.5-0.6-0.8l-0.2-0.2
		c-0.5-0.7-1-1.4-1.5-2.1c-0.3-0.5-0.7-1.1-1-1.7c-0.4-0.6-0.7-1.2-1.1-1.8c-0.5-0.9-1-1.8-1.4-2.7c0,0,0,0,0,0
		c-0.4-0.9-0.9-1.8-1.3-2.7c-0.1-0.2-0.2-0.5-0.3-0.7c-0.9-2-1.6-4.1-2.3-6.2c-1.4-4.5-2.5-9.1-3.3-13.8l-0.4-2.6l-0.3-1.9L120,362
		l-0.1-1l-0.1-0.5c0-0.1-0.1-0.2,0-0.2l0.2,0.1c0.5,0.2,0.9,0.4,1.4,0.6c0,0,0,0,0.1,0c0.2,0.1,0.4,0.2,0.6,0.3c0,0,0.1,0,0.1,0.1
		c1,0.4,2,0.8,3.1,1.2l1.8,0.6l2,0.6c0.4,0.1,0.7,0.2,1.1,0.3c0.4,0.1,0.8,0.2,1.3,0.4c0.5,0.2,1.1,0.3,1.6,0.5
		c4.5,1.2,9,2,13.5,2.6c2.8,1.7,5.9,2.9,9.1,3.7l0,0c0,0,0,0,0,0l0.4-2.9c0.3,0,0.6,0,0.9,0l23.2,0.6l0,0l0.4,0l-20.1-5.3l-2.6-0.7
		c-0.3-0.1-0.6-0.2-0.9-0.3l0.4-2.8c0,0,0,0,0,0l0,0c-2.4,0-4.8-0.1-7.3-0.3c-0.1-0.1-0.2-0.1-0.3-0.2c-0.1-0.1-0.2-0.1-0.3-0.2
		c-1.5-1-2.9-2.2-4.2-3.4c-1.7-1.7-3.3-3.6-4.7-5.6c-0.1-0.1-0.2-0.2-0.2-0.4c-0.2-0.4-0.5-0.7-0.7-1.1c-0.1-0.2-0.2-0.3-0.3-0.5
		c-0.6-0.9-1.1-1.8-1.6-2.7c-0.4-0.7-0.7-1.4-1-2c-0.4-0.8-0.8-1.7-1.1-2.6c-0.1-0.3-0.3-0.6-0.4-0.9c-0.1-0.4-0.3-0.7-0.4-1.1
		c-1.4-3.8-2.4-7.8-3.1-11.9c0-0.1,0-0.3-0.1-0.4c-0.1-0.7-0.2-1.5-0.3-2.2c-0.1-0.8-0.2-1.6-0.3-2.4c0-0.1,0-0.1,0-0.2
		c-0.1-1.2-0.2-2.4-0.2-3.6c0,0,0,0,0-0.1c0-0.8,0-1.7,0-2.5c0-3,0.1-6,0.5-9c0.6-4.4,1.4-8.8,2.7-13.1c0.2-0.5,0.3-1,0.5-1.6
		c0.1-0.2,0.2-0.4,0.2-0.7l0.3-0.9c0.2-0.4,0.3-0.8,0.4-1.2c0.3-0.8,0.6-1.7,1-2.5c0.6-1.3,1.1-2.6,1.7-3.9c0.1-0.1,0.1-0.3,0.2-0.4
		c0.2-0.4,0.4-0.8,0.6-1.1c0.5-1,1-2,1.5-2.9l0.8-1.4l0.2-0.4c0.1-0.1,0.1-0.2,0.2-0.3l0.2-0.3c0.5-0.6,0.9-1.1,1.3-1.4
		c0.2-0.2,0.5-0.4,0.7-0.5l0.4-0.2c0.1,0,0.3-0.3,0.2,0.2c-0.1,0.6-0.1,1.1-0.1,1.5c0,0.4,0.1,0.8,0.1,1.1l0.1,0.3l0,0.1l0,0.1
		l0.2,0.3c0.4,0.6,0.7,1.2,1.1,1.7l0.2,0.3c0.1,0.1,0.1,0.2,0.2,0.3c0.1,0.1,0.2,0.3,0.3,0.4c0.1,0.1,0.2,0.3,0.3,0.4
		c0.1,0.1,0.1,0.2,0.2,0.3c0.1,0.1,0.2,0.3,0.3,0.4c0.5,0.7,1.1,1.4,1.6,2c0.2,0.2,0.4,0.5,0.6,0.7c0.5,0.5,0.9,1.1,1.4,1.6
		c0.3,0.3,0.7,0.7,1,1c0.4,0.4,0.8,0.7,1.1,1.1c0.4,0.4,0.8,0.8,1.3,1.1c0.2,0.1,0.3,0.3,0.5,0.4c0.2,0.2,0.4,0.3,0.6,0.5
		c0.2,0.2,0.5,0.4,0.7,0.6c0,0,0.1,0.1,0.1,0.1c2.6,2.1,5.4,4.1,8.2,5.8c1.6,1,3.2,1.9,4.8,2.9c1.6,1,3.2,1.9,4.8,2.8
		c13,7.3,26.6,13.6,40.2,18.5c10.3,3.5,20.8,6.2,31.7,8.6c0.1,0,0.3,0.1,0.4,0.1c9.5,2.1,19.3,4,29.5,6c2.4,0.5,2.9-0.6,3.2-1.1
		c-1.1-0.6-2-1.2-2.9-1.7c-0.1,0-0.3-0.1-0.4-0.1c-0.7-0.5-1.4-0.9-2-1.4c0.1,0,0.3,0.1,0.4,0.1c-0.1-0.1-0.2-0.1-0.3-0.2
		c-0.7-0.5-1.4-1-2.1-1.5c-0.1,0-0.2-0.1-0.4-0.1c-1.2-0.9-2.4-1.8-3.5-2.7c0.1,0,0.2,0,0.4,0.1c-0.8-0.6-1.7-1.2-2.6-1.8
		c-0.2,0-0.3-0.1-0.5-0.1c-0.2-0.1-0.4-0.3-0.7-0.4c-1.6-1-3.4-1.9-5.6-2.7c-0.9-0.3-1.7-0.6-2.6-0.9c0.2,0,0.3,0.1,0.5,0.1
		c-2.7-0.9-5.5-1.8-8.2-2.8c-4.4-1.5-8.9-3-13.4-4.5c-1.9-0.7-3.8-1.3-5.8-2c-3.1-1.1-6.1-2.2-9.2-3.3c-6.6-2.4-13.2-5-19.6-7.7
		c-3.2-1.3-6.4-2.8-9.5-4.3c-3.1-1.5-6.2-3-9.2-4.6c-1.7-0.9-3.5-1.8-5.1-2.8c-2.8-1.5-5.6-3.1-8.2-4.6c-2.6-1.6-5-3.3-7.2-5.2
		c-2.2-1.9-4.2-3.9-5.8-6.1l-0.6-0.8c-0.2-0.3-0.3-0.4-0.7-1.2l-0.9-2l-0.4-0.9c-0.1-0.2-0.1-0.3-0.1-0.5l0-0.2l0-0.9l0-3.6l0-1.8
		l0.2-2.9l0.5-6l0.5-6.7l-2.9,3.1l-1.2,1.1c-0.5,0.5-0.5,0.4-0.6,0.4l-0.2,0l-0.1,0l-0.4,0.5c-2.3,2.9-4.7,5.9-6.9,8.6l-1.7,2.1
		c-0.3,0.4-0.6,0.7-0.9,1.1l-0.1,0.2l-0.4,0.6c-0.1,0.1-0.1,0.2-0.2,0.3l-3.1,4.8c-0.5,0.8-1,1.6-1.5,2.4l-1.1,2.1
		c-0.3,0.6-0.7,1.3-1,1.9c-0.1,0.3-0.3,0.5-0.4,0.8c-0.1,0.2-0.2,0.3-0.3,0.5c-0.6,1.2-1.1,2.5-1.7,3.7c-0.1,0.2-0.1,0.3-0.2,0.5
		l-0.2,0.4c-0.3,0.7-0.5,1.3-0.8,2c-0.3,0.6-0.5,1.2-0.7,1.8l-0.1,0.2c0,0,0,0.1,0,0.1c-0.5,1.5-1,3.1-1.5,4.6
		c-1.3,4.6-2.4,9.3-2.9,14c-0.4,2.4-0.4,4.8-0.6,7.1l-0.1,3.6l0,1.8l0.1,1.8l0.2,3.6l0.1,1c0.1,1.2,0.2,2.4,0.4,3.6l0.1,0.8l0,0.3
		c0.2,1.7,0.5,3.3,0.9,5c0,0,0,0.1,0,0.1c0,0.1,0.1,0.2,0.1,0.3c0.2,0.9,0.4,1.7,0.6,2.6c0.1,0.4,0.2,0.7,0.3,1.1
		c0.2,0.9,0.5,1.8,0.8,2.8c0.1,0.3,0.2,0.6,0.3,0.9c0.1,0.5,0.3,0.9,0.4,1.4c0.1,0.4,0.3,0.7,0.4,1.1c0.1,0.2,0.1,0.4,0.2,0.6
		c0.4,1.1,0.8,2.1,1.3,3.2c0,0,0,0.1,0.1,0.1c0.4,1,0.9,2,1.4,3c0.1,0.2,0.2,0.3,0.2,0.5c0.5,1,1,2,1.6,3c0.1,0.1,0.2,0.2,0.2,0.4
		c0.5,0.9,1.1,1.8,1.7,2.6c0.1,0.1,0.2,0.3,0.3,0.4c0.5,0.7,0.9,1.3,1.4,2c-1-0.2-1.9-0.4-2.9-0.6c-0.8-0.2-1.6-0.4-2.5-0.7
		c-0.4-0.1-0.8-0.2-1.2-0.4l-0.6-0.2l-1-0.3c-2.7-1-5.3-2-8-3.2c-2.5-1.1-5-2.2-7.6-3.4l-0.1,0.4l0.1,0.9l0.2,1.7
		c0.2,1.1,0.3,2.2,0.5,3.4c0.3,2.2,0.6,4.3,1,6.5c0.2,1.3,0.4,2.6,0.6,3.9c0.2,1.1,0.3,2.2,0.5,3.3c0.1,0.4,0.1,0.8,0.2,1.3
		c0.1,0.4,0.1,0.9,0.2,1.4c0.1,0.6,0.2,1.1,0.3,1.7c0.1,0.3,0.1,0.7,0.2,1c0,0.2,0.1,0.3,0.1,0.5c0.3,1.7,0.6,3.3,1,5
		c1.1,5.3,2.5,10.5,4.7,15.8c0.1,0.1,0.1,0.2,0.2,0.4c1.2,2.9,2.7,5.7,4.5,8.6c3.3,5.4,7.5,10.1,12,14.1c4.5,4,9.4,7.4,14.4,10.2
		c6.3,3.6,12.8,6.6,19.3,9.3c-7.5,0.5-15.3,0.2-23.3-1c-1.2-0.2-2.3-0.3-3.3-0.3c-0.1-0.1-0.2-0.3-0.2-0.4c-0.3-0.5-0.7-1.1-1-1.6
		c-0.6-1-1.6-0.5-2.1-0.3c-0.1,0.7-0.1,1.3-0.2,1.9c0,0.1,0.1,0.1,0.1,0.2c0,0.1,0,0.2-0.1,0.3c-1.1,0.2-2,0.4-2.6,0.7
		c-1.5,0.8-1.6,2-0.4,2.3c0.1,0,0.2,0,0.3,0.1c0,0,0.1,0,0.1,0.1c0.6,0.1,1.2,0.2,1.8,0.4c-0.2,0.7-0.3,1.3-0.4,1.9
		c0-0.1-0.1-0.1-0.1-0.2c-0.1,0.6-0.2,1.2-0.2,1.8l0.1,0.3c0,0.1,0,0.3,0,0.4c0,1.1,0.1,2.2,0.5,3.3c0.2,0.4,0.4,0.8,0.6,1.3
		c0-0.1-0.1-0.1-0.1-0.2c0.9,1.8,1.9,3.7,3,5.4c0.1,0.1,0.2,0.3,0.3,0.4c0.3,0.5,0.7,1,1,1.5c0.2,0.3,0.3,0.5,0.5,0.8
		c0.3,0.4,0.6,0.8,0.8,1.2c0.3,0.3,0.5,0.7,0.8,1c0.2,0.3,0.4,0.6,0.7,0.8c0.3,0.4,0.7,0.9,1,1.3c0.1,0.2,0.3,0.3,0.4,0.5
		c0.9,1,1.8,2.1,2.7,3.1c0.1,0.1,0.3,0.3,0.4,0.4c0,0,0,0,0,0c0,0,0,0,0,0c4.7,5.1,9.9,9.6,15.1,14c0.8,0.7,1.6,1.3,2.3,1.9
		c1.1,0.9,2.3,1.7,3.5,2.6c0.2,0.1,0.3,0.2,0.5,0.4c0.6,0.4,1.1,0.8,1.7,1.1c0.1,0.1,0.3,0.2,0.4,0.2c1,0.6,2.1,1.2,3.2,1.8
		c0.4,0.2,0.7,0.4,1.1,0.6c0.2,0.1,0.4,0.2,0.6,0.3c4,2,8.5,3.4,12.8,4.1c1.1,0.2,2.2,0.3,3.2,0.4l0.3,0l0.1,0l0.2,0l0.4,0
		c0.1,0,0.2,0,0.3,0l0.1,0c0.2,0,0.4,0,0.5,0c0.2,0,0.5,0,0.7,0c1.1,0,2.2-0.1,3-0.2l0.6,0l-0.7,0.5c0,0-0.1,0.1-0.1,0.1
		c-0.4,0.2-0.8,0.5-1.2,0.7c-0.7,0.4-1.3,0.7-1.9,0.9c0,0-0.1,0-0.1,0.1c-0.3,0.1-0.6,0.2-0.8,0.3c0,0,0,0,0,0c0,0,0,0,0,0
		c-0.2,0.1-0.4,0.2-0.6,0.3c-1,0.7-2,1.4-3,2.1c-2.3,1.6-4.5,3.2-6.7,4.8c-4.5,3.2-9,6.5-14,9.4c-0.7,0.4-1.4,0.7-2.1,1
		c-0.2,0.1-0.4,0.2-0.6,0.3c-0.4,0.2-0.8,0.3-1.2,0.4c-3.4,1.2-6.8,1.9-10.2,2.4l-0.1,0c-1.4,0.2-2.8,0.4-4.2,0.6
		c-4.1,0.5-8,1.2-11.8,1.9c-3.8,0.7-7.5,1.5-11.4,2.1c-5.3,0.9-10.9,1.5-16.7,1.2c0,0,0,0,0,0c-0.8-0.4-1.7-0.9-2.5-1.4
		c-0.1-0.1-0.2-0.1-0.3-0.2c-1.2-0.7-2.4-1.4-3.7-2.1c-0.1-0.1-0.3-0.2-0.4-0.2c-2.2-1.3-3.1-0.5-3.5-0.1c0.9,0.9,1.6,1.8,2.3,2.7
		c0.1,0.1,0.3,0.2,0.4,0.2c0,0,0,0,0,0c-4.4-0.9-6.6,2.9-5.5,3.4c0,0,0.1,0,0.1,0c0,0,0,0,0,0c3.3,1,6.5,1.8,9.8,2.4
		c0.6,0.8,1.2,1.6,1.9,2.3c-0.1-0.1-0.2-0.1-0.4-0.2c0.7,0.8,1.5,1.7,2.3,2.5c0.2,0.1,0.3,0.2,0.5,0.3c0.2,0.2,0.4,0.4,0.6,0.6
		c0.7,0.7,1.6,1.4,2.5,2.1c0.9,0.7,1.9,1.3,3,2c0.9,0.5,1.8,1,2.7,1.5c-0.2-0.1-0.3-0.1-0.5-0.2c0.7,0.4,1.5,0.7,2.2,1.1
		c0.3,0.2,0.6,0.3,0.9,0.5c1.3,0.7,2.6,1.3,3.9,1.9c0.4,0.2,0.8,0.4,1.2,0.6c1.2,0.6,2.5,1.1,3.7,1.6c0.5,0.2,1.1,0.4,1.6,0.7
		c1.1,0.5,2.3,0.9,3.5,1.4c0.7,0.2,1.3,0.5,2,0.7c1.1,0.4,2.1,0.8,3.2,1.1c0.8,0.3,1.6,0.5,2.4,0.8c1,0.3,1.9,0.6,2.9,0.9
		c0.9,0.3,1.8,0.5,2.7,0.8c0.9,0.3,1.8,0.5,2.7,0.7c1,0.3,2,0.5,3,0.8c0.9,0.2,1.7,0.4,2.6,0.6c0.8,0.2,1.5,0.4,2.3,0.6
		c0.3,0.1,0.5,0.1,0.8,0.2c0.2,0,0.3,0.1,0.5,0.1c0.6,0.1,1.1,0.2,1.7,0.3c1.2,0.3,2.4,0.5,3.6,0.7c0.6,0.1,1.2,0.2,1.8,0.3
		c1.3,0.2,2.7,0.5,4,0.7c0.4,0.1,0.9,0.1,1.3,0.2c1.5,0.2,3,0.5,4.5,0.7c0.1,0,0.3,0,0.4,0c9.4,1.3,18.7,2,27.9,2.2
		c2.2,0,4.4,0.1,6.5,0.1c13.5-0.1,26.9-1.2,40.2-3.4c6.6-1.1,13.2-2.4,19.8-4.2c0.2-0.1,0.5-0.1,0.7-0.2c0,0,0.1,0,0.1,0
		c0.2-0.1,0.4-0.1,0.7-0.2c1.3-0.4,2.7-0.8,4-1.2c0.5-0.2,1-0.3,1.5-0.5c1.1-0.4,2.3-0.7,3.4-1.1c0.5-0.2,1-0.4,1.5-0.5
		c1.1-0.4,2.3-0.8,3.4-1.3c0.5-0.2,1.1-0.4,1.6-0.7c0.8-0.3,1.6-0.6,2.4-1c0.3-0.1,0.5-0.2,0.8-0.4c0.1-0.1,0.3-0.1,0.4-0.2
		c0.1,0,0.1-0.1,0.2-0.1c12-5.3,23-11.9,33.7-18.9c0.2-0.1,0.3-0.2,0.5-0.3c0,0-0.1,0-0.1,0.1c1.4-0.9,2.8-1.9,4.2-2.9
		c1.2-0.9,2.5-1.7,3.7-2.6c1.5-1.1,3-2.2,4.4-3.3c1.2-0.9,2.4-1.7,3.5-2.6c2.3-1.8,4.6-3.6,6.8-5.4c0.4-0.3,0.7-0.6,1.1-0.9
		c2.3-1.9,4.6-3.9,6.9-5.9c0.1-0.1,0.2-0.1,0.2-0.2c0,0,0.1-0.1,0.1-0.1c0.1-0.1,0.2-0.1,0.2-0.2c0.3-0.3,0.6-0.5,0.9-0.8
		c0.9-0.8,1.7-1.6,2.6-2.4c0.1-0.1,0.3-0.3,0.4-0.4c1.1-1,2.1-2,3.1-3.1c0.1-0.1,0.2-0.2,0.2-0.2c1-1.1,2.1-2.1,3.1-3.2
		c0.1-0.1,0.2-0.2,0.3-0.3c0.9-1,1.8-2,2.7-3c0.2-0.2,0.4-0.5,0.6-0.7c0.6-0.6,1.1-1.3,1.6-1.9c12.1-14,21.9-29.5,30.5-46.7
		c0.8-1.5,1.6-3,2.4-4.5c4.9-9,9.2-17.1,13.3-26.2c0,0,0-0.1,0-0.1c1.4-3,2.7-6.1,3.9-9.3c3.6-9.2,6-18.5,7.5-27.8
		c0.4-2.3,0.6-4.7,0.9-7c0.3-2.3,0.4-4.6,0.6-7c0.3-4.6,0.3-9.3,0.3-13.7c0-4.4,0.2-8.6,1.1-12.6c0.5-2,1.2-3.9,2.2-5.6
		c1-1.8,2.3-3.4,3.8-5.1c1.5-1.7,3.1-3.3,4.8-5.1c1.2-1.3,2.3-2.6,3.3-4c0,0,0,0,0,0c0,0,0,0,0,0c0.4-0.6,0.9-1.1,1.3-1.7
		c2.8-4,5.1-8.4,6.9-13.1c0.1-0.3,0.2-0.5,0.3-0.8c0.1-0.1,0.2-0.3,0.3-0.4c0.1-0.1,0.2-0.2,0.3-0.4c0,0,0,0,0,0
		c0.9-1.2,1.8-2.3,2.9-3.4c0.1-0.1,0.2-0.1,0.2-0.2c0.3-0.3,0.6-0.6,0.9-0.8C468.6,288.2,467.8,287.4,467.4,286.9z"/>
</g>
</svg>
