<?xml version="1.0" encoding="iso-8859-1"?>
<!-- Generator: Adobe Illustrator 21.1.0, SVG Export Plug-In . SVG Version: 6.00 Build 0)  -->
<svg version="1.1" xmlns="http://www.w3.org/2000/svg" xmlns:xlink="http://www.w3.org/1999/xlink" x="0px" y="0px"
	 viewBox="0 0 283.46 283.46" style="enable-background:new 0 0 283.46 283.46;" xml:space="preserve">
<g id="Calque_2">
</g>
<g id="Calque_3">
	<g>
		<path style="fill:#FFFFFF;" d="M275.698,125.264v-0.003c-0.872-7.484-2.486-14.638-4.195-22.212l-0.315-1.394
			c-0.111-0.639-0.188-1.217-0.264-1.78c-0.073-0.558-0.146-1.101-0.248-1.686c-0.197-1.036-0.472-2.348-1.021-4.247
			c-2.275-7.238-4.757-13.392-7.584-18.809c-3.362-6.511-6.997-12.333-10.78-17.272c-0.663-0.936-1.391-1.812-2.095-2.659
			c-0.343-0.412-0.684-0.823-1.021-1.245c-0.94-1.156-2.042-2.492-3.21-3.706l-3.266-3.488l-3.861-3.666
			c-0.375-0.354-0.747-0.706-1.149-1.06l-5.029-4.164l-1.396-1.017c-1.769-1.292-3.44-2.512-5.144-3.584l-0.407,0.535
			c-0.744-0.511-1.502-1.014-2.279-1.509c0.038-0.04,0.074-0.084,0.109-0.132c0.619-0.866-0.152-1.823-1.248-3.008
			c-0.819-0.832-2.013-1.918-3.455-3.147l-0.427-0.361c-0.541-0.458-1.093-0.923-1.682-1.368l-2.113-1.505
			c-6.694-4.444-13.339-7.94-20.308-10.686c-7.074-2.815-14.232-4.92-21.89-6.436c-5.422-1.038-11.304-1.711-18.537-2.118
			c-7.115-0.2-12.973-0.034-18.434,0.518c-6.967,0.717-12.708,1.657-18.034,2.951c-2.155,0.444-4.287,1.046-6.349,1.628
			c-0.823,0.232-1.646,0.465-2.506,0.698c-0.945,0.292-1.884,0.603-2.823,0.915l-3.688,1.218l-2.106,0.8
			C76.421,20.59,55.882,34.971,39.542,53.861c-7.049,8.252-13.218,17.23-18.32,26.659c-0.937,1.618-1.755,3.308-2.546,4.942
			c-0.359,0.743-0.719,1.485-1.095,2.233c-0.761,1.564-1.45,3.176-2.116,4.736c-0.366,0.857-0.732,1.715-1.133,2.621
			c-0.285,0.76-0.576,1.518-0.866,2.276c-0.647,1.688-1.317,3.433-1.917,5.203c-0.259,0.829-0.533,1.653-0.806,2.478
			c-0.552,1.661-1.123,3.377-1.552,5.093c-2.909,10.338-4.673,20.822-5.243,31.165c-0.543,10.535,0.073,21.101,1.831,31.408
			c3.721,21.244,12.362,41.12,24.985,57.473c12.84,16.904,30.205,30.463,50.227,39.215c6.206,2.632,12.826,4.864,19.675,6.635
			c6.085,1.594,12.769,2.741,20.457,3.51c0.604,0.045,1.207,0.102,1.81,0.158c1.094,0.103,2.225,0.208,3.35,0.245l5.176,0.204
			l1.486-0.002c2.896-0.003,5.89-0.005,8.825-0.22c7.189-0.402,14.066-1.288,20.432-2.633c26.266-5.296,51.692-18.476,71.564-37.08
			c1.05-0.899,2.007-1.767,2.941-2.614l3.499-3.073c0.869-0.771,1.71-1.594,2.599-2.464l1.11-1.093
			c0.981-0.975,2.093-2.079,3.159-3.372c3.598-4.238,6.461-8.099,8.748-11.799c4.13-6.598,7.772-13.847,10.827-21.548
			c2.935-7.427,5.22-14.926,6.794-22.294C276.685,156.356,277.443,140.659,275.698,125.264z M243.386,58.348
			c4.834,6.59,8.866,13.704,11.658,20.563c3.459,8.741,5.652,17.277,7.111,27.674c1.291,9.531,1.667,19.332,1.185,30.829
			c-0.855,15.324-3.732,30.072-8.552,43.837c-0.544,1.573-1.151,3.218-1.855,5.023l-0.239,0.613
			c-0.543,1.372-1.116,2.714-1.654,3.958l-0.204,0.474c-0.176,0.408-0.352,0.817-0.535,1.226c-0.535,1.195-1.095,2.381-1.665,3.564
			l-0.211,0.44c-0.177,0.37-0.354,0.739-0.535,1.106c-0.733,1.476-1.489,2.935-2.251,4.342l-0.255,0.479
			c-3.716,6.807-8.008,13.338-12.753,19.411c-6.021,7.628-12.938,14.55-20.556,20.572c-7.264,5.721-15.357,10.7-24.055,14.8
			c-8.68,4.064-17.666,7.134-26.706,9.122c-9.435,2.056-19.163,3.067-28.889,3.029c-0.968-0.006-1.918-0.035-2.861-0.072
			c-0.491-0.02-0.979-0.039-1.457-0.052l-1.297-0.048l-6.86-0.57l-5.809-0.842l-5.605-1.116c-0.779-0.169-1.547-0.369-2.312-0.568
			c-0.435-0.112-0.868-0.226-1.279-0.326c-0.421-0.114-0.844-0.219-1.267-0.323c-0.79-0.194-1.535-0.378-2.278-0.631
			c-0.71-0.229-1.423-0.445-2.135-0.663c-1.604-0.49-3.263-0.997-4.865-1.627l-3.455-1.256l-3.498-1.472
			c-1.591-0.621-3.131-1.361-4.762-2.146c-0.73-0.352-1.466-0.705-2.22-1.055c-0.72-0.326-1.418-0.708-2.158-1.112
			c-0.445-0.243-0.893-0.488-1.319-0.707c-0.438-0.243-0.885-0.476-1.334-0.709c-0.747-0.388-1.519-0.789-2.253-1.256l-4.717-2.851
			l-3.394-2.211c-1.522-0.933-2.577-1.691-3.507-2.36l-0.972-0.705c-0.915-0.682-1.706-1.271-2.586-2.149
			c-0.992-1.014-2.247-2.331-4-4.386c-0.856-1.089-1.913-2.391-3.102-3.857c-3.316-4.087-7.858-9.686-11.874-15.42l-0.563-0.802
			c-0.186-0.268-0.372-0.535-0.569-0.828c-6.27-8.818-11.323-18.303-15.018-28.188l-0.13-0.348
			c-0.304-0.821-0.596-1.646-0.881-2.473l-0.212-0.614c-0.265-0.782-0.521-1.566-0.77-2.353l-0.21-0.666
			c-0.258-0.833-0.507-1.669-0.748-2.51l-0.125-0.432c-0.846-2.995-1.585-6.058-2.197-9.101
			c-2.534-12.736-3.037-25.672-1.497-38.445l0.116-0.938c0.069-0.534,0.145-1.068,0.222-1.603l0.024-0.173
			c0.11-0.748,0.22-1.497,0.345-2.251l0.08-0.483c0.376-2.222,0.811-4.432,1.289-6.563c2.147-9.285,5.386-18.28,9.628-26.734
			c4.125-8.224,9.252-16.225,15.238-23.78c0.595-0.75,1.202-1.491,1.81-2.229c0.689-0.835,1.387-1.662,2.095-2.482
			c0.737-0.855,1.485-1.702,2.241-2.541c0.952-1.054,1.913-2.101,2.896-3.13c0.537-0.563,1.083-1.118,1.628-1.673
			c1.445-1.467,2.572-2.581,3.653-3.609c0.206-0.196,0.415-0.389,0.624-0.582l0.435-0.403c1.594-1.489,2.941-2.708,4.24-3.837
			l0.628-0.534c5.141-4.407,10.717-8.591,16.599-12.455c2.006-1.317,4.076-2.618,6.148-3.864
			c6.841-4.067,13.904-7.506,20.991-10.221l0.306-0.119c0.813-0.309,1.625-0.603,2.438-0.893l0.659-0.238
			c0.786-0.276,1.573-0.539,2.361-0.798l0.688-0.229c0.842-0.272,1.684-0.532,2.526-0.784l0.465-0.141
			c0.954-0.283,1.907-0.554,2.925-0.83c4.895-1.324,10.001-2.388,15.173-3.161c8.47-1.232,16.67-1.595,25.074-1.108
			c9.217,0.545,17.996,2.076,26.836,4.678c0.406,0.121,0.804,0.231,1.191,0.339c0.581,0.161,1.137,0.315,1.667,0.494l2.488,0.819
			c0.691,0.232,1.35,0.438,1.986,0.637l0.591,0.185c5.984,2.152,12.67,5.014,18.805,8.044c0.57,0.299,1.093,0.574,1.547,0.585
			c0.622,0.328,1.223,0.649,1.802,0.962l9.155,8.74C232.525,45.138,238.558,51.737,243.386,58.348z"/>
		<path style="fill:#FFFFFF;" d="M212.53,88.837c-0.64-0.062-1.33-0.08-1.886-0.094l-0.09-0.002l-7.395,0.053
			c-27.928,0.407-52.324,0.62-74.583,0.649c-12.792,0.019-25.28-0.027-37.109-0.129l-19.592-0.231c-0.152-0.006-0.432,0-0.692,0.009
			l-1.047,0.045c-0.44,0.032-0.878,0.097-1.316,0.163l-0.445,0.067c-0.445,0.084-0.885,0.196-1.326,0.309l-0.378,0.097
			c-0.234,0.068-0.464,0.152-0.693,0.237l-0.407,0.145c-0.152,0.05-0.303,0.102-0.456,0.163c-0.208,0.084-0.41,0.18-0.612,0.276
			l-0.353,0.165c-0.221,0.101-0.441,0.203-0.662,0.319c-0.108,0.058-0.214,0.121-0.32,0.184l-0.132,0.079
			c-0.371,0.211-0.738,0.428-1.096,0.669l-0.234,0.168c-0.33,0.229-0.659,0.459-0.97,0.711c-0.059,0.048-0.116,0.099-0.2,0.177
			l-0.023,0.019c-0.045,0.038-0.088,0.077-0.094,0.086c-0.428,0.363-0.806,0.713-1.154,1.069c-0.055,0.057-0.108,0.116-0.224,0.244
			c-0.321,0.342-0.632,0.691-0.926,1.061c-0.059,0.074-0.115,0.151-0.171,0.228l-0.071,0.097c-0.27,0.356-0.531,0.717-0.771,1.089
			c-0.059,0.09-0.113,0.183-0.167,0.275l-0.064,0.109c-0.227,0.372-0.444,0.748-0.642,1.136c-0.052,0.101-0.1,0.204-0.147,0.308
			l-0.058,0.125c-0.183,0.382-0.355,0.766-0.509,1.16c-0.047,0.122-0.09,0.244-0.132,0.367l-0.048,0.14
			c-0.134,0.378-0.262,0.759-0.369,1.145c-0.042,0.15-0.078,0.301-0.113,0.453l-0.037,0.154c-0.085,0.361-0.166,0.721-0.228,1.086
			c-0.035,0.208-0.062,0.417-0.087,0.627l-0.041,0.297c-0.024,0.157-0.047,0.313-0.063,0.507l-0.036,0.567
			c-0.031,0.501-0.034,0.817-0.036,1.126l-0.025,3.741l0.003,4.576c0.006,1.278,0.025,2.547,0.043,3.815l0.046,3.598
			c0.005,0.556,0.01,1.112,0.021,1.664c0.103,5.438,0.279,11.315,0.539,17.978l1.633,36.664c0.015,0.29,0.041,0.577,0.07,0.834
			l0.009,0.102c0.051,0.44,0.127,0.873,0.214,1.298l0.052,0.244c0.096,0.433,0.207,0.857,0.357,1.329
			c0.127,0.397,0.273,0.784,0.455,1.229l0.067,0.162c0.162,0.376,0.337,0.745,0.523,1.097l0.161,0.292
			c0.149,0.269,0.306,0.533,0.471,0.791l0.205,0.324c0.201,0.301,0.413,0.591,0.636,0.88c0.09,0.116,0.183,0.229,0.276,0.343
			c0.211,0.258,0.429,0.509,0.635,0.729l0.131,0.145c0.271,0.284,0.553,0.553,0.85,0.821l0.256,0.226
			c0.29,0.249,0.585,0.491,0.881,0.709c0.062,0.046,0.125,0.09,0.25,0.176l0.086,0.061c0.128,0.091,0.256,0.182,0.37,0.255
			c0.058,0.038,0.117,0.073,0.143,0.084c0.455,0.293,0.886,0.543,1.284,0.747l0.1,0.054c0.512,0.26,1.037,0.49,1.625,0.71
			c0.459,0.171,0.946,0.324,1.443,0.454l0.369,0.091c0.4,0.096,0.803,0.175,1.225,0.241c0.085,0.02,0.171,0.036,0.312,0.055
			l0.167,0.017c0.066,0.012,0.132,0.022,0.198,0.029l0.363,0.021c0.296,0.024,0.589,0.045,0.897,0.064l14.99,0.739l0.394-0.009
			l9.06,0.448c6.84,0.331,13.491,0.471,20.034,0.471c16.889,0,33.059-0.93,49.899-1.897c11.389-0.655,23.165-1.332,35.48-1.727
			c3.895-0.124,7.024-0.747,9.016-1.761l5.311-0.557c0.122-0.013,0.234-0.033,0.346-0.055l-0.029-0.153
			c0.031-0.005,0.063-0.011,0.094-0.017l0.04,0.151c0.863-0.156,1.705-0.392,2.456-0.688l-1.688,3.513l6.449-6.67
			c0.932-0.964,1.706-2.107,2.365-3.497l0.223-0.826c0.124-0.318,0.241-0.651,0.361-1.057l0.41-1.748
			c0.035-0.157,0.068-0.316,0.103-0.478l0.847-1.913l-0.611,0.685c0.186-1.052,0.34-2.155,0.461-3.323
			c0.048-0.651,0.089-1.31,0.13-1.968l0.023-0.38h0.031c0.351-5.461,0.585-11.328,0.716-17.935l-1.5-0.029l0,0l1.5,0.01l0.022-1.1
			c0.02-1.094,0.035-2.19,0.048-3.288c0.012-0.904,0.022-1.81,0.03-2.721l0.008-1.436c0.026-4.344,0.015-8.936-0.033-13.647
			c-0.073-7.17-0.217-14.464-0.356-21.518l-0.049-2.496c-0.004-0.173-0.007-0.35-0.024-0.649l-0.022-0.357
			c-0.033-0.566-0.067-1.152-0.183-1.738l-0.167-0.959l-0.281-1.086c-0.038-0.14-0.082-0.277-0.127-0.415l-0.11-0.347
			c-0.788-2.401-2.131-4.647-3.876-6.492c-1.887-2.027-4.271-3.587-6.866-4.501C215.431,89.334,214.116,89.031,212.53,88.837z
			 M211.01,184.405c-0.21-0.04-0.436-0.062-0.68-0.064l-0.179,0.004l-0.096-0.014l-0.132,0.003
			c-33.686,0.786-66.898,0.685-99.016,0.586c-9.651-0.03-19.307-0.06-28.996-0.066l-0.001,0.024l-9.051-0.018l-0.524,0.001
			c-0.284,0.001-0.568,0.005-0.769-0.007l-0.316-0.016c-0.184-0.009-0.369-0.01-0.549-0.048l-0.145-0.023
			c-0.557-0.062-1.15-0.273-1.625-0.451c-1.181-0.533-2.156-1.285-2.873-2.242c-0.334-0.398-0.6-0.914-0.884-1.497
			c-0.216-0.584-0.416-1.136-0.47-1.66l-0.031-0.187c-0.031-0.136-0.029-0.274-0.035-0.413s-0.012-0.277-0.024-0.416l-0.034-4.232
			c-0.015-2.022-0.036-4.053-0.056-6.082l-0.012-1.167l0.014-0.061l-0.451-38.797L64.015,111.6l0.002-5.473l0.025-0.483
			c0.014-0.292,0.049-0.583,0.111-0.948c0.052-0.284,0.121-0.564,0.213-0.866c0.093-0.293,0.203-0.579,0.329-0.85l0.024-0.052
			c0.125-0.264,0.265-0.521,0.43-0.784c0.147-0.244,0.313-0.476,0.488-0.7l-1.184-0.922l1.254,0.83
			c0.174-0.216,0.36-0.423,0.595-0.658c0.433-0.423,0.918-0.793,1.506-1.139c0.209-0.125,0.427-0.232,0.718-0.367l0.165-0.074
			c0.203-0.085,0.409-0.159,0.621-0.226l0.159-0.055c0.577-0.167,1.171-0.262,1.749-0.284l0.26-0.012
			c0.08-0.004,0.159-0.002,0.26-0.009l5.394,0.049c1.422,0.014,2.839,0.031,4.256,0.049l1.316,0.016
			c22.236,0.27,44.391,0.831,65.849,1.666l4.195,0.163c15.795,0.631,32.327,1.053,49.139,1.256l8.619,0.082l0.373,0.03
			c0.357,0.018,0.724,0.097,1.123,0.249c1.45,0.512,2.61,1.94,2.779,3.411l0.247,23.948c0.203,6.351,0.501,12.876,0.789,19.187
			c0.172,3.76,0.345,7.546,0.502,11.368l0.083,2.224l-0.006,0.265l0.002,0.054c0.22,5.561,0.362,10.243,0.452,14.753
			c0.016,0.526,0.004,0.831-0.009,1.147l-0.132,0.941c-0.022,0.097-0.046,0.193-0.066,0.291c-0.189,0.672-0.488,1.305-0.898,1.894
			c-0.065,0.096-0.138,0.187-0.217,0.288l-0.269,0.314c-0.081,0.089-0.161,0.177-0.308,0.315l-0.082,0.073
			c-0.084,0.076-0.169,0.153-0.263,0.23c-0.089,0.072-0.182,0.14-0.326,0.244l-0.073,0.055c-0.59,0.4-1.257,0.703-1.992,0.894
			C211.795,184.105,211.426,184.21,211.01,184.405z"/>
		<path style="fill:#FFFFFF;" d="M168.879,144.844c-0.026-0.258-0.08-0.498-0.147-0.804l-0.041-0.182
			c-0.05-0.182-0.114-0.363-0.207-0.619l-0.079-0.221c-0.02-0.059-0.04-0.117-0.105-0.258c-0.27-0.56-0.549-1.14-1.09-1.703
			l-0.75-0.836c-0.079-0.08-0.147-0.163-0.217-0.246c-0.169-0.201-0.36-0.429-0.64-0.612L165.132,139
			c-0.803-0.622-1.63-1.263-2.459-1.853l-5.685-4.32c-2.213-1.683-4.559-3.475-6.78-5.261c-1.092-0.884-2.163-1.774-3.203-2.671
			l-2.103-1.82c-0.501-0.423-1.02-0.861-1.542-1.234c-2.516-1.905-5.262-3.567-8.414-5.092c-3.136-1.341-6.608-2.428-11.259-3.527
			l-0.936-0.236c-3.254-0.737-6.799-1.473-11.157-2.315c-0.917-0.179-1.553,0.311-1.879,1.452l-0.083,0.293l0.223,0.208
			c0.191,0.179,0.367,0.361,0.535,0.544c1.042,6.832,1.733,14.035,2.113,22.081c0.154,3.264,0.261,6.789,0.327,10.777
			c0.034,2.094,0.058,4.188,0.07,6.282c0.008,1.324,0.01,2.65,0.011,3.978l0.005,4.845l-0.031,5.632
			c-0.001,0.665,0.032,1.3,0.065,1.934c0.017,0.325,0.034,0.649,0.046,0.984l0.119,2.43l-0.052,0.229l0.201,0.204
			c0.075,0.076,0.195,0.155,0.376,0.155c0.04,0,0.083-0.004,0.129-0.013l0.249-0.04c1.193-0.191,2.385-0.404,3.637-0.65l0.036,0.014
			l0.14-0.026c0.87-0.166,1.784-0.377,2.791-0.644l0.178-0.045c0.193-0.049,0.387-0.098,0.594-0.157l0.847-0.255
			c0.574-0.179,1.143-0.357,1.711-0.573l1.53-0.609c3.715-1.559,7.136-3.379,10.444-5.14l1.711-0.909
			c0.889-0.469,1.777-0.924,2.664-1.379l0.465-0.239c1.754-0.901,3.508-1.78,5.261-2.643l1.459-0.721
			c2.293-1.114,4.396-2.111,6.432-3.047c1.857-0.853,3.718-1.685,5.583-2.499l4.029-1.847c0.049-0.02,0.095-0.043,0.141-0.066
			l-0.226-0.445l0.332,0.395c0.475-0.213,0.935-0.454,1.42-0.744c0.123-0.072,0.246-0.144,0.364-0.22
			c0.166-0.107,0.316-0.216,0.53-0.369c0.043-0.027,0.085-0.057,0.192-0.144c0.44-0.334,0.784-0.627,1.052-0.896
			c0.398-0.399,0.851-0.907,1.182-1.643c0.302-0.661,0.434-1.497,0.363-2.293L168.879,144.844z M136.59,155.542l-0.125,0.058
			c-0.221,0.104-0.433,0.216-0.646,0.326l-0.792,0.402c-0.364,0.183-0.728,0.365-1.082,0.554c-2.027,1.077-3.955,2.215-5.819,3.315
			c-0.929,0.548-1.849,1.091-2.765,1.617c-0.875,0.501-1.75,0.992-2.645,1.457c-0.217,0.117-0.435,0.229-0.645,0.332
			c-0.131,0.061-0.204,0.106-0.274,0.174l-0.111,0.087c-0.169,0.122-0.357,0.249-0.561,0.376c-0.521,0.315-1.021,0.572-1.54,0.789
			c-0.181,0.082-0.37,0.155-0.595,0.238c-0.023-0.306-0.027-0.635-0.02-0.969l0.006-0.169c0.008-0.235,0.026-0.474,0.051-0.78
			c0.013-0.144,0.026-0.287,0.043-0.433l0.071-0.501c0.02-0.143,0.041-0.286,0.07-0.459c0.141-1.361,0.329-2.681,0.528-4.076
			l0.227-1.729c0.152-1.093,0.298-2.208,0.419-3.366c1.164-9.692-0.765-18.275-2.807-27.362c-0.343-1.525-0.688-3.063-1.022-4.621
			l0.588,0.308c1.838,0.962,3.778,1.875,5.6,2.717l1.673,0.776c1.615,0.747,3.236,1.497,4.848,2.284
			c2.598,1.264,4.513,2.299,6.198,3.35l1.418,0.934l1.869,1.401c0.877,0.69,1.792,1.41,2.673,2.069l1.842,1.379
			c3.709,2.589,7.503,4.883,11.173,7.102l1.922,1.163l1.223,0.674c0.077,0.049,0.188,0.122,0.275,0.216l0.004,0.004l-0.005,0.005
			c-0.057,0.04-0.121,0.072-0.183,0.105c-0.061,0.032-0.12,0.063-0.146,0.081l-9.054,4.575c-0.955,0.469-1.912,0.926-2.87,1.383
			l-0.821,0.393C141.65,153.224,139.051,154.435,136.59,155.542z M136.68,156.051L136.68,156.051L136.68,156.051
			C136.68,156.051,136.68,156.051,136.68,156.051z M165.905,149.347L165.905,149.347L165.905,149.347L165.905,149.347z"/>
	</g>
</g>
</svg>
