<?xml version="1.0" encoding="iso-8859-1"?>
<!-- Generator: Adobe Illustrator 21.1.0, SVG Export Plug-In . SVG Version: 6.00 Build 0)  -->
<svg version="1.1" xmlns="http://www.w3.org/2000/svg" xmlns:xlink="http://www.w3.org/1999/xlink" x="0px" y="0px"
	 viewBox="0 0 283.46 283.46" style="enable-background:new 0 0 283.46 283.46;" xml:space="preserve">
<g id="Calque_2">
	<path style="fill:#231F20;" d="M263.413,127.705c-0.825-7.084-2.381-13.763-4.04-21.125c-0.198-1.139-0.277-2.07-0.456-3.096
		c-0.194-1.021-0.441-2.151-0.891-3.708c-1.76-5.599-3.919-11.315-6.744-16.729c-2.798-5.419-5.99-10.666-9.606-15.387
		c-0.858-1.212-1.848-2.314-2.759-3.454c-0.921-1.134-1.845-2.245-2.838-3.277c-0.976-1.043-1.94-2.074-2.892-3.092
		c-1.009-0.959-2.004-1.905-2.983-2.837c-0.494-0.46-0.972-0.926-1.47-1.365c-0.509-0.426-1.013-0.848-1.512-1.267
		c-1.002-0.826-1.986-1.636-2.949-2.43c-2.025-1.464-3.92-2.899-5.819-4.095c0.137,0.124,0.257,0.248,0.387,0.372
		c-0.122-0.078-0.242-0.166-0.363-0.244c0.797,0.734,1.474,1.464,2.122,2.169c-2.069-1.571-4.323-3.088-6.844-4.572
		c2.439,2.329,4.262,4.069,6.513,6.217c5.831,5.205,11.264,11.085,15.773,17.259c4.521,6.164,8.109,12.604,10.568,18.646
		c3.426,8.656,5.258,16.652,6.435,25.035c1.137,8.396,1.514,17.233,1.068,27.826c-0.733,13.139-3.161,26.551-7.718,39.567
		c-0.526,1.522-1.091,3.037-1.679,4.544c-0.072,0.183-0.141,0.366-0.214,0.549c-0.475,1.199-0.981,2.389-1.494,3.577
		c-0.222,0.512-0.439,1.024-0.668,1.534c-0.484,1.08-0.989,2.152-1.505,3.22c-0.224,0.466-0.445,0.933-0.674,1.397
		c-0.654,1.316-1.33,2.623-2.031,3.919c-0.078,0.146-0.154,0.292-0.233,0.438c-3.337,6.113-7.192,11.996-11.523,17.538
		c-5.572,7.06-11.827,13.258-18.588,18.603c-6.773,5.334-14.08,9.768-21.753,13.384c-7.682,3.598-15.743,6.399-24.145,8.248
		c-8.405,1.831-17.127,2.779-26.104,2.737c-1.327,0.003-2.628-0.077-3.907-0.112c-0.64-0.023-1.274-0.047-1.903-0.07
		c-0.627-0.054-1.249-0.109-1.866-0.162c-1.233-0.112-2.448-0.223-3.646-0.332c-1.19-0.172-2.364-0.342-3.525-0.51
		c-0.58-0.084-1.157-0.168-1.731-0.252c-0.569-0.112-1.135-0.224-1.698-0.334c-1.125-0.225-2.24-0.448-3.348-0.67
		c-1.103-0.241-2.183-0.547-3.266-0.814c-1.076-0.293-2.168-0.51-3.219-0.867c-2.11-0.678-4.244-1.251-6.311-2.066
		c-1.043-0.379-2.089-0.76-3.141-1.143c-1.032-0.434-2.069-0.871-3.115-1.311c-2.116-0.825-4.162-1.896-6.308-2.889
		c-1.078-0.488-2.105-1.11-3.186-1.665c-1.061-0.592-2.187-1.106-3.246-1.78c-1.649-0.997-3.05-1.844-4.257-2.573
		c-1.182-0.77-2.173-1.416-3.023-1.97c-1.736-1.063-2.823-1.891-3.792-2.577c-0.951-0.711-1.777-1.299-2.717-2.238
		c-0.93-0.95-2.066-2.146-3.653-4.007c-2.959-3.763-8.582-10.363-13.451-17.315c-0.079-0.107-0.153-0.216-0.231-0.323
		c-0.264-0.385-0.534-0.764-0.793-1.152c-5.737-8.067-10.255-16.593-13.582-25.495c-0.039-0.104-0.078-0.208-0.117-0.312
		c-0.275-0.742-0.539-1.488-0.797-2.235c-0.064-0.185-0.129-0.371-0.192-0.556c-0.24-0.707-0.471-1.417-0.696-2.128
		c-0.064-0.201-0.128-0.401-0.19-0.602c-0.234-0.754-0.459-1.51-0.676-2.268c-0.038-0.131-0.076-0.262-0.113-0.393
		c-0.766-2.714-1.43-5.458-1.987-8.232c-2.216-11.138-2.798-22.792-1.353-34.771c0.035-0.282,0.068-0.564,0.105-0.847
		c0.069-0.535,0.146-1.072,0.223-1.608c0.099-0.677,0.199-1.354,0.311-2.033c0.024-0.146,0.049-0.293,0.073-0.44
		c0.333-1.972,0.72-3.951,1.167-5.939c1.947-8.422,4.879-16.547,8.709-24.182c3.831-7.636,8.48-14.812,13.769-21.487
		c0.537-0.678,1.085-1.346,1.635-2.013c0.622-0.754,1.252-1.501,1.891-2.241c0.666-0.772,1.341-1.537,2.024-2.295
		c0.86-0.952,1.727-1.897,2.615-2.826c0.485-0.508,0.978-1.01,1.471-1.511c1.083-1.099,2.175-2.19,3.297-3.258
		c0.315-0.3,0.637-0.592,0.955-0.89c1.254-1.171,2.524-2.331,3.826-3.463c0.188-0.164,0.381-0.322,0.569-0.484
		c4.668-4.001,9.649-7.739,14.958-11.226c0.008-0.005,0.016-0.01,0.024-0.015c1.812-1.19,3.662-2.352,5.549-3.487
		c6.367-3.786,12.673-6.824,18.969-9.236c0.092-0.035,0.183-0.073,0.275-0.107c0.734-0.279,1.469-0.545,2.203-0.807
		c0.199-0.071,0.397-0.145,0.596-0.215c0.711-0.25,1.423-0.487,2.134-0.721c0.208-0.069,0.416-0.14,0.624-0.207
		c0.761-0.246,1.522-0.481,2.283-0.709c0.14-0.042,0.28-0.086,0.42-0.128c0.862-0.255,1.724-0.5,2.586-0.734
		c0.019-0.005,0.039-0.011,0.058-0.016c4.553-1.232,9.119-2.17,13.716-2.857c7.38-1.074,14.886-1.454,22.674-1.002
		c7.784,0.46,15.86,1.754,24.277,4.232c0.924,0.275,1.796,0.488,2.588,0.755c0.795,0.262,1.536,0.506,2.237,0.736
		c0.821,0.276,1.589,0.509,2.33,0.743c6.195,2.229,12.263,4.935,16.982,7.266c0.875,0.459,1.131,0.519,0.93,0.285
		c1.371,0.718,2.683,1.426,3.889,2.105c0.715,0.393,1.115,0.563,1.271,0.563c1.457,0.646,1.093-0.07-0.099-1.36
		c-0.763-0.773-1.849-1.754-3.037-2.766c-0.597-0.501-1.205-1.031-1.836-1.507c-0.644-0.459-1.277-0.91-1.871-1.333
		c-5.858-3.889-11.827-7.047-18.053-9.5c-6.217-2.474-12.641-4.373-19.473-5.726c-5.472-1.048-10.992-1.575-16.485-1.884
		c-5.502-0.153-10.987-0.088-16.419,0.461c-5.425,0.558-10.815,1.353-16.089,2.633c-2.657,0.547-5.247,1.36-7.86,2.065
		c-1.293,0.399-2.574,0.84-3.86,1.258l-1.926,0.636l-1.897,0.72c-20.309,7.505-38.488,20.375-52.915,37.052
		c-6.32,7.399-11.792,15.377-16.34,23.782c-1.198,2.069-2.166,4.254-3.236,6.38c-1.041,2.141-1.917,4.354-2.881,6.522
		c-0.833,2.222-1.721,4.421-2.481,6.661c-0.704,2.259-1.534,4.476-2.108,6.767c-2.556,9.085-4.155,18.399-4.67,27.759
		c-0.482,9.36,0.057,18.751,1.63,27.973c3.224,18.409,10.679,36.187,22.244,51.168c11.442,15.064,26.961,27.144,44.692,34.894
		c5.688,2.413,11.557,4.367,17.526,5.909c5.968,1.564,12.074,2.511,18.19,3.122c1.533,0.115,3.061,0.31,4.597,0.36l4.605,0.183
		c3.07-0.009,6.142,0.026,9.202-0.198c6.121-0.342,12.22-1.082,18.201-2.346c23.992-4.837,46.26-16.653,63.791-33.064
		c1.053-0.901,2.001-1.768,2.933-2.612c0.949-0.831,1.876-1.642,2.832-2.478c0.951-0.844,1.873-1.768,2.889-2.757
		c1.001-1,2.106-2.061,3.184-3.37c2.859-3.366,5.56-6.903,7.771-10.478c3.901-6.231,7.054-12.667,9.639-19.184
		c2.576-6.521,4.614-13.13,6.051-19.852C264.203,155.826,265.035,142.019,263.413,127.705z"/>
</g>
<g id="Calque_3">
	<path style="fill:#231F20;" d="M220.686,152.041c0.007-0.333,0.014-0.667,0.02-1.001c0.017-0.979,0.031-1.96,0.043-2.944
		c0.01-0.809,0.02-1.619,0.026-2.431c0.003-0.429,0.005-0.858,0.008-1.288c0.024-4.049,0.012-8.127-0.03-12.221
		c-0.067-6.505-0.196-13.043-0.324-19.531l-0.024-1.216l-0.012-0.608c-0.006-0.215-0.002-0.362-0.023-0.693
		c-0.038-0.582-0.054-1.164-0.167-1.738l-0.149-0.861l-0.223-0.844c-0.042-0.152-0.093-0.3-0.14-0.45
		c-0.008-0.028-0.015-0.056-0.024-0.084c-0.003-0.01-0.008-0.019-0.011-0.029c-0.654-2.025-1.769-3.871-3.203-5.387
		c-1.555-1.67-3.509-2.941-5.648-3.695c-1.062-0.398-2.18-0.618-3.296-0.755c-0.547-0.053-1.146-0.067-1.653-0.08l-1.185,0.012
		c-1.821,0.012-3.628,0.024-5.419,0.036c-22.357,0.326-44.677,0.553-66.922,0.582c-11.122,0.015-22.226-0.02-33.307-0.116
		c-3.393-0.039-6.779-0.078-10.167-0.118c-2.147-0.025-4.297-0.051-6.443-0.076l-1.013-0.015c-0.138-0.007-0.424,0.006-0.643,0.013
		l-0.701,0.03c-0.006,0.001-0.013,0.002-0.019,0.003l-0.035,0.002c-0.477,0.035-0.952,0.119-1.427,0.186
		c-0.404,0.077-0.803,0.181-1.203,0.283c-0.028,0.008-0.056,0.011-0.084,0.019c-0.008,0.002-0.016,0.006-0.024,0.008
		c-0.031,0.008-0.062,0.016-0.092,0.023c-0.254,0.074-0.499,0.174-0.747,0.262c-0.173,0.062-0.349,0.114-0.519,0.182
		c-0.222,0.09-0.436,0.197-0.653,0.299c-0.227,0.105-0.456,0.205-0.677,0.322c-0.127,0.068-0.248,0.146-0.373,0.218
		c-0.304,0.173-0.605,0.349-0.894,0.545c-0.055,0.037-0.105,0.079-0.159,0.116c-0.281,0.195-0.564,0.39-0.83,0.605
		c-0.059,0.048-0.112,0.103-0.17,0.152c-0.006,0.005-0.012,0.009-0.018,0.014c-0.025,0.021-0.047,0.046-0.073,0.067
		c-0.327,0.277-0.643,0.567-0.944,0.874c-0.063,0.064-0.12,0.133-0.181,0.199c-0.263,0.28-0.519,0.566-0.758,0.867
		c-0.069,0.087-0.132,0.179-0.199,0.267c-0.221,0.292-0.436,0.587-0.634,0.896c-0.066,0.102-0.124,0.209-0.188,0.312
		c-0.186,0.305-0.365,0.613-0.527,0.931c-0.06,0.117-0.112,0.237-0.168,0.355c-0.149,0.313-0.292,0.628-0.418,0.951
		c-0.053,0.136-0.098,0.275-0.147,0.413c-0.11,0.31-0.215,0.621-0.303,0.939c-0.046,0.164-0.081,0.329-0.121,0.495
		c-0.07,0.295-0.136,0.589-0.187,0.889c-0.034,0.199-0.057,0.398-0.082,0.598c-0.022,0.18-0.059,0.358-0.074,0.539l-0.028,0.469
		c-0.001,0.015-0.004,0.03-0.004,0.044c-0.034,0.549-0.027,0.831-0.032,1.185l-0.009,1.034c-0.004,0.689-0.008,1.376-0.011,2.062
		c0.001,1.372,0.002,2.738,0.003,4.1c0.007,1.555,0.036,3.094,0.056,4.639c0.002,0.214,0.004,0.431,0.006,0.645
		c0.001,0.083,0.004,0.166,0.005,0.249c0.013,0.862,0.015,1.731,0.031,2.591c0.103,5.389,0.274,10.734,0.482,16.094
		c0.233,5.358,0.467,10.732,0.704,16.177c0.249,5.476,0.502,11.024,0.761,16.7c0.012,0.234,0.033,0.466,0.059,0.697
		c0.002,0.019,0.003,0.038,0.005,0.057c0.041,0.356,0.103,0.706,0.174,1.052c0.013,0.065,0.027,0.13,0.041,0.195
		c0.078,0.348,0.167,0.693,0.274,1.029c0.005,0.015,0.01,0.029,0.015,0.044c0.103,0.321,0.221,0.636,0.348,0.945
		c0.025,0.061,0.049,0.122,0.075,0.182c0.131,0.303,0.272,0.601,0.425,0.892c0.041,0.078,0.085,0.153,0.128,0.23
		c0.121,0.218,0.248,0.433,0.382,0.643c0.056,0.088,0.109,0.178,0.167,0.264c0.163,0.244,0.335,0.48,0.514,0.711
		c0.074,0.095,0.15,0.188,0.226,0.28c0.171,0.209,0.348,0.413,0.531,0.609c0.025,0.027,0.047,0.056,0.072,0.082
		c0.006,0.007,0.013,0.012,0.02,0.019c0.219,0.23,0.448,0.448,0.683,0.659c0.07,0.063,0.14,0.125,0.211,0.186
		c0.234,0.202,0.473,0.398,0.72,0.58c0.063,0.047,0.129,0.089,0.193,0.134c0.126,0.089,0.25,0.18,0.379,0.263
		c0.035,0.023,0.074,0.041,0.11,0.064c0.347,0.223,0.702,0.432,1.068,0.62c0.018,0.009,0.035,0.02,0.053,0.029
		c0.411,0.209,0.833,0.395,1.264,0.557c0.018,0.007,0.036,0.012,0.054,0.018c0.385,0.143,0.777,0.264,1.173,0.369
		c0.099,0.026,0.197,0.049,0.296,0.073c0.323,0.077,0.647,0.14,0.975,0.191c0.076,0.012,0.15,0.034,0.226,0.044
		c0.052,0.005,0.106,0.009,0.159,0.014c0.062,0.008,0.123,0.022,0.185,0.028c0.095,0.005,0.189,0.01,0.284,0.014
		c0.257,0.021,0.511,0.04,0.747,0.054l1.132,0.044l0.443,0.019c3.923,0.198,7.816,0.395,11.838,0.598
		c0.118-0.002,0.235-0.005,0.353-0.007c2.651,0.131,5.356,0.265,8.173,0.404c32.754,1.584,61.05-1.76,94.453-2.829
		c5.371-0.172,7.947-1.365,8.694-2.305c0.678,0.17,1.359,0.292,2.043,0.326c0.126-0.033,0.249-0.075,0.373-0.114
		c0.672,0.004,1.337-0.061,1.99-0.181c-0.115,0.067-0.229,0.136-0.346,0.201c0.108-0.012,0.202-0.035,0.305-0.052
		c0.743-0.134,1.503-0.347,2.195-0.645c0.091-0.08,0.173-0.171,0.261-0.254c0.852-0.383,1.665-0.876,2.414-1.508
		c0.355-0.301,0.698-0.635,1.023-0.998c-0.051,0.114-0.093,0.232-0.147,0.345c0.742-0.767,1.358-1.693,1.874-2.779
		c0.042-0.185,0.083-0.372,0.124-0.559c0.112-0.282,0.217-0.571,0.307-0.873c0.065-0.264,0.131-0.53,0.197-0.8
		c0.054-0.243,0.109-0.488,0.164-0.736c0.095-0.434,0.185-0.881,0.268-1.344c0.167-0.925,0.309-1.911,0.42-2.976
		c0.06-0.826,0.109-1.663,0.162-2.496c0.001,0.134,0.002,0.268,0.003,0.402C220.382,162.846,220.578,157.483,220.686,152.041z
		 M212.638,176.732c-0.207,0.754-0.544,1.481-1.001,2.138c-0.084,0.123-0.176,0.24-0.269,0.357c-0.041,0.051-0.078,0.104-0.12,0.153
		c-0.047,0.056-0.099,0.107-0.147,0.161c-0.096,0.105-0.192,0.211-0.294,0.31c-0.053,0.051-0.109,0.099-0.163,0.148
		c-0.094,0.085-0.188,0.17-0.286,0.25c-0.103,0.083-0.209,0.163-0.317,0.24c-0.046,0.034-0.092,0.068-0.139,0.1
		c-0.656,0.446-1.389,0.781-2.152,0.977c-0.369,0.105-0.658,0.187-0.887,0.297c-0.178,0.1-0.315,0.185-0.432,0.279
		c-0.164-0.119-0.404-0.195-0.727-0.199c-0.091,0.002-0.18,0.003-0.271,0.006c-0.035-0.002-0.063-0.01-0.1-0.011
		c-39.157,0.913-76.721,0.493-114.865,0.466c0.074,0.007,0.149,0.014,0.223,0.022c-2.786-0.005-5.561-0.01-8.354-0.016
		c-0.406-0.004-0.905,0.011-1.235-0.008c-0.323-0.021-0.649-0.016-0.966-0.083c-0.644-0.071-1.259-0.286-1.864-0.515
		c-1.177-0.531-2.271-1.322-3.055-2.374c-0.422-0.503-0.717-1.093-1.001-1.678c-0.226-0.609-0.454-1.228-0.521-1.88
		c-0.074-0.32-0.053-0.652-0.087-0.978l-0.013-1.269l-0.018-2.588c-0.016-2.213-0.04-4.436-0.063-6.656
		c0.004-0.018,0.008-0.034,0.012-0.052c-0.015-1.171-0.03-2.351-0.046-3.523c-0.003-0.247-0.007-0.496-0.01-0.743
		c-0.044-3.406-0.088-6.809-0.132-10.232c-0.073-6.779-0.144-13.495-0.216-20.157c-0.016-3.331-0.032-6.649-0.048-9.955
		c-0.003-1.46-0.005-2.916-0.008-4.371c0.001-1.661,0.003-3.323,0.004-4.978l0.022-0.428c0.015-0.318,0.053-0.634,0.106-0.946
		c0.005-0.028,0.009-0.056,0.014-0.084c0.056-0.308,0.131-0.612,0.224-0.91c0.003-0.01,0.005-0.02,0.008-0.029
		c0.099-0.315,0.218-0.623,0.356-0.922c0.001-0.002,0.002-0.004,0.003-0.007c0.139-0.3,0.297-0.592,0.473-0.873
		c0.159-0.265,0.338-0.517,0.528-0.761c0.026-0.033,0.051-0.067,0.077-0.099c0.188-0.234,0.389-0.457,0.602-0.668
		c0.014-0.013,0.026-0.028,0.04-0.042c0.468-0.457,0.992-0.856,1.553-1.186c0.016-0.009,0.032-0.018,0.048-0.027
		c0.228-0.137,0.465-0.254,0.704-0.365c0.086-0.039,0.171-0.08,0.259-0.116c0.22-0.092,0.444-0.173,0.671-0.244
		c0.058-0.019,0.115-0.042,0.174-0.059c0.621-0.179,1.263-0.283,1.908-0.307c0.173-0.005,0.309-0.02,0.511-0.019l0.609,0.005
		l1.217,0.01l0.064,0.001c0.985,0.009,1.968,0.019,2.952,0.028c1.671,0.016,3.335,0.038,5.001,0.058
		c19.965,0.242,39.596,0.736,59.106,1.495c1.257,0.049,2.513,0.098,3.765,0.146c14.235,0.568,29.101,0.946,44.041,1.126l5.605,0.058
		l1.402,0.012l0.701,0.005c0.143-0.002,0.16,0.009,0.231,0.014l0.18,0.013c0.48,0.023,0.945,0.129,1.389,0.298
		c1.798,0.635,3.209,2.387,3.39,4.251c0.075,7.244,0.148,14.438,0.221,21.517c0.288,9.003,0.774,18.081,1.158,27.398
		c0.028,0.675,0.05,1.36,0.076,2.037c-0.002,0.081-0.003,0.164-0.005,0.244c0.172,4.357,0.317,8.766,0.406,13.246
		c0.019,0.635-0.003,0.94-0.015,1.344l-0.068,0.521c-0.01,0.06-0.024,0.12-0.036,0.18
		C212.708,176.434,212.67,176.582,212.638,176.732z"/>
	<path style="fill:#231F20;" d="M168.036,145.213c-0.022-0.221-0.071-0.427-0.118-0.633c-0.01-0.043-0.014-0.09-0.024-0.132
		c0-0.002-0.001-0.003-0.002-0.005c-0.044-0.17-0.103-0.333-0.162-0.495c-0.022-0.061-0.042-0.124-0.067-0.185
		c-0.027-0.068-0.045-0.141-0.075-0.208c-0.248-0.514-0.472-1-0.939-1.485l-0.656-0.734c-0.24-0.241-0.39-0.508-0.724-0.73
		c-0.846-0.654-1.728-1.348-2.618-1.98l-0.675-0.49l-0.341-0.247l-0.22-0.169l-0.771-0.6c-1.027-0.787-2.061-1.58-3.099-2.377
		c-2.07-1.574-4.118-3.14-6.093-4.728c-0.983-0.796-1.949-1.597-2.888-2.408l-0.696-0.613l-0.769-0.665
		c-0.589-0.49-1.172-1.008-1.779-1.441c-2.406-1.821-4.918-3.285-7.454-4.512c-3.22-1.377-6.582-2.326-10.024-3.139
		c-0.237-0.054-0.477-0.107-0.714-0.16c-0.041-0.017-0.083-0.034-0.124-0.051c-3.229-0.731-6.502-1.399-9.994-2.075
		c-0.836-0.161-1.06,0.603-1.169,0.986c0.215,0.202,0.41,0.407,0.596,0.613c1.029,6.708,1.606,13.332,1.918,19.927
		c0.001,0.021,0.002,0.042,0.003,0.062c0.152,3.231,0.24,6.456,0.294,9.682c0.031,1.879,0.052,3.758,0.063,5.64
		c0.007,1.274,0.009,2.549,0.01,3.825c0.002,1.364,0.006,2.726,0.004,4.094c-0.009,1.68-0.019,3.363-0.028,5.05
		c-0.001,0.896,0.068,1.731,0.1,2.595l0.062,1.282l0.032,0.639l0.016,0.319c-0.022,0.082,0.077,0.022,0.121,0.027l0.167-0.027
		c1.156-0.184,2.268-0.386,3.375-0.605c0.011,0.005,0.021,0.009,0.032,0.014c0.821-0.157,1.648-0.352,2.476-0.571
		c0.223-0.057,0.446-0.111,0.669-0.175l0.222-0.07c0.084-0.025,0.168-0.043,0.252-0.069c0.604-0.19,1.2-0.368,1.796-0.596
		l0.727-0.276l0.631-0.264c3.887-1.631,7.404-3.578,10.868-5.41c0.938-0.494,1.874-0.972,2.811-1.453
		c1.576-0.81,3.151-1.6,4.726-2.375c0.437-0.215,0.874-0.435,1.311-0.647c1.925-0.936,3.85-1.85,5.779-2.737
		c1.669-0.766,3.34-1.514,5.013-2.244l0.699-0.31l0.962-0.445l1.963-0.905c0.059-0.025,0.111-0.055,0.169-0.081
		c0.014-0.007,0.027-0.013,0.041-0.02c0.433-0.194,0.836-0.409,1.214-0.636c0.111-0.065,0.222-0.129,0.327-0.196
		c0.144-0.093,0.274-0.188,0.407-0.284c0.046-0.034,0.101-0.066,0.145-0.101c0.024-0.019,0.044-0.037,0.068-0.056
		c0.334-0.253,0.644-0.509,0.897-0.764c0.384-0.384,0.721-0.791,0.969-1.342C167.998,146.497,168.09,145.814,168.036,145.213z
		 M129.668,160.78c-0.79,0.453-1.581,0.896-2.383,1.313c-0.2,0.108-0.401,0.212-0.603,0.31c-0.133,0.061-0.109,0.069-0.159,0.102
		l-0.112,0.087c-0.159,0.115-0.337,0.236-0.534,0.359c-0.396,0.24-0.87,0.499-1.429,0.733c-0.278,0.125-0.579,0.232-0.897,0.348
		l-0.12,0.043c-0.012-0.017-0.016-0.046-0.024-0.069l-0.042-0.15l-0.082-0.324c-0.022-0.291-0.027-0.605-0.02-0.925
		c0.001-0.051,0.004-0.103,0.006-0.155c0.007-0.218,0.024-0.438,0.042-0.659c0.014-0.155,0.027-0.311,0.046-0.465
		c0.014-0.117,0.031-0.229,0.048-0.342c0.025-0.172,0.048-0.346,0.078-0.513c0.178-1.716,0.444-3.396,0.683-5.149l-0.004-0.073
		c0.135-0.976,0.267-1.971,0.375-3.011c1.26-10.493-1.576-19.612-3.681-29.736c0.243,0.225,0.505,0.435,0.798,0.62
		c0.258,0.14,0.528,0.268,0.789,0.405c-0.053-0.015-0.106-0.032-0.16-0.047c1.622,0.849,3.304,1.642,5.004,2.428
		c0.029,0.014,0.058,0.027,0.087,0.041c0.409,0.189,0.818,0.381,1.229,0.57c1.512,0.7,3.031,1.401,4.541,2.137
		c1.932,0.94,3.841,1.931,5.61,3.034l1.291,0.851c0.407,0.299,0.813,0.598,1.217,0.895c0.923,0.724,1.914,1.511,2.861,2.22
		c0.551,0.413,1.098,0.823,1.64,1.229c3.457,2.413,6.981,4.531,10.422,6.612l1.283,0.776l0.416,0.227l0.705,0.391
		c0.11,0.069,0.232,0.154,0.326,0.256c0.001,0.001,0.002,0.002,0.003,0.003c0.043,0.047,0.077,0.099,0.104,0.154
		c0.004,0.007,0.008,0.015,0.011,0.022c0.021,0.05,0.03,0.104,0.032,0.161c0,0.016,0.001,0.032-0.001,0.049
		c-0.009,0.055-0.029,0.102-0.055,0.144c-0.009,0.014-0.017,0.028-0.028,0.041c-0.033,0.041-0.072,0.079-0.117,0.111
		c-0.004,0.003-0.008,0.006-0.012,0.009c-0.108,0.075-0.238,0.132-0.346,0.196l-2.789,1.436c-1.782,0.892-3.562,1.782-5.341,2.673
		c-1.101,0.541-2.209,1.065-3.314,1.595c-2.439,1.167-4.884,2.316-7.346,3.423c-0.008,0.004-0.016,0.008-0.025,0.012
		c-0.031,0.014-0.062,0.029-0.094,0.043c-0.322,0.153-0.623,0.32-0.938,0.477c-0.437,0.22-0.878,0.437-1.304,0.664
		C134.645,157.802,132.145,159.358,129.668,160.78z"/>
</g>
</svg>
