<?xml version="1.0" encoding="iso-8859-1"?>
<!-- Generator: Adobe Illustrator 21.1.0, SVG Export Plug-In . SVG Version: 6.00 Build 0)  -->
<svg version="1.1" id="Calque_1" xmlns="http://www.w3.org/2000/svg" xmlns:xlink="http://www.w3.org/1999/xlink" x="0px" y="0px"
	 viewBox="0 0 283.46 283.46" style="enable-background:new 0 0 283.46 283.46;" xml:space="preserve">
<g>
	<path style="fill:#ED2024;" d="M185.758,142.339c0,24.785-20.094,44.879-44.879,44.879S96,167.124,96,142.339
		s20.094-44.879,44.879-44.879S185.758,117.554,185.758,142.339L185.758,142.339z M185.758,142.339"/>
	<path style="fill:#FFFFFF;" d="M165.073,160.006h-48.389c-3.118,0-5.669-2.551-5.669-5.669v-23.214
		c0-3.118,2.551-5.669,5.669-5.669h48.389c3.118,0,5.669,2.551,5.669,5.669v23.214C170.743,157.455,168.191,160.006,165.073,160.006
		z"/>
	<polygon style="fill:#ED2024;" points="133.258,151.345 133.258,131.333 150.202,142.458 	"/>
</g>
</svg>
